<?xml version="1.0" encoding="UTF-8"?>
<!DOCTYPE svg PUBLIC "-//W3C//DTD SVG 1.1//EN" "http://www.w3.org/Graphics/SVG/1.1/DTD/svg11.dtd">
<svg xmlns="http://www.w3.org/2000/svg" version="1.1" width="294px" height="294px" style="shape-rendering:geometricPrecision; text-rendering:geometricPrecision; image-rendering:optimizeQuality; fill-rule:evenodd; clip-rule:evenodd" xmlns:xlink="http://www.w3.org/1999/xlink">
<g><path style="opacity:1" fill="#052795" d="M 138.5,-0.5 C 147.5,-0.5 156.5,-0.5 165.5,-0.5C 227.927,10.7678 269.093,46.4344 289,106.5C 290.458,113.657 291.958,120.657 293.5,127.5C 293.5,140.167 293.5,152.833 293.5,165.5C 282.289,227.876 246.622,269.043 186.5,289C 179.343,290.458 172.343,291.958 165.5,293.5C 152.833,293.5 140.167,293.5 127.5,293.5C 72.3073,284.331 33.1406,254.331 10,203.5C 7.45638,197.703 5.62304,191.703 4.5,185.5C 4.44923,180.813 3.44923,176.479 1.5,172.5C 1.27852,169.933 0.611848,167.599 -0.5,165.5C -0.5,152.833 -0.5,140.167 -0.5,127.5C 1.10265,121.677 2.43599,115.677 3.5,109.5C 9.65977,104.92 15.9931,100.586 22.5,96.5C 25.1667,95.8333 27.8333,95.1667 30.5,94.5C 30.1714,107.011 30.5048,119.345 31.5,131.5C 31.8333,131.5 32.1667,131.5 32.5,131.5C 34.1667,131.5 35.8333,131.5 37.5,131.5C 45.5,131.5 53.5,131.5 61.5,131.5C 61.8333,131.5 62.1667,131.5 62.5,131.5C 63.8333,131.5 65.1667,131.5 66.5,131.5C 66.8395,117.969 67.8395,104.635 69.5,91.5C 87.6522,104.804 105.986,117.97 124.5,131C 126.667,131.167 128.833,131.333 131,131.5C 133.61,131.467 135.777,130.8 137.5,129.5C 138.833,127.167 138.833,124.833 137.5,122.5C 137.5,122.167 137.5,121.833 137.5,121.5C 137.98,118.315 137.314,115.481 135.5,113C 121.964,104.07 108.631,94.9037 95.5,85.5C 109.657,84.5041 123.99,84.1707 138.5,84.5C 138.802,81.9407 138.468,79.6074 137.5,77.5C 137.5,69.1667 137.5,60.8333 137.5,52.5C 138.468,50.3926 138.802,48.0593 138.5,45.5C 124.163,45.6666 109.829,45.4999 95.5,45C 109.682,34.9701 123.682,24.8035 137.5,14.5C 138.487,9.69463 138.821,4.69463 138.5,-0.5 Z"/></g>
<g><path style="opacity:1" fill="#7a7bb5" d="M 137.5,-0.5 C 137.833,-0.5 138.167,-0.5 138.5,-0.5C 138.821,4.69463 138.487,9.69463 137.5,14.5C 137.813,10.9581 137.479,7.62482 136.5,4.5C 137.301,2.95819 137.634,1.29152 137.5,-0.5 Z"/></g>
<g><path style="opacity:0.966" fill="#072795" d="M 122.5,0.5 C 104.537,13.1542 86.5375,25.8209 68.5,38.5C 67.5111,33.0247 67.1778,27.358 67.5,21.5C 84.4756,11.1712 102.809,4.17118 122.5,0.5 Z"/></g>
<g><path style="opacity:1" fill="#f51f19" d="M 132.5,-0.5 C 134.167,-0.5 135.833,-0.5 137.5,-0.5C 137.634,1.29152 137.301,2.95819 136.5,4.5C 116.659,17.9202 96.9922,31.5868 77.5,45.5C 74.6146,45.8064 71.9479,45.4731 69.5,44.5C 90.8018,29.8559 111.802,14.8559 132.5,-0.5 Z"/></g>
<g><path style="opacity:1" fill="#6881bb" d="M 67.5,21.5 C 67.1778,27.358 67.5111,33.0247 68.5,38.5C 68.44,39.0431 68.1067,39.3764 67.5,39.5C 66.5046,33.8722 66.1712,28.2055 66.5,22.5C 66.5,21.8333 66.8333,21.5 67.5,21.5 Z"/></g>
<g><path style="opacity:0.994" fill="#fc0304" d="M 61.5,26.5 C 61.5,35.1667 61.5,43.8333 61.5,52.5C 86.8333,52.5 112.167,52.5 137.5,52.5C 137.5,60.8333 137.5,69.1667 137.5,77.5C 112.167,77.5 86.8333,77.5 61.5,77.5C 61.5,95.5 61.5,113.5 61.5,131.5C 53.5,131.5 45.5,131.5 37.5,131.5C 37.5,113.5 37.5,95.5 37.5,77.5C 30.5,77.5 23.5,77.5 16.5,77.5C 20.5679,68.3659 25.9013,60.0326 32.5,52.5C 34.1667,52.5 35.8333,52.5 37.5,52.5C 37.5,50.8333 37.5,49.1667 37.5,47.5C 44.2334,39.1031 52.2334,32.1031 61.5,26.5 Z"/></g>
<g><path style="opacity:1" fill="#f5f5f6" d="M 127.5,-0.5 C 129.167,-0.5 130.833,-0.5 132.5,-0.5C 111.802,14.8559 90.8018,29.8559 69.5,44.5C 68.9569,44.56 68.6236,44.8933 68.5,45.5C 71.6447,46.8032 74.6447,46.8032 77.5,45.5C 96.9922,31.5868 116.659,17.9202 136.5,4.5C 137.479,7.62482 137.813,10.9581 137.5,14.5C 123.682,24.8035 109.682,34.9701 95.5,45C 109.829,45.4999 124.163,45.6666 138.5,45.5C 138.802,48.0593 138.468,50.3926 137.5,52.5C 112.672,51.5023 87.6722,51.169 62.5,51.5C 62.5,42.8333 62.5,34.1667 62.5,25.5C 63.4363,24.0256 64.7697,23.0256 66.5,22.5C 66.1712,28.2055 66.5046,33.8722 67.5,39.5C 68.1067,39.3764 68.44,39.0431 68.5,38.5C 86.5375,25.8209 104.537,13.1542 122.5,0.5C 124.415,0.784479 126.081,0.451145 127.5,-0.5 Z"/></g>
<g><path style="opacity:1" fill="#eaedf4" d="M 227.5,41.5 C 225.786,42.7384 223.786,43.405 221.5,43.5C 221.795,45.7354 221.461,47.7354 220.5,49.5C 218.903,48.9095 217.569,47.9095 216.5,46.5C 215.145,47.1882 214.145,48.1882 213.5,49.5C 211.94,47.8439 210.94,45.8439 210.5,43.5C 208.25,43.8186 206.25,43.3186 204.5,42C 206.717,40.7316 208.717,39.2316 210.5,37.5C 209.167,35.8333 207.833,34.1667 206.5,32.5C 209.044,32.0509 211.71,32.0509 214.5,32.5C 215.547,26.0243 217.214,25.8577 219.5,32C 221.568,32.6869 223.568,32.5202 225.5,31.5C 225.833,32 226.167,32.5 226.5,33C 225.5,34.6667 224.5,36.3333 223.5,38C 224.686,39.4121 226.019,40.5788 227.5,41.5 Z"/></g>
<g><path style="opacity:1" fill="#fb8b8e" d="M 69.5,44.5 C 71.9479,45.4731 74.6146,45.8064 77.5,45.5C 74.6447,46.8032 71.6447,46.8032 68.5,45.5C 68.6236,44.8933 68.9569,44.56 69.5,44.5 Z"/></g>
<g><path style="opacity:1" fill="#6579bc" d="M 227.5,41.5 C 228.774,42.1894 228.774,43.0228 227.5,44C 225.866,44.4935 224.199,44.6602 222.5,44.5C 222.808,46.924 222.474,49.2573 221.5,51.5C 220.702,51.0431 220.369,50.3764 220.5,49.5C 221.461,47.7354 221.795,45.7354 221.5,43.5C 223.786,43.405 225.786,42.7384 227.5,41.5 Z"/></g>
<g><path style="opacity:1" fill="#6b82b4" d="M 210.5,43.5 C 210.94,45.8439 211.94,47.8439 213.5,49.5C 212.791,50.404 211.791,50.7373 210.5,50.5C 210.5,48.1667 210.5,45.8333 210.5,43.5 Z"/></g>
<g><path style="opacity:0.765" fill="#fcc9ca" d="M 37.5,47.5 C 37.5,49.1667 37.5,50.8333 37.5,52.5C 35.8333,52.5 34.1667,52.5 32.5,52.5C 33.8333,50.5 35.5,48.8333 37.5,47.5 Z"/></g>
<g><path style="opacity:1" fill="#fec8c3" d="M 62.5,25.5 C 62.5,34.1667 62.5,42.8333 62.5,51.5C 87.6722,51.169 112.672,51.5023 137.5,52.5C 112.167,52.5 86.8333,52.5 61.5,52.5C 61.5,43.8333 61.5,35.1667 61.5,26.5C 61.5,25.8333 61.8333,25.5 62.5,25.5 Z"/></g>
<g><path style="opacity:1" fill="#f9d5d1" d="M 137.5,77.5 C 137.5,77.8333 137.5,78.1667 137.5,78.5C 112.5,78.5 87.5,78.5 62.5,78.5C 62.5,96.1667 62.5,113.833 62.5,131.5C 62.1667,131.5 61.8333,131.5 61.5,131.5C 61.5,113.5 61.5,95.5 61.5,77.5C 86.8333,77.5 112.167,77.5 137.5,77.5 Z"/></g>
<g><path style="opacity:1" fill="#faecea" d="M 16.5,77.5 C 23.5,77.5 30.5,77.5 37.5,77.5C 37.5,95.5 37.5,113.5 37.5,131.5C 35.8333,131.5 34.1667,131.5 32.5,131.5C 32.8326,117.484 32.4992,103.484 31.5,89.5C 30.8933,89.6236 30.56,89.9569 30.5,90.5C 27.5265,92.1468 24.8599,94.1468 22.5,96.5C 15.9931,100.586 9.65977,104.92 3.5,109.5C 4.33071,106.341 5.33071,103.341 6.5,100.5C 14.1487,95.192 21.8153,89.8586 29.5,84.5C 26.5541,83.3452 23.5541,83.1786 20.5,84C 17.1512,87.0045 13.4845,89.5045 9.5,91.5C 11.3255,86.5156 13.6589,81.8489 16.5,77.5 Z"/></g>
<g><path style="opacity:1" fill="#f6f5f6" d="M 137.5,78.5 C 137.5,80.1667 137.5,81.8333 137.5,83.5C 123.151,83.1674 108.818,83.5007 94.5,84.5C 94.6236,85.1067 94.9569,85.44 95.5,85.5C 108.631,94.9037 121.964,104.07 135.5,113C 137.314,115.481 137.98,118.315 137.5,121.5C 119.182,109.671 101.182,97.3374 83.5,84.5C 80.6447,83.1968 77.6447,83.1968 74.5,84.5C 74.6236,85.1067 74.9569,85.44 75.5,85.5C 95.5,99.8333 115.5,114.167 135.5,128.5C 135.842,129.338 136.508,129.672 137.5,129.5C 135.777,130.8 133.61,131.467 131,131.5C 128.833,131.333 126.667,131.167 124.5,131C 105.986,117.97 87.6522,104.804 69.5,91.5C 68.791,90.596 67.791,90.2627 66.5,90.5C 66.5,104.167 66.5,117.833 66.5,131.5C 65.1667,131.5 63.8333,131.5 62.5,131.5C 62.5,113.833 62.5,96.1667 62.5,78.5C 87.5,78.5 112.5,78.5 137.5,78.5 Z"/></g>
<g><path style="opacity:1" fill="#f97b83" d="M 83.5,84.5 C 80.6146,84.1936 77.9479,84.5269 75.5,85.5C 74.9569,85.44 74.6236,85.1067 74.5,84.5C 77.6447,83.1968 80.6447,83.1968 83.5,84.5 Z"/></g>
<g><path style="opacity:1" fill="#abbcd8" d="M 137.5,77.5 C 138.468,79.6074 138.802,81.9407 138.5,84.5C 123.99,84.1707 109.657,84.5041 95.5,85.5C 94.9569,85.44 94.6236,85.1067 94.5,84.5C 108.818,83.5007 123.151,83.1674 137.5,83.5C 137.5,81.8333 137.5,80.1667 137.5,78.5C 137.5,78.1667 137.5,77.8333 137.5,77.5 Z"/></g>
<g><path style="opacity:1" fill="#f6231c" d="M 6.5,100.5 C 7.21632,97.4018 8.21632,94.4018 9.5,91.5C 13.4845,89.5045 17.1512,87.0045 20.5,84C 23.5541,83.1786 26.5541,83.3452 29.5,84.5C 21.8153,89.8586 14.1487,95.192 6.5,100.5 Z"/></g>
<g><path style="opacity:1" fill="#2d45a4" d="M 30.5,90.5 C 31.4957,103.99 31.829,117.656 31.5,131.5C 30.5048,119.345 30.1714,107.011 30.5,94.5C 27.8333,95.1667 25.1667,95.8333 22.5,96.5C 24.8599,94.1468 27.5265,92.1468 30.5,90.5 Z"/></g>
<g><path style="opacity:1" fill="#aab5e0" d="M 30.5,90.5 C 30.56,89.9569 30.8933,89.6236 31.5,89.5C 32.4992,103.484 32.8326,117.484 32.5,131.5C 32.1667,131.5 31.8333,131.5 31.5,131.5C 31.829,117.656 31.4957,103.99 30.5,90.5 Z"/></g>
<g><path style="opacity:1" fill="#6980bb" d="M 69.5,91.5 C 67.8395,104.635 66.8395,117.969 66.5,131.5C 66.5,117.833 66.5,104.167 66.5,90.5C 67.791,90.2627 68.791,90.596 69.5,91.5 Z"/></g>
<g><path style="opacity:1" fill="#eef1f5" d="M 255.5,91.5 C 257.052,93.0354 258.385,94.8687 259.5,97C 261.811,96.8446 264.144,96.8446 266.5,97C 262.138,101.262 262.805,104.596 268.5,107C 266.187,107.662 263.854,108.162 261.5,108.5C 261.799,110.604 261.466,112.604 260.5,114.5C 257.036,110.318 254.036,110.651 251.5,115.5C 250.52,112.914 250.187,110.247 250.5,107.5C 248.473,107.662 246.473,107.495 244.5,107C 246.188,105.312 247.855,103.645 249.5,102C 248.711,100.374 247.711,98.8745 246.5,97.5C 248.731,97.1133 251.064,96.9466 253.5,97C 254.244,95.1852 254.911,93.3519 255.5,91.5 Z"/></g>
<g><path style="opacity:1" fill="#f61c16" d="M 75.5,85.5 C 77.9479,84.5269 80.6146,84.1936 83.5,84.5C 101.182,97.3374 119.182,109.671 137.5,121.5C 137.5,121.833 137.5,122.167 137.5,122.5C 137.975,125.082 137.308,127.082 135.5,128.5C 115.5,114.167 95.5,99.8333 75.5,85.5 Z"/></g>
<g><path style="opacity:1" fill="#e6e9f2" d="M 163.5,120.5 C 162.737,119.732 161.737,119.232 160.5,119C 161.056,118.617 161.389,118.117 161.5,117.5C 163.674,115.03 163.674,112.363 161.5,109.5C 163.075,108.554 164.742,108.554 166.5,109.5C 168.473,108.194 170.139,106.527 171.5,104.5C 172.95,105.85 173.617,107.516 173.5,109.5C 176.29,109.051 178.956,109.051 181.5,109.5C 179.926,110.984 178.593,112.651 177.5,114.5C 179.283,116.232 181.283,117.732 183.5,119C 181.26,119.977 178.927,120.477 176.5,120.5C 176.808,122.924 176.474,125.257 175.5,127.5C 172.674,122.377 169.674,122.377 166.5,127.5C 166.062,124.705 165.062,122.372 163.5,120.5 Z"/></g>
<g><path style="opacity:1" fill="#718cbe" d="M 161.5,117.5 C 161.389,118.117 161.056,118.617 160.5,119C 161.737,119.232 162.737,119.732 163.5,120.5C 161.571,120.769 159.905,120.269 158.5,119C 159.244,117.961 160.244,117.461 161.5,117.5 Z"/></g>
<g><path style="opacity:1" fill="#832252" d="M 137.5,122.5 C 138.833,124.833 138.833,127.167 137.5,129.5C 136.508,129.672 135.842,129.338 135.5,128.5C 137.308,127.082 137.975,125.082 137.5,122.5 Z"/></g>
<g><path style="opacity:1" fill="#e6eaef" d="M 233.5,140.5 C 235.471,142.152 237.804,143.319 240.5,144C 239.228,146.044 239.561,147.878 241.5,149.5C 240.311,150.429 238.978,150.762 237.5,150.5C 237.719,151.675 237.386,152.675 236.5,153.5C 234.958,152.253 233.458,152.253 232,153.5C 231.729,150.728 230.229,149.062 227.5,148.5C 229.005,147.158 229.672,145.492 229.5,143.5C 230.833,143.5 232.167,143.5 233.5,143.5C 233.5,142.5 233.5,141.5 233.5,140.5 Z"/></g>
<g><path style="opacity:1" fill="#f3f5f7" d="M 49.5,155.5 C 50.4959,155.414 51.3292,155.748 52,156.5C 53.0251,161.078 54.5251,165.412 56.5,169.5C 61.6225,168.636 66.6225,167.303 71.5,165.5C 72.1667,165.833 72.8333,166.167 73.5,166.5C 70.2261,170.275 67.5594,174.441 65.5,179C 66.4394,180.944 67.7727,182.611 69.5,184C 72.772,185.608 75.772,187.608 78.5,190C 73.1368,190.727 67.8034,191.561 62.5,192.5C 62.8282,197.875 62.4948,203.208 61.5,208.5C 57.1774,205.674 53.344,202.341 50,198.5C 46.0139,201.652 42.1806,204.986 38.5,208.5C 38.2609,203.268 38.2609,197.935 38.5,192.5C 33.0727,191.988 27.7394,190.988 22.5,189.5C 26.8093,186.198 31.1426,182.864 35.5,179.5C 33.421,175.007 31.0877,170.674 28.5,166.5C 29,166.167 29.5,165.833 30,165.5C 34.6013,167.859 39.4347,169.026 44.5,169C 46.2484,164.489 47.9151,159.989 49.5,155.5 Z"/></g>
<g><path style="opacity:0.714" fill="#4e5da7" d="M 1.5,172.5 C 3.44923,176.479 4.44923,180.813 4.5,185.5C 2.88157,181.425 1.88157,177.092 1.5,172.5 Z"/></g>
<g><path style="opacity:1" fill="#566dba" d="M 222.5,192.5 C 223.601,191.402 224.934,191.235 226.5,192C 224.49,195.028 224.49,197.861 226.5,200.5C 225.504,200.586 224.671,200.252 224,199.5C 223.424,197.623 223.591,195.789 224.5,194C 224.164,192.97 223.497,192.47 222.5,192.5 Z"/></g>
<g><path style="opacity:1" fill="#eef1f4" d="M 222.5,192.5 C 223.497,192.47 224.164,192.97 224.5,194C 223.591,195.789 223.424,197.623 224,199.5C 224.671,200.252 225.504,200.586 226.5,200.5C 228.105,201.006 228.439,201.673 227.5,202.5C 225.5,202.5 223.5,202.5 221.5,202.5C 222.01,205.388 221.344,207.721 219.5,209.5C 219.167,208.5 218.5,207.833 217.5,207.5C 215.243,206.197 213.41,206.864 212,209.5C 211.809,207.292 211.309,205.292 210.5,203.5C 208.073,203.477 205.74,202.977 203.5,202C 205.812,200.686 207.812,199.019 209.5,197C 208.516,195.343 207.516,193.677 206.5,192C 208.179,191.605 209.845,191.772 211.5,192.5C 213.386,191.07 215.053,189.403 216.5,187.5C 218.217,188.668 218.884,190.335 218.5,192.5C 219.833,192.5 221.167,192.5 222.5,192.5 Z"/></g>
<g><path style="opacity:1" fill="#667abc" d="M 227.5,202.5 C 226.081,203.451 224.415,203.784 222.5,203.5C 222.5,205.833 222.5,208.167 222.5,210.5C 221.209,210.737 220.209,210.404 219.5,209.5C 221.344,207.721 222.01,205.388 221.5,202.5C 223.5,202.5 225.5,202.5 227.5,202.5 Z"/></g>
<g><path style="opacity:1" fill="#5f6fb3" d="M 210.5,203.5 C 211.309,205.292 211.809,207.292 212,209.5C 213.41,206.864 215.243,206.197 217.5,207.5C 215.372,208.957 213.038,209.957 210.5,210.5C 210.5,208.167 210.5,205.833 210.5,203.5 Z"/></g>
</svg>
