<!DOCTYPE svg PUBLIC "-//W3C//DTD SVG 1.1//EN" "http://www.w3.org/Graphics/SVG/1.1/DTD/svg11.dtd">
<!-- Uploaded to: SVG Repo, www.svgrepo.com, Transformed by: SVG Repo Mixer Tools -->
<svg version="1.1" id="_x32_" xmlns="http://www.w3.org/2000/svg" xmlns:xlink="http://www.w3.org/1999/xlink" width="800px" height="800px" viewBox="0 0 512 512" xml:space="preserve" fill="#000000">
<g id="SVGRepo_bgCarrier" stroke-width="0"/>
<g id="SVGRepo_tracerCarrier" stroke-linecap="round" stroke-linejoin="round"/>
<g id="SVGRepo_iconCarrier"> <style type="text/css">  .st0{fill:#FFCD29;}  </style> <g> <path class="st0" d="M475.656,198.255H297.953c-3.203,0-39.578,0-42.891,0c-14,0-37.188-4.25-20.578-27.375l57.484-48.422 c17.5-14.734,19.719-40.859,5.016-58.328c-14.75-17.5-40.859-19.734-58.359-5.031l-115.781,97.5 c-23.906,19.328-37.625,33.125-57.781,51.734C28.906,241.677,0,272.287,0,324.896c0,76.062,61.656,137.718,137.719,137.718H311.5 c20.078,0,36.344-16.266,36.344-36.328c0-10.844-4.828-20.453-12.359-27.125h5.672c20.063,0,36.328-16.25,36.328-36.328 c0-11.266-5.219-21.188-13.266-27.859c16.531-3.406,28.984-18.031,28.984-35.578c0-11.609-5.547-21.828-14.016-28.469h96.469 c20.063,0,36.344-16.266,36.344-36.328S495.719,198.255,475.656,198.255z"/> </g> </g>
</svg>