<?xml version="1.0" ?>
<!-- Uploaded to: SVG Repo, www.svgrepo.com, Generator: SVG Repo Mixer Tools -->
<svg width="800px" height="800px" viewBox="0 0 64 64" xmlns="http://www.w3.org/2000/svg">
<g id="a"/>
<g id="b"/>
<g id="c"/>
<g id="d"/>
<g id="e"/>
<g id="f"/>
<g id="g"/>
<g id="h"/>
<g id="i"/>
<g id="j"/>
<g id="k"/>
<g id="l"/>
<g id="m"/>
<g id="n"/>
<g id="o"/>
<g id="p"/>
<g id="q"/>
<g id="r"/>
<g id="s"/>
<g id="t"/>
<g id="u"/>
<g id="v"/>
<g id="w"/>
<g id="x"/>
<g id="y"/>
<g id="a`"/>
<g id="aa">
<polygon fill="#758797" fill-rule="evenodd" points="19.49 45.85 19.49 38.85 23.83 38.85 23.83 44.99 19.49 45.85"/>
<polygon fill="#758797" fill-rule="evenodd" points="44.51 45.85 44.51 38.85 40.17 38.85 40.17 44.99 44.51 45.85"/>
<rect fill="#758797" height="6.34" width="4.34" x="19.49" y="29.7"/>
<rect fill="#758797" height="6.34" width="4.34" x="29.83" y="29.7"/>
<rect fill="#758797" height="6.34" width="4.34" x="40.17" y="29.7"/>
<path d="M46.79,29.99c.66,6.57,3.1,11.44,6.01,11.44,3.42,0,6.2-6.74,6.2-15.05s-2.77-15.05-6.2-15.05c-2.81,0-5.18,4.54-5.94,10.76l-.08,7.89Z" fill="#9af6d3" fill-rule="evenodd"/>
<path d="M17.13,22.1c-.76-6.22-3.13-10.76-5.94-10.76-3.42,0-6.2,6.74-6.2,15.05s2.77,15.05,6.2,15.05c2.91,0,5.35-4.87,6.01-11.44l-.08-7.89Z" fill="#9af6d3" fill-rule="evenodd"/>
<path d="M38.87,8.63c-2.94,0-5.32,5.79-5.32,12.94l4.22,3.48,6.43-3.48c0-7.15-2.38-12.94-5.33-12.94Zm-13.74,0c-2.94,0-5.32,5.79-5.32,12.94l6.27,3.78,4.38-3.78c0-7.15-2.39-12.94-5.33-12.94Z" fill="#9af6d3" fill-rule="evenodd"/>
<path d="M18.61,35.28h26.78c1.3,0,2.35,1.05,2.35,2.35s-1.05,2.35-2.35,2.35H18.61c-1.3,0-2.35-1.05-2.35-2.35s1.05-2.35,2.35-2.35Z" fill="#9dacb9" fill-rule="evenodd"/>
<path d="M38.87,14.29c-.55,0-1,.45-1,1v6.28c0,.55,.45,1,1,1s1-.45,1-1v-6.28c0-.55-.45-1-1-1Z" fill="#e9a696" fill-rule="evenodd"/>
<path d="M25.13,14.29c-.55,0-1,.45-1,1v6.28c0,.55,.45,1,1,1s1-.45,1-1v-6.28c0-.55-.45-1-1-1Z" fill="#e9a696" fill-rule="evenodd"/>
<rect fill="#9dacb9" height="8.89" rx="2.35" ry="2.35" width="31.47" x="16.26" y="21.57"/>
<path d="M52.81,19.22c-.55,0-1,.45-1,1v2.05l-.7-.59c-.2-.17-.46-.26-.73-.24-.26,.02-.51,.15-.68,.35-.36,.42-.31,1.05,.11,1.41l2,1.7v24.17c0,.55,.45,1,1,1s1-.45,1-1v-16.58l2.62-2.42c.4-.38,.43-1.01,.05-1.41-.18-.19-.43-.31-.69-.32-.27-.01-.52,.08-.72,.26l-1.26,1.16v-9.55c0-.55-.45-1-1-1Z" fill="#e9a696" fill-rule="evenodd"/>
<path d="M11.2,19.22c-.55,0-1,.45-1,1v7.38l-1.35-1.25c-.2-.18-.45-.27-.72-.26-.27,.01-.52,.12-.7,.32-.38,.41-.35,1.04,.06,1.41l2.71,2.5v18.76c0,.55,.45,1,1,1s1-.45,1-1V20.22c0-.55-.45-1-1-1Z" fill="#e9a696" fill-rule="evenodd"/>
<path d="M32,43.77c-20.26,0-27,6.13-27,9.08,0,1.4,1.25,2.53,2.8,2.53H56.2c1.55,0,2.8-1.13,2.8-2.53,0-2.95-6.74-9.08-27-9.08Z" fill="#9af6d3" fill-rule="evenodd"/>
<circle cx="45.21" cy="51.38" fill="#3aedbc" r="1"/>
<circle cx="35.76" cy="47.93" fill="#3aedbc" r="1"/>
<circle cx="29.75" cy="51.82" fill="#3aedbc" r="1"/>
<circle cx="17.81" cy="49.61" fill="#3aedbc" r="1"/>
</g>
<g id="ab"/>
<g id="ac"/>
<g id="ad"/>
<g id="ae"/>
<g id="af"/>
<g id="ag"/>
<g id="ah"/>
<g id="ai"/>
<g id="aj"/>
<g id="ak"/>
<g id="al"/>
<g id="am"/>
<g id="an"/>
<g id="ao"/>
<g id="ap"/>
<g id="aq"/>
<g id="ar"/>
<g id="as"/>
<g id="at"/>
<g id="au"/>
<g id="av"/>
<g id="aw"/>
<g id="ax"/>
</svg>