<?xml version="1.0" encoding="UTF-8"?>
<!DOCTYPE svg PUBLIC "-//W3C//DTD SVG 1.1//EN" "http://www.w3.org/Graphics/SVG/1.1/DTD/svg11.dtd">
<svg xmlns="http://www.w3.org/2000/svg" version="1.1" width="317px" height="317px" style="shape-rendering:geometricPrecision; text-rendering:geometricPrecision; image-rendering:optimizeQuality; fill-rule:evenodd; clip-rule:evenodd" xmlns:xlink="http://www.w3.org/1999/xlink">
<g><path style="opacity:1" fill="#f49626" d="M 140.5,-0.5 C 152.167,-0.5 163.833,-0.5 175.5,-0.5C 240.342,9.67571 284.676,45.3424 308.5,106.5C 208.332,106.833 108.332,106.499 8.5,105.5C 24.4947,61.6689 53.8281,30.1689 96.5,11C 110.884,5.57198 125.551,1.73864 140.5,-0.5 Z"/></g>
<g><path style="opacity:0.997" fill="#f0f0f0" d="M 8.5,105.5 C 108.332,106.499 208.332,106.833 308.5,106.5C 312.142,117.727 314.808,129.06 316.5,140.5C 316.5,152.167 316.5,163.833 316.5,175.5C 314.626,188 311.626,200.333 307.5,212.5C 207.833,212.5 108.167,212.5 8.5,212.5C 4.37328,200.329 1.37328,187.996 -0.5,175.5C -0.5,163.833 -0.5,152.167 -0.5,140.5C 1.08846,128.48 4.08846,116.813 8.5,105.5 Z"/></g>
<g><path style="opacity:1" fill="#1a63c7" d="M 150.5,111.5 C 180.008,109.318 198.841,122.318 207,150.5C 209.533,176.28 199.033,194.447 175.5,205C 149.401,211.642 129.567,203.476 116,180.5C 105.208,146.084 116.708,123.084 150.5,111.5 Z"/></g>
<g><path style="opacity:1" fill="#ebedef" d="M 154.5,147.5 C 150.357,141.232 146.19,134.899 142,128.5C 144.819,136.133 148.152,143.466 152,150.5C 146.679,145.012 141.179,139.679 135.5,134.5C 134.479,135.002 134.312,135.668 135,136.5C 140.221,141.721 145.387,146.887 150.5,152C 143.466,148.152 136.133,144.819 128.5,142C 134.738,146.423 141.072,150.589 147.5,154.5C 138.106,152.648 128.772,150.815 119.5,149C 129.617,152.779 139.951,155.779 150.5,158C 141.506,158.5 132.506,158.666 123.5,158.5C 121.5,158.5 119.5,158.5 117.5,158.5C 118.445,157.007 119.445,155.507 120.5,154C 118.722,151.775 118.222,149.275 119,146.5C 120.011,145.663 121.178,145.33 122.5,145.5C 120.607,140.207 122.441,136.873 128,135.5C 127.39,129.44 129.89,126.94 135.5,128C 136.873,122.441 140.207,120.607 145.5,122.5C 145.33,121.178 145.663,120.011 146.5,119C 149.275,118.222 151.775,118.722 154,120.5C 155.584,120.012 156.751,119.012 157.5,117.5C 158.666,128.485 158.832,139.485 158,150.5C 155.779,139.951 152.779,129.617 149,119.5C 150.815,128.775 152.649,138.108 154.5,147.5 Z"/></g>
<g><path style="opacity:1" fill="#bed0e8" d="M 154.5,147.5 C 155.848,148.527 156.348,149.86 156,151.5C 154.812,150.437 154.312,149.103 154.5,147.5 Z"/></g>
<g><path style="opacity:1" fill="#b8c9e6" d="M 164.5,147.5 C 164.688,149.103 164.188,150.437 163,151.5C 162.652,149.86 163.152,148.527 164.5,147.5 Z"/></g>
<g><path style="opacity:1" fill="#bed0e7" d="M 147.5,154.5 C 149.103,154.312 150.437,154.812 151.5,156C 149.86,156.348 148.527,155.848 147.5,154.5 Z"/></g>
<g><path style="opacity:1" fill="#87b3dd" d="M 117.5,158.5 C 119.5,158.5 121.5,158.5 123.5,158.5C 123.5,159.167 123.5,159.833 123.5,160.5C 121.5,160.5 119.5,160.5 117.5,160.5C 117.5,159.833 117.5,159.167 117.5,158.5 Z"/></g>
<g><path style="opacity:1" fill="#83adde" d="M 194.5,158.5 C 196.604,158.201 198.604,158.534 200.5,159.5C 198.257,160.474 195.924,160.808 193.5,160.5C 193.833,159.833 194.167,159.167 194.5,158.5 Z"/></g>
<g><path style="opacity:1" fill="#eff0f0" d="M 117.5,160.5 C 119.5,160.5 121.5,160.5 123.5,160.5C 132.506,160.334 141.506,160.5 150.5,161C 140.172,163.22 130.005,166.053 120,169.5C 119.5,169.167 119,168.833 118.5,168.5C 119.383,167.452 120.05,166.285 120.5,165C 119.445,163.493 118.445,161.993 117.5,160.5 Z"/></g>
<g><path style="opacity:1" fill="#eceeef" d="M 193.5,160.5 C 195.924,160.808 198.257,160.474 200.5,159.5C 198.604,158.534 196.604,158.201 194.5,158.5C 185.827,158.666 177.16,158.5 168.5,158C 178.957,155.403 189.291,152.403 199.5,149C 188.583,150.449 177.916,152.782 167.5,156C 175.634,152.1 183.3,147.433 190.5,142C 182.867,144.819 175.534,148.152 168.5,152C 173.682,146.985 178.682,141.819 183.5,136.5C 183.333,136.167 183.167,135.833 183,135.5C 177.365,140.133 172.032,145.133 167,150.5C 170.848,143.466 174.181,136.133 177,128.5C 172.577,134.738 168.411,141.072 164.5,147.5C 166.352,138.106 168.185,128.772 170,119.5C 166.189,129.599 163.189,139.932 161,150.5C 160.168,139.485 160.334,128.485 161.5,117.5C 162.249,119.012 163.416,120.012 165,120.5C 167.225,118.722 169.725,118.222 172.5,119C 173.337,120.011 173.67,121.178 173.5,122.5C 178.793,120.607 182.127,122.441 183.5,128C 185.5,128.333 187.5,128.667 189.5,129C 190.264,131.069 190.764,133.236 191,135.5C 193.514,136.089 195.514,137.422 197,139.5C 197.333,141.047 196.833,142.38 195.5,143.5C 196.655,144.95 198.155,145.95 200,146.5C 200.778,149.275 200.278,151.775 198.5,154C 200.046,155.473 201.046,157.306 201.5,159.5C 201.046,161.694 200.046,163.527 198.5,165C 198.95,166.285 199.617,167.452 200.5,168.5C 200,168.833 199.5,169.167 199,169.5C 188.886,166.462 178.72,163.629 168.5,161C 176.827,160.5 185.16,160.334 193.5,160.5 Z"/></g>
<g><path style="opacity:1" fill="#d0ddeb" d="M 154.5,171.5 C 154.312,169.897 154.812,168.563 156,167.5C 156.348,169.14 155.848,170.473 154.5,171.5 Z"/></g>
<g><path style="opacity:1" fill="#d7e1e8" d="M 164.5,171.5 C 163.152,170.473 162.652,169.14 163,167.5C 164.188,168.563 164.688,169.897 164.5,171.5 Z"/></g>
<g><path style="opacity:1" fill="#ebedef" d="M 164.5,171.5 C 168.892,177.934 173.059,184.601 177,191.5C 177.654,192.696 178.154,192.696 178.5,191.5C 174.718,182.763 170.052,174.597 164.5,167C 165.094,166.536 165.761,166.369 166.5,166.5C 166.369,165.761 166.536,165.094 167,164.5C 174.597,170.052 182.763,174.718 191.5,178.5C 192.696,178.154 192.696,177.654 191.5,177C 183.48,172.301 175.48,167.634 167.5,163C 177.924,166.055 188.591,168.555 199.5,170.5C 199.5,171.5 199.5,172.5 199.5,173.5C 195.211,173.744 194.544,175.411 197.5,178.5C 196.489,181.635 194.322,183.301 191,183.5C 190.833,188.333 188.333,190.833 183.5,191C 183.301,194.322 181.635,196.489 178.5,197.5C 175.411,194.544 173.744,195.211 173.5,199.5C 172.5,199.5 171.5,199.5 170.5,199.5C 168.628,190.139 166.628,180.805 164.5,171.5 Z"/></g>
<g><path style="opacity:1" fill="#2262c5" d="M 166.5,166.5 C 172.729,171.057 178.396,176.391 183.5,182.5C 182.998,183.521 182.332,183.688 181.5,183C 175.873,177.883 170.873,172.383 166.5,166.5 Z"/></g>
<g><path style="opacity:1" fill="#e8ebef" d="M 154.5,171.5 C 152.373,180.8 150.373,190.134 148.5,199.5C 147.5,199.5 146.5,199.5 145.5,199.5C 145.256,195.211 143.589,194.544 140.5,197.5C 137.755,196.182 136.088,194.015 135.5,191C 133.236,190.764 131.069,190.264 129,189.5C 128.667,187.5 128.333,185.5 128,183.5C 125.486,182.911 123.486,181.578 122,179.5C 121.667,177.953 122.167,176.62 123.5,175.5C 122.5,173.833 121.167,172.5 119.5,171.5C 130.118,168.128 140.784,165.295 151.5,163C 143.366,166.9 135.7,171.567 128.5,177C 136.133,174.181 143.466,170.848 150.5,167C 145.667,171.833 140.833,176.667 136,181.5C 135.312,182.332 135.479,182.998 136.5,183.5C 142.179,178.321 147.679,172.988 153,167.5C 148.23,175.375 144.23,183.709 141,192.5C 145.524,185.435 150.024,178.435 154.5,171.5 Z"/></g>
<g><path style="opacity:1" fill="#edefef" d="M 158.5,191.5 C 158.5,194.833 158.5,198.167 158.5,201.5C 157.007,200.555 155.507,199.555 154,198.5C 152.715,198.95 151.548,199.617 150.5,200.5C 150.167,200 149.833,199.5 149.5,199C 152.541,188.879 155.374,178.713 158,168.5C 158.5,176.159 158.666,183.826 158.5,191.5 Z"/></g>
<g><path style="opacity:1" fill="#eeeff0" d="M 160.5,201.5 C 160.5,198.167 160.5,194.833 160.5,191.5C 160.334,183.826 160.5,176.159 161,168.5C 163.593,178.701 166.426,188.867 169.5,199C 169.167,199.5 168.833,200 168.5,200.5C 167.452,199.617 166.285,198.95 165,198.5C 163.493,199.555 161.993,200.555 160.5,201.5 Z"/></g>
<g><path style="opacity:1" fill="#85addd" d="M 158.5,191.5 C 159.167,191.5 159.833,191.5 160.5,191.5C 160.5,194.833 160.5,198.167 160.5,201.5C 159.833,201.5 159.167,201.5 158.5,201.5C 158.5,198.167 158.5,194.833 158.5,191.5 Z"/></g>
<g><path style="opacity:0.999" fill="#4aae21" d="M 8.5,212.5 C 108.167,212.5 207.833,212.5 307.5,212.5C 283.058,272.047 239.058,306.714 175.5,316.5C 163.833,316.5 152.167,316.5 140.5,316.5C 76.9422,306.714 32.9422,272.047 8.5,212.5 Z"/></g>
</svg>
