<?xml version="1.0" encoding="UTF-8"?>
<!DOCTYPE svg PUBLIC "-//W3C//DTD SVG 1.1//EN" "http://www.w3.org/Graphics/SVG/1.1/DTD/svg11.dtd">
<svg xmlns="http://www.w3.org/2000/svg" version="1.1" width="500px" height="500px" fill="none" style="shape-rendering:geometricPrecision; text-rendering:geometricPrecision; image-rendering:optimizeQuality; fill-rule:evenodd; clip-rule:evenodd" xmlns:xlink="http://www.w3.org/1999/xlink">
<g><path style="opacity:1" fill="#fefefe" d="M -0.5,-0.5 C 166.167,-0.5 332.833,-0.5 499.5,-0.5C 499.5,166.167 499.5,332.833 499.5,499.5C 332.833,499.5 166.167,499.5 -0.5,499.5C -0.5,332.833 -0.5,166.167 -0.5,-0.5 Z"/></g>
<g><path style="opacity:1" fill="#ffb316" d="M 179.5,213.5 C 176.713,214.477 173.713,214.81 170.5,214.5C 145.929,190.263 121.262,165.93 96.5,141.5C 72.6805,165.82 48.6805,189.986 24.5,214C 20.8484,214.499 17.1817,214.665 13.5,214.5C 41.1455,186.521 68.8122,158.521 96.5,130.5C 124.548,157.881 152.215,185.548 179.5,213.5 Z"/></g>
<g><path style="opacity:1" fill="#fffdfb" d="M 170.5,214.5 C 170.328,215.492 170.662,216.158 171.5,216.5C 164.687,217.491 157.687,217.825 150.5,217.5C 140.368,206.202 128.035,198.369 113.5,194C 121.515,181.449 119.515,170.783 107.5,162C 93.0491,156.37 82.5491,160.537 76,174.5C 74.4117,181.765 75.9117,188.265 80.5,194C 65.7949,198.338 53.4615,206.172 43.5,217.5C 35.9809,217.825 28.6476,217.492 21.5,216.5C 19.6391,215.493 16.9725,215.16 13.5,215.5C 13.5,215.167 13.5,214.833 13.5,214.5C 17.1817,214.665 20.8484,214.499 24.5,214C 48.6805,189.986 72.6805,165.82 96.5,141.5C 121.262,165.93 145.929,190.263 170.5,214.5 Z"/></g>
<g><path style="opacity:1" fill="#ffb212" d="M 150.5,217.5 C 150.5,217.833 150.5,218.167 150.5,218.5C 165.446,239.378 168.612,262.044 160,286.5C 143.386,319.725 116.553,333.225 79.5,327C 43.5437,314.282 26.7104,288.782 29,250.5C 31.0774,238.755 35.5774,228.089 42.5,218.5C 43.1667,218.5 43.5,218.167 43.5,217.5C 53.4615,206.172 65.7949,198.338 80.5,194C 75.9117,188.265 74.4117,181.765 76,174.5C 82.5491,160.537 93.0491,156.37 107.5,162C 119.515,170.783 121.515,181.449 113.5,194C 128.035,198.369 140.368,206.202 150.5,217.5 Z"/></g>
<g><path style="opacity:1" fill="#fffdfb" d="M 92.5,168.5 C 105.506,167.995 110.673,173.995 108,186.5C 103.914,192.118 98.4137,193.951 91.5,192C 85.6362,188.434 83.4695,183.267 85,176.5C 87.0282,173.308 89.5282,170.641 92.5,168.5 Z"/></g>
<g><path style="opacity:1" fill="#fffefc" d="M 137.5,216.5 C 110.338,217.498 83.0051,217.831 55.5,217.5C 65.7058,207.23 78.0391,202.23 92.5,202.5C 95.1667,209.167 97.8333,209.167 100.5,202.5C 114.574,202.363 126.907,207.029 137.5,216.5 Z"/></g>
<g><path style="opacity:1" fill="#ffdf97" d="M 179.5,213.5 C 180.338,213.842 180.672,214.508 180.5,215.5C 177.287,215.19 174.287,215.523 171.5,216.5C 170.662,216.158 170.328,215.492 170.5,214.5C 173.713,214.81 176.713,214.477 179.5,213.5 Z"/></g>
<g><path style="opacity:1" fill="#ffb002" d="M 13.5,215.5 C 16.9725,215.16 19.6391,215.493 21.5,216.5C 20.6618,216.842 20.3284,217.508 20.5,218.5C 20.5,255.833 20.5,293.167 20.5,330.5C 71.1667,330.5 121.833,330.5 172.5,330.5C 172.5,293.167 172.5,255.833 172.5,218.5C 172.672,217.508 172.338,216.842 171.5,216.5C 174.287,215.523 177.287,215.19 180.5,215.5C 180.5,256.833 180.5,298.167 180.5,339.5C 124.833,339.5 69.1667,339.5 13.5,339.5C 13.5,298.167 13.5,256.833 13.5,215.5 Z"/></g>
<g><path style="opacity:1" fill="#ffcc5c" d="M 21.5,216.5 C 28.6476,217.492 35.9809,217.825 43.5,217.5C 43.5,218.167 43.1667,218.5 42.5,218.5C 35.1667,218.5 27.8333,218.5 20.5,218.5C 20.3284,217.508 20.6618,216.842 21.5,216.5 Z"/></g>
<g><path style="opacity:1" fill="#ffcc5d" d="M 137.5,216.5 C 138.338,216.842 138.672,217.508 138.5,218.5C 110.5,218.5 82.5,218.5 54.5,218.5C 54.5,217.833 54.8333,217.5 55.5,217.5C 83.0051,217.831 110.338,217.498 137.5,216.5 Z"/></g>
<g><path style="opacity:1" fill="#ffcd60" d="M 171.5,216.5 C 172.338,216.842 172.672,217.508 172.5,218.5C 165.167,218.5 157.833,218.5 150.5,218.5C 150.5,218.167 150.5,217.833 150.5,217.5C 157.687,217.825 164.687,217.491 171.5,216.5 Z"/></g>
<g><path style="opacity:1" fill="#fffefd" d="M 20.5,218.5 C 27.8333,218.5 35.1667,218.5 42.5,218.5C 35.5774,228.089 31.0774,238.755 29,250.5C 26.7104,288.782 43.5437,314.282 79.5,327C 116.553,333.225 143.386,319.725 160,286.5C 168.612,262.044 165.446,239.378 150.5,218.5C 157.833,218.5 165.167,218.5 172.5,218.5C 172.5,255.833 172.5,293.167 172.5,330.5C 121.833,330.5 71.1667,330.5 20.5,330.5C 20.5,293.167 20.5,255.833 20.5,218.5 Z"/></g>
<g><path style="opacity:1" fill="#fefdfd" d="M 54.5,218.5 C 82.5,218.5 110.5,218.5 138.5,218.5C 149.167,228.502 155,240.836 156,255.5C 153.743,257.046 151.576,258.712 149.5,260.5C 151.028,261.861 152.695,263.028 154.5,264C 155.804,264.804 156.471,265.971 156.5,267.5C 150.5,296.833 132.833,314.5 103.5,320.5C 102.833,320.333 102.167,320.167 101.5,320C 99.9938,317.667 98.3271,315.5 96.5,313.5C 94.8119,315.029 93.4786,316.863 92.5,319C 61.6284,315.966 43.295,299.133 37.5,268.5C 37.8333,267.167 38.1667,265.833 38.5,264.5C 45.2089,261.554 45.0423,258.887 38,256.5C 38.3139,241.543 43.8139,228.876 54.5,218.5 Z"/></g>
<g><path style="opacity:1" fill="#a8aaaa" d="M 389.5,220.5 C 396.648,219.508 403.981,219.175 411.5,219.5C 411.5,221.833 411.5,224.167 411.5,226.5C 408.833,226.5 406.167,226.5 403.5,226.5C 405.607,225.532 407.941,225.198 410.5,225.5C 410.5,223.833 410.5,222.167 410.5,220.5C 403.5,220.5 396.5,220.5 389.5,220.5 Z"/></g>
<g><path style="opacity:1" fill="#404646" d="M 207.5,220.5 C 209.527,220.338 211.527,220.505 213.5,221C 216.724,225.297 220.057,229.464 223.5,233.5C 226.613,229.213 229.946,225.047 233.5,221C 235.473,220.505 237.473,220.338 239.5,220.5C 239.5,230.5 239.5,240.5 239.5,250.5C 237.5,250.5 235.5,250.5 233.5,250.5C 233.666,243.825 233.5,237.158 233,230.5C 230.902,235.093 227.735,238.426 223.5,240.5C 222.5,240.333 221.5,240.167 220.5,240C 218.333,237.167 216.167,234.333 214,231.5C 213.5,237.825 213.334,244.158 213.5,250.5C 211.5,250.5 209.5,250.5 207.5,250.5C 207.5,240.5 207.5,230.5 207.5,220.5 Z"/></g>
<g><path style="opacity:1" fill="#454b4b" d="M 246.5,221.5 C 248.966,220.366 251.633,220.199 254.5,221C 256.458,223.748 258.291,226.582 260,229.5C 262.029,226.971 263.862,224.304 265.5,221.5C 268.106,220.348 270.773,220.182 273.5,221C 270.209,225.748 267.042,230.581 264,235.5C 263.501,240.489 263.334,245.489 263.5,250.5C 261.167,250.5 258.833,250.5 256.5,250.5C 256.666,245.156 256.499,239.823 256,234.5C 252.97,229.985 249.803,225.651 246.5,221.5 Z"/></g>
<g><path style="opacity:1" fill="#808484" d="M 310.5,220.5 C 305.833,220.5 301.167,220.5 296.5,220.5C 296.5,230.5 296.5,240.5 296.5,250.5C 295.506,240.347 295.172,230.014 295.5,219.5C 300.695,219.179 305.695,219.513 310.5,220.5 Z"/></g>
<g><path style="opacity:1" fill="#434949" d="M 310.5,220.5 C 316.55,222.26 318.717,226.26 317,232.5C 315.878,234.624 314.378,236.457 312.5,238C 315.743,241.821 318.743,245.821 321.5,250C 319.167,250.667 316.833,250.667 314.5,250C 311.5,246.333 308.5,242.667 305.5,239C 304.552,238.517 303.552,238.351 302.5,238.5C 302.5,242.5 302.5,246.5 302.5,250.5C 300.5,250.5 298.5,250.5 296.5,250.5C 296.5,240.5 296.5,230.5 296.5,220.5C 301.167,220.5 305.833,220.5 310.5,220.5 Z"/></g>
<g><path style="opacity:1" fill="#888c8c" d="M 347.5,220.5 C 341.5,220.5 335.5,220.5 329.5,220.5C 329.5,230.5 329.5,240.5 329.5,250.5C 328.506,240.347 328.172,230.014 328.5,219.5C 335.022,219.177 341.355,219.51 347.5,220.5 Z"/></g>
<g><path style="opacity:1" fill="#404646" d="M 347.5,220.5 C 347.5,222.167 347.5,223.833 347.5,225.5C 343.298,225.183 339.298,225.517 335.5,226.5C 335.5,228.167 335.5,229.833 335.5,231.5C 339.167,231.5 342.833,231.5 346.5,231.5C 346.5,233.5 346.5,235.5 346.5,237.5C 342.833,237.5 339.167,237.5 335.5,237.5C 335.5,239.833 335.5,242.167 335.5,244.5C 339.5,244.5 343.5,244.5 347.5,244.5C 347.5,246.5 347.5,248.5 347.5,250.5C 341.5,250.5 335.5,250.5 329.5,250.5C 329.5,240.5 329.5,230.5 329.5,220.5C 335.5,220.5 341.5,220.5 347.5,220.5 Z"/></g>
<g><path style="opacity:1" fill="#3f4545" d="M 363.5,232.5 C 363.217,231.711 362.717,231.044 362,230.5C 361.5,237.158 361.334,243.825 361.5,250.5C 359.5,250.5 357.5,250.5 355.5,250.5C 355.5,240.5 355.5,230.5 355.5,220.5C 357.924,220.192 360.257,220.526 362.5,221.5C 366.808,227.641 371.308,233.641 376,239.5C 376.5,233.175 376.666,226.842 376.5,220.5C 378.5,220.5 380.5,220.5 382.5,220.5C 382.5,230.5 382.5,240.5 382.5,250.5C 380.473,250.662 378.473,250.495 376.5,250C 371.949,244.289 367.616,238.456 363.5,232.5 Z"/></g>
<g><path style="opacity:1" fill="#3e4444" d="M 389.5,220.5 C 396.5,220.5 403.5,220.5 410.5,220.5C 410.5,222.167 410.5,223.833 410.5,225.5C 407.941,225.198 405.607,225.532 403.5,226.5C 403.5,234.5 403.5,242.5 403.5,250.5C 401.5,250.5 399.5,250.5 397.5,250.5C 397.5,242.167 397.5,233.833 397.5,225.5C 394.833,225.5 392.167,225.5 389.5,225.5C 389.5,223.833 389.5,222.167 389.5,220.5 Z"/></g>
<g><path style="opacity:1" fill="#424848" d="M 428.5,220.5 C 431.448,220.223 434.281,220.556 437,221.5C 441.333,231.004 445.166,240.671 448.5,250.5C 446.167,250.5 443.833,250.5 441.5,250.5C 441.541,244.792 438.708,242.459 433,243.5C 430.833,243.667 428.667,243.833 426.5,244C 425.692,246.088 424.692,248.088 423.5,250C 421.167,250.667 418.833,250.667 416.5,250C 421.189,240.429 425.189,230.595 428.5,220.5 Z"/></g>
<g><path style="opacity:1" fill="#3f4545" d="M 455.5,220.5 C 457.5,220.5 459.5,220.5 461.5,220.5C 461.174,228.684 461.508,236.684 462.5,244.5C 466.5,244.5 470.5,244.5 474.5,244.5C 474.5,246.5 474.5,248.5 474.5,250.5C 468.167,250.5 461.833,250.5 455.5,250.5C 455.5,240.5 455.5,230.5 455.5,220.5 Z"/></g>
<g><path style="opacity:1" fill="#9da0a0" d="M 455.5,220.5 C 457.607,219.532 459.941,219.198 462.5,219.5C 462.5,227.833 462.5,236.167 462.5,244.5C 461.508,236.684 461.174,228.684 461.5,220.5C 459.5,220.5 457.5,220.5 455.5,220.5 Z"/></g>
<g><path style="opacity:1" fill="#f1bd47" d="M 98.5,224.5 C 97.5049,236.322 97.1716,248.322 97.5,260.5C 97.5,260.833 97.5,261.167 97.5,261.5C 96.8333,261.5 96.1667,261.5 95.5,261.5C 95.5,261.167 95.5,260.833 95.5,260.5C 96.4952,248.345 96.8286,236.011 96.5,223.5C 97.3274,222.561 97.9941,222.895 98.5,224.5 Z"/></g>
<g><path style="opacity:1" fill="#7d8a8c" d="M 96.5,223.5 C 96.8286,236.011 96.4952,248.345 95.5,260.5C 91.8333,256.167 87.8333,252.167 83.5,248.5C 87.0718,239.687 91.4051,231.354 96.5,223.5 Z"/></g>
<g><path style="opacity:1" fill="#feb10b" d="M 98.5,224.5 C 102.5,232.5 106.5,240.5 110.5,248.5C 106.167,252.5 101.833,256.5 97.5,260.5C 97.1716,248.322 97.5049,236.322 98.5,224.5 Z"/></g>
<g><path style="opacity:1" fill="#a5a8a8" d="M 347.5,220.5 C 348.461,222.265 348.795,224.265 348.5,226.5C 344.167,226.5 339.833,226.5 335.5,226.5C 339.298,225.517 343.298,225.183 347.5,225.5C 347.5,223.833 347.5,222.167 347.5,220.5 Z"/></g>
<g><path style="opacity:1" fill="#f2f2f2" d="M 302.5,226.5 C 305.187,226.336 307.854,226.503 310.5,227C 311.86,228.938 311.527,230.604 309.5,232C 307.19,232.497 304.857,232.663 302.5,232.5C 302.5,230.5 302.5,228.5 302.5,226.5 Z"/></g>
<g><path style="opacity:1" fill="#9c9f9f" d="M 389.5,225.5 C 392.167,225.5 394.833,225.5 397.5,225.5C 397.5,233.833 397.5,242.167 397.5,250.5C 396.508,242.684 396.174,234.684 396.5,226.5C 393.941,226.802 391.607,226.468 389.5,225.5 Z"/></g>
<g><path style="opacity:1" fill="#e7e8e8" d="M 432.5,229.5 C 434.607,232.057 435.941,235.057 436.5,238.5C 434.167,238.5 431.833,238.5 429.5,238.5C 429.905,235.285 430.905,232.285 432.5,229.5 Z"/></g>
<g><path style="opacity:1" fill="#828f90" d="M 63.5,228.5 C 70.1007,231.468 76.434,234.968 82.5,239C 79.8694,241.977 76.8694,244.477 73.5,246.5C 69.6351,240.768 66.3018,234.768 63.5,228.5 Z"/></g>
<g><path style="opacity:1" fill="#818d8f" d="M 127.5,229.5 C 128.239,229.369 128.906,229.536 129.5,230C 126.04,235.752 122.707,241.585 119.5,247.5C 116.349,244.85 113.349,242.016 110.5,239C 116.229,235.806 121.896,232.639 127.5,229.5 Z"/></g>
<g><path style="opacity:1" fill="#9b9e9e" d="M 363.5,232.5 C 362.833,238.5 362.167,244.5 361.5,250.5C 361.334,243.825 361.5,237.158 362,230.5C 362.717,231.044 363.217,231.711 363.5,232.5 Z"/></g>
<g><path style="opacity:1" fill="#fdb112" d="M 83.5,248.5 C 87.8333,252.167 91.8333,256.167 95.5,260.5C 95.5,260.833 95.5,261.167 95.5,261.5C 82.9887,261.829 70.6554,261.495 58.5,260.5C 66.6807,256.243 75.014,252.243 83.5,248.5 Z"/></g>
<g><path style="opacity:1" fill="#7e8a8c" d="M 110.5,248.5 C 119.025,252.595 127.358,256.928 135.5,261.5C 122.833,261.5 110.167,261.5 97.5,261.5C 97.5,261.167 97.5,260.833 97.5,260.5C 101.833,256.5 106.167,252.5 110.5,248.5 Z"/></g>
<g><path style="opacity:1" fill="#7e8b8c" d="M 59.5,262.5 C 71.5,262.5 83.5,262.5 95.5,262.5C 91.5,266.833 87.5,271.167 83.5,275.5C 75.1458,271.659 67.1458,267.326 59.5,262.5 Z"/></g>
<g><path style="opacity:1" fill="#fcb21a" d="M 97.5,261.5 C 110.167,261.5 122.833,261.5 135.5,261.5C 127.831,266.198 119.498,270.864 110.5,275.5C 106.167,271.833 102.167,267.833 98.5,263.5C 98.1667,262.833 97.8333,262.167 97.5,261.5 Z"/></g>
<g><path style="opacity:1" fill="#feb10c" d="M 95.5,262.5 C 96.8333,274.833 96.8333,287.167 95.5,299.5C 91.4867,291.473 87.4867,283.473 83.5,275.5C 87.5,271.167 91.5,266.833 95.5,262.5 Z"/></g>
<g><path style="opacity:1" fill="#7d8a8c" d="M 98.5,263.5 C 102.167,267.833 106.167,271.833 110.5,275.5C 106.151,283.535 101.817,291.535 97.5,299.5C 97.1716,287.322 97.5049,275.322 98.5,263.5 Z"/></g>
<g><path style="opacity:1" fill="#bfad7b" d="M 58.5,260.5 C 70.6554,261.495 82.9887,261.829 95.5,261.5C 96.1667,261.5 96.8333,261.5 97.5,261.5C 97.8333,262.167 98.1667,262.833 98.5,263.5C 97.5049,275.322 97.1716,287.322 97.5,299.5C 97.2144,301.933 96.5477,301.933 95.5,299.5C 96.8333,287.167 96.8333,274.833 95.5,262.5C 83.5,262.5 71.5,262.5 59.5,262.5C 57.5759,262.289 57.2426,261.623 58.5,260.5 Z"/></g>
<g><path style="opacity:1" fill="#818d8f" d="M 72.5,275.5 C 75.6306,278.129 78.6306,280.962 81.5,284C 75.4616,288.183 69.1282,291.516 62.5,294C 66.2272,288.046 69.5605,281.879 72.5,275.5 Z"/></g>
<g><path style="opacity:1" fill="#828e90" d="M 118.5,276.5 C 122.059,281.939 125.392,287.606 128.5,293.5C 128.167,293.833 127.833,294.167 127.5,294.5C 122.08,291.373 116.58,288.373 111,285.5C 110.333,284.833 110.333,284.167 111,283.5C 113.479,281.034 115.979,278.701 118.5,276.5 Z"/></g>
<g><path style="opacity:1" fill="#454b4b" d="M 217.5,279.5 C 223.104,278.811 227.771,280.477 231.5,284.5C 230.159,287.789 228.159,288.622 225.5,287C 218.376,285.123 214.042,287.79 212.5,295C 214.969,304.817 220.469,306.984 229,301.5C 231.7,301.79 233.033,303.123 233,305.5C 224.644,312.466 216.644,312.132 209,304.5C 203.876,293.423 206.709,285.09 217.5,279.5 Z"/></g>
<g><path style="opacity:1" fill="#444a4a" d="M 250.5,279.5 C 267.045,280.597 272.545,288.93 267,304.5C 260.749,311.011 253.582,312.177 245.5,308C 236.351,296.534 238.018,287.034 250.5,279.5 Z"/></g>
<g><path style="opacity:1" fill="#424848" d="M 303.5,310.5 C 303.83,303.8 303.497,297.134 302.5,290.5C 301.893,290.624 301.56,290.957 301.5,291.5C 296.339,302.977 290.672,303.31 284.5,292.5C 284.44,291.957 284.107,291.624 283.5,291.5C 282.504,297.798 282.17,304.132 282.5,310.5C 280.5,310.5 278.5,310.5 276.5,310.5C 276.5,300.5 276.5,290.5 276.5,280.5C 278.857,280.337 281.19,280.503 283.5,281C 286.303,285.436 289.469,289.603 293,293.5C 296.531,289.603 299.697,285.436 302.5,281C 304.81,280.503 307.143,280.337 309.5,280.5C 309.5,290.5 309.5,300.5 309.5,310.5C 307.5,310.5 305.5,310.5 303.5,310.5 Z"/></g>
<g><path style="opacity:1" fill="#414747" d="M 317.5,280.5 C 322.844,280.334 328.177,280.501 333.5,281C 338.069,283.541 339.569,287.375 338,292.5C 334.731,297.947 329.898,299.947 323.5,298.5C 323.5,302.5 323.5,306.5 323.5,310.5C 321.5,310.5 319.5,310.5 317.5,310.5C 317.5,300.5 317.5,290.5 317.5,280.5 Z"/></g>
<g><path style="opacity:1" fill="#424848" d="M 355.5,280.5 C 358.448,280.223 361.281,280.556 364,281.5C 368.333,291.004 372.166,300.671 375.5,310.5C 373.167,310.5 370.833,310.5 368.5,310.5C 368.541,304.792 365.708,302.459 360,303.5C 357.833,303.667 355.667,303.833 353.5,304C 352.692,306.088 351.692,308.088 350.5,310C 348.167,310.667 345.833,310.667 343.5,310C 348.189,300.429 352.189,290.595 355.5,280.5 Z"/></g>
<g><path style="opacity:1" fill="#454b4b" d="M 390.5,279.5 C 396.066,278.799 400.732,280.465 404.5,284.5C 403.126,285.711 401.626,286.711 400,287.5C 397.349,285.836 394.516,285.336 391.5,286C 389.473,287.396 389.14,289.062 390.5,291C 394.392,292.64 398.392,293.973 402.5,295C 405.886,298.373 406.386,302.206 404,306.5C 399.521,310.243 394.354,311.409 388.5,310C 386.024,308.691 384.024,306.858 382.5,304.5C 385.205,301.252 387.872,301.085 390.5,304C 392.833,304.667 395.167,304.667 397.5,304C 398.833,302.667 398.833,301.333 397.5,300C 392.262,299.297 387.762,297.13 384,293.5C 382.17,286.832 384.337,282.165 390.5,279.5 Z"/></g>
<g><path style="opacity:1" fill="#454b4b" d="M 420.5,279.5 C 425.743,279.022 430.076,280.689 433.5,284.5C 432.788,286.046 431.622,287.046 430,287.5C 427.349,285.836 424.516,285.336 421.5,286C 418.674,288.522 419.007,290.522 422.5,292C 425.833,293 429.167,294 432.5,295C 437.34,301.621 436.006,306.621 428.5,310C 423.56,311.041 418.894,310.374 414.5,308C 411.753,304.501 412.753,302.334 417.5,301.5C 418.729,303.918 420.729,304.918 423.5,304.5C 427.687,305.159 429.02,303.659 427.5,300C 421.303,299.324 416.469,296.491 413,291.5C 412.691,285.793 415.191,281.793 420.5,279.5 Z"/></g>
<g><path style="opacity:1" fill="#f9f9f9" d="M 250.5,286.5 C 261.747,286.232 265.247,291.232 261,301.5C 255.559,305.926 250.892,305.259 247,299.5C 245.668,294.415 246.835,290.081 250.5,286.5 Z"/></g>
<g><path style="opacity:1" fill="#f6f6f6" d="M 323.5,286.5 C 326.187,286.336 328.854,286.503 331.5,287C 332.86,288.938 332.527,290.604 330.5,292C 328.19,292.497 325.857,292.663 323.5,292.5C 323.5,290.5 323.5,288.5 323.5,286.5 Z"/></g>
<g><path style="opacity:1" fill="#e7e8e8" d="M 359.5,289.5 C 361.607,292.057 362.941,295.057 363.5,298.5C 361.167,298.5 358.833,298.5 356.5,298.5C 356.905,295.285 357.905,292.285 359.5,289.5 Z"/></g>
<g><path style="opacity:1" fill="#989b9b" d="M 284.5,292.5 C 283.833,298.5 283.167,304.5 282.5,310.5C 282.17,304.132 282.504,297.798 283.5,291.5C 284.107,291.624 284.44,291.957 284.5,292.5 Z"/></g>
<g><path style="opacity:1" fill="#777c7c" d="M 301.5,291.5 C 301.56,290.957 301.893,290.624 302.5,290.5C 303.497,297.134 303.83,303.8 303.5,310.5C 302.833,304.167 302.167,297.833 301.5,291.5 Z"/></g>
</svg>
