<?xml version="1.0" encoding="UTF-8"?>
<!DOCTYPE svg PUBLIC "-//W3C//DTD SVG 1.1//EN" "http://www.w3.org/Graphics/SVG/1.1/DTD/svg11.dtd">
<svg xmlns="http://www.w3.org/2000/svg" version="1.1" width="500px" height="500px" style="shape-rendering:geometricPrecision; text-rendering:geometricPrecision; image-rendering:optimizeQuality; fill-rule:evenodd; clip-rule:evenodd" xmlns:xlink="http://www.w3.org/1999/xlink">
<g><path style="opacity:1" fill="#fcb00d" d="M 256.5,54.5 C 258.806,54.9926 261.139,55.3259 263.5,55.5C 264.514,56.6737 265.847,57.3404 267.5,57.5C 267.973,58.9063 268.973,59.573 270.5,59.5C 271.945,61.0627 273.611,62.396 275.5,63.5C 278.255,66.0127 280.255,69.0127 281.5,72.5C 282.246,76.285 283.413,79.9517 285,83.5C 285.499,88.1548 285.666,92.8215 285.5,97.5C 285.5,98.8333 285.5,100.167 285.5,101.5C 282.538,105.709 280.538,110.376 279.5,115.5C 281.565,115.517 283.565,115.85 285.5,116.5C 289.696,118.309 294.029,119.975 298.5,121.5C 298.539,122.583 298.873,123.583 299.5,124.5C 301.772,125.485 304.105,126.319 306.5,127C 305.5,127.833 304.5,128.667 303.5,129.5C 304.167,130.5 304.833,131.5 305.5,132.5C 304.975,133.192 304.308,133.692 303.5,134C 303.833,134.333 304.167,134.667 304.5,135C 302.406,136.352 300.073,136.852 297.5,136.5C 297.047,135.542 296.381,134.708 295.5,134C 297.762,133.299 298.762,132.132 298.5,130.5C 295.932,131.19 293.432,131.523 291,131.5C 289.266,130.751 287.433,130.251 285.5,130C 287.26,129.035 287.594,127.868 286.5,126.5C 283.101,128.312 279.434,128.979 275.5,128.5C 274.167,128.5 272.833,128.5 271.5,128.5C 266.743,126.806 261.743,126.306 256.5,127C 254.375,130.082 252.375,133.249 250.5,136.5C 249.675,137.386 248.675,137.719 247.5,137.5C 246.773,135.046 245.773,132.713 244.5,130.5C 244.749,126.703 243.082,124.369 239.5,123.5C 235.583,123.727 232.249,125.06 229.5,127.5C 227.302,127.875 225.302,128.542 223.5,129.5C 220.848,129.41 218.515,130.076 216.5,131.5C 216.167,131.5 215.833,131.5 215.5,131.5C 212.603,132.129 209.936,133.129 207.5,134.5C 207.5,134.833 207.5,135.167 207.5,135.5C 206.127,135.343 204.793,135.51 203.5,136C 201.569,136.902 199.903,138.069 198.5,139.5C 195.9,140.468 193.566,141.801 191.5,143.5C 187.428,145.208 184.095,147.874 181.5,151.5C 180.508,151.328 179.842,151.662 179.5,152.5C 177.5,153.833 175.833,155.5 174.5,157.5C 172.086,158.911 170.419,160.911 169.5,163.5C 167.738,164.262 166.738,165.596 166.5,167.5C 161.052,174.178 156.719,181.512 153.5,189.5C 153.5,190.167 153.5,190.833 153.5,191.5C 153.167,191.5 152.833,191.5 152.5,191.5C 151.057,192.335 150.057,193.668 149.5,195.5C 147.411,203.036 146.077,210.703 145.5,218.5C 145.52,219.726 145.853,220.726 146.5,221.5C 150.034,223.766 153.7,225.766 157.5,227.5C 157.771,229.38 157.104,230.713 155.5,231.5C 153.517,232.471 151.517,233.471 149.5,234.5C 147.25,234.181 145.25,234.681 143.5,236C 144.39,242.505 145.557,249.005 147,255.5C 147.236,257.119 148.069,258.119 149.5,258.5C 150.508,260.544 151.508,262.544 152.5,264.5C 153.37,268.685 154.703,272.685 156.5,276.5C 156.042,279.394 156.709,281.894 158.5,284C 157.304,285.834 156.471,287.667 156,289.5C 156.923,290.759 157.757,292.092 158.5,293.5C 159.251,292.624 159.751,291.624 160,290.5C 162.274,290.965 164.44,292.299 166.5,294.5C 173.437,300.287 172.937,304.953 165,308.5C 163.72,308.387 162.887,307.72 162.5,306.5C 163.326,305.549 163.492,304.549 163,303.5C 161.989,304.337 160.822,304.67 159.5,304.5C 157.139,302.806 155.139,300.806 153.5,298.5C 153.262,296.596 152.262,295.262 150.5,294.5C 148.668,290.164 146.335,286.164 143.5,282.5C 142.397,278.503 140.731,274.836 138.5,271.5C 138.267,268.458 137.267,265.792 135.5,263.5C 135.5,262.833 135.5,262.167 135.5,261.5C 135.741,259.102 135.074,257.102 133.5,255.5C 133.5,254.167 133.5,252.833 133.5,251.5C 133.037,248.518 132.704,245.518 132.5,242.5C 132.365,230.815 132.698,219.148 133.5,207.5C 134.915,200.756 136.581,194.09 138.5,187.5C 139.404,186.791 139.737,185.791 139.5,184.5C 141.083,182.337 142.416,180.004 143.5,177.5C 143.557,176.391 143.89,175.391 144.5,174.5C 145.737,173.035 146.737,171.368 147.5,169.5C 147.5,168.167 148.167,167.5 149.5,167.5C 153.732,164.151 156.399,159.817 157.5,154.5C 158.167,154.167 158.833,153.833 159.5,153.5C 167.25,145.744 175.25,138.411 183.5,131.5C 184.833,130.833 185.833,129.833 186.5,128.5C 191.516,126.659 196.182,124.326 200.5,121.5C 201.167,121.5 201.5,121.167 201.5,120.5C 207.502,118.731 213.502,116.898 219.5,115C 220.8,113.421 220.466,112.255 218.5,111.5C 218.167,110.167 217.833,108.833 217.5,107.5C 216.935,103.463 215.601,99.7966 213.5,96.5C 213.5,96.1667 213.5,95.8333 213.5,95.5C 213.335,92.4816 213.502,89.4816 214,86.5C 215.833,80.8682 217.666,75.2016 219.5,69.5C 221.296,68.2073 222.963,66.7073 224.5,65C 225.793,64.51 227.127,64.3433 228.5,64.5C 228.615,62.0532 229.615,60.0532 231.5,58.5C 233.565,58.047 235.232,57.047 236.5,55.5C 237.5,55.5 238.5,55.5 239.5,55.5C 245.13,54.7081 250.797,54.3748 256.5,54.5 Z"/></g>
<g><path style="opacity:0.997" fill="#fefefb" d="M 253.5,28.5 C 254.391,29.1098 255.391,29.4431 256.5,29.5C 256.5,30.8333 256.5,32.1667 256.5,33.5C 259.151,34.7112 261.818,36.0445 264.5,37.5C 264.343,38.8734 264.51,40.2068 265,41.5C 267.64,42.6558 270.14,43.9891 272.5,45.5C 273.504,50.0114 276.171,53.0114 280.5,54.5C 281.167,54.8333 281.833,55.1667 282.5,55.5C 283.5,58.5 285.5,60.5 288.5,61.5C 291.806,65.4729 295.473,69.1396 299.5,72.5C 313.806,87.1399 328.139,101.807 342.5,116.5C 343.72,118.282 344.386,120.282 344.5,122.5C 347.624,122.943 349.957,124.61 351.5,127.5C 352.417,128.127 353.417,128.461 354.5,128.5C 362.548,135.881 370.215,143.548 377.5,151.5C 371.872,152.829 365.872,153.496 359.5,153.5C 352.787,153.462 346.12,153.129 339.5,152.5C 338.833,151.5 338.167,150.5 337.5,149.5C 336.833,146.833 335.167,145.167 332.5,144.5C 327.941,141.061 323.608,137.394 319.5,133.5C 318.522,130.675 316.522,129.342 313.5,129.5C 313.027,128.094 312.027,127.427 310.5,127.5C 309.71,126.206 308.71,125.039 307.5,124C 304.397,122.737 301.397,121.237 298.5,119.5C 294.408,117.394 290.075,116.394 285.5,116.5C 284.322,115.001 282.655,114.001 280.5,113.5C 282.157,109.639 283.657,109.639 285,113.5C 284.287,109.522 284.453,105.522 285.5,101.5C 285.5,100.167 285.5,98.8333 285.5,97.5C 287.047,95.1934 287.713,92.5267 287.5,89.5C 287.101,84.7032 286.101,80.0365 284.5,75.5C 283.879,72.3648 282.545,69.5314 280.5,67C 280.735,66.1268 281.069,65.2935 281.5,64.5C 279.585,64.6837 277.585,64.3503 275.5,63.5C 273.611,62.396 271.945,61.0627 270.5,59.5C 270.027,58.0937 269.027,57.427 267.5,57.5C 265.847,57.3404 264.514,56.6737 263.5,55.5C 263.047,54.5416 262.381,53.7083 261.5,53C 257.833,52.8333 254.167,52.6667 250.5,52.5C 246.435,52.5112 242.768,53.1778 239.5,54.5C 239.5,54.8333 239.5,55.1667 239.5,55.5C 238.5,55.5 237.5,55.5 236.5,55.5C 234.033,55.7549 232.033,56.7549 230.5,58.5C 225.812,61.188 222.145,64.8547 219.5,69.5C 217.32,71.8633 215.653,74.53 214.5,77.5C 210.843,81.6513 209.677,86.6513 211,92.5C 211.232,93.7375 211.732,94.7375 212.5,95.5C 212.833,95.5 213.167,95.5 213.5,95.5C 213.5,95.8333 213.5,96.1667 213.5,96.5C 213.457,100.733 214.79,104.4 217.5,107.5C 217.833,108.833 218.167,110.167 218.5,111.5C 218.5,112.5 218.5,113.5 218.5,114.5C 213.024,116.394 207.357,117.394 201.5,117.5C 201.5,118.5 201.5,119.5 201.5,120.5C 201.5,121.167 201.167,121.5 200.5,121.5C 195.846,122.395 191.346,123.729 187,125.5C 186.517,126.448 186.351,127.448 186.5,128.5C 185.833,129.833 184.833,130.833 183.5,131.5C 174.359,136.96 166.359,143.96 159.5,152.5C 151.846,152.989 144.179,153.322 136.5,153.5C 131.119,153.494 126.119,152.828 121.5,151.5C 124.146,148.188 127.146,145.188 130.5,142.5C 132.044,142.297 133.378,141.63 134.5,140.5C 135.086,140.709 135.586,141.043 136,141.5C 137.04,138.96 138.874,137.293 141.5,136.5C 140.674,135.549 140.508,134.549 141,133.5C 145.862,129.432 150.029,124.766 153.5,119.5C 157.882,117.118 161.216,113.784 163.5,109.5C 163.5,108.167 164.167,107.5 165.5,107.5C 166.5,107.5 167.5,107.5 168.5,107.5C 168.433,106.041 168.766,104.708 169.5,103.5C 171.167,102.5 172.5,101.167 173.5,99.5C 175.384,99.2882 176.717,98.2882 177.5,96.5C 178.086,96.7093 178.586,97.0426 179,97.5C 179.573,95.3594 180.406,93.3594 181.5,91.5C 184.335,88.8347 187.335,86.3347 190.5,84C 192.076,82.27 193.41,80.4367 194.5,78.5C 197.785,75.8815 200.785,72.8815 203.5,69.5C 204.167,67.5 205.5,66.1667 207.5,65.5C 218.887,55.1141 229.554,44.1141 239.5,32.5C 241.411,31.925 243.078,30.925 244.5,29.5C 245.793,30.1582 247.293,30.4915 249,30.5C 250.986,30.4313 252.486,29.7647 253.5,28.5 Z"/></g>
<g><path style="opacity:1" fill="#fdfdfb" d="M 260.5,72.5 C 261.391,73.1098 262.391,73.4431 263.5,73.5C 264.167,74.5 264.833,75.5 265.5,76.5C 269.381,82.1605 271.048,88.4938 270.5,95.5C 270.108,97.1789 269.608,98.8455 269,100.5C 266.928,102.728 265.095,105.061 263.5,107.5C 261.313,108.758 258.98,109.758 256.5,110.5C 252.486,110.666 248.486,110.499 244.5,110C 240.697,108.345 237.03,106.511 233.5,104.5C 231.975,102.784 230.975,100.784 230.5,98.5C 229.33,92.4881 229.33,86.4881 230.5,80.5C 231.026,78.7697 232.026,77.4363 233.5,76.5C 236.37,75.5667 238.704,73.9 240.5,71.5C 247.294,69.8579 253.961,70.1912 260.5,72.5 Z"/></g>
<g><path style="opacity:1" fill="#fab219" d="M 314.5,69.5 C 318.817,72.1517 322.484,75.485 325.5,79.5C 335.139,89.4734 344.806,99.4734 354.5,109.5C 352.616,109.288 351.283,108.288 350.5,106.5C 347.843,105.741 345.177,105.074 342.5,104.5C 339.867,105.782 339.867,107.116 342.5,108.5C 338.65,110.959 339.316,112.126 344.5,112C 347.648,115.195 349.648,119.028 350.5,123.5C 347.808,121.138 345.141,118.804 342.5,116.5C 328.139,101.807 313.806,87.1399 299.5,72.5C 303.075,72.9325 306.575,73.5992 310,74.5C 312.049,73.2862 313.549,71.6195 314.5,69.5 Z"/></g>
<g><path style="opacity:1" fill="#feedb0" d="M 265.5,76.5 C 271.251,81.7626 272.917,88.096 270.5,95.5C 271.048,88.4938 269.381,82.1605 265.5,76.5 Z"/></g>
<g><path style="opacity:1" fill="#f3ba42" d="M 219.5,69.5 C 217.666,75.2016 215.833,80.8682 214,86.5C 213.502,89.4816 213.335,92.4816 213.5,95.5C 213.167,95.5 212.833,95.5 212.5,95.5C 212.178,89.3428 212.845,83.3428 214.5,77.5C 215.653,74.53 217.32,71.8633 219.5,69.5 Z"/></g>
<g><path style="opacity:1" fill="#f4c962" d="M 281.5,72.5 C 282.728,73.3065 283.728,74.3065 284.5,75.5C 286.101,80.0365 287.101,84.7032 287.5,89.5C 287.713,92.5267 287.047,95.1934 285.5,97.5C 285.666,92.8215 285.499,88.1548 285,83.5C 283.413,79.9517 282.246,76.285 281.5,72.5 Z"/></g>
<g><path style="opacity:1" fill="#ffefbc" d="M 194.5,78.5 C 193.41,80.4367 192.076,82.27 190.5,84C 187.335,86.3347 184.335,88.8347 181.5,91.5C 184.839,86.1605 189.173,81.8272 194.5,78.5 Z"/></g>
<g><path style="opacity:1" fill="#fffde5" d="M 214.5,77.5 C 212.845,83.3428 212.178,89.3428 212.5,95.5C 211.732,94.7375 211.232,93.7375 211,92.5C 209.677,86.6513 210.843,81.6513 214.5,77.5 Z"/></g>
<g><path style="opacity:1" fill="#fdeeb8" d="M 230.5,80.5 C 229.33,86.4881 229.33,92.4881 230.5,98.5C 226.56,92.567 226.56,86.567 230.5,80.5 Z"/></g>
<g><path style="opacity:1" fill="#fef7d8" d="M 181.5,91.5 C 180.406,93.3594 179.573,95.3594 179,97.5C 178.586,97.0426 178.086,96.7093 177.5,96.5C 176.717,98.2882 175.384,99.2882 173.5,99.5C 175.77,96.3792 178.437,93.7125 181.5,91.5 Z"/></g>
<g><path style="opacity:1" fill="#efbc3b" d="M 213.5,96.5 C 215.601,99.7966 216.935,103.463 217.5,107.5C 214.79,104.4 213.457,100.733 213.5,96.5 Z"/></g>
<g><path style="opacity:1" fill="#fee9aa" d="M 173.5,99.5 C 172.5,101.167 171.167,102.5 169.5,103.5C 169.833,101.167 171.167,99.8333 173.5,99.5 Z"/></g>
<g><path style="opacity:1" fill="#fab115" d="M 297.5,51.5 C 297.709,52.9217 298.209,54.255 299,55.5C 302.059,58.4005 305.226,61.0672 308.5,63.5C 310.923,64.9501 312.923,66.9501 314.5,69.5C 313.549,71.6195 312.049,73.2862 310,74.5C 306.575,73.5992 303.075,72.9325 299.5,72.5C 295.473,69.1396 291.806,65.4729 288.5,61.5C 286.833,59.1667 284.833,57.1667 282.5,55.5C 281.833,55.1667 281.167,54.8333 280.5,54.5C 277.878,51.5077 275.211,48.5077 272.5,45.5C 270.167,42.5 267.5,39.8333 264.5,37.5C 262.194,34.5271 259.527,31.8605 256.5,29.5C 254.521,26.8544 252.188,24.5211 249.5,22.5C 245.812,25.521 242.479,28.8544 239.5,32.5C 228.113,42.8859 217.446,53.8859 207.5,65.5C 205.5,66.1667 204.167,67.5 203.5,69.5C 199.522,71.4784 196.522,74.4784 194.5,78.5C 189.173,81.8272 184.839,86.1605 181.5,91.5C 178.437,93.7125 175.77,96.3792 173.5,99.5C 171.167,99.8333 169.833,101.167 169.5,103.5C 167.5,104.167 166.167,105.5 165.5,107.5C 164.167,107.5 163.5,108.167 163.5,109.5C 159.812,112.521 156.479,115.854 153.5,119.5C 145.575,126.758 137.908,134.425 130.5,142.5C 127.146,145.188 124.146,148.188 121.5,151.5C 119.926,151.937 118.759,152.937 118,154.5C 117.5,219.832 117.333,285.166 117.5,350.5C 117.5,350.833 117.5,351.167 117.5,351.5C 116.833,318.502 116.5,285.335 116.5,252C 116.503,218.454 117.17,185.121 118.5,152C 115.547,151.108 112.881,151.608 110.5,153.5C 109.614,152.675 109.281,151.675 109.5,150.5C 108.167,150.5 106.833,150.5 105.5,150.5C 108.239,147.767 110.573,144.767 112.5,141.5C 140.248,113.419 167.915,85.4193 195.5,57.5C 201.231,53.9417 206.231,49.4417 210.5,44C 211.448,43.5172 212.448,43.3505 213.5,43.5C 213.704,41.3146 214.37,39.3146 215.5,37.5C 218.5,36.5 220.5,34.5 221.5,31.5C 224.473,27.8604 227.806,24.5271 231.5,21.5C 236.877,18.8241 240.877,14.8241 243.5,9.5C 245.202,6.6052 247.536,4.77187 250.5,4C 266.423,19.7553 282.09,35.5886 297.5,51.5 Z M 253.5,28.5 C 252.486,29.7647 250.986,30.4313 249,30.5C 247.293,30.4915 245.793,30.1582 244.5,29.5C 246.148,28.1902 247.814,26.8569 249.5,25.5C 250.852,26.5244 252.185,27.5244 253.5,28.5 Z"/></g>
<g><path style="opacity:1" fill="#fef6cb" d="M 169.5,103.5 C 168.766,104.708 168.433,106.041 168.5,107.5C 167.5,107.5 166.5,107.5 165.5,107.5C 166.167,105.5 167.5,104.167 169.5,103.5 Z"/></g>
<g><path style="opacity:1" fill="#fff5c6" d="M 233.5,104.5 C 237.03,106.511 240.697,108.345 244.5,110C 248.486,110.499 252.486,110.666 256.5,110.5C 250.802,112.023 245.136,111.689 239.5,109.5C 237.091,108.299 235.091,106.633 233.5,104.5 Z"/></g>
<g><path style="opacity:1" fill="#fff8d5" d="M 285.5,101.5 C 284.453,105.522 284.287,109.522 285,113.5C 283.657,109.639 282.157,109.639 280.5,113.5C 282.655,114.001 284.322,115.001 285.5,116.5C 283.565,115.85 281.565,115.517 279.5,115.5C 280.538,110.376 282.538,105.709 285.5,101.5 Z"/></g>
<g><path style="opacity:1" fill="#fbb10f" d="M 354.5,109.5 C 367.833,122.167 380.833,135.167 393.5,148.5C 393.5,149.167 393.5,149.833 393.5,150.5C 389.167,150.5 384.833,150.5 380.5,150.5C 380.5,151.5 380.5,152.5 380.5,153.5C 379.5,152.833 378.5,152.167 377.5,151.5C 370.215,143.548 362.548,135.881 354.5,128.5C 353.167,126.833 351.833,125.167 350.5,123.5C 349.648,119.028 347.648,115.195 344.5,112C 339.316,112.126 338.65,110.959 342.5,108.5C 339.867,107.116 339.867,105.782 342.5,104.5C 345.177,105.074 347.843,105.741 350.5,106.5C 351.283,108.288 352.616,109.288 354.5,109.5 Z"/></g>
<g><path style="opacity:1" fill="#efb52f" d="M 263.5,107.5 C 262.47,110.192 260.47,111.692 257.5,112C 252.167,112.667 246.833,112.667 241.5,112C 240.244,111.583 239.577,110.75 239.5,109.5C 245.136,111.689 250.802,112.023 256.5,110.5C 258.98,109.758 261.313,108.758 263.5,107.5 Z"/></g>
<g><path style="opacity:0.102" fill="#fff9d4" d="M 325.5,77.5 C 325.5,78.1667 325.5,78.8333 325.5,79.5C 322.484,75.485 318.817,72.1517 314.5,69.5C 312.923,66.9501 310.923,64.9501 308.5,63.5C 305.485,58.8222 301.819,54.8222 297.5,51.5C 282.09,35.5886 266.423,19.7553 250.5,4C 247.536,4.77187 245.202,6.6052 243.5,9.5C 239.543,13.4914 235.543,17.4914 231.5,21.5C 227.806,24.5271 224.473,27.8604 221.5,31.5C 219.167,33.1667 217.167,35.1667 215.5,37.5C 209.167,44.5 202.5,51.1667 195.5,57.5C 167.915,85.4193 140.248,113.419 112.5,141.5C 110.5,143.167 108.5,144.833 106.5,146.5C 106.5,146.167 106.5,145.833 106.5,145.5C 152.937,97.5626 199.937,50.0626 247.5,3C 248.833,2.33333 250.167,2.33333 251.5,3C 276.368,27.7014 301.035,52.5347 325.5,77.5 Z M 253.5,28.5 C 252.486,29.7647 250.986,30.4313 249,30.5C 247.293,30.4915 245.793,30.1582 244.5,29.5C 246.148,28.1902 247.814,26.8569 249.5,25.5C 250.852,26.5244 252.185,27.5244 253.5,28.5 Z"/></g>
<g><path style="opacity:0.49" fill="#fff1cb" d="M 203.5,69.5 C 200.785,72.8815 197.785,75.8815 194.5,78.5C 196.522,74.4784 199.522,71.4784 203.5,69.5 Z"/></g>
<g><path style="opacity:1" fill="#fff8cd" d="M 240.5,71.5 C 238.704,73.9 236.37,75.5667 233.5,76.5C 235.296,74.1 237.63,72.4333 240.5,71.5 Z"/></g>
<g><path style="opacity:1" fill="#f9c459" d="M 257.5,70.5 C 260.313,70.0246 262.313,71.0246 263.5,73.5C 262.391,73.4431 261.391,73.1098 260.5,72.5C 259.5,71.8333 258.5,71.1667 257.5,70.5 Z"/></g>
<g><path style="opacity:1" fill="#fff9d0" d="M 257.5,70.5 C 258.5,71.1667 259.5,71.8333 260.5,72.5C 253.961,70.1912 247.294,69.8579 240.5,71.5C 240.918,70.7784 241.584,70.2784 242.5,70C 247.684,69.1837 252.684,69.3503 257.5,70.5 Z"/></g>
<g><path style="opacity:1" fill="#fffad7" d="M 275.5,63.5 C 277.585,64.3503 279.585,64.6837 281.5,64.5C 281.069,65.2935 280.735,66.1268 280.5,67C 282.545,69.5314 283.879,72.3648 284.5,75.5C 283.728,74.3065 282.728,73.3065 281.5,72.5C 280.255,69.0127 278.255,66.0127 275.5,63.5 Z"/></g>
<g><path style="opacity:1" fill="#f3bb41" d="M 230.5,58.5 C 230.833,58.5 231.167,58.5 231.5,58.5C 229.615,60.0532 228.615,62.0532 228.5,64.5C 227.127,64.3433 225.793,64.51 224.5,65C 222.963,66.7073 221.296,68.2073 219.5,69.5C 222.145,64.8547 225.812,61.188 230.5,58.5 Z"/></g>
<g><path style="opacity:1" fill="#fff4b9" d="M 267.5,57.5 C 269.027,57.427 270.027,58.0937 270.5,59.5C 268.973,59.573 267.973,58.9063 267.5,57.5 Z"/></g>
<g><path style="opacity:1" fill="#fae58f" d="M 236.5,55.5 C 235.232,57.047 233.565,58.047 231.5,58.5C 231.167,58.5 230.833,58.5 230.5,58.5C 232.033,56.7549 234.033,55.7549 236.5,55.5 Z"/></g>
<g><path style="opacity:1" fill="#ffedb2" d="M 282.5,55.5 C 284.833,57.1667 286.833,59.1667 288.5,61.5C 285.5,60.5 283.5,58.5 282.5,55.5 Z"/></g>
<g><path style="opacity:0.957" fill="#f1bb43" d="M 297.5,51.5 C 301.819,54.8222 305.485,58.8222 308.5,63.5C 305.226,61.0672 302.059,58.4005 299,55.5C 298.209,54.255 297.709,52.9217 297.5,51.5 Z"/></g>
<g><path style="opacity:1" fill="#f4c659" d="M 256.5,54.5 C 250.797,54.3748 245.13,54.7081 239.5,55.5C 239.5,55.1667 239.5,54.8333 239.5,54.5C 245.266,53.196 250.933,53.196 256.5,54.5 Z"/></g>
<g><path style="opacity:1" fill="#fffcd9" d="M 263.5,55.5 C 261.139,55.3259 258.806,54.9926 256.5,54.5C 250.933,53.196 245.266,53.196 239.5,54.5C 242.768,53.1778 246.435,52.5112 250.5,52.5C 254.167,52.6667 257.833,52.8333 261.5,53C 262.381,53.7083 263.047,54.5416 263.5,55.5 Z"/></g>
<g><path style="opacity:1" fill="#fff9d9" d="M 272.5,45.5 C 275.211,48.5077 277.878,51.5077 280.5,54.5C 276.171,53.0114 273.504,50.0114 272.5,45.5 Z"/></g>
<g><path style="opacity:0.792" fill="#ffefbd" d="M 239.5,32.5 C 229.554,44.1141 218.887,55.1141 207.5,65.5C 217.446,53.8859 228.113,42.8859 239.5,32.5 Z"/></g>
<g><path style="opacity:0.957" fill="#f5b941" d="M 215.5,37.5 C 214.37,39.3146 213.704,41.3146 213.5,43.5C 212.448,43.3505 211.448,43.5172 210.5,44C 206.231,49.4417 201.231,53.9417 195.5,57.5C 202.5,51.1667 209.167,44.5 215.5,37.5 Z"/></g>
<g><path style="opacity:1" fill="#fff6d2" d="M 264.5,37.5 C 267.5,39.8333 270.167,42.5 272.5,45.5C 270.14,43.9891 267.64,42.6558 265,41.5C 264.51,40.2068 264.343,38.8734 264.5,37.5 Z"/></g>
<g><path style="opacity:0.796" fill="#f5c157" d="M 221.5,31.5 C 220.5,34.5 218.5,36.5 215.5,37.5C 217.167,35.1667 219.167,33.1667 221.5,31.5 Z"/></g>
<g><path style="opacity:1" fill="#fff8d2" d="M 256.5,29.5 C 259.527,31.8605 262.194,34.5271 264.5,37.5C 261.818,36.0445 259.151,34.7112 256.5,33.5C 256.5,32.1667 256.5,30.8333 256.5,29.5 Z"/></g>
<g><path style="opacity:0.133" fill="#fff4d0" d="M 256.5,29.5 C 255.391,29.4431 254.391,29.1098 253.5,28.5C 252.185,27.5244 250.852,26.5244 249.5,25.5C 247.814,26.8569 246.148,28.1902 244.5,29.5C 243.078,30.925 241.411,31.925 239.5,32.5C 242.479,28.8544 245.812,25.521 249.5,22.5C 252.188,24.5211 254.521,26.8544 256.5,29.5 Z"/></g>
<g><path style="opacity:0.824" fill="#f3bb48" d="M 243.5,9.5 C 240.877,14.8241 236.877,18.8241 231.5,21.5C 235.543,17.4914 239.543,13.4914 243.5,9.5 Z"/></g>
<g><path style="opacity:1" fill="#fef8d2" d="M 163.5,109.5 C 161.216,113.784 157.882,117.118 153.5,119.5C 156.479,115.854 159.812,112.521 163.5,109.5 Z"/></g>
<g><path style="opacity:1" fill="#fffbdb" d="M 218.5,111.5 C 220.466,112.255 220.8,113.421 219.5,115C 213.502,116.898 207.502,118.731 201.5,120.5C 201.5,119.5 201.5,118.5 201.5,117.5C 207.357,117.394 213.024,116.394 218.5,114.5C 218.5,113.5 218.5,112.5 218.5,111.5 Z"/></g>
<g><path style="opacity:1" fill="#fff6cb" d="M 285.5,116.5 C 290.075,116.394 294.408,117.394 298.5,119.5C 301.397,121.237 304.397,122.737 307.5,124C 308.71,125.039 309.71,126.206 310.5,127.5C 306.272,125.934 302.272,123.934 298.5,121.5C 294.029,119.975 289.696,118.309 285.5,116.5 Z"/></g>
<g><path style="opacity:1" fill="#fefbd9" d="M 342.5,116.5 C 345.141,118.804 347.808,121.138 350.5,123.5C 351.833,125.167 353.167,126.833 354.5,128.5C 353.417,128.461 352.417,128.127 351.5,127.5C 349.957,124.61 347.624,122.943 344.5,122.5C 344.386,120.282 343.72,118.282 342.5,116.5 Z"/></g>
<g><path style="opacity:1" fill="#f1b52c" d="M 244.5,130.5 C 244.167,130.5 243.833,130.5 243.5,130.5C 243.489,128.983 242.823,127.816 241.5,127C 237.476,126.503 233.476,126.669 229.5,127.5C 232.249,125.06 235.583,123.727 239.5,123.5C 243.082,124.369 244.749,126.703 244.5,130.5 Z"/></g>
<g><path style="opacity:1" fill="#fffadc" d="M 200.5,121.5 C 196.182,124.326 191.516,126.659 186.5,128.5C 186.351,127.448 186.517,126.448 187,125.5C 191.346,123.729 195.846,122.395 200.5,121.5 Z"/></g>
<g><path style="opacity:1" fill="#fff9cd" d="M 243.5,130.5 C 241.497,128.985 239.163,128.319 236.5,128.5C 232.182,129.082 227.849,129.415 223.5,129.5C 225.302,128.542 227.302,127.875 229.5,127.5C 233.476,126.669 237.476,126.503 241.5,127C 242.823,127.816 243.489,128.983 243.5,130.5 Z"/></g>
<g><path style="opacity:1" fill="#fff6cf" d="M 271.5,128.5 C 266.5,128.5 261.5,128.5 256.5,128.5C 255.377,131.375 254.544,134.375 254,137.5C 252.215,138.24 250.382,138.907 248.5,139.5C 247.702,139.043 247.369,138.376 247.5,137.5C 248.675,137.719 249.675,137.386 250.5,136.5C 252.375,133.249 254.375,130.082 256.5,127C 261.743,126.306 266.743,126.806 271.5,128.5 Z"/></g>
<g><path style="opacity:1" fill="#fefefc" d="M 243.5,130.5 C 243.833,130.5 244.167,130.5 244.5,130.5C 245.773,132.713 246.773,135.046 247.5,137.5C 247.369,138.376 247.702,139.043 248.5,139.5C 250.382,138.907 252.215,138.24 254,137.5C 254.544,134.375 255.377,131.375 256.5,128.5C 261.5,128.5 266.5,128.5 271.5,128.5C 273.78,130.223 276.447,130.889 279.5,130.5C 285.378,132.048 291.044,134.048 296.5,136.5C 297.626,138.453 299.292,139.953 301.5,141C 301.167,141.333 300.833,141.667 300.5,142C 302.134,142.494 303.801,142.66 305.5,142.5C 305.833,142.5 306.167,142.5 306.5,142.5C 306.5,143.833 306.5,145.167 306.5,146.5C 309.014,146.754 311.348,147.587 313.5,149C 315.037,150.11 315.703,151.61 315.5,153.5C 314.5,153.5 313.5,153.5 312.5,153.5C 269.335,152.667 226.002,152.167 182.5,152C 184.576,149.416 187.243,147.749 190.5,147C 191.337,145.989 191.67,144.822 191.5,143.5C 193.566,141.801 195.9,140.468 198.5,139.5C 202.083,139.27 205.083,137.937 207.5,135.5C 207.5,135.167 207.5,134.833 207.5,134.5C 210.716,134.655 213.383,133.655 215.5,131.5C 215.833,131.5 216.167,131.5 216.5,131.5C 219.152,131.59 221.485,130.924 223.5,129.5C 227.849,129.415 232.182,129.082 236.5,128.5C 239.163,128.319 241.497,128.985 243.5,130.5 Z"/></g>
<g><path style="opacity:1" fill="#feeeb0" d="M 310.5,127.5 C 312.027,127.427 313.027,128.094 313.5,129.5C 311.973,129.573 310.973,128.906 310.5,127.5 Z"/></g>
<g><path style="opacity:1" fill="#fffacd" d="M 271.5,128.5 C 272.833,128.5 274.167,128.5 275.5,128.5C 276.833,129.167 278.167,129.833 279.5,130.5C 276.447,130.889 273.78,130.223 271.5,128.5 Z"/></g>
<g><path style="opacity:1" fill="#fff6c0" d="M 223.5,129.5 C 221.485,130.924 219.152,131.59 216.5,131.5C 218.515,130.076 220.848,129.41 223.5,129.5 Z"/></g>
<g><path style="opacity:1" fill="#fff2c9" d="M 313.5,129.5 C 316.522,129.342 318.522,130.675 319.5,133.5C 317.223,132.551 315.223,131.218 313.5,129.5 Z"/></g>
<g><path style="opacity:1" fill="#f7b526" d="M 297.5,136.5 C 297.167,136.5 296.833,136.5 296.5,136.5C 291.044,134.048 285.378,132.048 279.5,130.5C 278.167,129.833 276.833,129.167 275.5,128.5C 279.434,128.979 283.101,128.312 286.5,126.5C 287.594,127.868 287.26,129.035 285.5,130C 287.433,130.251 289.266,130.751 291,131.5C 293.432,131.523 295.932,131.19 298.5,130.5C 298.762,132.132 297.762,133.299 295.5,134C 296.381,134.708 297.047,135.542 297.5,136.5 Z"/></g>
<g><path style="opacity:1" fill="#feefb5" d="M 215.5,131.5 C 213.383,133.655 210.716,134.655 207.5,134.5C 209.936,133.129 212.603,132.129 215.5,131.5 Z"/></g>
<g><path style="opacity:1" fill="#fefbe1" d="M 153.5,119.5 C 150.029,124.766 145.862,129.432 141,133.5C 140.508,134.549 140.674,135.549 141.5,136.5C 138.874,137.293 137.04,138.96 136,141.5C 135.586,141.043 135.086,140.709 134.5,140.5C 133.378,141.63 132.044,142.297 130.5,142.5C 137.908,134.425 145.575,126.758 153.5,119.5 Z"/></g>
<g><path style="opacity:1" fill="#fff8d4" d="M 207.5,135.5 C 205.083,137.937 202.083,139.27 198.5,139.5C 199.903,138.069 201.569,136.902 203.5,136C 204.793,135.51 206.127,135.343 207.5,135.5 Z"/></g>
<g><path style="opacity:1" fill="#fff9d9" d="M 296.5,136.5 C 296.833,136.5 297.167,136.5 297.5,136.5C 300.524,138.013 303.191,140.013 305.5,142.5C 303.801,142.66 302.134,142.494 300.5,142C 300.833,141.667 301.167,141.333 301.5,141C 299.292,139.953 297.626,138.453 296.5,136.5 Z"/></g>
<g><path style="opacity:1" fill="#f0bc43" d="M 183.5,131.5 C 175.25,138.411 167.25,145.744 159.5,153.5C 159.5,153.167 159.5,152.833 159.5,152.5C 166.359,143.96 174.359,136.96 183.5,131.5 Z"/></g>
<g><path style="opacity:1" fill="#fffacf" d="M 332.5,144.5 C 335.167,145.167 336.833,146.833 337.5,149.5C 335.5,148.167 333.833,146.5 332.5,144.5 Z"/></g>
<g><path style="opacity:1" fill="#fffdef" d="M 191.5,143.5 C 191.67,144.822 191.337,145.989 190.5,147C 187.243,147.749 184.576,149.416 182.5,152C 226.002,152.167 269.335,152.667 312.5,153.5C 268.487,154.161 224.821,153.495 181.5,151.5C 184.095,147.874 187.428,145.208 191.5,143.5 Z"/></g>
<g><path style="opacity:1" fill="#fffdd5" d="M 306.5,142.5 C 311.052,145.603 315.386,148.936 319.5,152.5C 296.51,153.833 273.176,154.5 249.5,154.5C 225.824,154.5 202.49,153.833 179.5,152.5C 179.842,151.662 180.508,151.328 181.5,151.5C 224.821,153.495 268.487,154.161 312.5,153.5C 313.5,153.5 314.5,153.5 315.5,153.5C 315.703,151.61 315.037,150.11 313.5,149C 311.348,147.587 309.014,146.754 306.5,146.5C 306.5,145.167 306.5,143.833 306.5,142.5 Z"/></g>
<g><path style="opacity:0.438" fill="#ffe191" d="M 393.5,148.5 C 394.117,148.611 394.617,148.944 395,149.5C 395.5,221.833 395.667,294.166 395.5,366.5C 298.332,366.833 201.332,366.499 104.5,365.5C 201.167,365.5 297.833,365.5 394.5,365.5C 394.833,293.665 394.499,221.998 393.5,150.5C 393.5,149.833 393.5,149.167 393.5,148.5 Z"/></g>
<g><path style="opacity:0.098" fill="#fffcdf" d="M 325.5,77.5 C 349.493,100.66 372.993,124.327 396,148.5C 396.832,221.334 396.666,294.001 395.5,366.5C 395.667,294.166 395.5,221.833 395,149.5C 394.617,148.944 394.117,148.611 393.5,148.5C 380.833,135.167 367.833,122.167 354.5,109.5C 344.806,99.4734 335.139,89.4734 325.5,79.5C 325.5,78.8333 325.5,78.1667 325.5,77.5 Z"/></g>
<g><path style="opacity:1" fill="#fcb111" d="M 298.5,121.5 C 302.272,123.934 306.272,125.934 310.5,127.5C 310.973,128.906 311.973,129.573 313.5,129.5C 315.223,131.218 317.223,132.551 319.5,133.5C 323.608,137.394 327.941,141.061 332.5,144.5C 333.833,146.5 335.5,148.167 337.5,149.5C 338.167,150.5 338.833,151.5 339.5,152.5C 339.973,153.906 340.973,154.573 342.5,154.5C 342.263,155.791 342.596,156.791 343.5,157.5C 343.833,158.5 344.5,159.167 345.5,159.5C 348.963,164.094 351.63,169.094 353.5,174.5C 354.298,176.966 355.631,178.966 357.5,180.5C 358.441,182.05 359.107,183.716 359.5,185.5C 359.992,187.819 360.992,189.819 362.5,191.5C 363.343,196.538 364.343,201.538 365.5,206.5C 367.072,222.905 366.738,239.238 364.5,255.5C 364.007,257.806 363.674,260.139 363.5,262.5C 363.5,262.833 363.5,263.167 363.5,263.5C 361.903,265.848 360.903,268.514 360.5,271.5C 356.988,278.745 353.321,286.078 349.5,293.5C 346.512,297.462 343.512,301.462 340.5,305.5C 336.528,309.807 332.528,314.141 328.5,318.5C 326.246,319.124 324.579,320.457 323.5,322.5C 320.865,323.811 318.531,325.478 316.5,327.5C 314.147,328.34 312.147,329.674 310.5,331.5C 306.817,332.675 303.484,334.341 300.5,336.5C 288.51,341.051 276.177,344.385 263.5,346.5C 255.826,346.666 248.159,346.5 240.5,346C 233.617,344.479 226.617,343.646 219.5,343.5C 217.435,343.483 215.435,343.15 213.5,342.5C 209.332,340.662 204.998,338.995 200.5,337.5C 197.257,335.837 193.924,334.171 190.5,332.5C 187.709,330.265 184.709,328.265 181.5,326.5C 177.485,322.487 173.152,318.821 168.5,315.5C 166.833,313.167 164.833,311.167 162.5,309.5C 161.075,308.078 160.075,306.411 159.5,304.5C 160.822,304.67 161.989,304.337 163,303.5C 163.492,304.549 163.326,305.549 162.5,306.5C 162.887,307.72 163.72,308.387 165,308.5C 172.937,304.953 173.437,300.287 166.5,294.5C 164.44,292.299 162.274,290.965 160,290.5C 159.751,291.624 159.251,292.624 158.5,293.5C 157.757,292.092 156.923,290.759 156,289.5C 156.471,287.667 157.304,285.834 158.5,284C 156.709,281.894 156.042,279.394 156.5,276.5C 159.673,282.181 163.339,287.514 167.5,292.5C 168.604,294.389 169.937,296.055 171.5,297.5C 172.833,299.5 174.5,301.167 176.5,302.5C 179.231,306.234 182.564,309.234 186.5,311.5C 186.973,312.906 187.973,313.573 189.5,313.5C 192.494,316 195.827,318 199.5,319.5C 202.947,322.438 206.947,324.438 211.5,325.5C 211.973,326.906 212.973,327.573 214.5,327.5C 217.5,328.167 220.5,328.833 223.5,329.5C 225.515,330.924 227.848,331.59 230.5,331.5C 234.784,333.145 238.784,332.812 242.5,330.5C 244.408,329.514 245.408,327.848 245.5,325.5C 246.815,324.524 248.148,323.524 249.5,322.5C 250.183,322.863 250.85,323.196 251.5,323.5C 252.672,325.844 252.672,328.177 251.5,330.5C 252.167,331.167 252.833,331.833 253.5,332.5C 257.649,333.809 261.649,333.809 265.5,332.5C 265.842,331.662 266.508,331.328 267.5,331.5C 271.5,330.833 275.5,330.167 279.5,329.5C 283.553,328.65 287.553,327.484 291.5,326C 292.056,325.617 292.389,325.117 292.5,324.5C 293.167,323.833 293.833,323.167 294.5,322.5C 296.153,322.34 297.486,321.674 298.5,320.5C 301.317,319.905 303.65,318.572 305.5,316.5C 309.246,313.415 313.246,310.749 317.5,308.5C 322.225,306.108 325.558,302.441 327.5,297.5C 328.833,295.833 330.167,294.167 331.5,292.5C 334.313,289.554 336.646,286.221 338.5,282.5C 339.475,280.205 340.808,278.205 342.5,276.5C 343.794,275.71 344.961,274.71 346,273.5C 346.696,270.522 347.196,267.522 347.5,264.5C 347.5,264.167 347.5,263.833 347.5,263.5C 349.118,260.112 350.118,256.446 350.5,252.5C 350.5,252.167 350.5,251.833 350.5,251.5C 351.913,248.781 352.58,245.781 352.5,242.5C 353.622,240.712 353.789,238.712 353,236.5C 352.329,235.748 351.496,235.414 350.5,235.5C 347.193,234.179 344.193,232.346 341.5,230C 342.372,227.408 344.039,225.574 346.5,224.5C 353.682,222.286 355.349,217.953 351.5,211.5C 351.5,210.833 351.5,210.167 351.5,209.5C 351.59,206.848 350.924,204.515 349.5,202.5C 349.279,199.933 348.612,197.599 347.5,195.5C 346.446,190.311 344.446,185.644 341.5,181.5C 340.649,179.118 339.316,177.118 337.5,175.5C 336.737,171.63 334.737,168.63 331.5,166.5C 331.573,164.973 330.906,163.973 329.5,163.5C 328.92,161.251 327.587,159.585 325.5,158.5C 324.738,156.738 323.404,155.738 321.5,155.5C 321.573,153.973 320.906,152.973 319.5,152.5C 315.386,148.936 311.052,145.603 306.5,142.5C 306.167,142.5 305.833,142.5 305.5,142.5C 303.191,140.013 300.524,138.013 297.5,136.5C 300.073,136.852 302.406,136.352 304.5,135C 304.167,134.667 303.833,134.333 303.5,134C 304.308,133.692 304.975,133.192 305.5,132.5C 304.833,131.5 304.167,130.5 303.5,129.5C 304.5,128.667 305.5,127.833 306.5,127C 304.105,126.319 301.772,125.485 299.5,124.5C 298.873,123.583 298.539,122.583 298.5,121.5 Z"/></g>
<g><path style="opacity:0.811" fill="#f2b940" d="M 112.5,141.5 C 110.573,144.767 108.239,147.767 105.5,150.5C 105.5,221.833 105.5,293.167 105.5,364.5C 201.5,364.5 297.5,364.5 393.5,364.5C 393.5,293.167 393.5,221.833 393.5,150.5C 394.499,221.998 394.833,293.665 394.5,365.5C 297.833,365.5 201.167,365.5 104.5,365.5C 103.334,293.668 103.168,221.668 104,149.5C 105.045,148.627 105.878,147.627 106.5,146.5C 108.5,144.833 110.5,143.167 112.5,141.5 Z"/></g>
<g><path style="opacity:1" fill="#fdb006" d="M 105.5,150.5 C 106.833,150.5 108.167,150.5 109.5,150.5C 109.281,151.675 109.614,152.675 110.5,153.5C 112.881,151.608 115.547,151.108 118.5,152C 117.17,185.121 116.503,218.454 116.5,252C 116.5,285.335 116.833,318.502 117.5,351.5C 205.5,351.5 293.5,351.5 381.5,351.5C 381.5,286.167 381.5,220.833 381.5,155.5C 381.5,154.833 381.167,154.5 380.5,154.5C 380.5,154.167 380.5,153.833 380.5,153.5C 380.5,152.5 380.5,151.5 380.5,150.5C 384.833,150.5 389.167,150.5 393.5,150.5C 393.5,221.833 393.5,293.167 393.5,364.5C 297.5,364.5 201.5,364.5 105.5,364.5C 105.5,293.167 105.5,221.833 105.5,150.5 Z"/></g>
<g><path style="opacity:1" fill="#fff2bd" d="M 380.5,155.5 C 380.833,155.5 381.167,155.5 381.5,155.5C 381.5,220.833 381.5,286.167 381.5,351.5C 293.5,351.5 205.5,351.5 117.5,351.5C 117.5,351.167 117.5,350.833 117.5,350.5C 117.833,350.5 118.167,350.5 118.5,350.5C 120.833,350.5 123.167,350.5 125.5,350.5C 210.668,350.833 295.668,350.499 380.5,349.5C 380.5,284.833 380.5,220.167 380.5,155.5 Z"/></g>
<g><path style="opacity:1" fill="#fefef1" d="M 227.5,346.5 C 231.452,347.272 235.452,347.605 239.5,347.5C 247.5,347.5 255.5,347.5 263.5,347.5C 259.688,348.324 255.688,348.824 251.5,349C 254.833,349.167 258.167,349.333 261.5,349.5C 269.526,348.607 277.526,348.607 285.5,349.5C 287.055,349.278 288.389,348.611 289.5,347.5C 317.947,348.807 346.281,348.807 374.5,347.5C 376.841,347.363 378.841,348.03 380.5,349.5C 295.668,350.499 210.668,350.833 125.5,350.5C 149.516,349.81 173.683,349.143 198,348.5C 202.471,348.443 206.971,348.776 211.5,349.5C 213.486,349.213 215.32,348.547 217,347.5C 220.972,350.201 224.472,349.868 227.5,346.5 Z"/></g>
<g><path style="opacity:1" fill="#f3b83a" d="M 219.5,343.5 C 226.617,343.646 233.617,344.479 240.5,346C 248.159,346.5 255.826,346.666 263.5,346.5C 263.5,346.833 263.5,347.167 263.5,347.5C 255.5,347.5 247.5,347.5 239.5,347.5C 232.77,346.492 226.104,345.159 219.5,343.5 Z"/></g>
<g><path style="opacity:1" fill="#fff7c8" d="M 213.5,342.5 C 215.435,343.15 217.435,343.483 219.5,343.5C 226.104,345.159 232.77,346.492 239.5,347.5C 235.452,347.605 231.452,347.272 227.5,346.5C 222.297,346.538 217.63,345.204 213.5,342.5 Z"/></g>
<g><path style="opacity:1" fill="#fff8cd" d="M 300.5,336.5 C 298.073,338.558 295.407,340.391 292.5,342C 282.976,344.71 273.309,346.543 263.5,347.5C 263.5,347.167 263.5,346.833 263.5,346.5C 276.177,344.385 288.51,341.051 300.5,336.5 Z"/></g>
<g><path style="opacity:1" fill="#fff8d4" d="M 310.5,331.5 C 310.196,332.15 309.863,332.817 309.5,333.5C 306.644,335.044 303.644,336.044 300.5,336.5C 303.484,334.341 306.817,332.675 310.5,331.5 Z"/></g>
<g><path style="opacity:1" fill="#fff5c8" d="M 190.5,332.5 C 193.924,334.171 197.257,335.837 200.5,337.5C 196.25,337.304 192.917,335.638 190.5,332.5 Z"/></g>
<g><path style="opacity:1" fill="#f5b933" d="M 251.5,323.5 C 253.829,325.841 255.829,328.508 257.5,331.5C 260.086,332.48 262.753,332.813 265.5,332.5C 261.649,333.809 257.649,333.809 253.5,332.5C 252.833,331.833 252.167,331.167 251.5,330.5C 252.672,328.177 252.672,325.844 251.5,323.5 Z"/></g>
<g><path style="opacity:1" fill="#fce397" d="M 223.5,329.5 C 224.833,329.5 226.167,329.5 227.5,329.5C 228.5,330.167 229.5,330.833 230.5,331.5C 227.848,331.59 225.515,330.924 223.5,329.5 Z"/></g>
<g><path style="opacity:1" fill="#fff8d3" d="M 281.5,327.5 C 280.833,328.167 280.167,328.833 279.5,329.5C 275.5,330.167 271.5,330.833 267.5,331.5C 267.953,330.542 268.619,329.708 269.5,329C 273.528,328.608 277.528,328.108 281.5,327.5 Z"/></g>
<g><path style="opacity:1" fill="#fef8db" d="M 323.5,322.5 C 322.614,326.037 320.281,327.704 316.5,327.5C 318.531,325.478 320.865,323.811 323.5,322.5 Z"/></g>
<g><path style="opacity:1" fill="#f1ba45" d="M 292.5,324.5 C 292.389,325.117 292.056,325.617 291.5,326C 287.553,327.484 283.553,328.65 279.5,329.5C 280.167,328.833 280.833,328.167 281.5,327.5C 283.786,327.405 285.786,326.738 287.5,325.5C 289.216,325.371 290.883,325.038 292.5,324.5 Z"/></g>
<g><path style="opacity:1" fill="#fffbd9" d="M 213.5,325.5 C 218.404,326.497 223.071,327.83 227.5,329.5C 226.167,329.5 224.833,329.5 223.5,329.5C 220.5,328.833 217.5,328.167 214.5,327.5C 214.167,326.833 213.833,326.167 213.5,325.5 Z"/></g>
<g><path style="opacity:1" fill="#f4ce73" d="M 211.5,325.5 C 212.167,325.5 212.833,325.5 213.5,325.5C 213.833,326.167 214.167,326.833 214.5,327.5C 212.973,327.573 211.973,326.906 211.5,325.5 Z"/></g>
<g><path style="opacity:1" fill="#fff9c7" d="M 294.5,322.5 C 293.833,323.167 293.167,323.833 292.5,324.5C 290.883,325.038 289.216,325.371 287.5,325.5C 289.185,323.182 291.519,322.182 294.5,322.5 Z"/></g>
<g><path style="opacity:1" fill="#fffadc" d="M 168.5,315.5 C 173.152,318.821 177.485,322.487 181.5,326.5C 176.554,325.572 172.387,323.239 169,319.5C 168.51,318.207 168.343,316.873 168.5,315.5 Z"/></g>
<g><path style="opacity:1" fill="#fef8cf" d="M 305.5,316.5 C 303.65,318.572 301.317,319.905 298.5,320.5C 299.809,317.549 302.143,316.216 305.5,316.5 Z"/></g>
<g><path style="opacity:1" fill="#fefada" d="M 189.5,313.5 C 191.839,314.637 194.172,314.804 196.5,314C 196.043,314.414 195.709,314.914 195.5,315.5C 196.729,316.281 198.062,316.781 199.5,317C 198.402,317.77 198.402,318.603 199.5,319.5C 195.827,318 192.494,316 189.5,313.5 Z"/></g>
<g><path style="opacity:1" fill="#fff9dc" d="M 340.5,305.5 C 340.859,307.766 340.192,309.599 338.5,311C 339.34,312.666 338.84,312.833 337,311.5C 334.564,314.447 331.731,316.78 328.5,318.5C 332.528,314.141 336.528,309.807 340.5,305.5 Z"/></g>
<g><path style="opacity:1" fill="#fff9d2" d="M 153.5,298.5 C 155.139,300.806 157.139,302.806 159.5,304.5C 160.075,306.411 161.075,308.078 162.5,309.5C 156.94,307.939 153.94,304.272 153.5,298.5 Z"/></g>
<g><path style="opacity:1" fill="#f3bb4b" d="M 327.5,297.5 C 325.558,302.441 322.225,306.108 317.5,308.5C 320.862,304.808 324.195,301.141 327.5,297.5 Z"/></g>
<g><path style="opacity:1" fill="#fff3bf" d="M 176.5,302.5 C 180.436,304.766 183.769,307.766 186.5,311.5C 182.564,309.234 179.231,306.234 176.5,302.5 Z"/></g>
<g><path style="opacity:1" fill="#fff7d5" d="M 349.5,293.5 C 348.356,296.177 348.19,298.843 349,301.5C 347.951,300.483 346.784,300.316 345.5,301C 344.589,303.415 342.922,304.915 340.5,305.5C 343.512,301.462 346.512,297.462 349.5,293.5 Z"/></g>
<g><path style="opacity:1" fill="#fffbd0" d="M 167.5,292.5 C 169.997,293.129 171.33,294.796 171.5,297.5C 169.937,296.055 168.604,294.389 167.5,292.5 Z"/></g>
<g><path style="opacity:1" fill="#fff8d5" d="M 143.5,282.5 C 146.335,286.164 148.668,290.164 150.5,294.5C 147.819,292.838 145.819,290.505 144.5,287.5C 143.691,285.929 143.357,284.262 143.5,282.5 Z"/></g>
<g><path style="opacity:1" fill="#fffbde" d="M 338.5,282.5 C 336.646,286.221 334.313,289.554 331.5,292.5C 331.5,290.833 331.5,289.167 331.5,287.5C 332.5,287.5 333.5,287.5 334.5,287.5C 334.183,284.454 335.516,282.787 338.5,282.5 Z"/></g>
<g><path style="opacity:1" fill="#fff6cd" d="M 360.5,271.5 C 359.399,275.056 358.399,278.723 357.5,282.5C 355.216,286.45 352.549,290.116 349.5,293.5C 353.321,286.078 356.988,278.745 360.5,271.5 Z"/></g>
<g><path style="opacity:1" fill="#fff8d6" d="M 138.5,271.5 C 140.731,274.836 142.397,278.503 143.5,282.5C 142.504,282.414 141.671,282.748 141,283.5C 140.443,279.406 139.61,275.406 138.5,271.5 Z"/></g>
<g><path style="opacity:1" fill="#f2ba42" d="M 347.5,264.5 C 347.196,267.522 346.696,270.522 346,273.5C 344.961,274.71 343.794,275.71 342.5,276.5C 344.177,272.458 345.844,268.458 347.5,264.5 Z"/></g>
<g><path style="opacity:1" fill="#fff9cc" d="M 363.5,263.5 C 363.693,266.811 362.693,269.478 360.5,271.5C 360.903,268.514 361.903,265.848 363.5,263.5 Z"/></g>
<g><path style="opacity:1" fill="#fff8c7" d="M 135.5,263.5 C 137.267,265.792 138.267,268.458 138.5,271.5C 136.415,269.316 135.415,266.649 135.5,263.5 Z"/></g>
<g><path style="opacity:1" fill="#fcecac" d="M 133.5,255.5 C 135.074,257.102 135.741,259.102 135.5,261.5C 133.926,259.898 133.259,257.898 133.5,255.5 Z"/></g>
<g><path style="opacity:1" fill="#fdf3b5" d="M 364.5,255.5 C 364.833,255.5 365.167,255.5 365.5,255.5C 365.483,257.565 365.15,259.565 364.5,261.5C 364.5,262.167 364.167,262.5 363.5,262.5C 363.674,260.139 364.007,257.806 364.5,255.5 Z"/></g>
<g><path style="opacity:1" fill="#fff8c8" d="M 350.5,252.5 C 350.118,256.446 349.118,260.112 347.5,263.5C 347.457,260.09 347.957,256.757 349,253.5C 349.383,252.944 349.883,252.611 350.5,252.5 Z"/></g>
<g><path style="opacity:1" fill="#fffad1" d="M 148.5,249.5 C 150.167,254.243 151.5,259.243 152.5,264.5C 151.508,262.544 150.508,260.544 149.5,258.5C 149.037,255.518 148.704,252.518 148.5,249.5 Z"/></g>
<g><path style="opacity:1" fill="#fdebb0" d="M 131.5,242.5 C 131.833,242.5 132.167,242.5 132.5,242.5C 132.704,245.518 133.037,248.518 133.5,251.5C 132.883,251.389 132.383,251.056 132,250.5C 131.503,247.854 131.336,245.187 131.5,242.5 Z"/></g>
<g><path style="opacity:1" fill="#fff4c7" d="M 367.5,223.5 C 368.488,228.64 368.821,233.974 368.5,239.5C 368.665,243.182 368.499,246.848 368,250.5C 366.847,253.711 366.18,257.044 366,260.5C 365.617,261.056 365.117,261.389 364.5,261.5C 365.15,259.565 365.483,257.565 365.5,255.5C 367.147,244.911 367.814,234.244 367.5,223.5 Z"/></g>
<g><path style="opacity:1" fill="#f9d381" d="M 350.5,235.5 C 351.496,235.414 352.329,235.748 353,236.5C 353.789,238.712 353.622,240.712 352.5,242.5C 352.784,240.585 352.451,238.919 351.5,237.5C 351.167,236.833 350.833,236.167 350.5,235.5 Z"/></g>
<g><path style="opacity:1" fill="#fffadc" d="M 351.5,237.5 C 352.451,238.919 352.784,240.585 352.5,242.5C 352.58,245.781 351.913,248.781 350.5,251.5C 350.283,246.77 350.617,242.103 351.5,237.5 Z"/></g>
<g><path style="opacity:1" fill="#fefbe3" d="M 155.5,231.5 C 155.5,232.5 155.5,233.5 155.5,234.5C 151.544,235.053 151.544,235.886 155.5,237C 154.354,237.645 153.354,238.478 152.5,239.5C 151.032,237.667 149.365,237.334 147.5,238.5C 148.426,242.094 148.759,245.76 148.5,249.5C 146.941,245.402 146.441,241.069 147,236.5C 147.995,235.934 148.828,235.267 149.5,234.5C 151.517,233.471 153.517,232.471 155.5,231.5 Z"/></g>
<g><path style="opacity:1" fill="#f4b52c" d="M 149.5,234.5 C 148.828,235.267 147.995,235.934 147,236.5C 146.441,241.069 146.941,245.402 148.5,249.5C 148.704,252.518 149.037,255.518 149.5,258.5C 148.069,258.119 147.236,257.119 147,255.5C 145.557,249.005 144.39,242.505 143.5,236C 145.25,234.681 147.25,234.181 149.5,234.5 Z"/></g>
<g><path style="opacity:1" fill="#eeb534" d="M 365.5,206.5 C 365.833,206.5 366.167,206.5 366.5,206.5C 366.5,206.833 366.5,207.167 366.5,207.5C 367.275,212.797 367.608,218.13 367.5,223.5C 367.814,234.244 367.147,244.911 365.5,255.5C 365.167,255.5 364.833,255.5 364.5,255.5C 366.738,239.238 367.072,222.905 365.5,206.5 Z"/></g>
<g><path style="opacity:1" fill="#fffcdd" d="M 366.5,207.5 C 367.222,207.918 367.722,208.584 368,209.5C 369.34,219.652 369.506,229.652 368.5,239.5C 368.821,233.974 368.488,228.64 367.5,223.5C 367.608,218.13 367.275,212.797 366.5,207.5 Z"/></g>
<g><path style="opacity:1" fill="#f0ba45" d="M 132.5,207.5 C 132.833,207.5 133.167,207.5 133.5,207.5C 132.698,219.148 132.365,230.815 132.5,242.5C 132.167,242.5 131.833,242.5 131.5,242.5C 131.5,241.5 131.5,240.5 131.5,239.5C 131.321,228.81 131.655,218.143 132.5,207.5 Z"/></g>
<g><path style="opacity:1" fill="#fffbd1" d="M 132.5,207.5 C 131.655,218.143 131.321,228.81 131.5,239.5C 130.342,230.343 130.176,221.009 131,211.5C 131.21,209.942 131.71,208.609 132.5,207.5 Z"/></g>
<g><path style="opacity:1" fill="#fff4c5" d="M 351.5,211.5 C 355.349,217.953 353.682,222.286 346.5,224.5C 347.055,222.271 348.389,220.605 350.5,219.5C 351.48,216.914 351.813,214.247 351.5,211.5 Z"/></g>
<g><path style="opacity:1" fill="#fff2b4" d="M 349.5,202.5 C 350.924,204.515 351.59,206.848 351.5,209.5C 350.076,207.485 349.41,205.152 349.5,202.5 Z"/></g>
<g><path style="opacity:1" fill="#f4b535" d="M 152.5,191.5 C 150.904,196.456 149.404,201.456 148,206.5C 147.499,211.508 146.999,216.508 146.5,221.5C 145.853,220.726 145.52,219.726 145.5,218.5C 146.077,210.703 147.411,203.036 149.5,195.5C 150.057,193.668 151.057,192.335 152.5,191.5 Z"/></g>
<g><path style="opacity:1" fill="#fffacf" d="M 362.5,191.5 C 363.725,192.152 364.392,193.319 364.5,195C 365.485,198.785 366.151,202.618 366.5,206.5C 366.167,206.5 365.833,206.5 365.5,206.5C 364.343,201.538 363.343,196.538 362.5,191.5 Z"/></g>
<g><path style="opacity:1" fill="#fef9d4" d="M 152.5,191.5 C 152.833,191.5 153.167,191.5 153.5,191.5C 151.644,200.613 149.644,209.78 147.5,219C 149.158,223.269 150.991,223.436 153,219.5C 153.494,221.134 153.66,222.801 153.5,224.5C 155.619,224.468 156.952,225.468 157.5,227.5C 153.7,225.766 150.034,223.766 146.5,221.5C 146.999,216.508 147.499,211.508 148,206.5C 149.404,201.456 150.904,196.456 152.5,191.5 Z"/></g>
<g><path style="opacity:1" fill="#fff9d5" d="M 138.5,187.5 C 136.581,194.09 134.915,200.756 133.5,207.5C 133.167,207.5 132.833,207.5 132.5,207.5C 133.064,200.347 135.064,193.681 138.5,187.5 Z"/></g>
<g><path style="opacity:1" fill="#fff8d1" d="M 341.5,181.5 C 344.446,185.644 346.446,190.311 347.5,195.5C 343.407,191.875 341.407,187.209 341.5,181.5 Z"/></g>
<g><path style="opacity:1" fill="#fffacc" d="M 359.5,185.5 C 361.975,186.687 362.975,188.687 362.5,191.5C 360.992,189.819 359.992,187.819 359.5,185.5 Z"/></g>
<g><path style="opacity:1" fill="#fff7d2" d="M 166.5,167.5 C 165.023,171.045 163.69,174.712 162.5,178.5C 159.321,182.142 156.321,185.809 153.5,189.5C 156.719,181.512 161.052,174.178 166.5,167.5 Z"/></g>
<g><path style="opacity:1" fill="#fff7c7" d="M 143.5,177.5 C 142.416,180.004 141.083,182.337 139.5,184.5C 139.555,181.386 140.888,179.052 143.5,177.5 Z"/></g>
<g><path style="opacity:1" fill="#f7c65b" d="M 353.5,174.5 C 355.822,175.802 357.155,177.802 357.5,180.5C 355.631,178.966 354.298,176.966 353.5,174.5 Z"/></g>
<g><path style="opacity:1" fill="#fff7d4" d="M 331.5,166.5 C 334.737,168.63 336.737,171.63 337.5,175.5C 336.85,175.196 336.183,174.863 335.5,174.5C 334.552,171.577 333.219,168.911 331.5,166.5 Z"/></g>
<g><path style="opacity:1" fill="#fff7ce" d="M 147.5,169.5 C 146.737,171.368 145.737,173.035 144.5,174.5C 143.916,171.715 144.916,170.048 147.5,169.5 Z"/></g>
<g><path style="opacity:1" fill="#fff4b9" d="M 169.5,163.5 C 169.262,165.404 168.262,166.738 166.5,167.5C 166.738,165.596 167.738,164.262 169.5,163.5 Z"/></g>
<g><path style="opacity:1" fill="#fee7a2" d="M 325.5,158.5 C 327.587,159.585 328.92,161.251 329.5,163.5C 329.167,163.5 328.833,163.5 328.5,163.5C 327.075,162.078 326.075,160.411 325.5,158.5 Z"/></g>
<g><path style="opacity:1" fill="#f2ba3e" d="M 157.5,154.5 C 156.399,159.817 153.732,164.151 149.5,167.5C 150.975,163.019 153.309,159.019 156.5,155.5C 156.5,154.833 156.833,154.5 157.5,154.5 Z"/></g>
<g><path style="opacity:1" fill="#fefefd" d="M 373.5,155.5 C 375.833,155.5 378.167,155.5 380.5,155.5C 380.5,220.167 380.5,284.833 380.5,349.5C 378.841,348.03 376.841,347.363 374.5,347.5C 346.281,348.807 317.947,348.807 289.5,347.5C 288.389,348.611 287.055,349.278 285.5,349.5C 277.526,348.607 269.526,348.607 261.5,349.5C 258.167,349.333 254.833,349.167 251.5,349C 255.688,348.824 259.688,348.324 263.5,347.5C 273.309,346.543 282.976,344.71 292.5,342C 295.407,340.391 298.073,338.558 300.5,336.5C 303.644,336.044 306.644,335.044 309.5,333.5C 309.863,332.817 310.196,332.15 310.5,331.5C 312.147,329.674 314.147,328.34 316.5,327.5C 320.281,327.704 322.614,326.037 323.5,322.5C 324.579,320.457 326.246,319.124 328.5,318.5C 331.731,316.78 334.564,314.447 337,311.5C 338.84,312.833 339.34,312.666 338.5,311C 340.192,309.599 340.859,307.766 340.5,305.5C 342.922,304.915 344.589,303.415 345.5,301C 346.784,300.316 347.951,300.483 349,301.5C 348.19,298.843 348.356,296.177 349.5,293.5C 352.549,290.116 355.216,286.45 357.5,282.5C 358.399,278.723 359.399,275.056 360.5,271.5C 362.693,269.478 363.693,266.811 363.5,263.5C 363.5,263.167 363.5,262.833 363.5,262.5C 364.167,262.5 364.5,262.167 364.5,261.5C 365.117,261.389 365.617,261.056 366,260.5C 366.18,257.044 366.847,253.711 368,250.5C 368.499,246.848 368.665,243.182 368.5,239.5C 369.506,229.652 369.34,219.652 368,209.5C 367.722,208.584 367.222,207.918 366.5,207.5C 366.5,207.167 366.5,206.833 366.5,206.5C 366.151,202.618 365.485,198.785 364.5,195C 364.392,193.319 363.725,192.152 362.5,191.5C 362.975,188.687 361.975,186.687 359.5,185.5C 359.107,183.716 358.441,182.05 357.5,180.5C 357.155,177.802 355.822,175.802 353.5,174.5C 351.63,169.094 348.963,164.094 345.5,159.5C 345.5,158.5 345.5,157.5 345.5,156.5C 355.015,156.827 364.348,156.494 373.5,155.5 Z"/></g>
<g><path style="opacity:1" fill="#fdfefc" d="M 181.5,155.5 C 181.62,156.586 182.287,157.253 183.5,157.5C 229.811,156.343 276.144,156.177 322.5,157C 323.866,158.6 324.866,160.433 325.5,162.5C 326.417,163.127 327.417,163.461 328.5,163.5C 328.833,163.5 329.167,163.5 329.5,163.5C 330.906,163.973 331.573,164.973 331.5,166.5C 333.219,168.911 334.552,171.577 335.5,174.5C 336.183,174.863 336.85,175.196 337.5,175.5C 339.316,177.118 340.649,179.118 341.5,181.5C 341.407,187.209 343.407,191.875 347.5,195.5C 348.612,197.599 349.279,199.933 349.5,202.5C 349.41,205.152 350.076,207.485 351.5,209.5C 351.5,210.167 351.5,210.833 351.5,211.5C 351.813,214.247 351.48,216.914 350.5,219.5C 348.389,220.605 347.055,222.271 346.5,224.5C 344.039,225.574 342.372,227.408 341.5,230C 344.193,232.346 347.193,234.179 350.5,235.5C 350.833,236.167 351.167,236.833 351.5,237.5C 350.617,242.103 350.283,246.77 350.5,251.5C 350.5,251.833 350.5,252.167 350.5,252.5C 349.883,252.611 349.383,252.944 349,253.5C 347.957,256.757 347.457,260.09 347.5,263.5C 347.5,263.833 347.5,264.167 347.5,264.5C 345.844,268.458 344.177,272.458 342.5,276.5C 340.808,278.205 339.475,280.205 338.5,282.5C 335.516,282.787 334.183,284.454 334.5,287.5C 333.5,287.5 332.5,287.5 331.5,287.5C 331.5,289.167 331.5,290.833 331.5,292.5C 330.167,294.167 328.833,295.833 327.5,297.5C 324.195,301.141 320.862,304.808 317.5,308.5C 313.246,310.749 309.246,313.415 305.5,316.5C 302.143,316.216 299.809,317.549 298.5,320.5C 297.486,321.674 296.153,322.34 294.5,322.5C 291.519,322.182 289.185,323.182 287.5,325.5C 285.786,326.738 283.786,327.405 281.5,327.5C 277.528,328.108 273.528,328.608 269.5,329C 268.619,329.708 267.953,330.542 267.5,331.5C 266.508,331.328 265.842,331.662 265.5,332.5C 262.753,332.813 260.086,332.48 257.5,331.5C 255.829,328.508 253.829,325.841 251.5,323.5C 251.582,321.748 250.749,320.748 249,320.5C 247.225,321.77 246.058,323.436 245.5,325.5C 243.75,326.659 242.75,328.326 242.5,330.5C 238.784,332.812 234.784,333.145 230.5,331.5C 229.5,330.833 228.5,330.167 227.5,329.5C 223.071,327.83 218.404,326.497 213.5,325.5C 212.833,325.5 212.167,325.5 211.5,325.5C 206.947,324.438 202.947,322.438 199.5,319.5C 198.402,318.603 198.402,317.77 199.5,317C 198.062,316.781 196.729,316.281 195.5,315.5C 195.709,314.914 196.043,314.414 196.5,314C 194.172,314.804 191.839,314.637 189.5,313.5C 187.973,313.573 186.973,312.906 186.5,311.5C 183.769,307.766 180.436,304.766 176.5,302.5C 174.5,301.167 172.833,299.5 171.5,297.5C 171.33,294.796 169.997,293.129 167.5,292.5C 163.339,287.514 159.673,282.181 156.5,276.5C 154.703,272.685 153.37,268.685 152.5,264.5C 151.5,259.243 150.167,254.243 148.5,249.5C 148.759,245.76 148.426,242.094 147.5,238.5C 149.365,237.334 151.032,237.667 152.5,239.5C 153.354,238.478 154.354,237.645 155.5,237C 151.544,235.886 151.544,235.053 155.5,234.5C 155.5,233.5 155.5,232.5 155.5,231.5C 157.104,230.713 157.771,229.38 157.5,227.5C 156.952,225.468 155.619,224.468 153.5,224.5C 153.66,222.801 153.494,221.134 153,219.5C 150.991,223.436 149.158,223.269 147.5,219C 149.644,209.78 151.644,200.613 153.5,191.5C 153.5,190.833 153.5,190.167 153.5,189.5C 156.321,185.809 159.321,182.142 162.5,178.5C 163.69,174.712 165.023,171.045 166.5,167.5C 168.262,166.738 169.262,165.404 169.5,163.5C 170.419,160.911 172.086,158.911 174.5,157.5C 176.558,156.067 178.892,155.4 181.5,155.5 Z"/></g>
<g><path style="opacity:1" fill="#f3c555" d="M 245.5,325.5 C 245.408,327.848 244.408,329.514 242.5,330.5C 242.75,328.326 243.75,326.659 245.5,325.5 Z"/></g>
<g><path style="opacity:1" fill="#eac25b" d="M 251.5,323.5 C 250.85,323.196 250.183,322.863 249.5,322.5C 248.148,323.524 246.815,324.524 245.5,325.5C 246.058,323.436 247.225,321.77 249,320.5C 250.749,320.748 251.582,321.748 251.5,323.5 Z"/></g>
<g><path style="opacity:1" fill="#edb22e" d="M 247.5,233.5 C 249.489,254.808 250.156,276.474 249.5,298.5C 248.094,298.027 247.427,297.027 247.5,295.5C 248.663,275.337 248.829,255.004 248,234.5C 247.578,236.426 246.411,237.426 244.5,237.5C 245.026,235.77 246.026,234.436 247.5,233.5 Z"/></g>
<g><path style="opacity:1" fill="#7f8a8c" d="M 207.5,255.5 C 213.422,259.751 218.755,264.751 223.5,270.5C 213.327,276.421 202.994,282.087 192.5,287.5C 192.167,287.167 191.833,286.833 191.5,286.5C 197.114,276.27 202.448,265.937 207.5,255.5 Z"/></g>
<g><path style="opacity:1" fill="#fff4be" d="M 231.5,266.5 C 233.527,269.22 235.193,272.22 236.5,275.5C 233.681,273.299 232.015,270.299 231.5,266.5 Z"/></g>
<g><path style="opacity:1" fill="#7d8a8b" d="M 287.5,256.5 C 293.866,266.725 299.866,277.225 305.5,288C 294.945,283.307 284.445,278.14 274,272.5C 273.333,271.833 273.333,271.167 274,270.5C 278.703,265.965 283.203,261.298 287.5,256.5 Z"/></g>
<g><path style="opacity:1" fill="#fee8a3" d="M 229.5,262.5 C 230.906,262.973 231.573,263.973 231.5,265.5C 230.094,265.027 229.427,264.027 229.5,262.5 Z"/></g>
<g><path style="opacity:1" fill="#7d8989" d="M 258.5,242.5 C 259.922,243.925 261.589,244.925 263.5,245.5C 263.833,246.5 264.5,247.167 265.5,247.5C 266.5,250.5 268.5,252.5 271.5,253.5C 271.833,254.167 272.167,254.833 272.5,255.5C 265.673,269.823 258.34,283.823 250.5,297.5C 250.5,281.5 250.5,265.5 250.5,249.5C 251.117,249.389 251.617,249.056 252,248.5C 252.567,245.832 253.067,243.166 253.5,240.5C 255.322,240.831 256.989,241.498 258.5,242.5 Z"/></g>
<g><path style="opacity:1" fill="#d5b36a" d="M 271.5,253.5 C 272.833,253.5 274.167,253.5 275.5,253.5C 274.71,254.401 273.71,255.068 272.5,255.5C 272.167,254.833 271.833,254.167 271.5,253.5 Z"/></g>
<g><path style="opacity:1" fill="#fff8cc" d="M 286.5,248.5 C 284.476,251.773 281.476,253.44 277.5,253.5C 279.748,250.607 282.748,248.94 286.5,248.5 Z"/></g>
<g><path style="opacity:1" fill="#a28d5b" d="M 265.5,247.5 C 267.833,249.167 269.833,251.167 271.5,253.5C 268.5,252.5 266.5,250.5 265.5,247.5 Z"/></g>
<g><path style="opacity:1" fill="#fff9ce" d="M 295.5,243.5 C 293.535,246.917 290.535,248.583 286.5,248.5C 289.331,246.583 292.331,244.917 295.5,243.5 Z"/></g>
<g><path style="opacity:1" fill="#ebaf2c" d="M 243.5,239.5 C 242.952,241.394 241.952,243.06 240.5,244.5C 236.946,247.104 233.279,249.438 229.5,251.5C 231.167,249.167 233.167,247.167 235.5,245.5C 238.455,243.878 241.122,241.878 243.5,239.5 Z"/></g>
<g><path style="opacity:1" fill="#d1a951" d="M 243.5,237.5 C 243.5,238.167 243.5,238.833 243.5,239.5C 241.122,241.878 238.455,243.878 235.5,245.5C 237.728,242.36 240.395,239.694 243.5,237.5 Z"/></g>
<g><path style="opacity:1" fill="#a38f5d" d="M 257.5,239.5 C 259.833,241.167 261.833,243.167 263.5,245.5C 261.589,244.925 259.922,243.925 258.5,242.5C 257.89,241.609 257.557,240.609 257.5,239.5 Z"/></g>
<g><path style="opacity:1" fill="#82897c" d="M 251.5,233.5 C 252.436,234.974 253.77,235.974 255.5,236.5C 256.167,237.5 256.833,238.5 257.5,239.5C 257.557,240.609 257.89,241.609 258.5,242.5C 256.989,241.498 255.322,240.831 253.5,240.5C 253.067,243.166 252.567,245.832 252,248.5C 251.617,249.056 251.117,249.389 250.5,249.5C 250.179,243.974 250.512,238.64 251.5,233.5 Z"/></g>
<g><path style="opacity:1" fill="#fcb00b" d="M 247.5,295.5 C 243.833,288.833 240.167,282.167 236.5,275.5C 235.193,272.22 233.527,269.22 231.5,266.5C 231.5,266.167 231.5,265.833 231.5,265.5C 231.573,263.973 230.906,262.973 229.5,262.5C 228.552,259.86 227.552,257.193 226.5,254.5C 227.167,253.167 228.167,252.167 229.5,251.5C 233.279,249.438 236.946,247.104 240.5,244.5C 241.952,243.06 242.952,241.394 243.5,239.5C 243.5,238.833 243.5,238.167 243.5,237.5C 243.833,237.5 244.167,237.5 244.5,237.5C 246.411,237.426 247.578,236.426 248,234.5C 248.829,255.004 248.663,275.337 247.5,295.5 Z"/></g>
<g><path style="opacity:1" fill="#fff6ce" d="M 315.5,233.5 C 315.196,234.15 314.863,234.817 314.5,235.5C 311.304,236.524 308.471,238.191 306,240.5C 304.234,241.233 302.401,241.567 300.5,241.5C 304.237,238.801 308.237,236.467 312.5,234.5C 313.391,233.89 314.391,233.557 315.5,233.5 Z"/></g>
<g><path style="opacity:1" fill="#fcb00d" d="M 312.5,234.5 C 308.237,236.467 304.237,238.801 300.5,241.5C 298.597,241.796 296.93,242.463 295.5,243.5C 292.331,244.917 289.331,246.583 286.5,248.5C 282.748,248.94 279.748,250.607 277.5,253.5C 276.833,253.5 276.167,253.5 275.5,253.5C 274.167,253.5 272.833,253.5 271.5,253.5C 269.833,251.167 267.833,249.167 265.5,247.5C 264.5,247.167 263.833,246.5 263.5,245.5C 261.833,243.167 259.833,241.167 257.5,239.5C 256.833,238.5 256.167,237.5 255.5,236.5C 255.063,234.926 254.063,233.759 252.5,233C 262.5,232.833 272.5,232.667 282.5,232.5C 292.856,232.501 302.856,233.168 312.5,234.5 Z"/></g>
<g><path style="opacity:1" fill="#7d8989" d="M 183.5,232.5 C 203.833,232.5 224.167,232.5 244.5,232.5C 244.371,234.216 244.038,235.883 243.5,237.5C 240.395,239.694 237.728,242.36 235.5,245.5C 233.167,247.167 231.167,249.167 229.5,251.5C 228.167,252.167 227.167,253.167 226.5,254.5C 211.733,247.918 197.4,240.585 183.5,232.5 Z"/></g>
<g><path style="opacity:1" fill="#eab12e" d="M 251.5,231.5 C 273.34,231.169 295.006,231.503 316.5,232.5C 315.833,232.5 315.5,232.833 315.5,233.5C 314.391,233.557 313.391,233.89 312.5,234.5C 302.856,233.168 292.856,232.501 282.5,232.5C 272.5,232.667 262.5,232.833 252.5,233C 254.063,233.759 255.063,234.926 255.5,236.5C 253.77,235.974 252.436,234.974 251.5,233.5C 251.5,232.833 251.5,232.167 251.5,231.5 Z"/></g>
<g><path style="opacity:1" fill="#c5a963" d="M 253.5,227.5 C 253.5,227.833 253.5,228.167 253.5,228.5C 252.5,228.833 251.833,229.5 251.5,230.5C 251.5,230.833 251.5,231.167 251.5,231.5C 251.5,232.167 251.5,232.833 251.5,233.5C 250.512,238.64 250.179,243.974 250.5,249.5C 250.5,265.5 250.5,281.5 250.5,297.5C 250.539,299.224 250.206,299.557 249.5,298.5C 250.156,276.474 249.489,254.808 247.5,233.5C 248.506,232.604 248.506,231.938 247.5,231.5C 247.5,230.833 247.5,230.167 247.5,229.5C 248.492,229.672 249.158,229.338 249.5,228.5C 249.833,228.5 250.167,228.5 250.5,228.5C 251.391,227.89 252.391,227.557 253.5,227.5 Z"/></g>
<g><path style="opacity:1" fill="#908763" d="M 182.5,231.5 C 182.833,231.5 183.167,231.5 183.5,231.5C 204.833,231.5 226.167,231.5 247.5,231.5C 248.506,231.938 248.506,232.604 247.5,233.5C 246.026,234.436 245.026,235.77 244.5,237.5C 244.167,237.5 243.833,237.5 243.5,237.5C 244.038,235.883 244.371,234.216 244.5,232.5C 224.167,232.5 203.833,232.5 183.5,232.5C 182.833,232.5 182.5,232.167 182.5,231.5 Z"/></g>
<g><path style="opacity:1" fill="#b3a56c" d="M 251.5,231.5 C 251.5,231.167 251.5,230.833 251.5,230.5C 273.167,230.5 294.833,230.5 316.5,230.5C 317.833,231.167 317.833,231.833 316.5,232.5C 295.006,231.503 273.34,231.169 251.5,231.5 Z"/></g>
<g><path style="opacity:1" fill="#f0ba44" d="M 241.5,223.5 C 242.167,223.833 242.833,224.167 243.5,224.5C 244.167,225.833 245.167,226.833 246.5,227.5C 246.833,227.5 247.167,227.5 247.5,227.5C 247.5,228.167 247.5,228.833 247.5,229.5C 247.5,230.167 247.5,230.833 247.5,231.5C 226.167,231.5 204.833,231.5 183.5,231.5C 184.211,229.97 185.211,228.637 186.5,227.5C 187.167,227.5 187.833,227.5 188.5,227.5C 188.047,228.458 187.381,229.292 186.5,230C 205.5,230.667 224.5,230.667 243.5,230C 243.957,229.586 244.291,229.086 244.5,228.5C 243.048,227.06 242.048,225.394 241.5,223.5 Z"/></g>
<g><path style="opacity:1" fill="#f0d393" d="M 186.5,227.5 C 185.211,228.637 184.211,229.97 183.5,231.5C 183.167,231.5 182.833,231.5 182.5,231.5C 181.475,231.103 181.308,230.437 182,229.5C 183.33,228.418 184.83,227.751 186.5,227.5 Z"/></g>
<g><path style="opacity:1" fill="#81887b" d="M 253.5,228.5 C 253.833,228.5 254.167,228.5 254.5,228.5C 274.061,229.223 294.061,229.557 314.5,229.5C 315.492,229.328 316.158,229.662 316.5,230.5C 294.833,230.5 273.167,230.5 251.5,230.5C 251.833,229.5 252.5,228.833 253.5,228.5 Z"/></g>
<g><path style="opacity:1" fill="#a69362" d="M 271.5,205.5 C 272.338,205.842 272.672,206.508 272.5,207.5C 272.649,208.552 272.483,209.552 272,210.5C 265.991,216.342 260.158,222.342 254.5,228.5C 254.167,228.5 253.833,228.5 253.5,228.5C 253.5,228.167 253.5,227.833 253.5,227.5C 259.158,221.342 264.991,215.342 271,209.5C 271.49,208.207 271.657,206.873 271.5,205.5 Z"/></g>
<g><path style="opacity:1" fill="#948b5b" d="M 243.5,224.5 C 245.5,224.5 246.5,225.5 246.5,227.5C 245.167,226.833 244.167,225.833 243.5,224.5 Z"/></g>
<g><path style="opacity:1" fill="#fffad7" d="M 203.5,218.5 C 198.633,221.765 193.633,224.765 188.5,227.5C 187.833,227.5 187.167,227.5 186.5,227.5C 186.804,226.85 187.137,226.183 187.5,225.5C 191.596,224.285 195.263,222.285 198.5,219.5C 200.045,218.548 201.712,218.215 203.5,218.5 Z"/></g>
<g><path style="opacity:1" fill="#9b8d5b" d="M 235.5,216.5 C 239.167,218.167 241.833,220.833 243.5,224.5C 242.833,224.167 242.167,223.833 241.5,223.5C 239.5,221.167 237.5,218.833 235.5,216.5 Z"/></g>
<g><path style="opacity:1" fill="#7c898a" d="M 272.5,207.5 C 286.85,214.34 300.85,221.673 314.5,229.5C 294.061,229.557 274.061,229.223 254.5,228.5C 260.158,222.342 265.991,216.342 272,210.5C 272.483,209.552 272.649,208.552 272.5,207.5 Z"/></g>
<g><path style="opacity:1" fill="#fff9da" d="M 215.5,212.5 C 213.151,214.341 210.485,215.674 207.5,216.5C 209.281,213.645 211.948,212.312 215.5,212.5 Z"/></g>
<g><path style="opacity:1" fill="#fbb00f" d="M 225.5,207.5 C 225.833,207.5 226.167,207.5 226.5,207.5C 229.473,210.473 232.473,213.473 235.5,216.5C 237.5,218.833 239.5,221.167 241.5,223.5C 242.048,225.394 243.048,227.06 244.5,228.5C 244.291,229.086 243.957,229.586 243.5,230C 224.5,230.667 205.5,230.667 186.5,230C 187.381,229.292 188.047,228.458 188.5,227.5C 193.633,224.765 198.633,221.765 203.5,218.5C 205.153,218.34 206.486,217.674 207.5,216.5C 210.485,215.674 213.151,214.341 215.5,212.5C 219.151,211.341 222.485,209.674 225.5,207.5 Z"/></g>
<g><path style="opacity:1" fill="#fffadc" d="M 225.5,207.5 C 222.485,209.674 219.151,211.341 215.5,212.5C 216.942,211.18 217.608,209.514 217.5,207.5C 220.062,206.629 222.728,206.629 225.5,207.5 Z"/></g>
<g><path style="opacity:1" fill="#fbe185" d="M 269.5,200.5 C 270.906,200.973 271.573,201.973 271.5,203.5C 270.094,203.027 269.427,202.027 269.5,200.5 Z"/></g>
<g><path style="opacity:1" fill="#fce291" d="M 267.5,196.5 C 267.833,196.5 268.167,196.5 268.5,196.5C 269.11,197.391 269.443,198.391 269.5,199.5C 268.094,199.027 267.427,198.027 267.5,196.5 Z"/></g>
<g><path style="opacity:1" fill="#7d898b" d="M 191.5,174.5 C 191.56,173.957 191.893,173.624 192.5,173.5C 203.121,179.428 213.788,185.262 224.5,191C 219.333,196.167 214.167,201.333 209,206.5C 203.392,195.611 197.559,184.944 191.5,174.5 Z"/></g>
<g><path style="opacity:1" fill="#fffae0" d="M 254.5,170.5 C 257.848,171.012 260.181,172.845 261.5,176C 260.446,177.388 260.28,178.888 261,180.5C 261.893,179.289 262.726,179.289 263.5,180.5C 263.069,181.293 262.735,182.127 262.5,183C 264.935,185.734 266.435,188.9 267,192.5C 267.333,192.167 267.667,191.833 268,191.5C 268.494,193.134 268.66,194.801 268.5,196.5C 268.167,196.5 267.833,196.5 267.5,196.5C 263.149,187.797 258.815,179.13 254.5,170.5 Z"/></g>
<g><path style="opacity:1" fill="#7e8a8c" d="M 305.5,174.5 C 306.043,174.56 306.376,174.893 306.5,175.5C 300.867,186.293 295.034,196.96 289,207.5C 283.833,202.333 278.667,197.167 273.5,192C 284.389,186.392 295.056,180.559 305.5,174.5 Z"/></g>
<g><path style="opacity:1" fill="#7d8989" d="M 248.5,165.5 C 248.831,186.34 248.497,207.007 247.5,227.5C 247.167,227.5 246.833,227.5 246.5,227.5C 246.5,225.5 245.5,224.5 243.5,224.5C 241.833,220.833 239.167,218.167 235.5,216.5C 232.473,213.473 229.473,210.473 226.5,207.5C 233.342,193.145 240.675,179.145 248.5,165.5 Z"/></g>
<g><path style="opacity:1" fill="#efbc46" d="M 249.5,164.5 C 251.531,165.539 252.864,167.205 253.5,169.5C 252.25,169.577 251.417,170.244 251,171.5C 250.5,190.497 250.333,209.497 250.5,228.5C 250.167,228.5 249.833,228.5 249.5,228.5C 249.5,207.167 249.5,185.833 249.5,164.5 Z"/></g>
<g><path style="opacity:1" fill="#8e8761" d="M 249.5,164.5 C 249.5,185.833 249.5,207.167 249.5,228.5C 249.158,229.338 248.492,229.672 247.5,229.5C 247.5,228.833 247.5,228.167 247.5,227.5C 248.497,207.007 248.831,186.34 248.5,165.5C 248.461,163.776 248.794,163.443 249.5,164.5 Z"/></g>
<g><path style="opacity:1" fill="#fcb00d" d="M 253.5,169.5 C 254.167,169.5 254.5,169.833 254.5,170.5C 258.815,179.13 263.149,187.797 267.5,196.5C 267.427,198.027 268.094,199.027 269.5,199.5C 269.5,199.833 269.5,200.167 269.5,200.5C 269.427,202.027 270.094,203.027 271.5,203.5C 271.5,204.167 271.5,204.833 271.5,205.5C 271.657,206.873 271.49,208.207 271,209.5C 264.991,215.342 259.158,221.342 253.5,227.5C 252.391,227.557 251.391,227.89 250.5,228.5C 250.333,209.497 250.5,190.497 251,171.5C 251.417,170.244 252.25,169.577 253.5,169.5 Z"/></g>
<g><path style="opacity:1" fill="#fefefc" d="M 156.5,155.5 C 153.309,159.019 150.975,163.019 149.5,167.5C 148.167,167.5 147.5,168.167 147.5,169.5C 144.916,170.048 143.916,171.715 144.5,174.5C 143.89,175.391 143.557,176.391 143.5,177.5C 140.888,179.052 139.555,181.386 139.5,184.5C 139.737,185.791 139.404,186.791 138.5,187.5C 135.064,193.681 133.064,200.347 132.5,207.5C 131.71,208.609 131.21,209.942 131,211.5C 130.176,221.009 130.342,230.343 131.5,239.5C 131.5,240.5 131.5,241.5 131.5,242.5C 131.336,245.187 131.503,247.854 132,250.5C 132.383,251.056 132.883,251.389 133.5,251.5C 133.5,252.833 133.5,254.167 133.5,255.5C 133.259,257.898 133.926,259.898 135.5,261.5C 135.5,262.167 135.5,262.833 135.5,263.5C 135.415,266.649 136.415,269.316 138.5,271.5C 139.61,275.406 140.443,279.406 141,283.5C 141.671,282.748 142.504,282.414 143.5,282.5C 143.357,284.262 143.691,285.929 144.5,287.5C 145.819,290.505 147.819,292.838 150.5,294.5C 152.262,295.262 153.262,296.596 153.5,298.5C 153.94,304.272 156.94,307.939 162.5,309.5C 164.833,311.167 166.833,313.167 168.5,315.5C 168.343,316.873 168.51,318.207 169,319.5C 172.387,323.239 176.554,325.572 181.5,326.5C 184.709,328.265 187.709,330.265 190.5,332.5C 192.917,335.638 196.25,337.304 200.5,337.5C 204.998,338.995 209.332,340.662 213.5,342.5C 217.63,345.204 222.297,346.538 227.5,346.5C 224.472,349.868 220.972,350.201 217,347.5C 215.32,348.547 213.486,349.213 211.5,349.5C 206.971,348.776 202.471,348.443 198,348.5C 173.683,349.143 149.516,349.81 125.5,350.5C 123.167,350.5 120.833,350.5 118.5,350.5C 118.5,285.5 118.5,220.5 118.5,155.5C 131.167,155.5 143.833,155.5 156.5,155.5 Z"/></g>
<g><path style="opacity:1" fill="#fffce8" d="M 373.5,155.5 C 364.348,156.494 355.015,156.827 345.5,156.5C 345.5,157.5 345.5,158.5 345.5,159.5C 344.5,159.167 343.833,158.5 343.5,157.5C 353.111,155.526 363.111,154.859 373.5,155.5 Z"/></g>
<g><path style="opacity:1" fill="#fffdea" d="M 181.5,155.5 C 228.167,155.5 274.833,155.5 321.5,155.5C 323.404,155.738 324.738,156.738 325.5,158.5C 326.075,160.411 327.075,162.078 328.5,163.5C 327.417,163.461 326.417,163.127 325.5,162.5C 324.866,160.433 323.866,158.6 322.5,157C 276.144,156.177 229.811,156.343 183.5,157.5C 182.287,157.253 181.62,156.586 181.5,155.5 Z"/></g>
<g><path style="opacity:1" fill="#e1cb9d" d="M 342.5,154.5 C 355.167,154.5 367.833,154.5 380.5,154.5C 381.167,154.5 381.5,154.833 381.5,155.5C 381.167,155.5 380.833,155.5 380.5,155.5C 378.167,155.5 375.833,155.5 373.5,155.5C 363.111,154.859 353.111,155.526 343.5,157.5C 342.596,156.791 342.263,155.791 342.5,154.5 Z"/></g>
<g><path style="opacity:1" fill="#e1cc9e" d="M 179.5,152.5 C 202.49,153.833 225.824,154.5 249.5,154.5C 273.176,154.5 296.51,153.833 319.5,152.5C 320.906,152.973 321.573,153.973 321.5,155.5C 274.833,155.5 228.167,155.5 181.5,155.5C 178.892,155.4 176.558,156.067 174.5,157.5C 175.833,155.5 177.5,153.833 179.5,152.5 Z"/></g>
<g><path style="opacity:1" fill="#fffcd0" d="M 377.5,151.5 C 378.5,152.167 379.5,152.833 380.5,153.5C 380.5,153.833 380.5,154.167 380.5,154.5C 367.833,154.5 355.167,154.5 342.5,154.5C 340.973,154.573 339.973,153.906 339.5,152.5C 346.12,153.129 352.787,153.462 359.5,153.5C 365.872,153.496 371.872,152.829 377.5,151.5 Z"/></g>
<g><path style="opacity:1" fill="#f9f4c8" d="M 121.5,151.5 C 126.119,152.828 131.119,153.494 136.5,153.5C 144.179,153.322 151.846,152.989 159.5,152.5C 159.5,152.833 159.5,153.167 159.5,153.5C 158.833,153.833 158.167,154.167 157.5,154.5C 156.833,154.5 156.5,154.833 156.5,155.5C 143.833,155.5 131.167,155.5 118.5,155.5C 118.5,220.5 118.5,285.5 118.5,350.5C 118.167,350.5 117.833,350.5 117.5,350.5C 117.333,285.166 117.5,219.832 118,154.5C 118.759,152.937 119.926,151.937 121.5,151.5 Z"/></g>
<g><path style="opacity:0.082" fill="#fffee5" d="M 106.5,145.5 C 106.5,145.833 106.5,146.167 106.5,146.5C 105.878,147.627 105.045,148.627 104,149.5C 103.168,221.668 103.334,293.668 104.5,365.5C 201.332,366.499 298.332,366.833 395.5,366.5C 298.334,367.666 201.001,367.832 103.5,367C 102.335,294.237 102.169,221.404 103,148.5C 103.422,146.574 104.589,145.574 106.5,145.5 Z"/></g>
<g><path style="opacity:0.112" fill="#f6f8f8" d="M 380.5,382.5 C 384.106,382.211 387.606,382.544 391,383.5C 393.231,386.795 395.064,390.295 396.5,394C 397.802,399.841 399.968,405.675 403,411.5C 403.977,413.74 404.477,416.073 404.5,418.5C 401.15,418.665 397.817,418.498 394.5,418C 393.308,416.088 392.308,414.088 391.5,412C 387.5,411.333 383.5,411.333 379.5,412C 378.692,414.088 377.692,416.088 376.5,418C 373.183,418.498 369.85,418.665 366.5,418.5C 368.606,410.351 371.606,402.518 375.5,395C 375.043,394.586 374.709,394.086 374.5,393.5C 376.528,389.816 378.528,386.15 380.5,382.5 Z M 384.5,398.5 C 387.962,400.193 387.962,401.193 384.5,401.5C 384.5,400.5 384.5,399.5 384.5,398.5 Z"/></g>
<g><path style="opacity:0.089" fill="#f7fafa" d="M 66.5,382.5 C 75.6763,382.464 82.1763,386.797 86,395.5C 89.0824,386.567 95.249,382.234 104.5,382.5C 104.837,394.46 104.837,406.46 104.5,418.5C 101.428,418.817 98.4281,418.484 95.5,417.5C 94.7139,412.219 94.2139,406.885 94,401.5C 91.4933,406.798 87.3267,408.631 81.5,407C 80.1196,405.075 78.6196,403.241 77,401.5C 76.5006,407.157 76.3339,412.824 76.5,418.5C 73.1667,418.5 69.8333,418.5 66.5,418.5C 66.1633,406.46 66.1633,394.46 66.5,382.5 Z"/></g>
<g><path style="opacity:0.922" fill="#7d898a" d="M 76.5,397.5 C 76.2172,396.711 75.7172,396.044 75,395.5C 74.5004,402.492 74.3337,409.492 74.5,416.5C 72.5,416.5 70.5,416.5 68.5,416.5C 68.5,405.833 68.5,395.167 68.5,384.5C 70.5,384.5 72.5,384.5 74.5,384.5C 78.147,389.097 81.8137,393.764 85.5,398.5C 89.3274,393.833 92.9941,388.999 96.5,384C 98.8098,383.503 101.143,383.337 103.5,383.5C 103.5,394.5 103.5,405.5 103.5,416.5C 101.167,416.5 98.8333,416.5 96.5,416.5C 96.6663,409.492 96.4996,402.492 96,395.5C 93.8333,398.5 91.6667,401.5 89.5,404.5C 87.2351,405.647 84.9018,405.814 82.5,405C 80.6664,402.337 78.6664,399.837 76.5,397.5 Z"/></g>
<g><path style="opacity:0.136" fill="#f1f5f5" d="M 326.5,382.5 C 335.192,382.169 343.859,382.502 352.5,383.5C 353.213,386.096 353.213,388.763 352.5,391.5C 349.813,391.336 347.146,391.503 344.5,392C 344.582,400.683 344.582,409.516 344.5,418.5C 341.223,418.784 338.057,418.451 335,417.5C 334.803,409.451 334.303,401.451 333.5,393.5C 333.709,392.914 334.043,392.414 334.5,392C 331.854,391.503 329.187,391.336 326.5,391.5C 326.5,388.5 326.5,385.5 326.5,382.5 Z"/></g>
<g><path style="opacity:0.284" fill="#f8fcfc" d="M 419.5,382.5 C 422.5,382.5 425.5,382.5 428.5,382.5C 429.34,391.138 429.673,399.805 429.5,408.5C 433.833,408.5 438.167,408.5 442.5,408.5C 442.5,411.833 442.5,415.167 442.5,418.5C 434.804,418.831 427.138,418.497 419.5,417.5C 418.257,405.857 418.257,394.19 419.5,382.5 Z"/></g>
<g><path style="opacity:0.831" fill="#7d8889" d="M 440.5,410.5 C 440.5,412.5 440.5,414.5 440.5,416.5C 433.833,416.5 427.167,416.5 420.5,416.5C 420.5,405.5 420.5,394.5 420.5,383.5C 422.833,383.5 425.167,383.5 427.5,383.5C 427.5,392.5 427.5,401.5 427.5,410.5C 431.833,410.5 436.167,410.5 440.5,410.5 Z"/></g>
<g><path style="opacity:0.104" fill="#f6f8f9" d="M 119.5,382.5 C 123.182,382.335 126.848,382.501 130.5,383C 131.781,385.403 133.614,387.237 136,388.5C 138.386,387.237 140.219,385.403 141.5,383C 145.152,382.501 148.818,382.335 152.5,382.5C 151.969,385.237 151.136,387.904 150,390.5C 146.525,394.104 143.525,398.104 141,402.5C 140.501,407.823 140.334,413.156 140.5,418.5C 137.223,418.784 134.057,418.451 131,417.5C 130.667,412.167 130.333,406.833 130,401.5C 128.431,397.928 126.098,394.928 123,392.5C 121.526,389.244 120.36,385.911 119.5,382.5 Z"/></g>
<g><path style="opacity:0.995" fill="#7f8b8c" d="M 120.5,384.5 C 123.355,383.197 126.355,383.197 129.5,384.5C 131.667,387.5 133.833,390.5 136,393.5C 138.29,390.42 140.457,387.253 142.5,384C 145.227,383.182 147.894,383.348 150.5,384.5C 146.803,389.698 143.303,395.031 140,400.5C 139.501,405.823 139.334,411.156 139.5,416.5C 137.167,416.5 134.833,416.5 132.5,416.5C 132.666,411.156 132.499,405.823 132,400.5C 128.691,394.706 124.858,389.373 120.5,384.5 Z"/></g>
<g><path style="opacity:0.062" fill="#f3f6f6" d="M 279.5,382.5 C 282.518,382.335 285.518,382.502 288.5,383C 292.803,388.459 296.969,393.959 301,399.5C 301.333,394.167 301.667,388.833 302,383.5C 305.057,382.549 308.223,382.216 311.5,382.5C 311.841,394.413 311.841,406.413 311.5,418.5C 308.482,418.665 305.482,418.498 302.5,418C 298.333,412.5 294.167,407 290,401.5C 289.667,406.833 289.333,412.167 289,417.5C 285.943,418.451 282.777,418.784 279.5,418.5C 279.159,406.413 279.159,394.413 279.5,382.5 Z"/></g>
<g><path style="opacity:1" fill="#7f8b8d" d="M 327.5,383.5 C 335.5,383.5 343.5,383.5 351.5,383.5C 351.5,385.833 351.5,388.167 351.5,390.5C 348.833,390.5 346.167,390.5 343.5,390.5C 343.5,399.167 343.5,407.833 343.5,416.5C 341.167,416.5 338.833,416.5 336.5,416.5C 336.5,407.833 336.5,399.167 336.5,390.5C 333.5,390.5 330.5,390.5 327.5,390.5C 327.5,388.167 327.5,385.833 327.5,383.5 Z"/></g>
<g><path style="opacity:0.452" fill="#c7cfd0" d="M 76.5,397.5 C 75.8333,403.833 75.1667,410.167 74.5,416.5C 74.3337,409.492 74.5004,402.492 75,395.5C 75.7172,396.044 76.2172,396.711 76.5,397.5 Z"/></g>
<g><path style="opacity:0.275" fill="#f6faf9" d="M 240.5,382.5 C 248.167,382.5 255.833,382.5 263.5,382.5C 263.5,385.5 263.5,388.5 263.5,391.5C 258.821,391.334 254.155,391.501 249.5,392C 252.976,393.254 256.642,393.921 260.5,394C 261.451,397.057 261.784,400.223 261.5,403.5C 257.833,403.5 254.167,403.5 250.5,403.5C 250.5,405.167 250.5,406.833 250.5,408.5C 254.514,408.334 258.514,408.501 262.5,409C 263.451,412.057 263.784,415.223 263.5,418.5C 255.833,418.5 248.167,418.5 240.5,418.5C 240.159,406.413 240.159,394.413 240.5,382.5 Z"/></g>
<g><path style="opacity:1" fill="#7d888a" d="M 261.5,383.5 C 261.5,385.5 261.5,387.5 261.5,389.5C 256.968,389.182 252.634,389.515 248.5,390.5C 248.5,392.5 248.5,394.5 248.5,396.5C 252.5,396.5 256.5,396.5 260.5,396.5C 260.5,398.5 260.5,400.5 260.5,402.5C 256.5,402.5 252.5,402.5 248.5,402.5C 248.5,405.167 248.5,407.833 248.5,410.5C 253.167,410.5 257.833,410.5 262.5,410.5C 262.5,412.5 262.5,414.5 262.5,416.5C 255.5,416.5 248.5,416.5 241.5,416.5C 241.5,405.5 241.5,394.5 241.5,383.5C 248.167,383.5 254.833,383.5 261.5,383.5 Z"/></g>
<g><path style="opacity:0.544" fill="#b2b7b7" d="M 261.5,383.5 C 262.468,385.607 262.802,387.941 262.5,390.5C 257.833,390.5 253.167,390.5 248.5,390.5C 252.634,389.515 256.968,389.182 261.5,389.5C 261.5,387.5 261.5,385.5 261.5,383.5 Z"/></g>
<g><path style="opacity:0.95" fill="#7e8a8b" d="M 280.5,383.5 C 282.857,383.337 285.19,383.503 287.5,384C 292.302,391.102 297.469,397.936 303,404.5C 303.5,397.508 303.666,390.508 303.5,383.5C 305.833,383.5 308.167,383.5 310.5,383.5C 310.5,394.5 310.5,405.5 310.5,416.5C 308.143,416.663 305.81,416.497 303.5,416C 298.212,409.256 293.045,402.423 288,395.5C 287.5,402.492 287.334,409.492 287.5,416.5C 285.167,416.5 282.833,416.5 280.5,416.5C 280.5,405.5 280.5,394.5 280.5,383.5 Z"/></g>
<g><path style="opacity:0.59" fill="#a5acae" d="M 74.5,384.5 C 72.5,384.5 70.5,384.5 68.5,384.5C 68.5,395.167 68.5,405.833 68.5,416.5C 67.5054,405.679 67.1721,394.679 67.5,383.5C 70.0593,383.198 72.3926,383.532 74.5,384.5 Z"/></g>
<g><path style="opacity:0.154" fill="#f5f8f7" d="M 194.5,382.5 C 200.842,382.334 207.175,382.5 213.5,383C 217.587,384.753 220.254,387.753 221.5,392C 220.786,396.26 219.119,400.094 216.5,403.5C 218.808,406.975 221.308,410.308 224,413.5C 225.009,415.025 225.509,416.692 225.5,418.5C 221.818,418.665 218.152,418.499 214.5,418C 211.121,413.41 207.621,408.91 204,404.5C 203.501,409.155 203.334,413.821 203.5,418.5C 200.223,418.784 197.057,418.451 194,417.5C 193.746,408.813 193.246,400.147 192.5,391.5C 192.918,388.404 193.585,385.404 194.5,382.5 Z M 204.5,392.5 C 206.167,392.5 207.833,392.5 209.5,392.5C 209.5,393.5 209.5,394.5 209.5,395.5C 207.473,395.662 205.473,395.495 203.5,395C 204.252,394.329 204.586,393.496 204.5,392.5 Z"/></g>
<g><path style="opacity:0.871" fill="#7e8a8b" d="M 195.5,383.5 C 201.925,383.13 208.258,383.63 214.5,385C 220.048,391.292 219.715,397.292 213.5,403C 216.45,407.618 219.784,411.952 223.5,416C 220.833,416.667 218.167,416.667 215.5,416C 212.309,412.31 209.309,408.477 206.5,404.5C 205.311,403.571 203.978,403.238 202.5,403.5C 202.5,407.833 202.5,412.167 202.5,416.5C 200.167,416.5 197.833,416.5 195.5,416.5C 195.5,405.5 195.5,394.5 195.5,383.5 Z M 204.5,392.5 C 204.586,393.496 204.252,394.329 203.5,395C 205.473,395.495 207.473,395.662 209.5,395.5C 209.5,394.5 209.5,393.5 209.5,392.5C 207.833,392.5 206.167,392.5 204.5,392.5 Z"/></g>
<g><path style="opacity:0.155" fill="#f9fdfd" d="M 202.5,390.5 C 205.187,390.336 207.854,390.503 210.5,391C 211.406,392.699 211.739,394.533 211.5,396.5C 208.5,396.5 205.5,396.5 202.5,396.5C 202.5,394.5 202.5,392.5 202.5,390.5 Z M 204.5,392.5 C 204.586,393.496 204.252,394.329 203.5,395C 205.473,395.495 207.473,395.662 209.5,395.5C 209.5,394.5 209.5,393.5 209.5,392.5C 207.833,392.5 206.167,392.5 204.5,392.5 Z"/></g>
<g><path style="opacity:1" fill="#7e8a8b" d="M 381.5,383.5 C 384.448,383.223 387.281,383.556 390,384.5C 394.464,395.087 398.63,405.754 402.5,416.5C 400.143,416.663 397.81,416.497 395.5,416C 394.308,414.088 393.308,412.088 392.5,410C 387.833,409.333 383.167,409.333 378.5,410C 377.308,411.912 376.308,413.912 375.5,416C 373.19,416.497 370.857,416.663 368.5,416.5C 372.552,405.394 376.886,394.394 381.5,383.5 Z M 384.5,398.5 C 384.5,399.5 384.5,400.5 384.5,401.5C 387.962,401.193 387.962,400.193 384.5,398.5 Z"/></g>
<g><path style="opacity:0.08" fill="#eef3f3" d="M 384.5,393.5 C 387.171,396.175 388.838,399.508 389.5,403.5C 386.833,403.5 384.167,403.5 381.5,403.5C 382.492,400.177 383.492,396.844 384.5,393.5 Z M 384.5,398.5 C 384.5,399.5 384.5,400.5 384.5,401.5C 387.962,401.193 387.962,400.193 384.5,398.5 Z"/></g>
<g><path style="opacity:0.381" fill="#d5dbd9" d="M 440.5,410.5 C 441.468,412.607 441.802,414.941 441.5,417.5C 434.313,417.825 427.313,417.491 420.5,416.5C 427.167,416.5 433.833,416.5 440.5,416.5C 440.5,414.5 440.5,412.5 440.5,410.5 Z"/></g>
<g><path style="opacity:0.993" fill="#7b8889" d="M 230.5,451.5 C 230.5,461.5 230.5,471.5 230.5,481.5C 228.5,481.5 226.5,481.5 224.5,481.5C 224.666,474.159 224.5,466.826 224,459.5C 222.935,461.396 222.102,461.563 221.5,460C 223.044,457.849 223.377,455.682 222.5,453.5C 222.453,452 223.119,451 224.5,450.5C 226.443,450.465 228.443,450.798 230.5,451.5 Z"/></g>
<g><path style="opacity:1" fill="#8f999a" d="M 314.5,458.5 C 312.648,457.911 310.815,457.244 309,456.5C 308.503,458.81 308.337,461.143 308.5,463.5C 307.685,462.571 306.852,461.571 306,460.5C 305.243,462.315 304.41,463.981 303.5,465.5C 305.246,461 306.58,456.5 307.5,452C 306.207,451.51 304.873,451.343 303.5,451.5C 303.313,454.69 301.646,456.69 298.5,457.5C 299.487,454.854 300.487,452.188 301.5,449.5C 304.709,448.213 307.875,448.213 311,449.5C 312.271,452.484 313.438,455.484 314.5,458.5 Z"/></g>
<g><path style="opacity:1" fill="#889393" d="M 345.5,472.5 C 346.609,472.557 347.609,472.89 348.5,473.5C 352.4,476.523 355.734,476.023 358.5,472C 354.346,469.947 350.013,468.281 345.5,467C 341.673,463.692 340.506,459.526 342,454.5C 347.987,446.906 355.153,445.739 363.5,451C 364.167,452 364.833,453 365.5,454C 362.776,457.946 359.776,458.612 356.5,456C 354.5,455.333 352.5,455.333 350.5,456C 349.483,457.049 349.316,458.216 350,459.5C 354.403,461.524 358.903,463.358 363.5,465C 368.346,472.051 367.013,477.717 359.5,482C 353.903,483.091 348.57,482.424 343.5,480C 339.04,476.092 339.707,473.592 345.5,472.5 Z"/></g>
<g><path style="opacity:0.959" fill="#abb3b2" d="M 120.5,449.5 C 123.168,449.834 125.168,451.167 126.5,453.5C 125.812,454.855 124.812,455.855 123.5,456.5C 123.284,453.744 122.284,451.41 120.5,449.5 Z"/></g>
<g><path style="opacity:0.971" fill="#bfc3c4" d="M 404.5,450.5 C 409.447,452.724 409.447,454.724 404.5,456.5C 405.833,454.5 405.833,452.5 404.5,450.5 Z"/></g>
<g><path style="opacity:0.416" fill="#bec4c5" d="M 202.5,449.5 C 200.167,449.5 197.833,449.5 195.5,449.5C 195.5,460.167 195.5,470.833 195.5,481.5C 197.5,481.5 199.5,481.5 201.5,481.5C 201.5,474.5 201.5,467.5 201.5,460.5C 202.833,460.5 203.5,461.167 203.5,462.5C 202.509,468.979 202.176,475.646 202.5,482.5C 199.833,482.5 197.167,482.5 194.5,482.5C 194.5,471.167 194.5,459.833 194.5,448.5C 197.385,448.194 200.052,448.527 202.5,449.5 Z"/></g>
<g><path style="opacity:0.292" fill="#ccd1d2" d="M 267.5,449.5 C 261.5,449.5 255.5,449.5 249.5,449.5C 249.5,460.167 249.5,470.833 249.5,481.5C 251.833,481.5 254.167,481.5 256.5,481.5C 254.052,482.473 251.385,482.806 248.5,482.5C 248.5,471.167 248.5,459.833 248.5,448.5C 255.022,448.177 261.355,448.51 267.5,449.5 Z"/></g>
<g><path style="opacity:1" fill="#889394" d="M 230.5,448.5 C 230.5,449.5 230.5,450.5 230.5,451.5C 228.443,450.798 226.443,450.465 224.5,450.5C 223.119,451 222.453,452 222.5,453.5C 223.377,455.682 223.044,457.849 221.5,460C 222.102,461.563 222.935,461.396 224,459.5C 224.5,466.826 224.666,474.159 224.5,481.5C 224.167,481.5 223.833,481.5 223.5,481.5C 223.666,475.158 223.5,468.825 223,462.5C 220.833,465.333 218.667,468.167 216.5,471C 214.167,471.667 211.833,471.667 209.5,471C 207.28,468.287 205.28,465.454 203.5,462.5C 203.5,461.167 202.833,460.5 201.5,460.5C 200.023,457.239 200.689,454.406 203.5,452C 202.748,451.329 202.414,450.496 202.5,449.5C 205.981,453.763 209.481,458.097 213,462.5C 216.621,458.09 220.121,453.59 223.5,449C 225.81,448.503 228.143,448.337 230.5,448.5 Z"/></g>
<g><path style="opacity:1" fill="#879293" d="M 154.5,481.5 C 154.027,480.094 153.027,479.427 151.5,479.5C 144.883,474.442 142.716,467.775 145,459.5C 150.088,448.516 158.255,445.349 169.5,450C 177.465,456.129 179.631,463.963 176,473.5C 170.984,481.924 163.817,484.591 154.5,481.5 Z M 159.5,455.5 C 167.04,456.566 170.207,460.899 169,468.5C 166.89,473.945 163.056,475.778 157.5,474C 152.845,471.103 151.345,466.937 153,461.5C 154.436,458.558 156.603,456.558 159.5,455.5 Z"/></g>
<g><path style="opacity:0.999" fill="#818d8e" d="M 267.5,449.5 C 273.431,452.977 274.931,457.977 272,464.5C 267.701,468.472 262.535,470.139 256.5,469.5C 256.5,473.5 256.5,477.5 256.5,481.5C 254.167,481.5 251.833,481.5 249.5,481.5C 249.5,470.833 249.5,460.167 249.5,449.5C 255.5,449.5 261.5,449.5 267.5,449.5 Z M 265.5,459.5 C 262.838,461.268 259.838,461.935 256.5,461.5C 256.5,459.5 256.5,457.5 256.5,455.5C 258.857,455.337 261.19,455.503 263.5,456C 264.823,456.816 265.489,457.983 265.5,459.5 Z"/></g>
<g><path style="opacity:0.207" fill="#dbe0e2" d="M 230.5,448.5 C 231.495,459.654 231.828,470.988 231.5,482.5C 228.615,482.806 225.948,482.473 223.5,481.5C 223.833,481.5 224.167,481.5 224.5,481.5C 226.5,481.5 228.5,481.5 230.5,481.5C 230.5,471.5 230.5,461.5 230.5,451.5C 230.5,450.5 230.5,449.5 230.5,448.5 Z"/></g>
<g><path style="opacity:0.451" fill="#c8cdcf" d="M 265.5,459.5 C 265.586,460.496 265.252,461.329 264.5,462C 261.633,462.801 258.966,462.634 256.5,461.5C 259.838,461.935 262.838,461.268 265.5,459.5 Z"/></g>
<g><path style="opacity:1" fill="#7c8889" d="M 202.5,449.5 C 202.414,450.496 202.748,451.329 203.5,452C 200.689,454.406 200.023,457.239 201.5,460.5C 201.5,467.5 201.5,474.5 201.5,481.5C 199.5,481.5 197.5,481.5 195.5,481.5C 195.5,470.833 195.5,460.167 195.5,449.5C 197.833,449.5 200.167,449.5 202.5,449.5 Z"/></g>
<g><path style="opacity:0.999" fill="#838f8f" d="M 303.5,465.5 C 302.596,466.209 302.263,467.209 302.5,468.5C 305.247,468.813 307.914,468.48 310.5,467.5C 310.376,466.893 310.043,466.56 309.5,466.5C 308.89,465.609 308.557,464.609 308.5,463.5C 308.337,461.143 308.503,458.81 309,456.5C 310.815,457.244 312.648,457.911 314.5,458.5C 318.012,465.538 321.012,472.871 323.5,480.5C 321.052,481.473 318.385,481.806 315.5,481.5C 314.27,479.703 313.604,477.703 313.5,475.5C 308.786,475.173 304.12,475.507 299.5,476.5C 298.725,478.396 297.725,480.063 296.5,481.5C 293.612,482.01 291.279,481.344 289.5,479.5C 291.981,471.882 294.981,464.549 298.5,457.5C 301.646,456.69 303.313,454.69 303.5,451.5C 304.873,451.343 306.207,451.51 307.5,452C 306.58,456.5 305.246,461 303.5,465.5 Z M 308.5,463.5 C 308.557,464.609 308.89,465.609 309.5,466.5C 308.726,467.147 307.726,467.48 306.5,467.5C 304.97,467.36 303.97,466.693 303.5,465.5C 304.41,463.981 305.243,462.315 306,460.5C 306.852,461.571 307.685,462.571 308.5,463.5 Z"/></g>
<g><path style="opacity:0.122" fill="#e5f0f1" d="M 303.5,465.5 C 303.97,466.693 304.97,467.36 306.5,467.5C 307.726,467.48 308.726,467.147 309.5,466.5C 310.043,466.56 310.376,466.893 310.5,467.5C 307.914,468.48 305.247,468.813 302.5,468.5C 302.263,467.209 302.596,466.209 303.5,465.5 Z"/></g>
<g><path style="opacity:0.247" fill="#dee3e3" d="M 345.5,472.5 C 346.947,471.115 347.947,471.448 348.5,473.5C 347.609,472.89 346.609,472.557 345.5,472.5 Z"/></g>
<g><path style="opacity:1" fill="#869293" d="M 120.5,449.5 C 122.284,451.41 123.284,453.744 123.5,456.5C 123.189,457.478 122.522,458.145 121.5,458.5C 114.78,453.805 109.613,455.138 106,462.5C 105.407,471.406 109.573,475.406 118.5,474.5C 120.441,474.131 122.275,473.464 124,472.5C 124.87,473.108 125.37,473.941 125.5,475C 123.26,476.738 121.593,478.905 120.5,481.5C 102.938,483.768 95.7712,476.101 99,458.5C 103.756,449.193 110.923,446.193 120.5,449.5 Z"/></g>
<g><path style="opacity:0.965" fill="#acb2b3" d="M 120.5,481.5 C 121.593,478.905 123.26,476.738 125.5,475C 125.37,473.941 124.87,473.108 124,472.5C 122.275,473.464 120.441,474.131 118.5,474.5C 119.914,472.946 121.581,471.612 123.5,470.5C 128.657,472.685 129.323,475.518 125.5,479C 123.922,480.094 122.255,480.928 120.5,481.5 Z"/></g>
<g><path style="opacity:1" fill="#8a9595" d="M 404.5,450.5 C 405.833,452.5 405.833,454.5 404.5,456.5C 404.189,457.478 403.522,458.145 402.5,458.5C 400.067,455.758 397.067,454.925 393.5,456C 392.253,457.494 392.253,458.994 393.5,460.5C 398.737,461.632 403.57,463.632 408,466.5C 410.7,472.267 409.533,477.1 404.5,481C 398.325,483.256 392.325,482.923 386.5,480C 382.112,475.576 383.112,472.742 389.5,471.5C 390.981,472.48 392.315,473.647 393.5,475C 397.918,476.468 400.252,474.968 400.5,470.5C 395.552,469.906 390.886,468.406 386.5,466C 381.743,455.687 385.076,449.52 396.5,447.5C 399.505,447.905 402.171,448.905 404.5,450.5 Z"/></g>
<g><path style="opacity:0.29" fill="#d5d8db" d="M 151.5,479.5 C 153.027,479.427 154.027,480.094 154.5,481.5C 152.973,481.573 151.973,480.906 151.5,479.5 Z"/></g>
<g><path style="opacity:0.369" fill="#c9cecf" d="M 289.5,479.5 C 291.279,481.344 293.612,482.01 296.5,481.5C 294.052,482.473 291.385,482.806 288.5,482.5C 288.263,481.209 288.596,480.209 289.5,479.5 Z"/></g>
<g><path style="opacity:0.392" fill="#d0d7d5" d="M 323.5,480.5 C 324.043,480.56 324.376,480.893 324.5,481.5C 321.355,482.803 318.355,482.803 315.5,481.5C 318.385,481.806 321.052,481.473 323.5,480.5 Z"/></g>
</svg>