<svg xmlns="http://www.w3.org/2000/svg" xmlns:xlink="http://www.w3.org/1999/xlink" width="500" zoomAndPan="magnify" viewBox="0 0 375 374.999991" height="500" preserveAspectRatio="xMidYMid meet" version="1.0"><defs><g/><clipPath id="af58bb8b7d"><path d="M 78.296875 112.640625 L 296.703125 112.640625 L 296.703125 274.929688 L 78.296875 274.929688 Z M 78.296875 112.640625 " clip-rule="nonzero"/></clipPath><clipPath id="6457028f67"><path d="M 78.296875 2.871094 L 296.703125 2.871094 L 296.703125 112.640625 L 78.296875 112.640625 Z M 78.296875 2.871094 " clip-rule="nonzero"/></clipPath><clipPath id="6393e0687f"><path d="M 187.5 2.871094 L 296.703125 112.640625 L 78.296875 112.640625 L 187.5 2.871094 " clip-rule="nonzero"/></clipPath><clipPath id="21648afbd2"><path d="M 88.40625 116.644531 L 286.59375 116.644531 L 286.59375 263.910156 L 88.40625 263.910156 Z M 88.40625 116.644531 " clip-rule="nonzero"/></clipPath><clipPath id="3dd660d1d1"><path d="M 88.40625 17.035156 L 286.59375 17.035156 L 286.59375 116.644531 L 88.40625 116.644531 Z M 88.40625 17.035156 " clip-rule="nonzero"/></clipPath><clipPath id="c25787ea2c"><path d="M 187.5 17.035156 L 286.59375 116.644531 L 88.40625 116.644531 L 187.5 17.035156 " clip-rule="nonzero"/></clipPath><clipPath id="0cb1039075"><path d="M 98.769531 40.507812 L 276.519531 40.507812 L 276.519531 261 L 98.769531 261 Z M 98.769531 40.507812 " clip-rule="nonzero"/></clipPath></defs><rect x="-37.5" width="450" fill="#ffffff" y="-37.499999" height="449.999989" fill-opacity="1"/><rect x="-37.5" width="450" fill="#ffffff" y="-37.499999" height="449.999989" fill-opacity="1"/><rect x="-37.5" width="450" fill="#ffffff" y="-37.499999" height="449.999989" fill-opacity="1"/><g clip-path="url(#af58bb8b7d)"><path fill="#ffb000" d="M 78.296875 112.640625 L 296.703125 112.640625 L 296.703125 274.929688 L 78.296875 274.929688 Z M 78.296875 112.640625 " fill-opacity="1" fill-rule="nonzero"/></g><g clip-path="url(#6457028f67)"><g clip-path="url(#6393e0687f)"><path fill="#ffb000" d="M 78.296875 2.871094 L 296.703125 2.871094 L 296.703125 112.640625 L 78.296875 112.640625 Z M 78.296875 2.871094 " fill-opacity="1" fill-rule="nonzero"/></g></g><g clip-path="url(#21648afbd2)"><path fill="#ffffff" d="M 88.40625 116.644531 L 286.59375 116.644531 L 286.59375 263.910156 L 88.40625 263.910156 Z M 88.40625 116.644531 " fill-opacity="1" fill-rule="nonzero"/></g><g clip-path="url(#3dd660d1d1)"><g clip-path="url(#c25787ea2c)"><path fill="#ffffff" d="M 88.40625 17.035156 L 286.59375 17.035156 L 286.59375 116.644531 L 88.40625 116.644531 Z M 88.40625 17.035156 " fill-opacity="1" fill-rule="nonzero"/></g></g><path fill="#7c898b" d="M 169.878906 156.25 L 187.644531 121.898438 L 187.644531 173.832031 Z M 169.878906 156.25 " fill-opacity="1" fill-rule="evenodd"/><path fill="#ffb000" d="M 205.414062 156.25 L 187.644531 121.898438 L 187.644531 173.832031 Z M 205.414062 156.25 " fill-opacity="1" fill-rule="evenodd"/><path fill="#7c898b" d="M 205.414062 191.410156 L 187.644531 225.761719 L 187.644531 173.832031 Z M 205.414062 191.410156 " fill-opacity="1" fill-rule="evenodd"/><path fill="#ffb000" d="M 169.878906 191.410156 L 187.644531 225.761719 L 187.644531 173.832031 Z M 169.878906 191.410156 " fill-opacity="1" fill-rule="evenodd"/><path fill="#7c898b" d="M 205.265625 156.101562 L 239.699219 173.832031 L 187.644531 173.832031 Z M 205.265625 156.101562 " fill-opacity="1" fill-rule="evenodd"/><path fill="#ffb000" d="M 205.265625 191.554688 L 239.699219 173.828125 L 187.644531 173.828125 Z M 205.265625 191.554688 " fill-opacity="1" fill-rule="evenodd"/><path fill="#7c898b" d="M 170.023438 191.554688 L 135.59375 173.828125 L 187.644531 173.828125 Z M 170.023438 191.554688 " fill-opacity="1" fill-rule="evenodd"/><path fill="#ffb000" d="M 170.023438 156.101562 L 135.59375 173.832031 L 187.644531 173.832031 Z M 170.023438 156.101562 " fill-opacity="1" fill-rule="evenodd"/><path fill="#7c898b" d="M 230.632812 130.996094 L 230.8125 130.816406 L 230.695312 130.875 L 230.753906 130.761719 L 230.574219 130.9375 L 205.414062 144.25 L 211.324219 150.148438 L 211.375 150.203125 L 217.289062 156.101562 Z M 230.632812 130.996094 " fill-opacity="1" fill-rule="evenodd"/><path fill="#7c898b" d="M 143.164062 216.664062 L 142.984375 216.84375 L 143.105469 216.78125 L 143.039062 216.898438 L 143.21875 216.71875 L 168.382812 203.40625 L 162.472656 197.511719 L 162.417969 197.457031 L 156.503906 191.554688 Z M 143.164062 216.664062 " fill-opacity="1" fill-rule="evenodd"/><path fill="#7c898b" d="M 229.832031 217.464844 L 230.011719 217.640625 L 229.949219 217.523438 L 230.066406 217.589844 L 229.886719 217.40625 L 216.542969 192.300781 L 210.632812 198.199219 L 210.578125 198.253906 L 204.667969 204.152344 Z M 229.832031 217.464844 " fill-opacity="1" fill-rule="evenodd"/><path fill="#7c898b" d="M 143.964844 130.195312 L 143.785156 130.015625 L 143.847656 130.136719 L 143.730469 130.074219 L 143.910156 130.253906 L 157.253906 155.355469 L 163.164062 149.460938 L 163.21875 149.40625 L 169.128906 143.503906 Z M 143.964844 130.195312 " fill-opacity="1" fill-rule="evenodd"/><g clip-path="url(#0cb1039075)"><path fill="#ffb000" d="M 212.972656 246.199219 C 206.707031 248.390625 200.265625 249.683594 193.8125 250.160156 L 187.367188 240.015625 L 181.003906 250.042969 C 159.414062 248.054688 138.835938 237.132812 125.34375 219.519531 C 115.996094 207.3125 110.917969 192.953125 109.910156 178.316406 L 119.472656 172.273438 L 110 166.289062 C 111.105469 152.980469 115.535156 139.863281 123.179688 128.363281 C 136.382812 108.511719 158.289062 96.886719 181.300781 94.96875 L 187.371094 104.53125 L 193.503906 94.867188 C 198.824219 95.222656 204.132812 96.097656 209.335938 97.523438 C 240.601562 106.101562 262.402344 134.371094 265.417969 165.863281 L 255.269531 172.273438 L 265.453125 178.710938 C 262.683594 209.3125 242.476562 235.871094 212.976562 246.199219 Z M 171.386719 68.242188 C 171.386719 59.285156 178.667969 52.019531 187.648438 52.019531 C 196.625 52.019531 203.90625 59.285156 203.90625 68.242188 C 203.90625 75.777344 198.753906 82.113281 191.773438 83.933594 L 192.042969 83.945312 C 189.140625 83.824219 186.234375 83.839844 183.332031 84 L 183.695312 83.980469 C 176.625 82.21875 171.386719 75.839844 171.386719 68.242188 Z M 192.0625 83.949219 C 192.539062 83.96875 193.011719 83.992188 193.488281 84.019531 C 193.011719 83.992188 192.539062 83.96875 192.0625 83.949219 Z M 193.539062 84.023438 C 194.015625 84.050781 194.492188 84.082031 194.96875 84.117188 Z M 194.988281 84.117188 C 195.457031 84.15625 195.929688 84.195312 196.402344 84.238281 C 195.929688 84.195312 195.460938 84.15625 194.988281 84.117188 Z M 196.457031 84.242188 C 196.921875 84.285156 197.382812 84.328125 197.847656 84.378906 C 197.382812 84.328125 196.917969 84.285156 196.457031 84.242188 Z M 197.925781 84.386719 C 198.390625 84.4375 198.859375 84.492188 199.324219 84.546875 C 198.855469 84.492188 198.390625 84.4375 197.925781 84.386719 Z M 199.335938 84.550781 C 199.816406 84.609375 200.292969 84.671875 200.769531 84.742188 C 200.292969 84.671875 199.816406 84.609375 199.335938 84.550781 Z M 200.785156 84.742188 C 201.25 84.808594 201.710938 84.878906 202.175781 84.949219 C 201.710938 84.878906 201.246094 84.808594 200.785156 84.742188 Z M 202.246094 84.960938 C 202.703125 85.035156 203.160156 85.109375 203.613281 85.1875 C 203.160156 85.109375 202.703125 85.03125 202.246094 84.960938 Z M 203.707031 85.203125 C 204.167969 85.285156 204.625 85.367188 205.082031 85.457031 C 204.625 85.367188 204.167969 85.285156 203.707031 85.203125 Z M 205.117188 85.464844 C 205.578125 85.554688 206.042969 85.644531 206.503906 85.742188 C 206.042969 85.644531 205.578125 85.554688 205.117188 85.464844 Z M 206.570312 85.753906 C 207.023438 85.851562 207.472656 85.949219 207.925781 86.050781 C 207.472656 85.949219 207.023438 85.851562 206.570312 85.753906 Z M 208.003906 86.070312 L 208.757812 86.246094 C 212.910156 81.402344 215.417969 75.113281 215.417969 68.242188 C 215.417969 52.9375 202.980469 40.53125 187.644531 40.53125 C 172.304688 40.53125 159.867188 52.9375 159.867188 68.242188 C 159.867188 75.203125 162.441406 81.5625 166.6875 86.429688 L 167.328125 86.277344 C 158.773438 88.269531 150.480469 91.480469 142.789062 95.863281 C 115.472656 111.425781 99.136719 141.382812 98.773438 172.425781 C 98.402344 203.796875 116.128906 233.007812 142.789062 248.992188 C 170.117188 265.375 205.105469 264.589844 232.5 248.992188 C 259.816406 233.433594 276.152344 203.472656 276.515625 172.425781 C 276.148438 140.847656 259.632812 112.128906 232.5 95.863281 C 224.828125 91.261719 216.550781 88.015625 208.003906 86.070312 Z M 167.398438 86.261719 C 167.855469 86.152344 168.3125 86.050781 168.773438 85.953125 C 168.3125 86.054688 167.855469 86.15625 167.398438 86.261719 Z M 168.816406 85.941406 C 169.269531 85.84375 169.726562 85.75 170.183594 85.65625 C 169.730469 85.75 169.269531 85.84375 168.816406 85.941406 Z M 170.265625 85.640625 C 170.726562 85.546875 171.1875 85.460938 171.644531 85.378906 C 171.1875 85.460938 170.726562 85.546875 170.265625 85.640625 Z M 171.6875 85.367188 C 172.15625 85.285156 172.628906 85.199219 173.097656 85.121094 C 172.628906 85.199219 172.15625 85.28125 171.6875 85.367188 Z M 173.125 85.117188 C 173.597656 85.039062 174.074219 84.964844 174.550781 84.890625 C 174.074219 84.964844 173.597656 85.039062 173.125 85.117188 Z M 174.5625 84.890625 C 175.511719 84.75 176.457031 84.621094 177.410156 84.511719 C 176.457031 84.625 175.507812 84.75 174.5625 84.890625 Z M 177.488281 84.5 C 177.949219 84.445312 178.410156 84.394531 178.871094 84.347656 C 178.414062 84.394531 177.949219 84.445312 177.488281 84.5 Z M 178.925781 84.339844 C 179.390625 84.292969 179.855469 84.25 180.316406 84.210938 C 179.855469 84.25 179.390625 84.292969 178.925781 84.339844 Z M 180.433594 84.199219 C 180.890625 84.160156 181.355469 84.125 181.816406 84.089844 C 181.355469 84.125 180.890625 84.160156 180.433594 84.199219 Z M 181.832031 84.089844 C 182.300781 84.058594 182.773438 84.027344 183.242188 84.003906 C 182.773438 84.027344 182.300781 84.058594 181.832031 84.089844 Z M 181.832031 84.089844 " fill-opacity="1" fill-rule="evenodd"/></g><g fill="#7c898b" fill-opacity="1"><g transform="translate(49.590568, 312.941537)"><g><path d="M 23.375 -24.8125 L 28.390625 -24.8125 L 28.390625 0 L 23.09375 0 L 23.09375 -16.375 L 17.1875 -8.078125 L 12.953125 -8.078125 L 6.96875 -16.140625 L 6.96875 0 L 1.640625 0 L 1.640625 -24.8125 L 6.6875 -24.8125 L 15.078125 -13.375 Z M 23.375 -24.8125 "/></g></g></g><g fill="#7c898b" fill-opacity="1"><g transform="translate(90.180145, 312.941537)"><g><path d="M 17.21875 -24.8125 L 23.625 -24.8125 L 14.765625 -11.625 L 14.765625 0 L 9.484375 0 L 9.484375 -11.625 L 0.625 -24.8125 L 7.03125 -24.8125 L 12.140625 -17.1875 Z M 17.21875 -24.8125 "/></g></g></g><g fill="#7c898b" fill-opacity="1"><g transform="translate(124.997727, 312.941537)"><g/></g></g><g fill="#7c898b" fill-opacity="1"><g transform="translate(145.192931, 312.941537)"><g><path d="M 19.5 -17.4375 C 19.5 -16.632812 19.382812 -15.878906 19.15625 -15.171875 C 18.9375 -14.460938 18.628906 -13.804688 18.234375 -13.203125 C 17.835938 -12.609375 17.359375 -12.082031 16.796875 -11.625 C 16.234375 -11.175781 15.628906 -10.8125 14.984375 -10.53125 L 23.203125 0 L 17.015625 0 L 9.34375 -10.015625 L 6.96875 -10.015625 L 6.96875 0 L 1.640625 0 L 1.640625 -24.8125 L 12.359375 -24.8125 C 13.335938 -24.8125 14.265625 -24.617188 15.140625 -24.234375 C 16.015625 -23.847656 16.769531 -23.320312 17.40625 -22.65625 C 18.050781 -22 18.5625 -21.21875 18.9375 -20.3125 C 19.3125 -19.414062 19.5 -18.457031 19.5 -17.4375 Z M 11.6875 -14.84375 C 12.363281 -14.84375 12.945312 -15.09375 13.4375 -15.59375 C 13.925781 -16.09375 14.171875 -16.707031 14.171875 -17.4375 C 14.171875 -18.132812 13.925781 -18.734375 13.4375 -19.234375 C 12.945312 -19.734375 12.363281 -19.984375 11.6875 -19.984375 L 6.96875 -19.984375 L 6.96875 -14.84375 Z M 11.6875 -14.84375 "/></g></g></g><g fill="#7c898b" fill-opacity="1"><g transform="translate(179.800632, 312.941537)"><g><path d="M 1.6875 -24.8125 L 17.1875 -24.8125 L 17.1875 -19.984375 L 7 -19.984375 L 7 -15.5 L 15.953125 -15.5 L 15.953125 -10.671875 L 7 -10.671875 L 7 -4.796875 L 17.1875 -4.796875 L 17.1875 0 L 1.6875 0 Z M 1.6875 -24.8125 "/></g></g></g><g fill="#7c898b" fill-opacity="1"><g transform="translate(209.231029, 312.941537)"><g><path d="M 18.625 -24.8125 L 23.90625 -24.8125 L 23.90625 0 L 18.859375 0 L 6.9375 -16.203125 L 6.9375 0 L 1.640625 0 L 1.640625 -24.8125 L 6.609375 -24.8125 L 18.625 -8.5 Z M 18.625 -24.8125 "/></g></g></g><g fill="#7c898b" fill-opacity="1"><g transform="translate(245.342944, 312.941537)"><g><path d="M 0.8125 -24.8125 L 18.765625 -24.8125 L 18.765625 -19.984375 L 12.421875 -19.984375 L 12.421875 0 L 7.140625 0 L 7.140625 -19.984375 L 0.8125 -19.984375 Z M 0.8125 -24.8125 "/></g></g></g><g fill="#7c898b" fill-opacity="1"><g transform="translate(275.472982, 312.941537)"><g><path d="M 16.90625 -24.8125 L 27.265625 0 L 21.53125 0 L 19.28125 -5.3125 L 8.75 -5.3125 L 6.546875 0 L 0.765625 0 L 11.125 -24.8125 Z M 17.296875 -10.15625 L 14.03125 -17.953125 L 10.78125 -10.15625 Z M 17.296875 -10.15625 "/></g></g></g><g fill="#7c898b" fill-opacity="1"><g transform="translate(314.068597, 312.941537)"><g><path d="M 6.96875 -4.796875 L 17.15625 -4.796875 L 17.15625 0 L 1.640625 0 L 1.640625 -24.8125 L 6.96875 -24.8125 Z M 6.96875 -4.796875 "/></g></g></g><g fill="#7c898b" fill-opacity="1"><g transform="translate(72.806561, 361.795145)"><g><path d="M 13.328125 -4.828125 C 14.453125 -4.828125 15.550781 -5.082031 16.625 -5.59375 C 17.695312 -6.113281 18.78125 -6.976562 19.875 -8.1875 L 23.3125 -4.9375 C 21.9375 -3.164062 20.363281 -1.820312 18.59375 -0.90625 C 16.832031 0 15.019531 0.453125 13.15625 0.453125 C 11.476562 0.453125 9.90625 0.109375 8.4375 -0.578125 C 6.96875 -1.265625 5.6875 -2.191406 4.59375 -3.359375 C 3.507812 -4.523438 2.660156 -5.882812 2.046875 -7.4375 C 1.429688 -8.988281 1.125 -10.640625 1.125 -12.390625 C 1.125 -14.140625 1.441406 -15.785156 2.078125 -17.328125 C 2.722656 -18.867188 3.59375 -20.222656 4.6875 -21.390625 C 5.78125 -22.554688 7.070312 -23.476562 8.5625 -24.15625 C 10.0625 -24.832031 11.648438 -25.171875 13.328125 -25.171875 C 14.898438 -25.171875 16.390625 -24.878906 17.796875 -24.296875 C 19.210938 -23.710938 20.59375 -22.742188 21.9375 -21.390625 L 18.859375 -17.640625 C 17.878906 -18.546875 16.953125 -19.15625 16.078125 -19.46875 C 15.203125 -19.789062 14.285156 -19.953125 13.328125 -19.953125 C 12.378906 -19.953125 11.476562 -19.753906 10.625 -19.359375 C 9.769531 -18.960938 9.023438 -18.425781 8.390625 -17.75 C 7.765625 -17.070312 7.269531 -16.269531 6.90625 -15.34375 C 6.550781 -14.425781 6.375 -13.441406 6.375 -12.390625 C 6.375 -11.335938 6.550781 -10.351562 6.90625 -9.4375 C 7.269531 -8.53125 7.765625 -7.734375 8.390625 -7.046875 C 9.023438 -6.359375 9.769531 -5.816406 10.625 -5.421875 C 11.476562 -5.023438 12.378906 -4.828125 13.328125 -4.828125 Z M 13.328125 -4.828125 "/></g></g></g><g fill="#7c898b" fill-opacity="1"><g transform="translate(107.694111, 361.795145)"><g><path d="M 13.375 -25.171875 C 15.050781 -25.171875 16.632812 -24.832031 18.125 -24.15625 C 19.625 -23.476562 20.925781 -22.554688 22.03125 -21.390625 C 23.132812 -20.222656 24.007812 -18.867188 24.65625 -17.328125 C 25.300781 -15.785156 25.625 -14.140625 25.625 -12.390625 C 25.625 -10.660156 25.300781 -9.015625 24.65625 -7.453125 C 24.007812 -5.890625 23.132812 -4.523438 22.03125 -3.359375 C 20.925781 -2.191406 19.625 -1.265625 18.125 -0.578125 C 16.632812 0.109375 15.050781 0.453125 13.375 0.453125 C 11.6875 0.453125 10.097656 0.109375 8.609375 -0.578125 C 7.117188 -1.265625 5.820312 -2.191406 4.71875 -3.359375 C 3.625 -4.523438 2.753906 -5.890625 2.109375 -7.453125 C 1.472656 -9.015625 1.15625 -10.660156 1.15625 -12.390625 C 1.15625 -14.140625 1.472656 -15.785156 2.109375 -17.328125 C 2.753906 -18.867188 3.625 -20.222656 4.71875 -21.390625 C 5.820312 -22.554688 7.117188 -23.476562 8.609375 -24.15625 C 10.097656 -24.832031 11.6875 -25.171875 13.375 -25.171875 Z M 13.375 -4.828125 C 14.332031 -4.828125 15.226562 -5.023438 16.0625 -5.421875 C 16.90625 -5.816406 17.640625 -6.359375 18.265625 -7.046875 C 18.898438 -7.734375 19.394531 -8.53125 19.75 -9.4375 C 20.113281 -10.351562 20.296875 -11.335938 20.296875 -12.390625 C 20.296875 -13.441406 20.113281 -14.425781 19.75 -15.34375 C 19.394531 -16.269531 18.898438 -17.078125 18.265625 -17.765625 C 17.640625 -18.453125 16.90625 -18.992188 16.0625 -19.390625 C 15.226562 -19.785156 14.332031 -19.984375 13.375 -19.984375 C 12.414062 -19.984375 11.515625 -19.785156 10.671875 -19.390625 C 9.835938 -18.992188 9.101562 -18.453125 8.46875 -17.765625 C 7.84375 -17.078125 7.347656 -16.269531 6.984375 -15.34375 C 6.617188 -14.425781 6.4375 -13.441406 6.4375 -12.390625 C 6.4375 -11.335938 6.617188 -10.351562 6.984375 -9.4375 C 7.347656 -8.53125 7.84375 -7.734375 8.46875 -7.046875 C 9.101562 -6.359375 9.835938 -5.816406 10.671875 -5.421875 C 11.515625 -5.023438 12.414062 -4.828125 13.375 -4.828125 Z M 13.375 -4.828125 "/></g></g></g><g fill="#7c898b" fill-opacity="1"><g transform="translate(145.030378, 361.795145)"><g><path d="M 23.375 -24.8125 L 28.390625 -24.8125 L 28.390625 0 L 23.09375 0 L 23.09375 -16.375 L 17.1875 -8.078125 L 12.953125 -8.078125 L 6.96875 -16.140625 L 6.96875 0 L 1.640625 0 L 1.640625 -24.8125 L 6.6875 -24.8125 L 15.078125 -13.375 Z M 23.375 -24.8125 "/></g></g></g><g fill="#7c898b" fill-opacity="1"><g transform="translate(185.619949, 361.795145)"><g><path d="M 12.359375 -24.8125 C 13.335938 -24.8125 14.257812 -24.617188 15.125 -24.234375 C 15.988281 -23.847656 16.738281 -23.320312 17.375 -22.65625 C 18.019531 -22 18.523438 -21.21875 18.890625 -20.3125 C 19.265625 -19.414062 19.453125 -18.457031 19.453125 -17.4375 C 19.453125 -16.40625 19.265625 -15.4375 18.890625 -14.53125 C 18.523438 -13.632812 18.019531 -12.847656 17.375 -12.171875 C 16.738281 -11.503906 15.988281 -10.976562 15.125 -10.59375 C 14.257812 -10.207031 13.335938 -10.015625 12.359375 -10.015625 L 6.9375 -10.015625 L 6.9375 0 L 1.640625 0 L 1.640625 -24.8125 Z M 11.65625 -14.84375 C 12.332031 -14.84375 12.921875 -15.09375 13.421875 -15.59375 C 13.921875 -16.09375 14.171875 -16.707031 14.171875 -17.4375 C 14.171875 -18.132812 13.921875 -18.734375 13.421875 -19.234375 C 12.921875 -19.734375 12.332031 -19.984375 11.65625 -19.984375 L 6.9375 -19.984375 L 6.9375 -14.84375 Z M 11.65625 -14.84375 "/></g></g></g><g fill="#7c898b" fill-opacity="1"><g transform="translate(216.064823, 361.795145)"><g><path d="M 16.90625 -24.8125 L 27.265625 0 L 21.53125 0 L 19.28125 -5.3125 L 8.75 -5.3125 L 6.546875 0 L 0.765625 0 L 11.125 -24.8125 Z M 17.296875 -10.15625 L 14.03125 -17.953125 L 10.78125 -10.15625 Z M 17.296875 -10.15625 "/></g></g></g><g fill="#7c898b" fill-opacity="1"><g transform="translate(254.660439, 361.795145)"><g><path d="M 17.4375 -12.78125 C 18.414062 -12.195312 19.160156 -11.445312 19.671875 -10.53125 C 20.179688 -9.625 20.4375 -8.578125 20.4375 -7.390625 C 20.4375 -6.265625 20.164062 -5.21875 19.625 -4.25 C 19.09375 -3.28125 18.335938 -2.425781 17.359375 -1.6875 C 16.472656 -1.007812 15.460938 -0.488281 14.328125 -0.125 C 13.203125 0.238281 12.007812 0.429688 10.75 0.453125 C 9.488281 0.453125 8.285156 0.28125 7.140625 -0.0625 C 5.992188 -0.414062 4.976562 -0.941406 4.09375 -1.640625 C 2.757812 -2.648438 1.847656 -3.863281 1.359375 -5.28125 L 6.265625 -7.5625 C 6.265625 -7.320312 6.34375 -7.023438 6.5 -6.671875 C 6.664062 -6.328125 6.925781 -5.992188 7.28125 -5.671875 C 7.632812 -5.347656 8.085938 -5.066406 8.640625 -4.828125 C 9.203125 -4.597656 9.890625 -4.484375 10.703125 -4.484375 C 11.359375 -4.484375 11.9375 -4.5625 12.4375 -4.71875 C 12.9375 -4.882812 13.351562 -5.085938 13.6875 -5.328125 C 14.03125 -5.578125 14.289062 -5.859375 14.46875 -6.171875 C 14.644531 -6.492188 14.734375 -6.816406 14.734375 -7.140625 C 14.734375 -7.515625 14.609375 -7.863281 14.359375 -8.1875 C 14.117188 -8.519531 13.742188 -8.773438 13.234375 -8.953125 C 12.296875 -9.285156 11.304688 -9.5625 10.265625 -9.78125 C 9.234375 -10 8.226562 -10.273438 7.25 -10.609375 C 6.269531 -10.953125 5.359375 -11.40625 4.515625 -11.96875 C 3.671875 -12.53125 3.003906 -13.3125 2.515625 -14.3125 C 2.078125 -15.195312 1.859375 -16.144531 1.859375 -17.15625 C 1.859375 -18.269531 2.117188 -19.351562 2.640625 -20.40625 C 3.171875 -21.457031 3.890625 -22.34375 4.796875 -23.0625 C 5.660156 -23.738281 6.628906 -24.257812 7.703125 -24.625 C 8.773438 -24.988281 9.90625 -25.171875 11.09375 -25.171875 C 12.28125 -25.171875 13.414062 -24.992188 14.5 -24.640625 C 15.59375 -24.285156 16.570312 -23.769531 17.4375 -23.09375 C 18.269531 -22.46875 18.929688 -21.734375 19.421875 -20.890625 L 15.4375 -18.171875 C 14.945312 -18.847656 14.332031 -19.390625 13.59375 -19.796875 C 12.863281 -20.203125 12.039062 -20.40625 11.125 -20.40625 C 9.863281 -20.40625 8.890625 -20.125 8.203125 -19.5625 C 7.515625 -19 7.171875 -18.265625 7.171875 -17.359375 C 7.171875 -16.941406 7.363281 -16.566406 7.75 -16.234375 C 8.132812 -15.910156 8.632812 -15.617188 9.25 -15.359375 C 9.875 -15.109375 10.570312 -14.882812 11.34375 -14.6875 C 12.113281 -14.488281 12.875 -14.289062 13.625 -14.09375 C 14.382812 -13.894531 15.101562 -13.6875 15.78125 -13.46875 C 16.457031 -13.257812 17.007812 -13.03125 17.4375 -12.78125 Z M 17.4375 -12.78125 "/></g></g></g><g fill="#7c898b" fill-opacity="1"><g transform="translate(286.784445, 361.795145)"><g><path d="M 17.4375 -12.78125 C 18.414062 -12.195312 19.160156 -11.445312 19.671875 -10.53125 C 20.179688 -9.625 20.4375 -8.578125 20.4375 -7.390625 C 20.4375 -6.265625 20.164062 -5.21875 19.625 -4.25 C 19.09375 -3.28125 18.335938 -2.425781 17.359375 -1.6875 C 16.472656 -1.007812 15.460938 -0.488281 14.328125 -0.125 C 13.203125 0.238281 12.007812 0.429688 10.75 0.453125 C 9.488281 0.453125 8.285156 0.28125 7.140625 -0.0625 C 5.992188 -0.414062 4.976562 -0.941406 4.09375 -1.640625 C 2.757812 -2.648438 1.847656 -3.863281 1.359375 -5.28125 L 6.265625 -7.5625 C 6.265625 -7.320312 6.34375 -7.023438 6.5 -6.671875 C 6.664062 -6.328125 6.925781 -5.992188 7.28125 -5.671875 C 7.632812 -5.347656 8.085938 -5.066406 8.640625 -4.828125 C 9.203125 -4.597656 9.890625 -4.484375 10.703125 -4.484375 C 11.359375 -4.484375 11.9375 -4.5625 12.4375 -4.71875 C 12.9375 -4.882812 13.351562 -5.085938 13.6875 -5.328125 C 14.03125 -5.578125 14.289062 -5.859375 14.46875 -6.171875 C 14.644531 -6.492188 14.734375 -6.816406 14.734375 -7.140625 C 14.734375 -7.515625 14.609375 -7.863281 14.359375 -8.1875 C 14.117188 -8.519531 13.742188 -8.773438 13.234375 -8.953125 C 12.296875 -9.285156 11.304688 -9.5625 10.265625 -9.78125 C 9.234375 -10 8.226562 -10.273438 7.25 -10.609375 C 6.269531 -10.953125 5.359375 -11.40625 4.515625 -11.96875 C 3.671875 -12.53125 3.003906 -13.3125 2.515625 -14.3125 C 2.078125 -15.195312 1.859375 -16.144531 1.859375 -17.15625 C 1.859375 -18.269531 2.117188 -19.351562 2.640625 -20.40625 C 3.171875 -21.457031 3.890625 -22.34375 4.796875 -23.0625 C 5.660156 -23.738281 6.628906 -24.257812 7.703125 -24.625 C 8.773438 -24.988281 9.90625 -25.171875 11.09375 -25.171875 C 12.28125 -25.171875 13.414062 -24.992188 14.5 -24.640625 C 15.59375 -24.285156 16.570312 -23.769531 17.4375 -23.09375 C 18.269531 -22.46875 18.929688 -21.734375 19.421875 -20.890625 L 15.4375 -18.171875 C 14.945312 -18.847656 14.332031 -19.390625 13.59375 -19.796875 C 12.863281 -20.203125 12.039062 -20.40625 11.125 -20.40625 C 9.863281 -20.40625 8.890625 -20.125 8.203125 -19.5625 C 7.515625 -19 7.171875 -18.265625 7.171875 -17.359375 C 7.171875 -16.941406 7.363281 -16.566406 7.75 -16.234375 C 8.132812 -15.910156 8.632812 -15.617188 9.25 -15.359375 C 9.875 -15.109375 10.570312 -14.882812 11.34375 -14.6875 C 12.113281 -14.488281 12.875 -14.289062 13.625 -14.09375 C 14.382812 -13.894531 15.101562 -13.6875 15.78125 -13.46875 C 16.457031 -13.257812 17.007812 -13.03125 17.4375 -12.78125 Z M 17.4375 -12.78125 "/></g></g></g></svg>