<?xml version="1.0" encoding="UTF-8"?>
<!DOCTYPE svg PUBLIC "-//W3C//DTD SVG 1.1//EN" "http://www.w3.org/Graphics/SVG/1.1/DTD/svg11.dtd">
<svg xmlns="http://www.w3.org/2000/svg" version="1.1" width="358px" height="358px" style="shape-rendering:geometricPrecision; text-rendering:geometricPrecision; image-rendering:optimizeQuality; fill-rule:evenodd; clip-rule:evenodd" xmlns:xlink="http://www.w3.org/1999/xlink">
<g><path style="opacity:1" fill="#686699" d="M 159.5,-0.5 C 165.833,-0.5 172.167,-0.5 178.5,-0.5C 178.5,-0.166667 178.5,0.166667 178.5,0.5C 178.167,0.5 177.833,0.5 177.5,0.5C 169.809,0.403495 162.142,0.736829 154.5,1.5C 153.833,1.5 153.167,1.5 152.5,1.5C 154.833,0.833333 157.167,0.166667 159.5,-0.5 Z"/></g>
<g><path style="opacity:1" fill="#3d357d" d="M 152.5,1.5 C 153.167,1.5 153.833,1.5 154.5,1.5C 150.433,3.05378 146.1,3.72045 141.5,3.5C 144.909,2.09659 148.575,1.42993 152.5,1.5 Z"/></g>
<g><path style="opacity:0.998" fill="#030068" d="M 177.5,0.5 C 177.5,69.5 177.5,138.5 177.5,207.5C 118.833,207.5 60.1667,207.5 1.5,207.5C 1.10057,203.989 0.433899,200.656 -0.5,197.5C -0.5,184.833 -0.5,172.167 -0.5,159.5C 7.707,99.8983 37.3737,54.3983 88.5,23C 95.9499,18.9403 103.617,15.4403 111.5,12.5C 117.767,11.0778 123.767,9.07775 129.5,6.5C 133.479,6.25759 137.146,5.25759 140.5,3.5C 140.833,3.5 141.167,3.5 141.5,3.5C 146.1,3.72045 150.433,3.05378 154.5,1.5C 162.142,0.736829 169.809,0.403495 177.5,0.5 Z"/></g>
<g><path style="opacity:1" fill="#eb0804" d="M 197.5,0.5 C 203.987,0.74808 210.32,1.74808 216.5,3.5C 223.493,6.00616 230.493,8.8395 237.5,12C 240.757,13.0429 244.09,13.5429 247.5,13.5C 252.392,14.9455 257.059,16.9455 261.5,19.5C 261.48,21.143 262.147,22.4763 263.5,23.5C 235.508,24.4998 207.508,24.8331 179.5,24.5C 179.5,16.5 179.5,8.5 179.5,0.5C 185.5,0.5 191.5,0.5 197.5,0.5 Z"/></g>
<g><path style="opacity:0.949" fill="#57558f" d="M 140.5,3.5 C 137.146,5.25759 133.479,6.25759 129.5,6.5C 132.854,4.74241 136.521,3.74241 140.5,3.5 Z"/></g>
<g><path style="opacity:0.996" fill="#4a4486" d="M 129.5,6.5 C 123.767,9.07775 117.767,11.0778 111.5,12.5C 117.085,9.52709 123.085,7.52709 129.5,6.5 Z"/></g>
<g><path style="opacity:1" fill="#e2453a" d="M 216.5,3.5 C 227.439,5.2585 237.773,8.59183 247.5,13.5C 244.09,13.5429 240.757,13.0429 237.5,12C 230.493,8.8395 223.493,6.00616 216.5,3.5 Z"/></g>
<g><path style="opacity:1" fill="#db3431" d="M 178.5,-0.5 C 184.833,-0.5 191.167,-0.5 197.5,-0.5C 197.5,-0.166667 197.5,0.166667 197.5,0.5C 191.5,0.5 185.5,0.5 179.5,0.5C 179.5,8.5 179.5,16.5 179.5,24.5C 207.508,24.8331 235.508,24.4998 263.5,23.5C 262.147,22.4763 261.48,21.143 261.5,19.5C 264.661,20.9131 267.661,22.5797 270.5,24.5C 240.005,25.4981 209.338,25.8315 178.5,25.5C 178.5,17.1667 178.5,8.83333 178.5,0.5C 178.5,0.166667 178.5,-0.166667 178.5,-0.5 Z"/></g>
<g><path style="opacity:1" fill="#f28a89" d="M 270.5,24.5 C 271.167,24.8333 271.833,25.1667 272.5,25.5C 241.338,26.4982 210.004,26.8315 178.5,26.5C 178.5,26.1667 178.5,25.8333 178.5,25.5C 209.338,25.8315 240.005,25.4981 270.5,24.5 Z"/></g>
<g><path style="opacity:0.994" fill="#fefefe" d="M 273.5,26.5 C 284.634,33.0691 294.634,41.0691 303.5,50.5C 262.167,50.5 220.833,50.5 179.5,50.5C 179.5,42.8333 179.5,35.1667 179.5,27.5C 211.004,27.8315 242.338,27.4982 273.5,26.5 Z"/></g>
<g><path style="opacity:1" fill="#f9cacb" d="M 272.5,25.5 C 273.167,25.5 273.5,25.8333 273.5,26.5C 242.338,27.4982 211.004,27.8315 179.5,27.5C 179.5,35.1667 179.5,42.8333 179.5,50.5C 220.833,50.5 262.167,50.5 303.5,50.5C 304.5,50.8333 305.167,51.5 305.5,52.5C 263.167,52.5 220.833,52.5 178.5,52.5C 178.5,43.8333 178.5,35.1667 178.5,26.5C 210.004,26.8315 241.338,26.4982 272.5,25.5 Z"/></g>
<g><path style="opacity:1" fill="#ec0000" d="M 306.5,53.5 C 311.497,57.6639 315.997,62.3306 320,67.5C 322.358,70.2223 324.191,73.2223 325.5,76.5C 276.833,76.5 228.167,76.5 179.5,76.5C 179.5,68.8333 179.5,61.1667 179.5,53.5C 221.833,53.5 264.167,53.5 306.5,53.5 Z"/></g>
<g><path style="opacity:1" fill="#917537" d="M 83.5,67.5 C 83.5,67.8333 83.5,68.1667 83.5,68.5C 76.443,68.24 69.443,68.5733 62.5,69.5C 62.5,69.1667 62.5,68.8333 62.5,68.5C 69.2695,66.1794 76.2695,65.8461 83.5,67.5 Z"/></g>
<g><path style="opacity:1" fill="#624d3f" d="M 83.5,68.5 C 83.5,68.1667 83.5,67.8333 83.5,67.5C 86.9164,67.5275 89.9164,68.5275 92.5,70.5C 89.779,70.0372 87.1123,69.3705 84.5,68.5C 84.1667,68.5 83.8333,68.5 83.5,68.5 Z"/></g>
<g><path style="opacity:1" fill="#f7c912" d="M 83.5,68.5 C 83.8333,68.5 84.1667,68.5 84.5,68.5C 84.8039,69.1499 85.1373,69.8165 85.5,70.5C 83.7086,71.1698 82.0419,71.8365 80.5,72.5C 76.4264,72.7011 72.4264,73.3678 68.5,74.5C 68.1373,75.1835 67.8039,75.8501 67.5,76.5C 65.9731,76.427 64.9731,77.0937 64.5,78.5C 64.1583,79.3382 63.4916,79.6716 62.5,79.5C 57.5,82.5 53.5,86.5 50.5,91.5C 48.7376,92.2623 47.7376,93.5956 47.5,95.5C 47.6716,96.4916 47.3382,97.1583 46.5,97.5C 44.7549,99.0326 43.7549,101.033 43.5,103.5C 43.5,104.167 43.5,104.833 43.5,105.5C 42.7321,106.263 42.2321,107.263 42,108.5C 41.5007,113.489 41.3341,118.489 41.5,123.5C 41.7023,128.785 42.8689,133.785 45,138.5C 45.6708,139.252 46.5041,139.586 47.5,139.5C 49.3507,145.352 53.0174,149.685 58.5,152.5C 59.2905,153.401 60.2905,154.068 61.5,154.5C 61.9731,155.906 62.9731,156.573 64.5,156.5C 64.8417,157.338 65.5084,157.672 66.5,157.5C 66.5,158.5 66.5,159.5 66.5,160.5C 69.8599,160.616 73.1933,160.949 76.5,161.5C 79.5458,162.987 82.8791,163.987 86.5,164.5C 85.7573,165.182 85.0906,165.849 84.5,166.5C 73.7813,167.338 63.448,166.005 53.5,162.5C 52.8333,162.5 52.1667,162.5 51.5,162.5C 51.0269,161.094 50.0269,160.427 48.5,160.5C 48.0269,159.094 47.0269,158.427 45.5,158.5C 44.7377,156.738 43.4044,155.738 41.5,155.5C 40.8333,154.167 39.8333,153.167 38.5,152.5C 34.8019,147.73 31.4686,142.73 28.5,137.5C 28.2041,135.597 27.5375,133.93 26.5,132.5C 26.5,131.833 26.1667,131.5 25.5,131.5C 24.9115,124.515 24.5782,117.515 24.5,110.5C 25.1495,108.565 25.4828,106.565 25.5,104.5C 26.9063,104.027 27.573,103.027 27.5,101.5C 27.5,100.833 27.5,100.167 27.5,99.5C 28.9063,99.0269 29.573,98.0269 29.5,96.5C 29.5,96.1667 29.5,95.8333 29.5,95.5C 30.9063,95.0269 31.573,94.0269 31.5,92.5C 32.3403,90.1475 33.6736,88.1475 35.5,86.5C 38.5,84.1667 41.1667,81.5 43.5,78.5C 45.889,78.0212 47.5557,76.6879 48.5,74.5C 50.0269,74.573 51.0269,73.9063 51.5,72.5C 55.1101,71.2967 58.7768,70.2967 62.5,69.5C 69.443,68.5733 76.443,68.24 83.5,68.5 Z"/></g>
<g><path style="opacity:1" fill="#5e493c" d="M 62.5,68.5 C 62.5,68.8333 62.5,69.1667 62.5,69.5C 58.7768,70.2967 55.1101,71.2967 51.5,72.5C 54.6257,70.0103 58.2924,68.677 62.5,68.5 Z"/></g>
<g><path style="opacity:1" fill="#d6b536" d="M 84.5,68.5 C 87.1123,69.3705 89.779,70.0372 92.5,70.5C 93.1667,70.5 93.8333,70.5 94.5,70.5C 94.8417,71.3382 95.5084,71.6716 96.5,71.5C 95.8166,73.1765 94.4832,73.8432 92.5,73.5C 88.7016,72.5166 84.7016,72.1832 80.5,72.5C 82.0419,71.8365 83.7086,71.1698 85.5,70.5C 85.1373,69.8165 84.8039,69.1499 84.5,68.5 Z"/></g>
<g><path style="opacity:1" fill="#674e3b" d="M 51.5,72.5 C 51.0269,73.9063 50.0269,74.573 48.5,74.5C 48.9731,73.0937 49.9731,72.427 51.5,72.5 Z"/></g>
<g><path style="opacity:1" fill="#b8972f" d="M 80.5,72.5 C 84.7016,72.1832 88.7016,72.5166 92.5,73.5C 86.9738,73.1786 81.6405,73.5119 76.5,74.5C 73.8478,74.4095 71.5145,75.0762 69.5,76.5C 68.8333,76.5 68.1667,76.5 67.5,76.5C 67.8039,75.8501 68.1373,75.1835 68.5,74.5C 72.4264,73.3678 76.4264,72.7011 80.5,72.5 Z"/></g>
<g><path style="opacity:1" fill="#5f5252" d="M 96.5,71.5 C 98.0145,72.6801 99.6812,73.6801 101.5,74.5C 100.667,74.8333 99.8333,75.1667 99,75.5C 91.5325,74.585 84.0325,74.2517 76.5,74.5C 81.6405,73.5119 86.9738,73.1786 92.5,73.5C 94.4832,73.8432 95.8166,73.1765 96.5,71.5 Z"/></g>
<g><path style="opacity:1" fill="#110958" d="M 94.5,70.5 C 100.088,69.9825 103.422,72.3158 104.5,77.5C 98.4583,77.3114 92.4583,76.6447 86.5,75.5C 82.1562,75.7864 77.8228,76.1198 73.5,76.5C 74.5,75.8333 75.5,75.1667 76.5,74.5C 84.0325,74.2517 91.5325,74.585 99,75.5C 99.8333,75.1667 100.667,74.8333 101.5,74.5C 99.6812,73.6801 98.0145,72.6801 96.5,71.5C 95.5084,71.6716 94.8417,71.3382 94.5,70.5 Z"/></g>
<g><path style="opacity:1" fill="#3f2f3d" d="M 76.5,74.5 C 75.5,75.1667 74.5,75.8333 73.5,76.5C 72.1667,76.5 70.8333,76.5 69.5,76.5C 71.5145,75.0762 73.8478,74.4095 76.5,74.5 Z"/></g>
<g><path style="opacity:1" fill="#907b39" d="M 48.5,74.5 C 47.5557,76.6879 45.889,78.0212 43.5,78.5C 44.5387,76.4689 46.2054,75.1355 48.5,74.5 Z"/></g>
<g><path style="opacity:1" fill="#d82f2a" d="M 178.5,52.5 C 220.833,52.5 263.167,52.5 305.5,52.5C 306.167,52.5 306.5,52.8333 306.5,53.5C 264.167,53.5 221.833,53.5 179.5,53.5C 179.5,61.1667 179.5,68.8333 179.5,76.5C 228.167,76.5 276.833,76.5 325.5,76.5C 326.5,76.8333 327.167,77.5 327.5,78.5C 277.833,78.5 228.167,78.5 178.5,78.5C 178.5,69.8333 178.5,61.1667 178.5,52.5 Z"/></g>
<g><path style="opacity:1" fill="#71633d" d="M 67.5,76.5 C 68.1667,76.5 68.8333,76.5 69.5,76.5C 68.0697,77.5375 66.403,78.2041 64.5,78.5C 64.9731,77.0937 65.9731,76.427 67.5,76.5 Z"/></g>
<g><path style="opacity:1" fill="#3d2f3d" d="M 126.5,80.5 C 125.883,80.3893 125.383,80.056 125,79.5C 124.722,80.4158 124.222,81.0825 123.5,81.5C 123.686,76.6905 124.686,76.3571 126.5,80.5 Z"/></g>
<g><path style="opacity:0.996" fill="#fdfefd" d="M 328.5,80.5 C 333.322,87.4681 337.656,94.8014 341.5,102.5C 287.5,102.5 233.5,102.5 179.5,102.5C 179.5,95.1667 179.5,87.8333 179.5,80.5C 229.167,80.5 278.833,80.5 328.5,80.5 Z"/></g>
<g><path style="opacity:1" fill="#846f3d" d="M 43.5,78.5 C 41.1667,81.5 38.5,84.1667 35.5,86.5C 37.1667,82.8333 39.8333,80.1667 43.5,78.5 Z"/></g>
<g><path style="opacity:1" fill="#a7965e" d="M 126.5,80.5 C 126.5,80.8333 126.5,81.1667 126.5,81.5C 126.5,82.5 126.5,83.5 126.5,84.5C 125.883,84.3893 125.383,84.056 125,83.5C 124.722,84.4158 124.222,85.0825 123.5,85.5C 123.5,84.1667 123.5,82.8333 123.5,81.5C 124.222,81.0825 124.722,80.4158 125,79.5C 125.383,80.056 125.883,80.3893 126.5,80.5 Z"/></g>
<g><path style="opacity:1" fill="#615555" d="M 141.5,85.5 C 141.565,85.0618 141.399,84.7284 141,84.5C 140.292,85.3805 139.458,86.0472 138.5,86.5C 139.389,84.264 140.722,82.264 142.5,80.5C 142.833,81.3333 143.167,82.1667 143.5,83C 143.316,84.3756 142.649,85.2089 141.5,85.5 Z"/></g>
<g><path style="opacity:1" fill="#453434" d="M 62.5,79.5 C 58.8333,83.8333 54.8333,87.8333 50.5,91.5C 53.5,86.5 57.5,82.5 62.5,79.5 Z"/></g>
<g><path style="opacity:1" fill="#1a0c55" d="M 109.5,81.5 C 108.414,81.62 107.747,82.2867 107.5,83.5C 109.299,88.0146 110.799,92.6812 112,97.5C 112.383,98.056 112.883,98.3893 113.5,98.5C 113.843,100.483 113.176,101.817 111.5,102.5C 110.833,102.167 110.167,101.833 109.5,101.5C 109.027,100.094 108.027,99.427 106.5,99.5C 106.027,98.0937 105.027,97.427 103.5,97.5C 101.596,97.2624 100.262,96.2624 99.5,94.5C 102.096,95.2653 104.763,95.5987 107.5,95.5C 107.753,93.1727 107.086,91.1727 105.5,89.5C 106.407,86.5788 106.74,83.5788 106.5,80.5C 107.791,80.2627 108.791,80.596 109.5,81.5 Z"/></g>
<g><path style="opacity:1" fill="#b79b42" d="M 141.5,85.5 C 141.5,86.8333 141.5,88.1667 141.5,89.5C 140.289,92.2658 138.956,94.9325 137.5,97.5C 137.894,96.0328 138.227,94.5328 138.5,93C 138.316,91.6244 137.649,90.7911 136.5,90.5C 136.5,90.1667 136.5,89.8333 136.5,89.5C 136.932,88.2905 137.599,87.2905 138.5,86.5C 139.458,86.0472 140.292,85.3805 141,84.5C 141.399,84.7284 141.565,85.0618 141.5,85.5 Z"/></g>
<g><path style="opacity:1" fill="#4a3931" d="M 50.5,91.5 C 50.2624,93.4044 49.2624,94.7377 47.5,95.5C 47.7376,93.5956 48.7376,92.2623 50.5,91.5 Z"/></g>
<g><path style="opacity:1" fill="#1f103e" d="M 126.5,81.5 C 128.018,84.5341 128.851,87.8675 129,91.5C 129.759,93.0629 130.926,94.0629 132.5,94.5C 132.5,94.8333 132.5,95.1667 132.5,95.5C 131.662,95.8417 131.328,96.5084 131.5,97.5C 130.391,97.4431 129.391,97.1098 128.5,96.5C 127.905,92.4622 127.238,88.4622 126.5,84.5C 126.5,83.5 126.5,82.5 126.5,81.5 Z"/></g>
<g><path style="opacity:1" fill="#756536" d="M 31.5,92.5 C 31.573,94.0269 30.9063,95.0269 29.5,95.5C 29.427,93.9731 30.0937,92.9731 31.5,92.5 Z"/></g>
<g><path style="opacity:1" fill="#f8ca10" d="M 135.5,100.5 C 135.238,101.978 135.571,103.311 136.5,104.5C 138.598,104.043 140.264,103.043 141.5,101.5C 143.315,100.37 145.315,99.7036 147.5,99.5C 147.5,100.5 147.5,101.5 147.5,102.5C 146.167,104.167 144.833,105.833 143.5,107.5C 142.522,107.811 141.855,108.478 141.5,109.5C 144.086,110.48 146.753,110.813 149.5,110.5C 155.732,110.027 156.399,110.861 151.5,113C 148.854,113.497 146.187,113.664 143.5,113.5C 143.5,115.5 143.5,117.5 143.5,119.5C 144.5,119.5 145.5,119.5 146.5,119.5C 147.23,120.712 148.23,121.712 149.5,122.5C 146.572,123.484 143.572,123.817 140.5,123.5C 140.263,124.791 140.596,125.791 141.5,126.5C 142.167,126.833 142.833,127.167 143.5,127.5C 143.5,128.167 143.833,128.5 144.5,128.5C 144.738,130.404 145.738,131.738 147.5,132.5C 148.366,134.144 148.866,135.811 149,137.5C 147.157,135.829 144.991,134.829 142.5,134.5C 140.566,133.89 138.899,132.89 137.5,131.5C 136.791,130.596 135.791,130.263 134.5,130.5C 135.34,133.824 135.84,137.157 136,140.5C 134.312,139.675 134.145,138.675 135.5,137.5C 134.311,136.571 132.978,136.238 131.5,136.5C 129.121,135.433 128.121,136.433 128.5,139.5C 127.539,141.265 127.205,143.265 127.5,145.5C 126.442,146.6 125.608,147.934 125,149.5C 124.617,148.944 124.117,148.611 123.5,148.5C 123.5,146.833 123.5,145.167 123.5,143.5C 123.345,140.391 122.678,137.391 121.5,134.5C 120.081,135.005 119.415,136.005 119.5,137.5C 118.094,137.973 117.427,138.973 117.5,140.5C 116.094,140.973 115.427,141.973 115.5,143.5C 114.272,144.306 113.272,145.306 112.5,146.5C 111.539,144.735 111.205,142.735 111.5,140.5C 111.5,139.833 111.5,139.167 111.5,138.5C 113.074,136.898 113.741,134.898 113.5,132.5C 109.628,133.102 106.295,134.769 103.5,137.5C 101.906,137.92 100.406,138.586 99,139.5C 97.3164,139.317 97.1498,138.65 98.5,137.5C 101.833,134.833 104.833,131.833 107.5,128.5C 107.5,128.167 107.5,127.833 107.5,127.5C 108.478,127.189 109.145,126.522 109.5,125.5C 104.868,124.672 100.202,124.172 95.5,124C 98.8333,122.667 102.167,121.333 105.5,120C 107.037,118.89 107.703,117.39 107.5,115.5C 106.167,115.5 104.833,115.5 103.5,115.5C 102.833,115.5 102.5,115.167 102.5,114.5C 101.602,113.842 100.602,113.176 99.5,112.5C 102.977,111.833 106.311,111.166 109.5,110.5C 109.33,107.796 107.997,106.129 105.5,105.5C 105.5,105.167 105.5,104.833 105.5,104.5C 105.489,102.983 104.823,101.816 103.5,101C 105.545,100.51 107.545,100.677 109.5,101.5C 110.167,101.833 110.833,102.167 111.5,102.5C 112.287,104.104 113.62,104.771 115.5,104.5C 115.336,101.813 115.503,99.146 116,96.5C 117.033,99.0327 118.867,100.699 121.5,101.5C 123.602,97.0922 124.769,92.4255 125,87.5C 126.437,91.9719 126.937,96.6386 126.5,101.5C 127.873,101.657 129.207,101.49 130.5,101C 131.726,99.3651 133.059,97.8651 134.5,96.5C 135.429,97.6888 135.762,99.0222 135.5,100.5 Z"/></g>
<g><path style="opacity:1" fill="#503e36" d="M 136.5,89.5 C 136.5,89.8333 136.5,90.1667 136.5,90.5C 135.872,92.6616 134.539,94.3282 132.5,95.5C 132.5,95.1667 132.5,94.8333 132.5,94.5C 133.487,92.4489 134.82,90.7822 136.5,89.5 Z"/></g>
<g><path style="opacity:1" fill="#998343" d="M 109.5,81.5 C 111.267,83.9384 112.601,86.605 113.5,89.5C 112.503,89.4701 111.836,89.9701 111.5,91C 112.249,93.4966 112.916,95.9966 113.5,98.5C 112.883,98.3893 112.383,98.056 112,97.5C 110.799,92.6812 109.299,88.0146 107.5,83.5C 107.747,82.2867 108.414,81.62 109.5,81.5 Z"/></g>
<g><path style="opacity:1" fill="#695334" d="M 29.5,96.5 C 29.573,98.0269 28.9063,99.0269 27.5,99.5C 27.427,97.9731 28.0937,96.9731 29.5,96.5 Z"/></g>
<g><path style="opacity:1" fill="#635039" d="M 103.5,97.5 C 105.027,97.427 106.027,98.0937 106.5,99.5C 104.973,99.573 103.973,98.9063 103.5,97.5 Z"/></g>
<g><path style="opacity:1" fill="#1b0c4e" d="M 141.5,89.5 C 141.167,92.1667 140.833,94.8333 140.5,97.5C 141.5,97.5 142.5,97.5 143.5,97.5C 143.109,94.162 144.276,93.162 147,94.5C 150.35,91.8682 154.183,90.5349 158.5,90.5C 158.525,94.1398 156.858,96.4731 153.5,97.5C 154.476,96.1851 155.476,94.8518 156.5,93.5C 156.043,92.7025 155.376,92.3691 154.5,92.5C 151.634,92.6329 149.634,93.9662 148.5,96.5C 145.63,97.4333 143.296,99.1 141.5,101.5C 140.417,101.539 139.417,101.873 138.5,102.5C 137.702,102.043 137.369,101.376 137.5,100.5C 137.5,99.5 137.5,98.5 137.5,97.5C 138.956,94.9325 140.289,92.2658 141.5,89.5 Z"/></g>
<g><path style="opacity:1" fill="#2b1b3d" d="M 154.5,92.5 C 152.736,94.1205 150.736,95.4538 148.5,96.5C 149.634,93.9662 151.634,92.6329 154.5,92.5 Z"/></g>
<g><path style="opacity:1" fill="#b29942" d="M 154.5,92.5 C 155.376,92.3691 156.043,92.7025 156.5,93.5C 155.476,94.8518 154.476,96.1851 153.5,97.5C 151.833,98.5 150.5,99.8333 149.5,101.5C 148.833,101.833 148.167,102.167 147.5,102.5C 147.5,101.5 147.5,100.5 147.5,99.5C 145.315,99.7036 143.315,100.37 141.5,101.5C 143.296,99.1 145.63,97.4333 148.5,96.5C 150.736,95.4538 152.736,94.1205 154.5,92.5 Z"/></g>
<g><path style="opacity:1" fill="#26164a" d="M 99.5,94.5 C 97.8632,93.7822 96.1966,93.6155 94.5,94C 97.7044,97.0359 100.704,100.203 103.5,103.5C 101.372,102.043 99.0384,101.043 96.5,100.5C 94.1006,97.7021 92.434,94.3687 91.5,90.5C 94.5014,91.3339 97.168,92.6672 99.5,94.5 Z"/></g>
<g><path style="opacity:1" fill="#c6a73d" d="M 99.5,94.5 C 100.262,96.2624 101.596,97.2624 103.5,97.5C 103.973,98.9063 104.973,99.573 106.5,99.5C 108.027,99.427 109.027,100.094 109.5,101.5C 107.545,100.677 105.545,100.51 103.5,101C 104.823,101.816 105.489,102.983 105.5,104.5C 104.833,104.167 104.167,103.833 103.5,103.5C 100.704,100.203 97.7044,97.0359 94.5,94C 96.1966,93.6155 97.8632,93.7822 99.5,94.5 Z"/></g>
<g><path style="opacity:1" fill="#ddbb30" d="M 126.5,84.5 C 127.238,88.4622 127.905,92.4622 128.5,96.5C 128.694,100.005 129.694,100.338 131.5,97.5C 131.328,96.5084 131.662,95.8417 132.5,95.5C 134.539,94.3282 135.872,92.6616 136.5,90.5C 137.649,90.7911 138.316,91.6244 138.5,93C 138.227,94.5328 137.894,96.0328 137.5,97.5C 137.5,98.5 137.5,99.5 137.5,100.5C 136.833,100.5 136.167,100.5 135.5,100.5C 135.762,99.0222 135.429,97.6888 134.5,96.5C 133.059,97.8651 131.726,99.3651 130.5,101C 129.207,101.49 127.873,101.657 126.5,101.5C 126.937,96.6386 126.437,91.9719 125,87.5C 124.769,92.4255 123.602,97.0922 121.5,101.5C 118.867,100.699 117.033,99.0327 116,96.5C 115.503,99.146 115.336,101.813 115.5,104.5C 113.62,104.771 112.287,104.104 111.5,102.5C 113.176,101.817 113.843,100.483 113.5,98.5C 112.916,95.9966 112.249,93.4966 111.5,91C 111.836,89.9701 112.503,89.4701 113.5,89.5C 115.643,91.1307 117.31,93.1307 118.5,95.5C 119.072,96.9733 119.905,98.3066 121,99.5C 121.822,96.8832 122.322,94.2165 122.5,91.5C 123.341,89.6208 123.675,87.6208 123.5,85.5C 124.222,85.0825 124.722,84.4158 125,83.5C 125.383,84.056 125.883,84.3893 126.5,84.5 Z"/></g>
<g><path style="opacity:1" fill="#3c2917" d="M 128.5,96.5 C 129.391,97.1098 130.391,97.4431 131.5,97.5C 129.694,100.338 128.694,100.005 128.5,96.5 Z"/></g>
<g><path style="opacity:1" fill="#200f38" d="M 122.5,91.5 C 122.322,94.2165 121.822,96.8832 121,99.5C 119.905,98.3066 119.072,96.9733 118.5,95.5C 119.833,94.1667 121.167,92.8333 122.5,91.5 Z"/></g>
<g><path style="opacity:1" fill="#7d683d" d="M 46.5,97.5 C 46.2451,99.9674 45.2451,101.967 43.5,103.5C 43.7549,101.033 44.7549,99.0326 46.5,97.5 Z"/></g>
<g><path style="opacity:1" fill="#a5872d" d="M 135.5,100.5 C 136.167,100.5 136.833,100.5 137.5,100.5C 137.369,101.376 137.702,102.043 138.5,102.5C 139.417,101.873 140.417,101.539 141.5,101.5C 140.264,103.043 138.598,104.043 136.5,104.5C 135.571,103.311 135.238,101.978 135.5,100.5 Z"/></g>
<g><path style="opacity:1" fill="#fbd9da" d="M 178.5,78.5 C 228.167,78.5 277.833,78.5 327.5,78.5C 328.338,78.8417 328.672,79.5084 328.5,80.5C 278.833,80.5 229.167,80.5 179.5,80.5C 179.5,87.8333 179.5,95.1667 179.5,102.5C 233.5,102.5 287.5,102.5 341.5,102.5C 341.5,103.167 341.5,103.833 341.5,104.5C 287.167,104.5 232.833,104.5 178.5,104.5C 178.5,95.8333 178.5,87.1667 178.5,78.5 Z"/></g>
<g><path style="opacity:1" fill="#4d3a33" d="M 27.5,101.5 C 27.573,103.027 26.9063,104.027 25.5,104.5C 25.427,102.973 26.0937,101.973 27.5,101.5 Z"/></g>
<g><path style="opacity:0.998" fill="#ec0000" d="M 342.5,105.5 C 345.893,113.345 348.893,121.345 351.5,129.5C 294.167,129.5 236.833,129.5 179.5,129.5C 179.5,121.5 179.5,113.5 179.5,105.5C 233.833,105.5 288.167,105.5 342.5,105.5 Z"/></g>
<g><path style="opacity:1" fill="#292351" d="M 98.5,108.5 C 94.351,107.92 90.6843,108.586 87.5,110.5C 86.5222,110.189 85.8555,109.522 85.5,108.5C 89.9838,107.189 94.3171,107.189 98.5,108.5 Z"/></g>
<g><path style="opacity:1" fill="#221345" d="M 149.5,101.5 C 149.278,103.607 148.278,105.274 146.5,106.5C 152.138,107.33 157.804,107.83 163.5,108C 164.883,109.461 164.549,110.294 162.5,110.5C 160.603,109.195 158.269,108.529 155.5,108.5C 152.308,108.621 149.141,108.954 146,109.5C 144.624,109.316 143.791,108.649 143.5,107.5C 144.833,105.833 146.167,104.167 147.5,102.5C 148.167,102.167 148.833,101.833 149.5,101.5 Z"/></g>
<g><path style="opacity:1" fill="#312033" d="M 103.5,103.5 C 104.167,103.833 104.833,104.167 105.5,104.5C 105.5,104.833 105.5,105.167 105.5,105.5C 106.141,106.482 106.807,107.482 107.5,108.5C 104.572,109.484 101.572,109.817 98.5,109.5C 98.5,109.167 98.5,108.833 98.5,108.5C 100.857,108.663 103.19,108.497 105.5,108C 104.418,106.67 103.751,105.17 103.5,103.5 Z"/></g>
<g><path style="opacity:1" fill="#766237" d="M 143.5,107.5 C 143.791,108.649 144.624,109.316 146,109.5C 149.141,108.954 152.308,108.621 155.5,108.5C 158.269,108.529 160.603,109.195 162.5,110.5C 162.5,110.833 162.5,111.167 162.5,111.5C 161.167,111.5 159.833,111.5 158.5,111.5C 158.918,110.778 159.584,110.278 160.5,110C 156.642,109.19 152.976,109.357 149.5,110.5C 146.753,110.813 144.086,110.48 141.5,109.5C 141.855,108.478 142.522,107.811 143.5,107.5 Z"/></g>
<g><path style="opacity:1" fill="#6f593f" d="M 98.5,108.5 C 98.5,108.833 98.5,109.167 98.5,109.5C 95.4816,109.335 92.4816,109.502 89.5,110C 91.3197,110.2 92.653,111.034 93.5,112.5C 91.8828,111.962 90.2161,111.629 88.5,111.5C 88.5,110.833 88.1667,110.5 87.5,110.5C 90.6843,108.586 94.351,107.92 98.5,108.5 Z"/></g>
<g><path style="opacity:1" fill="#8e7332" d="M 105.5,105.5 C 107.997,106.129 109.33,107.796 109.5,110.5C 105.629,110.815 101.962,110.482 98.5,109.5C 101.572,109.817 104.572,109.484 107.5,108.5C 106.807,107.482 106.141,106.482 105.5,105.5 Z"/></g>
<g><path style="opacity:1" fill="#dab537" d="M 98.5,109.5 C 101.962,110.482 105.629,110.815 109.5,110.5C 106.311,111.166 102.977,111.833 99.5,112.5C 100.602,113.176 101.602,113.842 102.5,114.5C 101.167,114.5 99.8333,114.5 98.5,114.5C 97.3646,112.787 95.698,112.12 93.5,112.5C 92.653,111.034 91.3197,110.2 89.5,110C 92.4816,109.502 95.4816,109.335 98.5,109.5 Z"/></g>
<g><path style="opacity:1" fill="#5e4b3d" d="M 93.5,112.5 C 95.698,112.12 97.3646,112.787 98.5,114.5C 96.597,114.204 94.9303,113.537 93.5,112.5 Z"/></g>
<g><path style="opacity:1" fill="#c3a430" d="M 149.5,110.5 C 152.976,109.357 156.642,109.19 160.5,110C 159.584,110.278 158.918,110.778 158.5,111.5C 156.938,111.733 155.605,112.4 154.5,113.5C 150.794,113.925 147.461,115.259 144.5,117.5C 145.243,118.182 145.909,118.849 146.5,119.5C 145.5,119.5 144.5,119.5 143.5,119.5C 143.5,117.5 143.5,115.5 143.5,113.5C 146.187,113.664 148.854,113.497 151.5,113C 156.399,110.861 155.732,110.027 149.5,110.5 Z"/></g>
<g><path style="opacity:1" fill="#5b483a" d="M 98.5,114.5 C 99.8333,114.5 101.167,114.5 102.5,114.5C 102.5,115.167 102.833,115.5 103.5,115.5C 103.5,115.833 103.5,116.167 103.5,116.5C 101.597,116.204 99.9303,115.537 98.5,114.5 Z"/></g>
<g><path style="opacity:1" fill="#503f3f" d="M 43.5,105.5 C 42.6932,111.464 42.3599,117.464 42.5,123.5C 42.1667,123.5 41.8333,123.5 41.5,123.5C 41.3341,118.489 41.5007,113.489 42,108.5C 42.2321,107.263 42.7321,106.263 43.5,105.5 Z"/></g>
<g><path style="opacity:1" fill="#1c0d4b" d="M 88.5,111.5 C 90.2161,111.629 91.8828,111.962 93.5,112.5C 94.9303,113.537 96.597,114.204 98.5,114.5C 99.9303,115.537 101.597,116.204 103.5,116.5C 105.549,116.706 105.883,117.539 104.5,119C 101.798,119.84 99.1317,120.673 96.5,121.5C 97.1834,119.824 98.5168,119.157 100.5,119.5C 100.5,118.5 100.5,117.5 100.5,116.5C 97.2111,115.59 93.8778,114.59 90.5,113.5C 89.7573,112.818 89.0906,112.151 88.5,111.5 Z"/></g>
<g><path style="opacity:1" fill="#10085c" d="M 158.5,111.5 C 159.833,111.5 161.167,111.5 162.5,111.5C 160.461,112.578 158.294,113.578 156,114.5C 155.505,116.473 155.338,118.473 155.5,120.5C 158.301,121.766 161.301,122.599 164.5,123C 166.155,124.444 166.822,126.278 166.5,128.5C 161.463,128.413 156.463,128.746 151.5,129.5C 151.5,131.5 151.5,133.5 151.5,135.5C 150.167,134.5 148.833,133.5 147.5,132.5C 147.267,130.938 146.6,129.605 145.5,128.5C 151.679,127.833 158.012,127.167 164.5,126.5C 163.995,125.081 162.995,124.415 161.5,124.5C 159.5,123.833 157.5,123.167 155.5,122.5C 155.5,121.833 155.167,121.5 154.5,121.5C 154.586,120.504 154.252,119.671 153.5,119C 152.062,118.781 150.729,118.281 149.5,117.5C 151.363,116.311 153.03,114.978 154.5,113.5C 155.605,112.4 156.938,111.733 158.5,111.5 Z"/></g>
<g><path style="opacity:1" fill="#21162b" d="M 24.5,110.5 C 24.5782,117.515 24.9115,124.515 25.5,131.5C 23.5036,124.557 23.1702,117.557 24.5,110.5 Z"/></g>
<g><path style="opacity:1" fill="#241246" d="M 154.5,113.5 C 153.03,114.978 151.363,116.311 149.5,117.5C 150.729,118.281 152.062,118.781 153.5,119C 154.252,119.671 154.586,120.504 154.5,121.5C 153.167,121.167 151.833,120.833 150.5,120.5C 149.167,120.167 147.833,119.833 146.5,119.5C 145.909,118.849 145.243,118.182 144.5,117.5C 147.461,115.259 150.794,113.925 154.5,113.5 Z"/></g>
<g><path style="opacity:1" fill="#b49633" d="M 103.5,116.5 C 103.5,116.167 103.5,115.833 103.5,115.5C 104.833,115.5 106.167,115.5 107.5,115.5C 107.703,117.39 107.037,118.89 105.5,120C 102.167,121.333 98.8333,122.667 95.5,124C 100.202,124.172 104.868,124.672 109.5,125.5C 109.145,126.522 108.478,127.189 107.5,127.5C 105.721,125.656 103.388,124.99 100.5,125.5C 97.1501,125.665 93.8168,125.498 90.5,125C 91.7375,124.768 92.7375,124.268 93.5,123.5C 94.5,122.833 95.5,122.167 96.5,121.5C 99.1317,120.673 101.798,119.84 104.5,119C 105.883,117.539 105.549,116.706 103.5,116.5 Z"/></g>
<g><path style="opacity:1" fill="#82663f" d="M 150.5,120.5 C 151.833,120.833 153.167,121.167 154.5,121.5C 155.167,121.5 155.5,121.833 155.5,122.5C 153.302,122.88 151.635,122.213 150.5,120.5 Z"/></g>
<g><path style="opacity:1" fill="#3a2841" d="M 96.5,121.5 C 95.5,122.167 94.5,122.833 93.5,123.5C 92.8333,123.5 92.1667,123.5 91.5,123.5C 92.6354,121.787 94.302,121.12 96.5,121.5 Z"/></g>
<g><path style="opacity:1" fill="#e2bb31" d="M 146.5,119.5 C 147.833,119.833 149.167,120.167 150.5,120.5C 151.635,122.213 153.302,122.88 155.5,122.5C 156.85,123.824 156.683,124.824 155,125.5C 152.542,124.92 150.042,124.586 147.5,124.5C 145.048,124.539 143.048,125.206 141.5,126.5C 140.596,125.791 140.263,124.791 140.5,123.5C 143.572,123.817 146.572,123.484 149.5,122.5C 148.23,121.712 147.23,120.712 146.5,119.5 Z"/></g>
<g><path style="opacity:1" fill="#7d6b35" d="M 91.5,123.5 C 92.1667,123.5 92.8333,123.5 93.5,123.5C 92.7375,124.268 91.7375,124.768 90.5,125C 93.8168,125.498 97.1501,125.665 100.5,125.5C 100.5,125.833 100.5,126.167 100.5,126.5C 96.0293,127.089 92.0293,126.423 88.5,124.5C 89.391,123.89 90.391,123.557 91.5,123.5 Z"/></g>
<g><path style="opacity:1" fill="#432c2c" d="M 100.5,126.5 C 100.5,126.167 100.5,125.833 100.5,125.5C 103.388,124.99 105.721,125.656 107.5,127.5C 107.5,127.833 107.5,128.167 107.5,128.5C 107.167,128.5 106.833,128.5 106.5,128.5C 105.082,126.692 103.082,126.025 100.5,126.5 Z"/></g>
<g><path style="opacity:1" fill="#4a3c29" d="M 151.5,126.5 C 148.612,125.99 146.279,126.656 144.5,128.5C 143.833,128.5 143.5,128.167 143.5,127.5C 144.334,126.252 145.667,125.585 147.5,125.5C 149.045,125.511 150.378,125.844 151.5,126.5 Z"/></g>
<g><path style="opacity:1" fill="#9c8239" d="M 155.5,122.5 C 157.5,123.167 159.5,123.833 161.5,124.5C 158.663,126.402 155.329,127.069 151.5,126.5C 150.378,125.844 149.045,125.511 147.5,125.5C 145.667,125.585 144.334,126.252 143.5,127.5C 142.833,127.167 142.167,126.833 141.5,126.5C 143.048,125.206 145.048,124.539 147.5,124.5C 150.042,124.586 152.542,124.92 155,125.5C 156.683,124.824 156.85,123.824 155.5,122.5 Z"/></g>
<g><path style="opacity:1" fill="#3b2f51" d="M 161.5,124.5 C 162.995,124.415 163.995,125.081 164.5,126.5C 158.012,127.167 151.679,127.833 145.5,128.5C 145.167,128.5 144.833,128.5 144.5,128.5C 146.279,126.656 148.612,125.99 151.5,126.5C 155.329,127.069 158.663,126.402 161.5,124.5 Z"/></g>
<g><path style="opacity:1" fill="#12085c" d="M 88.5,124.5 C 92.0293,126.423 96.0293,127.089 100.5,126.5C 103.082,126.025 105.082,126.692 106.5,128.5C 103.5,130.833 100.833,133.5 98.5,136.5C 95.8054,137.884 94.8054,139.884 95.5,142.5C 96.6223,141.37 97.9557,140.703 99.5,140.5C 98.145,143.518 95.8116,144.851 92.5,144.5C 93.609,141.267 94.4424,137.934 95,134.5C 95.8996,133.23 97.0663,132.23 98.5,131.5C 98.3333,131.167 98.1667,130.833 98,130.5C 93.6202,130.472 89.1202,130.138 84.5,129.5C 84.1826,126.454 85.5159,124.787 88.5,124.5 Z"/></g>
<g><path style="opacity:1" fill="#6f5c37" d="M 144.5,128.5 C 144.833,128.5 145.167,128.5 145.5,128.5C 146.6,129.605 147.267,130.938 147.5,132.5C 145.738,131.738 144.738,130.404 144.5,128.5 Z"/></g>
<g><path style="opacity:1" fill="#de3c3d" d="M 178.5,104.5 C 232.833,104.5 287.167,104.5 341.5,104.5C 342.167,104.5 342.5,104.833 342.5,105.5C 288.167,105.5 233.833,105.5 179.5,105.5C 179.5,113.5 179.5,121.5 179.5,129.5C 236.833,129.5 294.167,129.5 351.5,129.5C 351.5,129.833 351.5,130.167 351.5,130.5C 293.833,130.5 236.167,130.5 178.5,130.5C 178.5,121.833 178.5,113.167 178.5,104.5 Z"/></g>
<g><path style="opacity:0.997" fill="#fefefe" d="M 351.5,132.5 C 353.797,139.579 355.464,146.913 356.5,154.5C 297.5,154.5 238.5,154.5 179.5,154.5C 179.5,147.167 179.5,139.833 179.5,132.5C 236.833,132.5 294.167,132.5 351.5,132.5 Z"/></g>
<g><path style="opacity:1" fill="#bc9f3a" d="M 41.5,123.5 C 41.8333,123.5 42.1667,123.5 42.5,123.5C 43.0916,126.127 43.4249,128.794 43.5,131.5C 43.427,133.027 44.0937,134.027 45.5,134.5C 46.4408,136.05 47.1075,137.716 47.5,139.5C 46.5041,139.586 45.6708,139.252 45,138.5C 42.8689,133.785 41.7023,128.785 41.5,123.5 Z"/></g>
<g><path style="opacity:1" fill="#5f4e32" d="M 43.5,131.5 C 44.9063,131.973 45.573,132.973 45.5,134.5C 44.0937,134.027 43.427,133.027 43.5,131.5 Z"/></g>
<g><path style="opacity:1" fill="#897139" d="M 106.5,128.5 C 106.833,128.5 107.167,128.5 107.5,128.5C 104.833,131.833 101.833,134.833 98.5,137.5C 98.5,137.167 98.5,136.833 98.5,136.5C 100.833,133.5 103.5,130.833 106.5,128.5 Z"/></g>
<g><path style="opacity:1" fill="#342235" d="M 26.5,132.5 C 27.5375,133.93 28.2041,135.597 28.5,137.5C 26.7868,136.365 26.1201,134.698 26.5,132.5 Z"/></g>
<g><path style="opacity:1" fill="#3f2e36" d="M 111.5,138.5 C 111.5,137.5 111.5,136.5 111.5,135.5C 108.779,135.963 106.112,136.629 103.5,137.5C 106.295,134.769 109.628,133.102 113.5,132.5C 113.741,134.898 113.074,136.898 111.5,138.5 Z"/></g>
<g><path style="opacity:1" fill="#180b4b" d="M 137.5,131.5 C 138.899,132.89 140.566,133.89 142.5,134.5C 142.833,135.167 143.167,135.833 143.5,136.5C 142.5,136.5 141.5,136.5 140.5,136.5C 141.54,141.448 142.873,146.282 144.5,151C 144.472,152.07 144.139,152.903 143.5,153.5C 143.204,151.597 142.537,149.93 141.5,148.5C 141.5,147.5 141.5,146.5 141.5,145.5C 141.573,143.973 140.906,142.973 139.5,142.5C 139.741,140.102 139.074,138.102 137.5,136.5C 136.506,134.666 136.506,132.999 137.5,131.5 Z"/></g>
<g><path style="opacity:1" fill="#826a2c" d="M 123.5,143.5 C 122.833,142.5 122.167,141.5 121.5,140.5C 121.657,139.127 121.49,137.793 121,136.5C 120.617,137.056 120.117,137.389 119.5,137.5C 119.415,136.005 120.081,135.005 121.5,134.5C 122.678,137.391 123.345,140.391 123.5,143.5 Z"/></g>
<g><path style="opacity:1" fill="#a58a49" d="M 147.5,132.5 C 148.833,133.5 150.167,134.5 151.5,135.5C 152.833,137.167 154.167,138.833 155.5,140.5C 154.791,141.404 153.791,141.737 152.5,141.5C 149.696,139.595 146.696,137.929 143.5,136.5C 143.167,135.833 142.833,135.167 142.5,134.5C 144.991,134.829 147.157,135.829 149,137.5C 148.866,135.811 148.366,134.144 147.5,132.5 Z"/></g>
<g><path style="opacity:1" fill="#392120" d="M 131.5,136.5 C 131.5,137.167 131.5,137.833 131.5,138.5C 130.391,138.557 129.391,138.89 128.5,139.5C 128.121,136.433 129.121,135.433 131.5,136.5 Z"/></g>
<g><path style="opacity:1" fill="#2a1938" d="M 121.5,140.5 C 120.778,140.082 120.278,139.416 120,138.5C 119.292,139.381 118.458,140.047 117.5,140.5C 117.427,138.973 118.094,137.973 119.5,137.5C 120.117,137.389 120.617,137.056 121,136.5C 121.49,137.793 121.657,139.127 121.5,140.5 Z"/></g>
<g><path style="opacity:1" fill="#746154" d="M 98.5,136.5 C 98.5,136.833 98.5,137.167 98.5,137.5C 97.1498,138.65 97.3164,139.317 99,139.5C 100.406,138.586 101.906,137.92 103.5,137.5C 102.738,139.262 101.404,140.262 99.5,140.5C 97.9557,140.703 96.6223,141.37 95.5,142.5C 94.8054,139.884 95.8054,137.884 98.5,136.5 Z"/></g>
<g><path style="opacity:1" fill="#3b2332" d="M 131.5,138.5 C 132.906,138.973 133.573,139.973 133.5,141.5C 132.094,141.027 131.427,140.027 131.5,138.5 Z"/></g>
<g><path style="opacity:1" fill="#e2bf34" d="M 137.5,131.5 C 136.506,132.999 136.506,134.666 137.5,136.5C 137.259,138.898 137.926,140.898 139.5,142.5C 139.427,144.027 140.094,145.027 141.5,145.5C 141.5,146.5 141.5,147.5 141.5,148.5C 141.672,149.492 141.338,150.158 140.5,150.5C 140.167,150.5 139.833,150.5 139.5,150.5C 139.573,148.973 138.906,147.973 137.5,147.5C 137.573,145.973 136.906,144.973 135.5,144.5C 135.573,142.973 134.906,141.973 133.5,141.5C 133.573,139.973 132.906,138.973 131.5,138.5C 131.5,137.833 131.5,137.167 131.5,136.5C 132.978,136.238 134.311,136.571 135.5,137.5C 134.145,138.675 134.312,139.675 136,140.5C 135.84,137.157 135.34,133.824 134.5,130.5C 135.791,130.263 136.791,130.596 137.5,131.5 Z"/></g>
<g><path style="opacity:1" fill="#93793d" d="M 137.5,136.5 C 139.074,138.102 139.741,140.102 139.5,142.5C 137.926,140.898 137.259,138.898 137.5,136.5 Z"/></g>
<g><path style="opacity:1" fill="#524363" d="M 155.5,140.5 C 157.332,141.14 157.665,142.14 156.5,143.5C 154.974,143.006 153.641,142.339 152.5,141.5C 153.791,141.737 154.791,141.404 155.5,140.5 Z"/></g>
<g><path style="opacity:1" fill="#4d3f34" d="M 117.5,140.5 C 117.573,142.027 116.906,143.027 115.5,143.5C 115.427,141.973 116.094,140.973 117.5,140.5 Z"/></g>
<g><path style="opacity:1" fill="#8a7337" d="M 47.5,139.5 C 50.7348,144.079 54.4015,148.412 58.5,152.5C 53.0174,149.685 49.3507,145.352 47.5,139.5 Z"/></g>
<g><path style="opacity:1" fill="#362834" d="M 133.5,141.5 C 134.906,141.973 135.573,142.973 135.5,144.5C 134.094,144.027 133.427,143.027 133.5,141.5 Z"/></g>
<g><path style="opacity:1" fill="#3b282d" d="M 139.5,142.5 C 140.906,142.973 141.573,143.973 141.5,145.5C 140.094,145.027 139.427,144.027 139.5,142.5 Z"/></g>
<g><path style="opacity:1" fill="#ac924a" d="M 111.5,140.5 C 111.205,142.735 111.539,144.735 112.5,146.5C 111.89,147.391 111.557,148.391 111.5,149.5C 110.833,150.5 110.167,151.5 109.5,152.5C 108.427,150.653 108.427,148.653 109.5,146.5C 109.595,144.214 110.262,142.214 111.5,140.5 Z"/></g>
<g><path style="opacity:1" fill="#463934" d="M 115.5,143.5 C 115.155,146.198 113.822,148.198 111.5,149.5C 111.557,148.391 111.89,147.391 112.5,146.5C 113.272,145.306 114.272,144.306 115.5,143.5 Z"/></g>
<g><path style="opacity:1" fill="#3a2533" d="M 135.5,144.5 C 136.906,144.973 137.573,145.973 137.5,147.5C 136.094,147.027 135.427,146.027 135.5,144.5 Z"/></g>
<g><path style="opacity:1" fill="#352442" d="M 121.5,140.5 C 122.167,141.5 122.833,142.5 123.5,143.5C 123.5,145.167 123.5,146.833 123.5,148.5C 124.059,157.356 125.392,157.689 127.5,149.5C 127.664,152.187 127.497,154.854 127,157.5C 125.989,158.337 124.822,158.67 123.5,158.5C 122.833,152.5 122.167,146.5 121.5,140.5 Z"/></g>
<g><path style="opacity:1" fill="#2c1940" d="M 28.5,137.5 C 31.4686,142.73 34.8019,147.73 38.5,152.5C 35.0536,151.388 33.0536,149.055 32.5,145.5C 31.5,145.5 30.5,145.5 29.5,145.5C 29.1667,142.833 28.8333,140.167 28.5,137.5 Z"/></g>
<g><path style="opacity:1" fill="#35293b" d="M 137.5,147.5 C 138.906,147.973 139.573,148.973 139.5,150.5C 138.094,150.027 137.427,149.027 137.5,147.5 Z"/></g>
<g><path style="opacity:1" fill="#b59d4d" d="M 127.5,145.5 C 127.5,146.833 127.5,148.167 127.5,149.5C 125.392,157.689 124.059,157.356 123.5,148.5C 124.117,148.611 124.617,148.944 125,149.5C 125.608,147.934 126.442,146.6 127.5,145.5 Z"/></g>
<g><path style="opacity:1" fill="#766565" d="M 141.5,148.5 C 142.537,149.93 143.204,151.597 143.5,153.5C 141.856,153.19 140.856,152.19 140.5,150.5C 141.338,150.158 141.672,149.492 141.5,148.5 Z"/></g>
<g><path style="opacity:1" fill="#42364f" d="M 109.5,146.5 C 108.427,148.653 108.427,150.653 109.5,152.5C 109.44,153.043 109.107,153.376 108.5,153.5C 108.167,152.5 107.833,151.5 107.5,150.5C 107.34,148.645 108.007,147.312 109.5,146.5 Z"/></g>
<g><path style="opacity:1" fill="#3b2f3a" d="M 38.5,152.5 C 39.8333,153.167 40.8333,154.167 41.5,155.5C 39.5,155.5 38.5,154.5 38.5,152.5 Z"/></g>
<g><path style="opacity:1" fill="#231545" d="M 58.5,152.5 C 62.6841,152.592 66.0174,154.259 68.5,157.5C 67.8333,157.5 67.1667,157.5 66.5,157.5C 65.5084,157.672 64.8417,157.338 64.5,156.5C 64.0269,155.094 63.0269,154.427 61.5,154.5C 60.2905,154.068 59.2905,153.401 58.5,152.5 Z"/></g>
<g><path style="opacity:0.996" fill="#fadadb" d="M 178.5,130.5 C 236.167,130.5 293.833,130.5 351.5,130.5C 351.5,131.167 351.5,131.833 351.5,132.5C 294.167,132.5 236.833,132.5 179.5,132.5C 179.5,139.833 179.5,147.167 179.5,154.5C 238.5,154.5 297.5,154.5 356.5,154.5C 356.5,155.167 356.5,155.833 356.5,156.5C 297.167,156.5 237.833,156.5 178.5,156.5C 178.5,147.833 178.5,139.167 178.5,130.5 Z"/></g>
<g><path style="opacity:1" fill="#7d653f" d="M 41.5,155.5 C 43.4044,155.738 44.7377,156.738 45.5,158.5C 43.5956,158.262 42.2623,157.262 41.5,155.5 Z"/></g>
<g><path style="opacity:1" fill="#5e5131" d="M 61.5,154.5 C 63.0269,154.427 64.0269,155.094 64.5,156.5C 62.9731,156.573 61.9731,155.906 61.5,154.5 Z"/></g>
<g><path style="opacity:1" fill="#dc4942" d="M 178.5,156.5 C 237.833,156.5 297.167,156.5 356.5,156.5C 356.5,157.167 356.5,157.833 356.5,158.5C 297.5,158.5 238.5,158.5 179.5,158.5C 179.5,166.5 179.5,174.5 179.5,182.5C 238.833,182.5 298.167,182.5 357.5,182.5C 357.5,182.833 357.5,183.167 357.5,183.5C 297.833,183.5 238.167,183.5 178.5,183.5C 178.5,174.5 178.5,165.5 178.5,156.5 Z"/></g>
<g><path style="opacity:0.998" fill="#ec0001" d="M 356.5,158.5 C 356.5,159.167 356.833,159.5 357.5,159.5C 357.5,167.167 357.5,174.833 357.5,182.5C 298.167,182.5 238.833,182.5 179.5,182.5C 179.5,174.5 179.5,166.5 179.5,158.5C 238.5,158.5 297.5,158.5 356.5,158.5 Z"/></g>
<g><path style="opacity:1" fill="#796138" d="M 45.5,158.5 C 47.0269,158.427 48.0269,159.094 48.5,160.5C 46.9731,160.573 45.9731,159.906 45.5,158.5 Z"/></g>
<g><path style="opacity:1" fill="#b89833" d="M 66.5,157.5 C 67.1667,157.5 67.8333,157.5 68.5,157.5C 70.9884,159.128 73.6551,160.462 76.5,161.5C 73.1933,160.949 69.8599,160.616 66.5,160.5C 66.5,159.5 66.5,158.5 66.5,157.5 Z"/></g>
<g><path style="opacity:1" fill="#463850" d="M 96.5,160.5 C 101.824,159.059 102.49,160.226 98.5,164C 97.2068,164.49 95.8734,164.657 94.5,164.5C 94.8417,163.662 95.5084,163.328 96.5,163.5C 100.06,161.717 100.06,160.717 96.5,160.5 Z"/></g>
<g><path style="opacity:1" fill="#2b1d42" d="M 68.5,157.5 C 76.9209,160.136 85.5876,161.136 94.5,160.5C 94.5,160.833 94.5,161.167 94.5,161.5C 88.5,161.5 82.5,161.5 76.5,161.5C 73.6551,160.462 70.9884,159.128 68.5,157.5 Z"/></g>
<g><path style="opacity:1" fill="#7c705c" d="M 94.5,161.5 C 94.5,161.167 94.5,160.833 94.5,160.5C 95.1667,160.5 95.8333,160.5 96.5,160.5C 100.06,160.717 100.06,161.717 96.5,163.5C 96.5,162.167 95.8333,161.5 94.5,161.5 Z"/></g>
<g><path style="opacity:1" fill="#635636" d="M 48.5,160.5 C 50.0269,160.427 51.0269,161.094 51.5,162.5C 49.9731,162.573 48.9731,161.906 48.5,160.5 Z"/></g>
<g><path style="opacity:1" fill="#be9f33" d="M 76.5,161.5 C 82.5,161.5 88.5,161.5 94.5,161.5C 95.8333,161.5 96.5,162.167 96.5,163.5C 95.5084,163.328 94.8417,163.662 94.5,164.5C 91.9902,164.927 89.6568,165.593 87.5,166.5C 86.5,166.5 85.5,166.5 84.5,166.5C 85.0906,165.849 85.7573,165.182 86.5,164.5C 82.8791,163.987 79.5458,162.987 76.5,161.5 Z"/></g>
<g><path style="opacity:1" fill="#4e443b" d="M 51.5,162.5 C 52.1667,162.5 52.8333,162.5 53.5,162.5C 55.0764,163.143 56.4097,164.143 57.5,165.5C 55.0326,165.245 53.0326,164.245 51.5,162.5 Z"/></g>
<g><path style="opacity:1" fill="#ac8f31" d="M 53.5,162.5 C 63.448,166.005 73.7813,167.338 84.5,166.5C 85.5,166.5 86.5,166.5 87.5,166.5C 81.3554,167.49 75.0221,167.823 68.5,167.5C 64.6648,167.583 60.9981,166.917 57.5,165.5C 56.4097,164.143 55.0764,163.143 53.5,162.5 Z"/></g>
<g><path style="opacity:1" fill="#3c2b40" d="M 94.5,164.5 C 92.7582,165.957 90.7582,167.124 88.5,168C 81.6536,168.821 74.987,168.654 68.5,167.5C 75.0221,167.823 81.3554,167.49 87.5,166.5C 89.6568,165.593 91.9902,164.927 94.5,164.5 Z"/></g>
<g><path style="opacity:0.997" fill="#fef7f8" d="M 178.5,183.5 C 238.167,183.5 297.833,183.5 357.5,183.5C 357.5,188.167 357.5,192.833 357.5,197.5C 356.383,201.295 355.717,205.295 355.5,209.5C 296.5,209.5 237.5,209.5 178.5,209.5C 178.5,200.833 178.5,192.167 178.5,183.5 Z"/></g>
<g><path style="opacity:1" fill="#3b0347" d="M 177.5,0.5 C 177.833,0.5 178.167,0.5 178.5,0.5C 178.5,8.83333 178.5,17.1667 178.5,25.5C 178.5,25.8333 178.5,26.1667 178.5,26.5C 178.5,35.1667 178.5,43.8333 178.5,52.5C 178.5,61.1667 178.5,69.8333 178.5,78.5C 178.5,87.1667 178.5,95.8333 178.5,104.5C 178.5,113.167 178.5,121.833 178.5,130.5C 178.5,139.167 178.5,147.833 178.5,156.5C 178.5,165.5 178.5,174.5 178.5,183.5C 178.5,192.167 178.5,200.833 178.5,209.5C 119.5,209.5 60.5,209.5 1.5,209.5C 1.5,208.833 1.5,208.167 1.5,207.5C 60.1667,207.5 118.833,207.5 177.5,207.5C 177.5,138.5 177.5,69.5 177.5,0.5 Z"/></g>
<g><path style="opacity:1" fill="#d61a1c" d="M 1.5,209.5 C 60.5,209.5 119.5,209.5 178.5,209.5C 237.5,209.5 296.5,209.5 355.5,209.5C 355.167,210.167 354.833,210.833 354.5,211.5C 237.167,211.5 119.833,211.5 2.5,211.5C 2.16667,210.833 1.83333,210.167 1.5,209.5 Z"/></g>
<g><path style="opacity:0.999" fill="#eb0403" d="M 2.5,211.5 C 119.833,211.5 237.167,211.5 354.5,211.5C 353.437,219.754 351.437,227.754 348.5,235.5C 235.167,235.5 121.833,235.5 8.5,235.5C 5.56343,227.754 3.56343,219.754 2.5,211.5 Z"/></g>
<g><path style="opacity:0.996" fill="#fef8f8" d="M 8.5,235.5 C 121.833,235.5 235.167,235.5 348.5,235.5C 345.916,244.663 342.249,253.33 337.5,261.5C 231.5,261.5 125.5,261.5 19.5,261.5C 14.7701,253.363 11.1034,244.697 8.5,235.5 Z"/></g>
<g><path style="opacity:0.999" fill="#e7362f" d="M 19.5,261.5 C 125.5,261.5 231.5,261.5 337.5,261.5C 337.167,262.167 336.833,262.833 336.5,263.5C 231.167,263.5 125.833,263.5 20.5,263.5C 20.1667,262.833 19.8333,262.167 19.5,261.5 Z"/></g>
<g><path style="opacity:0.998" fill="#eb0102" d="M 20.5,263.5 C 125.833,263.5 231.167,263.5 336.5,263.5C 332.146,272.225 326.812,280.225 320.5,287.5C 225.833,287.5 131.167,287.5 36.5,287.5C 30.1876,280.225 24.8543,272.225 20.5,263.5 Z"/></g>
<g><path style="opacity:0.999" fill="#f8b4b1" d="M 36.5,287.5 C 131.167,287.5 225.833,287.5 320.5,287.5C 320.672,288.492 320.338,289.158 319.5,289.5C 225.5,289.5 131.5,289.5 37.5,289.5C 36.6618,289.158 36.3284,288.492 36.5,287.5 Z"/></g>
<g><path style="opacity:0.995" fill="#fefdfd" d="M 37.5,289.5 C 131.5,289.5 225.5,289.5 319.5,289.5C 312.535,298.133 304.868,306.133 296.5,313.5C 217.833,313.5 139.167,313.5 60.5,313.5C 52.1321,306.133 44.4654,298.133 37.5,289.5 Z"/></g>
<g><path style="opacity:0.998" fill="#e55145" d="M 60.5,313.5 C 139.167,313.5 217.833,313.5 296.5,313.5C 296.027,314.906 295.027,315.573 293.5,315.5C 216.833,315.5 140.167,315.5 63.5,315.5C 61.9731,315.573 60.9731,314.906 60.5,313.5 Z"/></g>
<g><path style="opacity:0.995" fill="#eb0805" d="M 63.5,315.5 C 140.167,315.5 216.833,315.5 293.5,315.5C 282.036,326.075 269.036,334.408 254.5,340.5C 203.833,340.5 153.167,340.5 102.5,340.5C 87.9642,334.408 74.9642,326.075 63.5,315.5 Z"/></g>
<g><path style="opacity:0.947" fill="#fdf7f8" d="M 102.5,340.5 C 153.167,340.5 203.833,340.5 254.5,340.5C 236.106,349.409 216.773,355.076 196.5,357.5C 184.5,357.5 172.5,357.5 160.5,357.5C 140.227,355.076 120.894,349.409 102.5,340.5 Z"/></g>
</svg>
