<?xml version="1.0" encoding="UTF-8"?>
<!DOCTYPE svg PUBLIC "-//W3C//DTD SVG 1.1//EN" "http://www.w3.org/Graphics/SVG/1.1/DTD/svg11.dtd">
<svg xmlns="http://www.w3.org/2000/svg" version="1.1" width="193px" height="191px" style="shape-rendering:geometricPrecision; text-rendering:geometricPrecision; image-rendering:optimizeQuality; fill-rule:evenodd; clip-rule:evenodd" xmlns:xlink="http://www.w3.org/1999/xlink">
<g><path style="opacity:1" fill="#fffefe" d="M -0.5,-0.5 C 63.8333,-0.5 128.167,-0.5 192.5,-0.5C 192.5,63.1667 192.5,126.833 192.5,190.5C 128.167,190.5 63.8333,190.5 -0.5,190.5C -0.5,126.833 -0.5,63.1667 -0.5,-0.5 Z"/></g>
<g><path style="opacity:1" fill="#ffe695" d="M 84.5,0.5 C 124.75,-1.45895 155.917,14.2077 178,47.5C 197.76,86.2894 194.093,122.623 167,156.5C 136.191,187.531 100.024,195.698 58.5,181C 21.8565,163.487 2.5232,134.321 0.5,93.5C 5.39412,41.6069 33.3941,10.6069 84.5,0.5 Z"/></g>
<g><path style="opacity:1" fill="#fcfcfb" d="M 81.5,16.5 C 117.38,12.6942 145.213,25.6942 165,55.5C 181.155,87.7435 178.155,118.077 156,146.5C 131.531,171.865 102.364,179.365 68.5,169C 35.4164,154.562 18.0831,129.228 16.5,93C 20.7245,52.6135 42.3912,27.1135 81.5,16.5 Z"/></g>
<g><path style="opacity:1" fill="#110f0c" d="M 122.5,36.5 C 122.5,36.8333 122.5,37.1667 122.5,37.5C 110.482,37.1677 98.4815,37.501 86.5,38.5C 86.6236,39.1067 86.9569,39.44 87.5,39.5C 88.2891,39.7828 88.9558,40.2828 89.5,41C 103.5,41.6667 117.5,41.6667 131.5,41C 132.167,40.3333 132.833,39.6667 133.5,39C 131.5,38.6667 129.5,38.3333 127.5,38C 126.944,37.6174 126.611,37.1174 126.5,36.5C 126.611,35.8826 126.944,35.3826 127.5,35C 131.755,34.2039 135.921,34.3705 140,35.5C 140.5,50.1629 140.667,64.8295 140.5,79.5C 120.5,79.5 100.5,79.5 80.5,79.5C 80.3334,64.8295 80.5001,50.1629 81,35.5C 87.9232,34.8419 94.9232,34.5086 102,34.5C 109.201,34.503 116.034,35.1697 122.5,36.5 Z"/></g>
<g><path style="opacity:1" fill="#442717" d="M 122.5,37.5 C 110.833,38.1667 99.1667,38.8333 87.5,39.5C 86.9569,39.44 86.6236,39.1067 86.5,38.5C 98.4815,37.501 110.482,37.1677 122.5,37.5 Z"/></g>
<g><path style="opacity:1" fill="#e17f4b" d="M 122.5,36.5 C 123.833,36.5 125.167,36.5 126.5,36.5C 126.611,37.1174 126.944,37.6174 127.5,38C 129.5,38.3333 131.5,38.6667 133.5,39C 132.833,39.6667 132.167,40.3333 131.5,41C 117.5,41.6667 103.5,41.6667 89.5,41C 88.9558,40.2828 88.2891,39.7828 87.5,39.5C 99.1667,38.8333 110.833,38.1667 122.5,37.5C 122.5,37.1667 122.5,36.8333 122.5,36.5 Z"/></g>
<g><path style="opacity:1" fill="#3c2114" d="M 136.5,41.5 C 137.823,52.0073 137.823,62.6739 136.5,73.5C 135.893,73.3764 135.56,73.0431 135.5,72.5C 136.494,62.3468 136.828,52.0135 136.5,41.5 Z"/></g>
<g><path style="opacity:1" fill="#191818" d="M 67.5,72.5 C 65.5,72.5 63.5,72.5 61.5,72.5C 61.7973,79.9204 61.464,87.2537 60.5,94.5C 59.5084,94.6716 58.8417,94.3382 58.5,93.5C 58.5,86.5 58.5,79.5 58.5,72.5C 56.8333,72.5 55.1667,72.5 53.5,72.5C 53.1695,93.0069 53.5028,113.34 54.5,133.5C 60.5052,134.171 63.1719,137.505 62.5,143.5C 55.1667,143.5 47.8333,143.5 40.5,143.5C 40.0183,136.983 43.0183,133.65 49.5,133.5C 49.5,113.167 49.5,92.8333 49.5,72.5C 44.8333,72.5 40.1667,72.5 35.5,72.5C 36.7066,62.301 38.8733,52.301 42,42.5C 48.4102,41.5223 54.9102,41.189 61.5,41.5C 64.4264,51.6497 66.4264,61.983 67.5,72.5 Z"/></g>
<g><path style="opacity:1" fill="#623521" d="M 85.5,42.5 C 84.1667,52.5 84.1667,62.5 85.5,72.5C 85.44,73.0431 85.1067,73.3764 84.5,73.5C 83.1667,62.8333 83.1667,52.1667 84.5,41.5C 85.1067,41.6236 85.44,41.9569 85.5,42.5 Z"/></g>
<g><path style="opacity:1" fill="#837867" d="M 129.5,45.5 C 116.833,45.5 104.167,45.5 91.5,45.5C 91.1795,50.6946 91.5128,55.6946 92.5,60.5C 92.2172,61.2891 91.7172,61.9558 91,62.5C 90.5005,56.5092 90.3338,50.5092 90.5,44.5C 103.677,44.1712 116.677,44.5045 129.5,45.5 Z"/></g>
<g><path style="opacity:1" fill="#b8643e" d="M 136.5,41.5 C 136.828,52.0135 136.494,62.3468 135.5,72.5C 134.883,72.3893 134.383,72.056 134,71.5C 133.333,62.1667 133.333,52.8333 134,43.5C 134.708,42.6195 135.542,41.9528 136.5,41.5 Z"/></g>
<g><path style="opacity:1" fill="#ab5c3a" d="M 85.5,42.5 C 86.1174,42.6107 86.6174,42.944 87,43.5C 88.0975,53.4229 87.5975,63.0896 85.5,72.5C 84.1667,62.5 84.1667,52.5 85.5,42.5 Z"/></g>
<g><path style="opacity:1" fill="#f0dcbd" d="M 129.5,45.5 C 130.809,49.3507 130.809,53.3507 129.5,57.5C 127.091,55.0819 124.424,53.0819 121.5,51.5C 116.568,54.7622 112.234,58.7622 108.5,63.5C 106.093,60.0886 103.093,57.4219 99.5,55.5C 96.895,56.7695 94.5616,58.4361 92.5,60.5C 91.5128,55.6946 91.1795,50.6946 91.5,45.5C 104.167,45.5 116.833,45.5 129.5,45.5 Z"/></g>
<g><path style="opacity:1" fill="#f9e3c0" d="M 63.5,66.5 C 56.2395,68.4651 48.5729,69.1318 40.5,68.5C 40.5,67.1667 40.5,65.8333 40.5,64.5C 41.3501,58.4465 42.5168,52.4465 44,46.5C 49.0717,45.5286 54.2384,45.1953 59.5,45.5C 60.5762,52.5478 61.9095,59.5478 63.5,66.5 Z"/></g>
<g><path style="opacity:1" fill="#17150f" d="M 105.5,47.5 C 112.94,46.7533 114.94,49.5866 111.5,56C 103.749,57.0913 101.749,54.258 105.5,47.5 Z"/></g>
<g><path style="opacity:1" fill="#ddc300" d="M 107.5,50.5 C 109.465,50.9483 109.798,51.9483 108.5,53.5C 107.614,52.675 107.281,51.675 107.5,50.5 Z"/></g>
<g><path style="opacity:1" fill="#00965f" d="M 119.5,55.5 C 120.873,55.3433 122.207,55.51 123.5,56C 125.293,58.7953 127.46,61.2953 130,63.5C 130.495,65.4727 130.662,67.4727 130.5,69.5C 124.824,69.6661 119.157,69.4994 113.5,69C 111.789,67.8668 111.289,66.3668 112,64.5C 115.112,61.8991 117.612,58.8991 119.5,55.5 Z"/></g>
<g><path style="opacity:1" fill="#00d69d" d="M 97.5,59.5 C 102.178,61.3337 105.844,64.5003 108.5,69C 102.472,69.8303 96.4724,69.6636 90.5,68.5C 93.2634,65.7485 95.5967,62.7485 97.5,59.5 Z"/></g>
<g><path style="opacity:1" fill="#8e806d" d="M 40.5,64.5 C 40.5,65.8333 40.5,67.1667 40.5,68.5C 48.5729,69.1318 56.2395,68.4651 63.5,66.5C 64.404,67.209 64.7373,68.209 64.5,69.5C 56.1667,69.5 47.8333,69.5 39.5,69.5C 39.2155,67.5853 39.5489,65.9187 40.5,64.5 Z"/></g>
<g><path style="opacity:1" fill="#c7c7c7" d="M 58.5,93.5 C 57.5093,87.021 57.176,80.3543 57.5,73.5C 56.5,73.5 55.5,73.5 54.5,73.5C 54.5,93.5 54.5,113.5 54.5,133.5C 53.5028,113.34 53.1695,93.0069 53.5,72.5C 55.1667,72.5 56.8333,72.5 58.5,72.5C 58.5,79.5 58.5,86.5 58.5,93.5 Z"/></g>
<g><path style="opacity:1" fill="#cccccc" d="M 67.5,72.5 C 66.0813,73.4511 64.4147,73.7845 62.5,73.5C 63.1279,80.9131 62.4612,87.9131 60.5,94.5C 61.464,87.2537 61.7973,79.9204 61.5,72.5C 63.5,72.5 65.5,72.5 67.5,72.5 Z"/></g>
<g><path style="opacity:1" fill="#e8834c" d="M 132.5,74.5 C 117.833,75.8333 103.167,75.8333 88.5,74.5C 103.167,73.1667 117.833,73.1667 132.5,74.5 Z"/></g>
<g><path style="opacity:1" fill="#a35b36" d="M 88.5,74.5 C 103.167,75.8333 117.833,75.8333 132.5,74.5C 133.043,74.56 133.376,74.8933 133.5,75.5C 117.844,76.6662 102.177,76.8329 86.5,76C 87.0442,75.2828 87.7109,74.7828 88.5,74.5 Z"/></g>
<g><path style="opacity:1" fill="#17120f" d="M 90.5,92.5 C 90.3893,93.1174 90.056,93.6174 89.5,94C 77.6923,92.139 73.1923,96.9724 76,108.5C 78.3284,109.664 80.1618,111.33 81.5,113.5C 81.5,116.833 81.5,120.167 81.5,123.5C 100.674,123.83 119.674,123.497 138.5,122.5C 137.018,116.158 139.018,111.492 144.5,108.5C 146.288,103.811 145.621,99.6444 142.5,96C 126.226,95.2023 110.226,94.0356 94.5,92.5C 94.6107,91.8826 94.944,91.3826 95.5,91C 110.5,90.3333 125.5,90.3333 140.5,91C 148.218,94.2651 151.385,100.098 150,108.5C 151.955,109.453 153.622,110.787 155,112.5C 155.5,122.828 155.666,133.161 155.5,143.5C 145.442,144.14 135.775,143.473 126.5,141.5C 130.298,140.517 134.298,140.183 138.5,140.5C 138.5,136.167 138.5,131.833 138.5,127.5C 119.674,126.503 100.674,126.17 81.5,126.5C 81.5,131.167 81.5,135.833 81.5,140.5C 95.1667,140.5 108.833,140.5 122.5,140.5C 122.5,140.833 122.5,141.167 122.5,141.5C 113.358,142.832 103.858,143.498 94,143.5C 84.2586,143.494 74.592,143.161 65,142.5C 64.3333,132.833 64.3333,123.167 65,113.5C 66.3587,111.308 68.1921,109.641 70.5,108.5C 69.7515,94.8853 76.0848,89.052 89.5,91C 90.056,91.3826 90.3893,91.8826 90.5,92.5 Z"/></g>
<g><path style="opacity:1" fill="#e6814c" d="M 90.5,92.5 C 91.8333,92.5 93.1667,92.5 94.5,92.5C 110.226,94.0356 126.226,95.2023 142.5,96C 145.621,99.6444 146.288,103.811 144.5,108.5C 139.018,111.492 137.018,116.158 138.5,122.5C 119.833,122.5 101.167,122.5 82.5,122.5C 82.81,119.287 82.4767,116.287 81.5,113.5C 80.1618,111.33 78.3284,109.664 76,108.5C 73.1923,96.9724 77.6923,92.139 89.5,94C 90.056,93.6174 90.3893,93.1174 90.5,92.5 Z"/></g>
<g><path style="opacity:1" fill="#fa9600" d="M 77.5,114.5 C 77.5,122.833 77.5,131.167 77.5,139.5C 74.8333,139.5 72.1667,139.5 69.5,139.5C 69.5,130.833 69.5,122.167 69.5,113.5C 72.4742,110.691 75.1409,111.024 77.5,114.5 Z"/></g>
<g><path style="opacity:1" fill="#f89500" d="M 151.5,114.5 C 151.5,122.833 151.5,131.167 151.5,139.5C 148.5,139.5 145.5,139.5 142.5,139.5C 142.334,130.827 142.5,122.16 143,113.5C 146.258,110.654 149.092,110.987 151.5,114.5 Z"/></g>
<g><path style="opacity:1" fill="#d77d00" d="M 69.5,113.5 C 69.5,122.167 69.5,130.833 69.5,139.5C 72.1667,139.5 74.8333,139.5 77.5,139.5C 77.5,131.167 77.5,122.833 77.5,114.5C 78.493,122.984 78.8264,131.651 78.5,140.5C 75.1667,140.5 71.8333,140.5 68.5,140.5C 68.1734,131.318 68.5067,122.318 69.5,113.5 Z"/></g>
<g><path style="opacity:1" fill="#c47000" d="M 151.5,114.5 C 152.493,122.984 152.826,131.651 152.5,140.5C 148.958,140.813 145.625,140.479 142.5,139.5C 145.5,139.5 148.5,139.5 151.5,139.5C 151.5,131.167 151.5,122.833 151.5,114.5 Z"/></g>
<g><path style="opacity:1" fill="#b0633a" d="M 81.5,113.5 C 82.4767,116.287 82.81,119.287 82.5,122.5C 101.167,122.5 119.833,122.5 138.5,122.5C 119.674,123.497 100.674,123.83 81.5,123.5C 81.5,120.167 81.5,116.833 81.5,113.5 Z"/></g>
<g><path style="opacity:1" fill="#6f3c25" d="M 138.5,127.5 C 119.833,127.5 101.167,127.5 82.5,127.5C 82.5,131.5 82.5,135.5 82.5,139.5C 96.0105,139.171 109.344,139.504 122.5,140.5C 108.833,140.5 95.1667,140.5 81.5,140.5C 81.5,135.833 81.5,131.167 81.5,126.5C 100.674,126.17 119.674,126.503 138.5,127.5 Z"/></g>
<g><path style="opacity:1" fill="#ba643f" d="M 138.5,127.5 C 138.5,131.833 138.5,136.167 138.5,140.5C 134.298,140.183 130.298,140.517 126.5,141.5C 125.167,141.5 123.833,141.5 122.5,141.5C 122.5,141.167 122.5,140.833 122.5,140.5C 109.344,139.504 96.0105,139.171 82.5,139.5C 82.5,135.5 82.5,131.5 82.5,127.5C 101.167,127.5 119.833,127.5 138.5,127.5 Z"/></g>
<g><path style="opacity:1" fill="#f35c63" d="M 58.5,138.5 C 54.1667,139.833 49.8333,139.833 45.5,138.5C 49.7327,137.206 54.0661,137.206 58.5,138.5 Z"/></g>
<g><path style="opacity:1" fill="#9b3a3e" d="M 45.5,138.5 C 49.8333,139.833 54.1667,139.833 58.5,138.5C 59.0431,138.56 59.3764,138.893 59.5,139.5C 54.5,140.833 49.5,140.833 44.5,139.5C 44.6236,138.893 44.9569,138.56 45.5,138.5 Z"/></g>
</svg>
