<?xml version="1.0" encoding="UTF-8"?>
<!DOCTYPE svg PUBLIC "-//W3C//DTD SVG 1.1//EN" "http://www.w3.org/Graphics/SVG/1.1/DTD/svg11.dtd">
<svg xmlns="http://www.w3.org/2000/svg" version="1.1" width="193px" height="191px" style="shape-rendering:geometricPrecision; text-rendering:geometricPrecision; image-rendering:optimizeQuality; fill-rule:evenodd; clip-rule:evenodd" xmlns:xlink="http://www.w3.org/1999/xlink">
<g><path style="opacity:1" fill="#fffefd" d="M -0.5,-0.5 C 63.8333,-0.5 128.167,-0.5 192.5,-0.5C 192.5,63.1667 192.5,126.833 192.5,190.5C 128.167,190.5 63.8333,190.5 -0.5,190.5C -0.5,126.833 -0.5,63.1667 -0.5,-0.5 Z"/></g>
<g><path style="opacity:1" fill="#ffe695" d="M 81.5,1.5 C 130.993,-2.11178 165.827,18.5549 186,63.5C 197.621,103.297 188.454,137.464 158.5,166C 128.802,188.998 96.1349,194.332 60.5,182C 27.1964,167.572 7.69636,142.406 2,106.5C -1.10329,66.5413 14.0634,35.708 47.5,14C 58.3466,8.11101 69.6799,3.94434 81.5,1.5 Z"/></g>
<g><path style="opacity:1" fill="#fcfbfb" d="M 87.5,16.5 C 125.552,14.7806 153.052,30.7806 170,64.5C 182.221,100.492 174.388,131.325 146.5,157C 112.512,180.652 78.8453,180.319 45.5,156C 17.3956,128.747 10.5622,96.914 25,60.5C 38.556,35.4366 59.3893,20.7699 87.5,16.5 Z"/></g>
<g><path style="opacity:1" fill="#0d0e0f" d="M 147.5,89.5 C 146.508,89.6716 145.842,89.3382 145.5,88.5C 145.5,85.1667 145.5,81.8333 145.5,78.5C 140.821,78.6658 136.155,78.4992 131.5,78C 130.748,77.3292 130.414,76.4959 130.5,75.5C 137.648,74.5084 144.981,74.175 152.5,74.5C 152.5,71.8333 152.5,69.1667 152.5,66.5C 115.165,66.3333 77.8318,66.5 40.5,67C 39.1667,69.3333 39.1667,71.6667 40.5,74C 68.8314,74.5 97.1647,74.6666 125.5,74.5C 125.5,75.8333 125.5,77.1667 125.5,78.5C 99.5,78.5 73.5,78.5 47.5,78.5C 47.5,94.5 47.5,110.5 47.5,126.5C 46.5,126.5 45.5,126.5 44.5,126.5C 44.1667,126.5 43.8333,126.5 43.5,126.5C 43.5,110.167 43.5,93.8333 43.5,77.5C 42.1667,77.5 40.8333,77.5 39.5,77.5C 35.6856,74.8479 34.5189,71.1813 36,66.5C 38.6401,64.1267 41.8068,62.7934 45.5,62.5C 62.2037,49.9591 79.037,37.6257 96,25.5C 113.238,37.8722 130.405,50.3722 147.5,63C 155.484,62.7578 158.318,66.5912 156,74.5C 154.461,77.5208 151.961,78.8541 148.5,78.5C 148.815,82.3714 148.482,86.0381 147.5,89.5 Z"/></g>
<g><path style="opacity:1" fill="#788189" d="M 98.5,31.5 C 111.011,40.2555 123.344,49.2555 135.5,58.5C 117.338,59.6621 99.0046,59.8288 80.5,59C 76.1896,56.6936 74.6896,53.1936 76,48.5C 83.1118,42.2085 90.6118,36.5418 98.5,31.5 Z"/></g>
<g><path style="opacity:1" fill="#5c6871" d="M 98.5,31.5 C 90.6118,36.5418 83.1118,42.2085 76,48.5C 74.6896,53.1936 76.1896,56.6936 80.5,59C 99.0046,59.8288 117.338,59.6621 135.5,58.5C 136.833,59.5 138.167,60.5 139.5,61.5C 110.5,62.8333 81.5,62.8333 52.5,61.5C 66.8038,51.0093 81.1372,40.5093 95.5,30C 96.9976,29.4153 97.9976,29.9153 98.5,31.5 Z"/></g>
<g><path style="opacity:1" fill="#2d3438" d="M 52.5,61.5 C 81.5,62.8333 110.5,62.8333 139.5,61.5C 140.043,61.56 140.376,61.8933 140.5,62.5C 110.833,63.8333 81.1667,63.8333 51.5,62.5C 51.6236,61.8933 51.9569,61.56 52.5,61.5 Z"/></g>
<g><path style="opacity:1" fill="#7aacbd" d="M 130.5,75.5 C 128.482,76.9326 126.815,76.5992 125.5,74.5C 97.1647,74.6666 68.8314,74.5 40.5,74C 39.1667,71.6667 39.1667,69.3333 40.5,67C 77.8318,66.5 115.165,66.3333 152.5,66.5C 152.5,69.1667 152.5,71.8333 152.5,74.5C 144.981,74.175 137.648,74.5084 130.5,75.5 Z"/></g>
<g><path style="opacity:1" fill="#fafcfd" d="M 141.5,67.5 C 143.833,67.5 146.167,67.5 148.5,67.5C 148.5,68.5 148.5,69.5 148.5,70.5C 146.5,70.5 144.5,70.5 142.5,70.5C 141.89,69.609 141.557,68.609 141.5,67.5 Z"/></g>
<g><path style="opacity:1" fill="#a7d0e2" d="M 141.5,67.5 C 141.557,68.609 141.89,69.609 142.5,70.5C 110.498,70.6666 78.4983,70.5 46.5,70C 45.8333,69.3333 45.1667,68.6667 44.5,68C 76.8316,67.5 109.165,67.3334 141.5,67.5 Z"/></g>
<g><path style="opacity:1" fill="#c8c8c8" d="M 39.5,77.5 C 40.8333,77.5 42.1667,77.5 43.5,77.5C 43.5,93.8333 43.5,110.167 43.5,126.5C 42.5036,110.675 42.1703,94.6754 42.5,78.5C 41.209,78.7373 40.209,78.404 39.5,77.5 Z"/></g>
<g><path style="opacity:1" fill="#788189" d="M 145.5,88.5 C 145.842,89.3382 146.508,89.6716 147.5,89.5C 147.5,91.1667 147.5,92.8333 147.5,94.5C 143.046,92.6308 139.38,93.6308 136.5,97.5C 133.788,98.0468 132.288,99.7135 132,102.5C 131.617,101.944 131.117,101.611 130.5,101.5C 128.113,98.1112 125.113,95.4445 121.5,93.5C 119.226,93.9702 117.226,94.9702 115.5,96.5C 112.074,92.9817 108.407,92.6484 104.5,95.5C 102.95,94.2801 101.284,94.2801 99.5,95.5C 97.2568,94.1883 94.5902,93.5217 91.5,93.5C 88.8333,93.6667 86.1667,93.8333 83.5,94C 82.1772,94.8159 81.5106,95.9826 81.5,97.5C 80.5058,107.653 80.1724,117.986 80.5,128.5C 75.9119,126.574 72.2452,123.574 69.5,119.5C 72.1194,119.768 74.6194,119.435 77,118.5C 77.8232,109.99 77.6566,101.656 76.5,93.5C 68.6841,92.5076 60.6841,92.1743 52.5,92.5C 52.2505,89.9979 51.9172,87.4979 51.5,85C 51.3536,82.9658 52.0203,81.2991 53.5,80C 83.8315,79.5 114.165,79.3334 144.5,79.5C 144.19,82.7131 144.523,85.7131 145.5,88.5 Z"/></g>
<g><path style="opacity:1" fill="#0b0d0e" d="M 76.5,93.5 C 77.6566,101.656 77.8232,109.99 77,118.5C 74.6194,119.435 72.1194,119.768 69.5,119.5C 63.2424,119.81 57.0758,119.476 51,118.5C 50.5003,110.173 50.3336,101.84 50.5,93.5C 59.1667,93.5 67.8333,93.5 76.5,93.5 Z"/></g>
<g><path style="opacity:1" fill="#070807" d="M 99.5,95.5 C 94.8333,96.1667 90.1667,96.8333 85.5,97.5C 84.5039,112.324 84.1706,127.324 84.5,142.5C 91.8333,142.5 99.1667,142.5 106.5,142.5C 107.338,142.842 107.672,143.508 107.5,144.5C 85.0037,145.663 62.3371,145.83 39.5,145C 34.1667,140.667 34.1667,136.333 39.5,132C 41.7078,131.809 43.7078,131.309 45.5,130.5C 46.6266,129.878 47.6266,129.045 48.5,128C 49.8333,127.833 51.1667,127.667 52.5,127.5C 56.5918,128.442 60.5918,129.609 64.5,131C 68.9814,133.061 70.6481,136.561 69.5,141.5C 72.7225,142.502 76.7225,142.835 81.5,142.5C 81.5,127.5 81.5,112.5 81.5,97.5C 81.5106,95.9826 82.1772,94.8159 83.5,94C 86.1667,93.8333 88.8333,93.6667 91.5,93.5C 94.5902,93.5217 97.2568,94.1883 99.5,95.5 Z"/></g>
<g><path style="opacity:1" fill="#110f0d" d="M 130.5,101.5 C 130.896,104.482 130.229,107.149 128.5,109.5C 129.365,110.583 130.365,110.749 131.5,110C 134.929,106.63 136.595,102.463 136.5,97.5C 139.38,93.6308 143.046,92.6308 147.5,94.5C 148.833,96.5 148.833,98.5 147.5,100.5C 145.896,101.287 145.229,102.62 145.5,104.5C 146.791,104.737 147.791,104.404 148.5,103.5C 152.477,99.3037 155.143,100.137 156.5,106C 155.602,111.065 152.602,113.898 147.5,114.5C 143.33,113.993 140.33,115.659 138.5,119.5C 141.188,122.854 144.188,125.854 147.5,128.5C 150.129,131.631 152.962,134.631 156,137.5C 156.432,144.559 153.265,146.892 146.5,144.5C 141.703,139.202 136.703,134.035 131.5,129C 129.648,128.227 128.314,128.727 127.5,130.5C 125.738,131.262 124.738,132.596 124.5,134.5C 124.978,138.338 123.978,141.671 121.5,144.5C 118.5,145.833 115.5,145.833 112.5,144.5C 112.5,143.833 112.167,143.5 111.5,143.5C 112.023,140.972 113.023,138.639 114.5,136.5C 114.167,135.833 113.833,135.167 113.5,134.5C 111.812,135.521 110.479,136.855 109.5,138.5C 108.178,138.67 107.011,138.337 106,137.5C 104.097,135.559 103.264,133.226 103.5,130.5C 105.5,128.833 107.5,127.167 109.5,125.5C 114.669,125.728 118.669,123.728 121.5,119.5C 121,119.167 120.5,118.833 120,118.5C 116.378,121.011 112.878,121.011 109.5,118.5C 107.832,116.66 106.332,114.66 105,112.5C 104.222,109.725 104.722,107.225 106.5,105C 103.834,102.188 103.167,99.0218 104.5,95.5C 108.407,92.6484 112.074,92.9817 115.5,96.5C 117.226,94.9702 119.226,93.9702 121.5,93.5C 125.113,95.4445 128.113,98.1112 130.5,101.5 Z"/></g>
<g><path style="opacity:1" fill="#cea88f" d="M 108.5,96.5 C 113.016,97.6253 113.35,99.292 109.5,101.5C 107.296,100.218 106.962,98.5514 108.5,96.5 Z"/></g>
<g><path style="opacity:1" fill="#454c51" d="M 81.5,97.5 C 81.5,112.5 81.5,127.5 81.5,142.5C 76.7225,142.835 72.7225,142.502 69.5,141.5C 73.1667,141.5 76.8333,141.5 80.5,141.5C 80.5,137.167 80.5,132.833 80.5,128.5C 80.1724,117.986 80.5058,107.653 81.5,97.5 Z"/></g>
<g><path style="opacity:1" fill="#566971" d="M 73.5,97.5 C 71.1667,97.5 68.8333,97.5 66.5,97.5C 66.5,99.8333 66.5,102.167 66.5,104.5C 65.5269,102.052 65.1936,99.3854 65.5,96.5C 68.3854,96.1936 71.0521,96.5269 73.5,97.5 Z"/></g>
<g><path style="opacity:1" fill="#b5d6e4" d="M 73.5,97.5 C 73.5,99.8333 73.5,102.167 73.5,104.5C 71.1667,104.5 68.8333,104.5 66.5,104.5C 66.5,102.167 66.5,99.8333 66.5,97.5C 68.8333,97.5 71.1667,97.5 73.5,97.5 Z"/></g>
<g><path style="opacity:1" fill="#607e8a" d="M 85.5,97.5 C 85.5,109.167 85.5,120.833 85.5,132.5C 85.5,135.5 85.5,138.5 85.5,141.5C 92.6866,141.175 99.6866,141.509 106.5,142.5C 99.1667,142.5 91.8333,142.5 84.5,142.5C 84.1706,127.324 84.5039,112.324 85.5,97.5 Z"/></g>
<g><path style="opacity:1" fill="#a5cedf" d="M 85.5,97.5 C 90.5,97.5 95.5,97.5 100.5,97.5C 99.9228,101.08 100.923,104.08 103.5,106.5C 99.1945,110.767 99.5278,114.6 104.5,118C 103.584,118.278 102.918,118.778 102.5,119.5C 100.998,121.829 101.664,123.163 104.5,123.5C 106.048,123.179 106.715,122.179 106.5,120.5C 107.5,120.5 108.5,120.5 109.5,120.5C 109.5,122.167 109.5,123.833 109.5,125.5C 107.5,127.167 105.5,128.833 103.5,130.5C 102.504,130.414 101.671,130.748 101,131.5C 100.506,133.134 100.34,134.801 100.5,136.5C 95.2778,135.981 90.2778,134.648 85.5,132.5C 85.5,120.833 85.5,109.167 85.5,97.5 Z"/></g>
<g><path style="opacity:1" fill="#f6f0e5" d="M 122.5,98.5 C 124.167,99.5 125.5,100.833 126.5,102.5C 126.167,103.167 125.833,103.833 125.5,104.5C 123.629,104.141 122.129,103.141 121,101.5C 120.415,100.002 120.915,99.0024 122.5,98.5 Z"/></g>
<g><path style="opacity:1" fill="#61808c" d="M 61.5,104.5 C 61.5,102.167 61.5,99.8333 61.5,97.5C 59.5,97.5 57.5,97.5 55.5,97.5C 55.5,99.8333 55.5,102.167 55.5,104.5C 54.5269,102.052 54.1936,99.3854 54.5,96.5C 57.1667,96.5 59.8333,96.5 62.5,96.5C 62.8064,99.3854 62.4731,102.052 61.5,104.5 Z"/></g>
<g><path style="opacity:1" fill="#a3cdde" d="M 61.5,104.5 C 59.5,104.5 57.5,104.5 55.5,104.5C 55.5,102.167 55.5,99.8333 55.5,97.5C 57.5,97.5 59.5,97.5 61.5,97.5C 61.5,99.8333 61.5,102.167 61.5,104.5 Z"/></g>
<g><path style="opacity:1" fill="#f3c05f" d="M 122.5,98.5 C 120.915,99.0024 120.415,100.002 121,101.5C 122.129,103.141 123.629,104.141 125.5,104.5C 122.026,110.131 117.026,112.297 110.5,111C 109.829,110.014 109.829,108.847 110.5,107.5C 112.598,103.566 115.598,100.4 119.5,98C 120.749,97.2599 121.749,97.4265 122.5,98.5 Z"/></g>
<g><path style="opacity:1" fill="#5c676f" d="M 136.5,97.5 C 136.595,102.463 134.929,106.63 131.5,110C 130.365,110.749 129.365,110.583 128.5,109.5C 130.229,107.149 130.896,104.482 130.5,101.5C 131.117,101.611 131.617,101.944 132,102.5C 132.288,99.7135 133.788,98.0468 136.5,97.5 Z"/></g>
<g><path style="opacity:1" fill="#919699" d="M 147.5,100.5 C 147.263,101.791 147.596,102.791 148.5,103.5C 147.791,104.404 146.791,104.737 145.5,104.5C 145.229,102.62 145.896,101.287 147.5,100.5 Z"/></g>
<g><path style="opacity:1" fill="#dba84d" d="M 142.5,96.5 C 143.376,96.3691 144.043,96.7025 144.5,97.5C 141.278,100.055 140.778,103.055 143,106.5C 146.24,108.036 149.24,107.703 152,105.5C 152.358,108.872 150.691,110.539 147,110.5C 145.774,110.355 144.607,110.022 143.5,109.5C 140.833,111.833 138.167,114.167 135.5,116.5C 134.5,116.167 133.833,115.5 133.5,114.5C 135.149,112.35 136.982,110.35 139,108.5C 138.761,103.948 139.928,99.9485 142.5,96.5 Z"/></g>
<g><path style="opacity:1" fill="#79afc1" d="M 54.5,108.5 C 57.1667,108.5 59.8333,108.5 62.5,108.5C 62.5,110.833 62.5,113.167 62.5,115.5C 59.8333,115.5 57.1667,115.5 54.5,115.5C 54.5,113.167 54.5,110.833 54.5,108.5 Z"/></g>
<g><path style="opacity:1" fill="#e7a33f" d="M 126.5,102.5 C 127.573,103.251 127.74,104.251 127,105.5C 124.167,109.667 120.667,113.167 116.5,116C 113.211,116.746 110.711,115.58 109,112.5C 108.123,110.326 108.623,108.659 110.5,107.5C 109.829,108.847 109.829,110.014 110.5,111C 117.026,112.297 122.026,110.131 125.5,104.5C 125.833,103.833 126.167,103.167 126.5,102.5 Z"/></g>
<g><path style="opacity:1" fill="#7badbe" d="M 104.5,95.5 C 103.167,99.0218 103.834,102.188 106.5,105C 104.722,107.225 104.222,109.725 105,112.5C 106.332,114.66 107.832,116.66 109.5,118.5C 109.5,119.167 109.5,119.833 109.5,120.5C 108.5,120.5 107.5,120.5 106.5,120.5C 106.715,122.179 106.048,123.179 104.5,123.5C 106.002,121.171 105.336,119.837 102.5,119.5C 102.918,118.778 103.584,118.278 104.5,118C 99.5278,114.6 99.1945,110.767 103.5,106.5C 100.923,104.08 99.9228,101.08 100.5,97.5C 95.5,97.5 90.5,97.5 85.5,97.5C 90.1667,96.8333 94.8333,96.1667 99.5,95.5C 101.284,94.2801 102.95,94.2801 104.5,95.5 Z"/></g>
<g><path style="opacity:1" fill="#9ac0cf" d="M 65.5,108.5 C 68.1667,108.5 70.8333,108.5 73.5,108.5C 73.5,110.833 73.5,113.167 73.5,115.5C 70.8333,115.5 68.1667,115.5 65.5,115.5C 65.5,113.167 65.5,110.833 65.5,108.5 Z"/></g>
<g><path style="opacity:1" fill="#e4bda3" d="M 125.5,112.5 C 134.465,120.964 143.298,129.631 152,138.5C 152.49,139.793 152.657,141.127 152.5,142.5C 151.448,142.649 150.448,142.483 149.5,142C 141,133.5 132.5,125 124,116.5C 123.7,114.934 124.2,113.601 125.5,112.5 Z"/></g>
<g><path style="opacity:1" fill="#7d858c" d="M 147.5,114.5 C 147.5,119.167 147.5,123.833 147.5,128.5C 144.188,125.854 141.188,122.854 138.5,119.5C 140.33,115.659 143.33,113.993 147.5,114.5 Z"/></g>
<g><path style="opacity:1" fill="#5b666f" d="M 125.5,74.5 C 126.815,76.5992 128.482,76.9326 130.5,75.5C 130.414,76.4959 130.748,77.3292 131.5,78C 136.155,78.4992 140.821,78.6658 145.5,78.5C 145.5,81.8333 145.5,85.1667 145.5,88.5C 144.523,85.7131 144.19,82.7131 144.5,79.5C 114.165,79.3334 83.8315,79.5 53.5,80C 52.0203,81.2991 51.3536,82.9658 51.5,85C 51.9172,87.4979 52.2505,89.9979 52.5,92.5C 60.6841,92.1743 68.6841,92.5076 76.5,93.5C 67.8333,93.5 59.1667,93.5 50.5,93.5C 50.3336,101.84 50.5003,110.173 51,118.5C 57.0758,119.476 63.2424,119.81 69.5,119.5C 72.2452,123.574 75.9119,126.574 80.5,128.5C 80.5,132.833 80.5,137.167 80.5,141.5C 76.8333,141.5 73.1667,141.5 69.5,141.5C 70.6481,136.561 68.9814,133.061 64.5,131C 60.5918,129.609 56.5918,128.442 52.5,127.5C 51.1667,127.667 49.8333,127.833 48.5,128C 47.6266,129.045 46.6266,129.878 45.5,130.5C 45.5674,129.041 45.2341,127.708 44.5,126.5C 45.5,126.5 46.5,126.5 47.5,126.5C 47.5,110.5 47.5,94.5 47.5,78.5C 73.5,78.5 99.5,78.5 125.5,78.5C 125.5,77.1667 125.5,75.8333 125.5,74.5 Z"/></g>
<g><path style="opacity:1" fill="#1e2527" d="M 102.5,119.5 C 105.336,119.837 106.002,121.171 104.5,123.5C 101.664,123.163 100.998,121.829 102.5,119.5 Z"/></g>
<g><path style="opacity:1" fill="#6e7880" d="M 109.5,118.5 C 112.878,121.011 116.378,121.011 120,118.5C 120.5,118.833 121,119.167 121.5,119.5C 118.669,123.728 114.669,125.728 109.5,125.5C 109.5,123.833 109.5,122.167 109.5,120.5C 109.5,119.833 109.5,119.167 109.5,118.5 Z"/></g>
<g><path style="opacity:1" fill="#daa950" d="M 123.5,122.5 C 125.196,122.685 126.529,123.519 127.5,125C 125.333,127.167 123.167,129.333 121,131.5C 122.459,135.999 121.292,139.665 117.5,142.5C 116.344,141.424 116.511,140.424 118,139.5C 118.852,131.426 115.685,129.426 108.5,133.5C 107.718,131.671 108.384,130.171 110.5,129C 113.2,128.747 115.867,128.747 118.5,129C 120.79,127.223 122.457,125.056 123.5,122.5 Z"/></g>
<g><path style="opacity:1" fill="#6b9f5e" d="M 65.5,138.5 C 59.1579,138.666 52.8246,138.5 46.5,138C 45.6195,137.292 44.9528,136.458 44.5,135.5C 47.12,133.905 49.7867,132.238 52.5,130.5C 54.6633,130.745 56.33,131.745 57.5,133.5C 59.7662,134.314 62.0995,134.814 64.5,135C 65.3366,136.011 65.67,137.178 65.5,138.5 Z"/></g>
<g><path style="opacity:1" fill="#778088" d="M 127.5,130.5 C 130.251,132.745 132.917,135.245 135.5,138C 132.183,138.498 128.85,138.665 125.5,138.5C 125.768,136.901 125.434,135.568 124.5,134.5C 124.738,132.596 125.738,131.262 127.5,130.5 Z"/></g>
<g><path style="opacity:1" fill="#82bacc" d="M 103.5,130.5 C 103.264,133.226 104.097,135.559 106,137.5C 107.011,138.337 108.178,138.67 109.5,138.5C 109.077,140.781 109.744,142.448 111.5,143.5C 112.167,143.5 112.5,143.833 112.5,144.5C 110.833,144.5 109.167,144.5 107.5,144.5C 107.672,143.508 107.338,142.842 106.5,142.5C 99.6866,141.509 92.6866,141.175 85.5,141.5C 85.5,138.5 85.5,135.5 85.5,132.5C 90.2778,134.648 95.2778,135.981 100.5,136.5C 100.34,134.801 100.506,133.134 101,131.5C 101.671,130.748 102.504,130.414 103.5,130.5 Z"/></g>
<g><path style="opacity:1" fill="#538744" d="M 44.5,135.5 C 44.9528,136.458 45.6195,137.292 46.5,138C 52.8246,138.5 59.1579,138.666 65.5,138.5C 65.6399,140.124 64.9733,141.29 63.5,142C 56.1667,142.667 48.8333,142.667 41.5,142C 38.5885,138.813 39.0885,136.313 43,134.5C 43.7648,134.57 44.2648,134.903 44.5,135.5 Z"/></g>
<g><path style="opacity:1" fill="#616c75" d="M 146.5,144.5 C 138.167,144.5 129.833,144.5 121.5,144.5C 123.978,141.671 124.978,138.338 124.5,134.5C 125.434,135.568 125.768,136.901 125.5,138.5C 128.85,138.665 132.183,138.498 135.5,138C 132.917,135.245 130.251,132.745 127.5,130.5C 128.314,128.727 129.648,128.227 131.5,129C 136.703,134.035 141.703,139.202 146.5,144.5 Z"/></g>
<g><path style="opacity:1" fill="#57626b" d="M 111.5,143.5 C 109.744,142.448 109.077,140.781 109.5,138.5C 110.479,136.855 111.812,135.521 113.5,134.5C 113.833,135.167 114.167,135.833 114.5,136.5C 113.023,138.639 112.023,140.972 111.5,143.5 Z"/></g>
</svg>
