<?xml version="1.0" encoding="UTF-8"?>
<!DOCTYPE svg PUBLIC "-//W3C//DTD SVG 1.1//EN" "http://www.w3.org/Graphics/SVG/1.1/DTD/svg11.dtd">
<svg xmlns="http://www.w3.org/2000/svg" version="1.1" width="192px" height="191px" style="shape-rendering:geometricPrecision; text-rendering:geometricPrecision; image-rendering:optimizeQuality; fill-rule:evenodd; clip-rule:evenodd" xmlns:xlink="http://www.w3.org/1999/xlink">
<g><path style="opacity:1" fill="#fffefd" d="M -0.5,-0.5 C 63.5,-0.5 127.5,-0.5 191.5,-0.5C 191.5,63.1667 191.5,126.833 191.5,190.5C 127.5,190.5 63.5,190.5 -0.5,190.5C -0.5,126.833 -0.5,63.1667 -0.5,-0.5 Z"/></g>
<g><path style="opacity:1" fill="#ffe695" d="M 82.5,1.5 C 121.284,-1.53532 152.117,12.4647 175,43.5C 198.351,84.4913 195.018,123.158 165,159.5C 134.13,188.289 98.6297,195.789 58.5,182C 14.341,160.192 -4.4923,124.692 2,75.5C 13.8095,34.5086 40.6429,9.84194 82.5,1.5 Z"/></g>
<g><path style="opacity:1" fill="#fcfcfc" d="M 86.5,16.5 C 126.878,15.0874 155.045,32.7541 171,69.5C 181.292,108.566 170.125,139.733 137.5,163C 99.2024,182.538 65.0358,177.038 35,146.5C 18.457,125.132 13.1237,101.132 19,74.5C 30.0129,41.6447 52.5129,22.3113 86.5,16.5 Z"/></g>
<g><path style="opacity:1" fill="#151515" d="M 137.5,79.5 C 138.833,79.5 140.167,79.5 141.5,79.5C 141.5,80.8333 141.5,82.1667 141.5,83.5C 140.167,83.5 138.833,83.5 137.5,83.5C 137.5,82.1667 137.5,80.8333 137.5,79.5 Z"/></g>
<g><path style="opacity:1" fill="#242424" d="M 54.5,72.5 C 57.5,72.1667 58.8333,73.5 58.5,76.5C 56.8333,76.5 55.1667,76.5 53.5,76.5C 53.4326,75.0413 53.7659,73.7079 54.5,72.5 Z"/></g>
<g><path style="opacity:1" fill="#303030" d="M 112.5,60.5 C 116.161,60.3501 117.161,61.8501 115.5,65C 111.707,65.4866 110.707,63.9866 112.5,60.5 Z"/></g>
<g><path style="opacity:1" fill="#303030" d="M 70.5,60.5 C 74.1612,60.3501 75.1612,61.8501 73.5,65C 69.7071,65.4866 68.7071,63.9866 70.5,60.5 Z"/></g>
<g><path style="opacity:1" fill="#141414" d="M 127.5,51.5 C 134.214,51.0504 137.38,54.0504 137,60.5C 133.087,66.6175 128.754,66.9508 124,61.5C 122.756,57.191 123.923,53.8577 127.5,51.5 Z"/></g>
<g><path style="opacity:1" fill="#626e84" d="M 128.5,56.5 C 129.833,56.5 131.167,56.5 132.5,56.5C 132.5,57.8333 132.5,59.1667 132.5,60.5C 128.56,61.234 127.227,59.9007 128.5,56.5 Z"/></g>
<g><path style="opacity:1" fill="#121213" d="M 79.5,106.5 C 78.5318,108.607 78.1984,110.941 78.5,113.5C 77.5,113.5 76.5,113.5 75.5,113.5C 74.8386,112.282 74.1719,110.949 73.5,109.5C 72.7792,111.686 72.1125,113.853 71.5,116C 68.6706,116.689 67.0039,115.522 66.5,112.5C 62.1382,115.348 57.4716,117.681 52.5,119.5C 51.5581,119.392 50.7247,119.059 50,118.5C 49.3333,115.5 49.3333,112.5 50,109.5C 62,96.8333 74,84.1667 86,71.5C 86.7769,64.1767 87.4436,56.8434 88,49.5C 92.1708,43.271 96.8374,42.9377 102,48.5C 103.135,55.7819 103.801,63.1153 104,70.5C 116,83.1667 128,95.8333 140,108.5C 140.499,112.152 140.665,115.818 140.5,119.5C 134.629,118.151 129.129,115.817 124,112.5C 123.883,115.629 122.383,116.795 119.5,116C 118.887,113.853 118.221,111.686 117.5,109.5C 116.571,110.689 116.238,112.022 116.5,113.5C 114.833,113.5 113.167,113.5 111.5,113.5C 111.663,111.143 111.497,108.81 111,106.5C 109.989,105.663 108.822,105.33 107.5,105.5C 105.25,117.173 108.75,126.507 118,133.5C 118.667,136.833 118.667,140.167 118,143.5C 102.911,144.491 87.7448,144.824 72.5,144.5C 72.3347,140.818 72.5014,137.152 73,133.5C 76,130.5 79,127.5 82,124.5C 82.3898,119.156 82.8898,113.822 83.5,108.5C 83.6199,104.042 82.2866,103.375 79.5,106.5 Z"/></g>
<g><path style="opacity:1" fill="#a7b0c8" d="M 105.5,80.5 C 106.239,80.369 106.906,80.5357 107.5,81C 117,91.1667 126.5,101.333 136,111.5C 136.688,112.332 136.521,112.998 135.5,113.5C 126.167,108.833 116.833,104.167 107.5,99.5C 106.719,98.2713 106.219,96.938 106,95.5C 105.501,90.5111 105.334,85.5111 105.5,80.5 Z"/></g>
<g><path style="opacity:1" fill="#aab3cc" d="M 84.5,79.5 C 85.1386,80.0968 85.472,80.9302 85.5,82C 84.7873,87.476 84.2873,92.976 84,98.5C 74.421,103.373 64.921,108.373 55.5,113.5C 54.4173,112.635 54.2506,111.635 55,110.5C 65.4025,100.6 75.2359,90.2669 84.5,79.5 Z"/></g>
<g><path style="opacity:1" fill="#d1d8e6" d="M 93.5,49.5 C 95.1439,49.2865 96.6439,49.6198 98,50.5C 100.263,73.3004 102.096,96.1337 103.5,119C 105.251,128.911 101.251,133.244 91.5,132C 87.9671,128.501 86.6338,124.168 87.5,119C 88.588,95.7009 90.588,72.5342 93.5,49.5 Z"/></g>
<g><path style="opacity:1" fill="#111111" d="M 68.5,42.5 C 76.5621,41.4209 80.7288,44.7542 81,52.5C 77.4482,53.9716 75.7815,52.6383 76,48.5C 75.196,47.1955 74.0293,46.5288 72.5,46.5C 69.1324,48.0383 66.6324,50.3716 65,53.5C 62.9803,52.9681 62.147,51.6348 62.5,49.5C 61.1667,49.5 59.8333,49.5 58.5,49.5C 58.67,50.8221 58.3366,51.9887 57.5,53C 52.5111,53.4993 47.5111,53.6659 42.5,53.5C 42.5,52.1667 42.5,50.8333 42.5,49.5C 48.4556,50.5293 53.4556,49.0293 57.5,45C 59.7135,44.3744 61.8801,44.5411 64,45.5C 65.6664,44.6521 67.1664,43.6521 68.5,42.5 Z"/></g>
<g><path style="opacity:1" fill="#9d9d9d" d="M 79.5,106.5 C 79.5,109.167 79.5,111.833 79.5,114.5C 77.901,114.768 76.5676,114.434 75.5,113.5C 76.5,113.5 77.5,113.5 78.5,113.5C 78.1984,110.941 78.5318,108.607 79.5,106.5 Z"/></g>
<g><path style="opacity:1" fill="#1a1a1a" d="M 67.5,119.5 C 68.8333,119.5 70.1667,119.5 71.5,119.5C 71.5,120.833 71.5,122.167 71.5,123.5C 68.5,123.833 67.1667,122.5 67.5,119.5 Z"/></g>
<g><path style="opacity:1" fill="#101010" d="M 121.5,121.5 C 123.346,121.222 124.68,121.889 125.5,123.5C 124.68,125.111 123.346,125.778 121.5,125.5C 121.5,124.167 121.5,122.833 121.5,121.5 Z"/></g>
<g><path style="opacity:1" fill="#101011" d="M 52.5,123.5 C 59.9922,122.824 63.1589,126.157 62,133.5C 58.3854,138.423 54.3854,138.756 50,134.5C 48.8118,130.259 49.6451,126.592 52.5,123.5 Z"/></g>
<g><path style="opacity:1" fill="#121213" d="M 133.5,125.5 C 140.474,125.375 143.974,128.708 144,135.5C 141.983,140.924 138.15,142.758 132.5,141C 130.667,140.5 129.5,139.333 129,137.5C 127.309,132.131 128.809,128.131 133.5,125.5 Z"/></g>
<g><path style="opacity:1" fill="#67738a" d="M 53.5,128.5 C 54.8734,128.343 56.2068,128.51 57.5,129C 58.6745,131.829 57.6745,132.829 54.5,132C 53.6634,130.989 53.33,129.822 53.5,128.5 Z"/></g>
<g><path style="opacity:1" fill="#a9b2ca" d="M 82.5,129.5 C 90.3189,139.822 98.6522,140.155 107.5,130.5C 111.748,131.994 113.748,134.994 113.5,139.5C 101.167,139.5 88.8333,139.5 76.5,139.5C 76.3433,138.127 76.51,136.793 77,135.5C 79.0396,133.63 80.8729,131.63 82.5,129.5 Z"/></g>
<g><path style="opacity:1" fill="#6e7b94" d="M 134.5,130.5 C 139.493,130.997 140.493,133.164 137.5,137C 132.395,136.751 131.395,134.584 134.5,130.5 Z"/></g>
</svg>
