<?xml version="1.0" standalone="no"?>
<!DOCTYPE svg PUBLIC "-//W3C//DTD SVG 20010904//EN"
 "http://www.w3.org/TR/2001/REC-SVG-20010904/DTD/svg10.dtd">
<svg version="1.0" xmlns="http://www.w3.org/2000/svg"
 width="836.000000pt" height="668.000000pt" viewBox="0 0 836.000000 668.000000"
 preserveAspectRatio="xMidYMid meet">

<g transform="translate(0.000000,668.000000) scale(0.100000,-0.100000)"
fill="#000000" stroke="none">
<path d="M5385 5568 c-113 -11 -1313 -13 -2175 -3 -635 7 -1032 -4 -1605 -44
-170 -12 -483 -39 -545 -46 -309 -39 -386 -65 -497 -168 -171 -160 -259 -410
-293 -830 -14 -176 -13 -308 5 -553 22 -310 63 -608 114 -839 5 -22 12 -56 16
-75 31 -151 82 -255 172 -350 206 -219 540 -335 1103 -386 183 -16 581 -16
1080 1 249 9 1315 34 1970 46 649 13 1163 9 1196 -9 11 -6 29 -30 39 -54 10
-24 25 -61 35 -83 9 -22 26 -60 36 -85 110 -261 206 -389 394 -525 227 -163
556 -265 856 -265 99 0 103 1 123 26 38 48 29 67 -82 182 -155 161 -165 173
-201 232 -91 155 -142 380 -106 474 13 35 62 63 122 71 49 7 151 37 238 70
309 118 476 285 620 620 36 83 73 249 89 397 30 274 -9 591 -114 913 -41 127
-72 201 -145 346 -139 276 -233 397 -421 538 -301 227 -681 356 -1180 401
-140 12 -706 11 -844 -2z m839 -148 c291 -33 450 -65 621 -127 39 -14 79 -27
90 -31 79 -23 282 -140 406 -233 129 -97 193 -177 301 -369 260 -466 360 -991
272 -1430 -56 -277 -201 -515 -388 -635 -102 -65 -269 -130 -412 -159 -192
-40 -258 -121 -257 -316 1 -203 107 -464 242 -595 23 -21 41 -43 41 -47 0 -12
-72 -10 -127 3 -186 44 -371 120 -478 197 -194 139 -262 236 -405 582 -67 163
-97 194 -196 207 -150 18 -1323 7 -2699 -27 -220 -5 -508 -12 -640 -15 -132
-3 -321 -8 -420 -11 -333 -12 -803 33 -1010 96 -358 110 -541 251 -593 460
-27 107 -44 185 -53 236 -5 30 -14 80 -19 112 -62 338 -95 793 -79 1080 12
223 26 312 79 520 14 58 91 200 132 247 46 52 107 91 176 111 115 35 454 71
977 103 536 33 595 35 1365 30 1140 -6 2178 -2 2305 9 152 13 659 14 769 2z"/>
<path d="M2633 4098 c4 -79 7 -149 7 -156 0 -9 10 -12 28 -10 26 3 27 6 33 73
4 39 7 107 8 153 l1 82 -41 0 -42 0 6 -142z"/>
<path d="M1192 3878 l3 -343 211 -3 c230 -3 232 -2 218 54 l-6 24 -169 0 -169
0 -2 303 -3 302 -43 3 -42 3 2 -343z"/>
<path d="M2333 4168 c-22 -27 -43 -78 -43 -103 0 -20 -5 -25 -24 -25 -37 0
-56 -10 -56 -30 0 -23 17 -35 50 -35 l25 0 5 -190 c5 -200 12 -229 57 -254 40
-21 173 8 173 37 0 35 -13 42 -54 28 -86 -30 -97 -4 -94 214 l3 165 50 1 c74
2 75 3 75 22 0 30 -22 42 -77 42 l-52 0 -3 67 c-3 65 -15 86 -35 61z"/>
<path d="M4156 4137 c-14 -24 -26 -55 -26 -70 0 -23 -5 -26 -37 -29 -62 -5
-58 -60 4 -62 l28 -1 5 -190 c5 -206 10 -224 61 -251 48 -24 169 0 169 35 0
31 -16 44 -38 32 -11 -6 -36 -11 -55 -11 -52 0 -58 25 -55 220 l3 165 50 0
c57 0 75 8 75 35 0 23 -19 30 -80 30 l-49 0 -3 67 c-2 39 -8 68 -15 70 -6 2
-23 -16 -37 -40z"/>
<path d="M5390 4143 c-12 -21 -24 -52 -27 -70 -5 -28 -10 -33 -32 -33 -35 0
-50 -12 -47 -34 3 -24 22 -34 52 -28 l24 4 0 -166 c0 -203 9 -248 57 -277 28
-17 42 -20 81 -14 49 7 102 30 102 43 0 5 -6 16 -13 26 -11 15 -16 16 -47 3
-44 -18 -77 -7 -90 29 -6 15 -9 96 -8 187 l3 161 50 2 c28 1 56 2 63 3 18 2
15 48 -4 55 -9 3 -38 6 -65 6 l-49 0 1 59 c2 90 -15 105 -51 44z"/>
<path d="M1867 4036 c-102 -23 -158 -101 -165 -232 -5 -89 6 -137 44 -196 37
-58 93 -82 191 -82 73 0 87 3 130 30 35 22 48 36 48 53 0 37 -29 50 -57 24
-37 -33 -68 -45 -119 -45 -64 0 -112 30 -133 82 -33 82 -38 79 157 82 l172 3
3 39 c7 85 -37 183 -98 219 -43 26 -116 35 -173 23z m123 -76 c32 -22 57 -65
65 -112 l7 -38 -135 0 c-75 0 -138 3 -140 8 -3 4 1 29 8 57 26 98 119 139 195
85z"/>
<path d="M2978 4040 c-62 -11 -104 -37 -123 -76 -20 -42 -19 -82 3 -122 20
-39 61 -63 157 -92 83 -26 105 -43 105 -82 0 -45 -17 -66 -59 -78 -47 -12
-112 0 -165 31 -30 17 -39 19 -52 8 -28 -23 -12 -52 41 -78 40 -19 67 -24 136
-25 80 0 89 2 123 27 71 54 88 139 40 197 -33 39 -64 55 -145 75 -84 21 -112
43 -111 85 0 18 8 40 17 49 22 22 129 21 173 -3 32 -17 35 -17 53 0 29 26 23
43 -23 63 -55 24 -111 30 -170 21z"/>
<path d="M4588 4035 c-60 -12 -85 -24 -110 -52 -16 -17 -16 -21 -2 -41 19 -27
25 -27 55 -1 13 12 34 25 47 30 32 12 109 11 134 -2 23 -12 48 -66 48 -103 0
-21 -6 -26 -32 -30 -176 -25 -229 -43 -267 -92 -28 -36 -29 -114 -1 -159 45
-73 177 -81 291 -18 4 2 9 -6 12 -17 4 -17 12 -21 39 -18 l33 3 0 195 c0 216
-6 245 -58 282 -39 28 -118 37 -189 23z m172 -334 c0 -64 -2 -70 -27 -87 -29
-19 -125 -31 -167 -20 -35 9 -51 58 -30 101 23 48 79 72 177 74 l47 1 0 -69z"/>
<path d="M3698 4019 c-51 -26 -72 -69 -65 -133 6 -66 37 -94 148 -129 102 -32
117 -42 125 -83 4 -24 0 -37 -19 -60 -22 -25 -31 -28 -79 -28 -41 0 -69 7
-109 28 l-54 27 -17 -21 c-24 -30 -14 -45 45 -71 61 -26 195 -32 237 -10 64
34 99 100 85 162 -13 58 -49 87 -152 119 -53 16 -104 37 -115 46 -25 24 -23
60 8 91 23 23 31 25 84 20 32 -3 73 -13 90 -23 31 -19 32 -19 51 5 15 19 17
27 7 38 -38 46 -201 59 -270 22z"/>
<path d="M4985 4028 c-3 -7 -4 -121 -3 -253 l3 -240 36 -3 37 -3 4 168 c4 148
7 173 26 210 28 54 56 73 108 73 34 0 43 4 47 22 9 34 -2 41 -61 36 -50 -4
-60 -9 -88 -42 l-33 -38 -3 39 c-3 35 -6 38 -36 41 -20 2 -34 -2 -37 -10z"/>
<path d="M5727 3613 c-3 -10 -4 -29 -2 -43 2 -14 4 -29 4 -33 1 -5 20 -7 44
-5 l42 3 0 45 0 45 -42 3 c-33 2 -42 -1 -46 -15z"/>
</g>
</svg>
