<?xml version="1.0" encoding="UTF-8"?>
<!DOCTYPE svg PUBLIC "-//W3C//DTD SVG 1.1//EN" "http://www.w3.org/Graphics/SVG/1.1/DTD/svg11.dtd">
<svg xmlns="http://www.w3.org/2000/svg" version="1.1" width="48px" height="47px" style="shape-rendering:geometricPrecision; text-rendering:geometricPrecision; image-rendering:optimizeQuality; fill-rule:evenodd; clip-rule:evenodd" xmlns:xlink="http://www.w3.org/1999/xlink">
<g><path style="opacity:1" fill="#fbfbfe" d="M -0.5,-0.5 C 15.5,-0.5 31.5,-0.5 47.5,-0.5C 47.5,15.1667 47.5,30.8333 47.5,46.5C 31.5,46.5 15.5,46.5 -0.5,46.5C -0.5,30.8333 -0.5,15.1667 -0.5,-0.5 Z"/></g>
<g><path style="opacity:1" fill="#6c67f7" d="M 19.5,0.5 C 30.4892,-0.257955 38.6559,4.07538 44,13.5C 48.3283,27.6702 43.8283,37.8369 30.5,44C 10.1961,46.0295 0.696149,36.8628 2,16.5C 5.53579,8.45626 11.3691,3.12292 19.5,0.5 Z"/></g>
<g><path style="opacity:1" fill="#fcfcfe" d="M 18.5,10.5 C 34.438,10.0937 39.1047,17.0937 32.5,31.5C 23.6774,37.8917 16.844,36.225 12,26.5C 10.6071,19.6306 12.7738,14.2973 18.5,10.5 Z"/></g>
</svg>
