<?xml version="1.0" encoding="UTF-8"?>
<!DOCTYPE svg PUBLIC "-//W3C//DTD SVG 1.1//EN" "http://www.w3.org/Graphics/SVG/1.1/DTD/svg11.dtd">
<svg xmlns="http://www.w3.org/2000/svg" version="1.1" width="193px" height="190px" style="shape-rendering:geometricPrecision; text-rendering:geometricPrecision; image-rendering:optimizeQuality; fill-rule:evenodd; clip-rule:evenodd" xmlns:xlink="http://www.w3.org/1999/xlink">
<g><path style="opacity:1" fill="#fffefd" d="M -0.5,-0.5 C 63.8333,-0.5 128.167,-0.5 192.5,-0.5C 192.5,62.8333 192.5,126.167 192.5,189.5C 128.167,189.5 63.8333,189.5 -0.5,189.5C -0.5,126.167 -0.5,62.8333 -0.5,-0.5 Z"/></g>
<g><path style="opacity:1" fill="#ffe696" d="M 113.5,186.5 C 104.518,187.218 95.5182,187.552 86.5,187.5C 45.8586,182.249 18.6919,160.249 5,121.5C -5.65963,75.6778 8.50703,39.8444 47.5,14C 73.0068,0.450822 99.6734,-2.21584 127.5,6C 175.768,26.5664 196.268,62.7331 189,114.5C 178.651,154.015 153.484,178.015 113.5,186.5 Z"/></g>
<g><path style="opacity:1" fill="#fcfcfb" d="M 83.5,16.5 C 124.226,13.4335 153.392,30.1002 171,66.5C 182.245,105.094 172.079,136.594 140.5,161C 117.727,174.404 93.7267,177.07 68.5,169C 31.1689,151.856 14.3355,122.689 18,81.5C 26.5675,46.2909 48.4009,24.6243 83.5,16.5 Z"/></g>
<g><path style="opacity:1" fill="#1a1918" d="M 144.5,93.5 C 145.209,94.404 146.209,94.7373 147.5,94.5C 147.5,93.5 147.5,92.5 147.5,91.5C 149.769,89.6163 152.436,88.283 155.5,87.5C 157.029,87.5288 158.196,88.1955 159,89.5C 161.492,95.9942 164.158,102.327 167,108.5C 167.667,110.167 167.667,111.833 167,113.5C 163.578,116.032 159.745,117.699 155.5,118.5C 154.176,119.935 152.51,120.935 150.5,121.5C 149.784,124.684 147.784,126.184 144.5,126C 144.858,132.775 142.525,138.441 137.5,143C 135.913,143.862 134.246,144.529 132.5,145C 131.21,147.292 129.543,149.292 127.5,151C 115.092,152.148 102.592,152.648 90,152.5C 78.1667,152.333 66.3333,152.167 54.5,152C 51.2716,150.437 49.1049,147.937 48,144.5C 47.3333,111.833 47.3333,79.1667 48,46.5C 50.0217,42.4709 53.1884,39.9709 57.5,39C 58.7899,36.708 60.4565,34.708 62.5,33C 74.9083,31.8517 87.4083,31.3517 100,31.5C 112.592,31.3517 125.092,31.8517 137.5,33C 139,34.5 140.5,36 142,37.5C 141.843,56.5269 142.677,75.1936 144.5,93.5 Z"/></g>
<g><path style="opacity:1" fill="#e0e3e5" d="M 135.5,91.5 C 133.839,76.6945 132.839,61.6945 132.5,46.5C 131.074,42.7404 128.407,40.407 124.5,39.5C 103.833,38.8333 83.1667,38.1667 62.5,37.5C 63.0577,36.2101 64.0577,35.3768 65.5,35C 89.2546,34.0206 112.921,34.354 136.5,36C 137.333,36.8333 138.167,37.6667 139,38.5C 139.5,56.1635 139.667,73.8302 139.5,91.5C 138.167,91.5 136.833,91.5 135.5,91.5 Z"/></g>
<g><path style="opacity:1" fill="#b9bcbe" d="M 62.5,37.5 C 83.1667,38.1667 103.833,38.8333 124.5,39.5C 103.489,39.833 82.4894,39.4997 61.5,38.5C 61.6236,37.8933 61.9569,37.56 62.5,37.5 Z"/></g>
<g><path style="opacity:1" fill="#443116" d="M 117.5,42.5 C 118.814,47.3477 118.814,52.3477 117.5,57.5C 116.893,57.3764 116.56,57.0431 116.5,56.5C 117.486,52.03 117.819,47.3633 117.5,42.5 Z"/></g>
<g><path style="opacity:1" fill="#e7eaec" d="M 120.5,61.5 C 121.49,55.69 121.823,49.69 121.5,43.5C 122.833,43.5 124.167,43.5 125.5,43.5C 126.794,44.2899 127.961,45.2899 129,46.5C 129.667,61.8333 129.667,77.1667 129,92.5C 125.378,91.231 121.712,91.231 118,92.5C 114.76,90.3128 111.26,88.6462 107.5,87.5C 105.971,87.5288 104.804,88.1955 104,89.5C 101.036,97.0236 98.5363,104.69 96.5,112.5C 96.5288,114.029 97.1955,115.196 98.5,116C 100.518,116.505 102.518,117.005 104.5,117.5C 105.048,119.626 105.715,121.626 106.5,123.5C 109.103,126.065 111.437,128.899 113.5,132C 119.148,133.236 124.481,135.069 129.5,137.5C 130.1,141.516 129.1,145.016 126.5,148C 102.5,148.667 78.5,148.667 54.5,148C 52.9512,146.786 51.7845,145.286 51,143.5C 50.3333,111.5 50.3333,79.5 51,47.5C 51.8333,45.3333 53.3333,43.8333 55.5,43C 68.8292,42.5001 82.1625,42.3334 95.5,42.5C 95.189,49.0898 95.5223,55.5898 96.5,62C 97.5,62.6667 98.5,62.6667 99.5,62C 102.403,59.4276 105.569,57.261 109,55.5C 112.511,58.1916 116.344,60.1916 120.5,61.5 Z"/></g>
<g><path style="opacity:1" fill="#f5b351" d="M 117.5,42.5 C 117.819,47.3633 117.486,52.03 116.5,56.5C 114.072,54.7515 111.406,53.4181 108.5,52.5C 105.458,53.7727 102.624,55.4393 100,57.5C 99.5007,52.5111 99.3341,47.5111 99.5,42.5C 105.5,42.5 111.5,42.5 117.5,42.5 Z"/></g>
<g><path style="opacity:1" fill="#949697" d="M 125.5,43.5 C 124.167,43.5 122.833,43.5 121.5,43.5C 121.823,49.69 121.49,55.69 120.5,61.5C 120.5,55.1667 120.5,48.8333 120.5,42.5C 122.415,42.2155 124.081,42.5489 125.5,43.5 Z"/></g>
<g><path style="opacity:1" fill="#666768" d="M 132.5,46.5 C 132.839,61.6945 133.839,76.6945 135.5,91.5C 134.791,92.404 133.791,92.7373 132.5,92.5C 132.5,77.1667 132.5,61.8333 132.5,46.5 Z"/></g>
<g><path style="opacity:1" fill="#252626" d="M 115.5,76.5 C 107.528,75.1687 99.1945,74.502 90.5,74.5C 81.8055,74.502 73.4722,75.1687 65.5,76.5C 64.596,75.791 64.2627,74.791 64.5,73.5C 81.8333,73.5 99.1667,73.5 116.5,73.5C 116.737,74.791 116.404,75.791 115.5,76.5 Z"/></g>
<g><path style="opacity:1" fill="#000000" d="M 115.5,76.5 C 98.8333,76.5 82.1667,76.5 65.5,76.5C 73.4722,75.1687 81.8055,74.502 90.5,74.5C 99.1945,74.502 107.528,75.1687 115.5,76.5 Z"/></g>
<g><path style="opacity:1" fill="#141414" d="M 64.5,87.5 C 73.8333,87.5 83.1667,87.5 92.5,87.5C 92.5,88.5 92.5,89.5 92.5,90.5C 83.1667,90.5 73.8333,90.5 64.5,90.5C 64.5,89.5 64.5,88.5 64.5,87.5 Z"/></g>
<g><path style="opacity:1" fill="#8b9498" d="M 106.5,91.5 C 109.323,91.0254 111.323,92.0254 112.5,94.5C 110.291,101.125 108.291,107.792 106.5,114.5C 103.383,115.073 101.383,113.906 100.5,111C 102.41,104.439 104.41,97.9387 106.5,91.5 Z"/></g>
<g><path style="opacity:1" fill="#747474" d="M 147.5,91.5 C 147.5,92.5 147.5,93.5 147.5,94.5C 146.209,94.7373 145.209,94.404 144.5,93.5C 145.778,93.2178 146.778,92.5511 147.5,91.5 Z"/></g>
<g><path style="opacity:1" fill="#899196" d="M 152.5,91.5 C 154.167,91.5 155.833,91.5 157.5,91.5C 159.244,98.3327 161.578,104.999 164.5,111.5C 162.029,114.398 159.529,114.731 157,112.5C 154.65,106.453 152.483,100.286 150.5,94C 151.056,92.9889 151.722,92.1556 152.5,91.5 Z"/></g>
<g><path style="opacity:1" fill="#e5b577" d="M 120.5,94.5 C 122.924,94.1924 125.257,94.5258 127.5,95.5C 125.517,97.9837 123.35,100.317 121,102.5C 120.465,107.032 122.632,109.032 127.5,108.5C 131.47,107.446 135.47,106.946 139.5,107C 143.327,108.746 146.993,110.746 150.5,113C 152.037,114.11 152.703,115.61 152.5,117.5C 147.167,115.5 141.833,113.5 136.5,111.5C 136.281,112.675 136.614,113.675 137.5,114.5C 140.5,116 143.5,117.5 146.5,119C 147.337,120.011 147.67,121.178 147.5,122.5C 142.882,121.696 138.549,120.029 134.5,117.5C 133.417,118.365 133.251,119.365 134,120.5C 136.087,121.794 138.254,122.961 140.5,124C 141.337,125.011 141.67,126.178 141.5,127.5C 131.508,125 122.841,120.166 115.5,113C 113.744,112.798 112.078,112.298 110.5,111.5C 111.965,106.437 113.632,101.437 115.5,96.5C 117.291,95.8302 118.958,95.1635 120.5,94.5 Z"/></g>
<g><path style="opacity:1" fill="#e6b678" d="M 134.5,94.5 C 139.206,95.3431 143.872,96.5097 148.5,98C 150.1,102.122 151.267,106.289 152,110.5C 148.41,107.954 144.577,105.787 140.5,104C 135.058,103.562 129.725,104.062 124.5,105.5C 124.351,104.448 124.517,103.448 125,102.5C 127.775,99.2203 130.942,96.5537 134.5,94.5 Z"/></g>
<g><path style="opacity:1" fill="#181919" d="M 64.5,101.5 C 73.8571,101.168 83.1904,101.502 92.5,102.5C 92.2907,103.086 91.9574,103.586 91.5,104C 82.5062,104.5 73.5062,104.666 64.5,104.5C 64.5,103.5 64.5,102.5 64.5,101.5 Z"/></g>
<g><path style="opacity:1" fill="#181919" d="M 64.5,114.5 C 73.5062,114.334 82.5062,114.5 91.5,115C 91.9574,115.414 92.2907,115.914 92.5,116.5C 83.1904,117.498 73.8571,117.832 64.5,117.5C 64.5,116.5 64.5,115.5 64.5,114.5 Z"/></g>
<g><path style="opacity:1" fill="#d4a86e" d="M 111.5,115.5 C 112.5,115.5 113.5,115.5 114.5,115.5C 114.306,118.33 113.639,120.996 112.5,123.5C 111.5,123.5 110.5,123.5 109.5,123.5C 109.283,120.579 109.949,117.913 111.5,115.5 Z"/></g>
<g><path style="opacity:1" fill="#6d6f6f" d="M 104.5,117.5 C 106.308,118.918 106.975,120.918 106.5,123.5C 105.715,121.626 105.048,119.626 104.5,117.5 Z"/></g>
<g><path style="opacity:1" fill="#d7aa70" d="M 117.5,119.5 C 119.252,119.418 120.252,120.251 120.5,122C 119.198,124.778 117.532,127.278 115.5,129.5C 114.28,129.113 113.613,128.28 113.5,127C 114.966,124.568 116.299,122.068 117.5,119.5 Z"/></g>
<g><path style="opacity:1" fill="#d5a96f" d="M 122.5,124.5 C 123.5,124.5 124.5,124.5 125.5,124.5C 125.456,127.316 124.456,129.649 122.5,131.5C 121.28,131.113 120.613,130.28 120.5,129C 121.044,127.415 121.711,125.915 122.5,124.5 Z"/></g>
<g><path style="opacity:1" fill="#9b7b50" d="M 134.5,129.5 C 136.465,129.948 136.798,130.948 135.5,132.5C 134.614,131.675 134.281,130.675 134.5,129.5 Z"/></g>
<g><path style="opacity:1" fill="#d2a76d" d="M 128.5,128.5 C 132.415,130.198 132.415,132.198 128.5,134.5C 126.001,132.604 126.001,130.604 128.5,128.5 Z"/></g>
<g><path style="opacity:1" fill="#5d5e5f" d="M 133.5,135.5 C 133.077,137.781 133.744,139.448 135.5,140.5C 134.791,141.404 133.791,141.737 132.5,141.5C 132.205,139.265 132.539,137.265 133.5,135.5 Z"/></g>
<g><path style="opacity:1" fill="#dadcde" d="M 135.5,140.5 C 133.744,139.448 133.077,137.781 133.5,135.5C 135.722,135.822 137.556,135.155 139,133.5C 139.864,136.813 138.698,139.146 135.5,140.5 Z"/></g>
<g><path style="opacity:1" fill="#ffeeb8" d="M 113.5,186.5 C 108.243,187.975 102.743,188.642 97,188.5C 93.3167,188.499 89.8167,188.165 86.5,187.5C 95.5182,187.552 104.518,187.218 113.5,186.5 Z"/></g>
</svg>
