<?xml version="1.0" standalone="no"?>
<!DOCTYPE svg PUBLIC "-//W3C//DTD SVG 20010904//EN"
 "http://www.w3.org/TR/2001/REC-SVG-20010904/DTD/svg10.dtd">
<svg version="1.0" xmlns="http://www.w3.org/2000/svg"
 width="838.000000pt" height="668.000000pt" viewBox="0 0 838.000000 668.000000"
 preserveAspectRatio="xMidYMid meet">

<g transform="translate(0.000000,668.000000) scale(0.100000,-0.100000)"
fill="#000000" stroke="none">
<path d="M5330 5358 c-54 -5 -544 -8 -1125 -6 -1894 6 -1899 6 -2525 -33 -526
-32 -880 -71 -995 -111 -159 -54 -280 -182 -363 -383 -94 -228 -136 -602 -113
-1002 15 -269 38 -489 71 -685 33 -194 34 -199 60 -313 45 -200 80 -274 173
-372 71 -75 191 -160 292 -207 70 -33 270 -98 370 -120 120 -26 253 -45 445
-62 182 -16 563 -16 1080 1 1139 38 3076 64 3153 42 20 -5 33 -19 44 -45 8
-20 24 -57 35 -82 11 -25 29 -65 40 -90 95 -217 120 -262 191 -345 114 -132
238 -226 407 -307 190 -91 441 -148 656 -148 99 0 103 1 123 26 38 49 30 64
-114 215 -74 77 -150 166 -168 197 -72 123 -117 271 -117 384 0 118 19 139
153 168 384 84 637 268 783 570 87 178 112 266 139 473 28 220 10 502 -46 730
-27 109 -50 189 -60 209 -5 10 -9 23 -9 29 0 17 -67 185 -103 259 -148 301
-249 444 -407 570 -119 95 -195 142 -345 215 -256 125 -464 179 -845 220 -153
16 -721 18 -880 3z m828 -148 c266 -28 396 -52 582 -111 298 -95 577 -270 714
-448 81 -105 217 -354 272 -499 177 -463 207 -928 83 -1294 -80 -240 -228
-421 -423 -517 -94 -47 -229 -94 -312 -111 -186 -36 -252 -95 -273 -246 -23
-161 39 -387 154 -564 23 -36 61 -83 84 -105 56 -54 54 -63 -16 -54 -136 18
-326 79 -443 142 -129 70 -272 192 -339 290 -37 55 -106 199 -172 361 -54 133
-95 184 -159 197 -141 30 -1504 15 -3580 -41 -526 -15 -845 4 -1118 65 -394
88 -639 251 -694 465 -18 70 -43 177 -59 260 -60 301 -119 930 -105 1108 3 37
8 110 11 162 11 177 47 377 84 465 85 203 157 284 293 329 111 37 477 76 983
105 99 6 268 16 375 23 133 8 441 10 975 7 1159 -6 2174 -3 2310 8 164 14 655
15 773 3z"/>
<path d="M2058 4424 c-5 -4 -8 -25 -8 -46 l0 -38 74 0 c89 0 111 -7 155 -51
29 -31 102 -143 117 -183 6 -14 -80 -16 -876 -16 l-881 0 3 -42 3 -43 313 -3
312 -2 0 -194 0 -194 -33 -43 c-40 -54 -124 -99 -181 -99 -144 0 -168 179 -32
241 26 12 64 19 104 19 l62 0 0 45 0 45 -232 -2 -233 -3 -3 -42 -3 -43 91 0
91 0 -19 -27 c-94 -136 -14 -300 156 -320 52 -6 140 20 190 56 16 11 32 18 36
14 3 -3 6 -57 6 -120 l0 -113 45 0 45 0 0 390 0 390 380 0 380 0 0 -65 0 -65
-53 6 c-63 7 -102 -9 -140 -57 l-25 -32 -17 27 c-28 42 -90 69 -147 64 -194
-19 -242 -284 -87 -485 43 -55 135 -130 201 -164 l38 -19 20 41 c12 22 20 42
18 43 -2 2 -30 18 -63 36 -132 75 -207 185 -207 308 -1 101 32 152 97 152 57
0 87 -38 100 -123 l7 -47 43 0 43 0 4 57 c4 48 10 61 37 85 21 19 42 28 65 28
70 0 66 17 66 -291 l0 -279 45 0 45 0 0 390 0 390 105 0 105 0 2 -387 3 -388
45 0 45 0 2 370 c2 204 3 378 3 387 0 14 11 18 58 20 l57 3 3 43 3 42 -79 0
c-76 0 -79 1 -91 28 -53 117 -159 260 -214 289 -33 17 -187 30 -199 17z"/>
<path d="M6588 4424 c-5 -4 -8 -25 -8 -46 l0 -38 76 0 c96 0 134 -17 184 -84
40 -55 90 -141 90 -156 0 -6 -313 -10 -856 -10 l-855 0 3 -42 3 -43 238 -3
237 -2 0 -100 0 -100 -57 32 c-190 107 -382 -58 -319 -275 43 -147 201 -217
329 -145 l47 27 0 -110 0 -109 50 0 50 0 0 205 c0 223 3 239 59 298 92 100
211 59 211 -73 0 -69 -52 -144 -139 -200 l-24 -16 27 -42 27 -43 30 18 c52 31
121 106 145 158 68 145 -9 324 -148 342 -45 7 -115 -17 -158 -54 l-30 -25 0
106 0 106 373 0 374 0 26 -52 c54 -110 54 -193 1 -249 -49 -51 -118 -32 -160
44 -10 18 -12 18 -47 1 -20 -10 -37 -22 -37 -26 0 -19 57 -119 121 -213 76
-110 147 -191 224 -254 47 -39 50 -40 68 -23 46 41 44 49 -38 125 -76 70 -175
189 -175 211 0 7 20 17 43 23 55 15 111 75 128 135 15 58 6 142 -24 216 l-25
62 154 0 154 0 0 -390 0 -390 45 0 45 0 0 390 0 390 60 0 60 0 0 45 0 45 -74
0 -74 0 -38 68 c-20 37 -60 100 -87 140 -67 97 -110 123 -220 129 -45 3 -85 2
-89 -3z m-973 -665 c68 -36 85 -57 85 -108 0 -93 -65 -171 -148 -178 -61 -5
-102 20 -131 79 -33 69 -25 135 22 187 43 46 108 54 172 20z"/>
<path d="M2870 4045 l0 -45 89 0 90 0 -16 -37 c-22 -55 -13 -139 22 -191 32
-48 110 -92 165 -92 20 0 39 2 41 4 3 3 3 23 1 45 -4 36 -7 41 -29 41 -32 0
-78 25 -97 52 -10 13 -16 43 -16 74 0 70 32 104 99 104 94 0 155 -73 155 -185
0 -75 -25 -127 -89 -183 -59 -52 -85 -58 -135 -32 -51 26 -129 27 -161 2 -32
-27 -29 -89 5 -119 32 -27 101 -38 152 -24 31 9 43 8 64 -6 30 -20 140 -129
196 -194 l40 -47 32 27 33 26 -54 65 c-30 36 -82 91 -116 123 -33 32 -61 62
-61 66 0 4 12 14 26 22 15 7 49 39 76 69 69 78 95 163 78 256 -7 35 -23 80
-36 99 l-23 35 109 0 110 0 -2 -371 -3 -372 -52 -20 c-29 -11 -53 -24 -53 -29
0 -9 28 -68 33 -68 1 0 20 7 42 15 58 21 108 19 139 -6 31 -25 33 -57 6 -92
-28 -35 -81 -50 -154 -45 -76 7 -133 35 -204 101 l-54 52 -24 -28 c-13 -16
-24 -32 -24 -36 0 -15 107 -109 148 -130 137 -70 292 -60 375 23 24 24 47 80
47 117 0 51 -57 123 -112 142 -17 6 -18 33 -18 377 l0 370 193 0 194 0 32 -65
c43 -90 49 -142 22 -198 -44 -92 -133 -88 -187 8 -11 20 -11 20 -48 0 -20 -11
-36 -23 -36 -28 0 -24 103 -193 175 -287 47 -61 155 -171 197 -201 l27 -19 26
35 27 35 -83 77 c-45 43 -104 107 -131 143 l-50 65 44 12 c49 15 98 55 122
101 11 22 24 32 40 32 30 0 42 -15 51 -63 18 -94 121 -145 244 -121 32 7 38
23 25 70 -5 20 -11 21 -67 17 -53 -4 -66 -2 -89 17 -68 53 -5 140 100 140 74
0 179 -81 248 -192 20 -32 40 -58 45 -58 20 0 59 25 59 38 0 26 -89 149 -144
200 -62 56 -104 78 -175 92 -59 11 -153 -9 -187 -40 -24 -23 -33 -24 -84 -9
-33 10 -39 16 -44 50 -3 22 -17 64 -31 94 l-24 55 389 0 c361 0 390 1 399 18
5 9 7 30 4 45 l-5 27 -1059 0 -1059 0 0 -45z"/>
<path d="M7427 3658 l2 -433 46 -3 45 -3 0 435 0 436 -47 0 -48 0 2 -432z"/>
</g>
</svg>
