<?xml version="1.0" standalone="no"?>
<!DOCTYPE svg PUBLIC "-//W3C//DTD SVG 20010904//EN"
 "http://www.w3.org/TR/2001/REC-SVG-20010904/DTD/svg10.dtd">
<svg version="1.0" xmlns="http://www.w3.org/2000/svg"
 width="848.000000pt" height="668.000000pt" viewBox="0 0 848.000000 668.000000"
 preserveAspectRatio="xMidYMid meet">

<g transform="translate(0.000000,668.000000) scale(0.100000,-0.100000)"
fill="#000000" stroke="none">
<path d="M5390 5438 c-61 -6 -535 -8 -1135 -6 -1507 5 -1916 3 -2150 -11 -830
-47 -1195 -83 -1375 -137 -109 -33 -243 -164 -312 -305 -89 -181 -125 -339
-149 -649 -14 -183 0 -605 25 -765 2 -17 7 -57 11 -90 22 -215 68 -470 125
-694 43 -170 215 -353 425 -451 115 -53 291 -109 415 -131 298 -53 423 -64
775 -64 294 0 487 4 1285 25 1311 35 2540 46 2591 23 20 -9 35 -32 59 -90 151
-364 201 -447 360 -585 239 -210 597 -338 945 -338 93 0 103 2 123 23 43 46
33 66 -113 218 -143 149 -184 207 -233 334 -40 106 -55 188 -50 276 5 94 22
109 154 139 441 101 692 312 843 710 116 308 117 767 2 1173 -6 20 -15 52 -20
70 -10 38 -13 45 -59 167 -37 97 -85 195 -173 356 -113 204 -240 338 -449 474
-91 59 -308 163 -415 199 -315 105 -592 141 -1080 139 -176 0 -367 -5 -425
-10z m834 -148 c438 -49 692 -124 966 -286 168 -99 317 -242 400 -384 219
-374 316 -669 350 -1068 19 -224 -17 -496 -87 -662 -99 -233 -226 -380 -407
-469 -98 -49 -227 -94 -328 -114 -109 -23 -154 -44 -197 -94 -47 -52 -65 -115
-64 -223 0 -200 109 -468 242 -595 22 -21 41 -43 41 -47 0 -38 -321 45 -475
123 -189 96 -339 238 -417 394 -23 45 -127 285 -157 361 -19 48 -73 95 -123
106 -118 25 -992 20 -2288 -12 -1578 -39 -1807 -42 -2025 -21 -165 15 -406 55
-490 82 -104 32 -137 44 -205 71 -199 83 -329 207 -378 360 -21 67 -48 180
-62 263 -5 28 -16 88 -24 135 -61 352 -94 812 -76 1077 37 549 170 819 430
871 173 34 484 65 935 91 99 6 268 16 375 23 135 8 438 10 980 7 1158 -6 2169
-3 2305 8 164 14 668 15 779 3z"/>
<path d="M4538 4083 c-23 -37 -23 -43 -26 -338 -2 -165 0 -310 3 -322 4 -18
12 -23 40 -23 21 0 35 5 35 13 1 18 1 680 0 695 0 25 -29 11 -52 -25z"/>
<path d="M5255 4097 c-3 -6 -4 -165 -3 -352 l3 -340 36 -3 c42 -4 49 11 44 90
-3 40 1 52 32 92 20 25 38 46 42 46 3 0 35 -46 71 -103 35 -56 71 -107 80
-114 19 -16 80 -17 80 -1 0 6 -40 73 -89 148 l-89 137 79 94 c43 52 77 99 75
104 -1 6 -17 11 -34 13 -36 4 -37 3 -151 -136 -59 -71 -87 -98 -93 -90 -5 7
-8 101 -7 208 0 107 0 201 0 208 -1 16 -70 16 -76 -1z"/>
<path d="M930 4078 c-3 -198 0 -661 5 -668 11 -17 72 -12 79 7 4 9 6 132 6
272 -1 141 0 261 0 266 1 6 41 -110 89 -258 49 -147 94 -274 101 -283 9 -10
27 -14 54 -12 l41 3 90 272 c50 150 93 274 96 277 3 3 6 -114 7 -262 1 -147 1
-273 2 -279 0 -8 15 -13 40 -13 31 0 40 4 40 18 1 16 1 634 0 660 0 8 -21 12
-69 12 l-70 0 -60 -187 c-33 -104 -75 -237 -95 -298 -19 -60 -35 -103 -35 -94
-1 14 -158 514 -176 562 -6 14 -20 17 -76 17 -48 0 -69 -4 -69 -12z"/>
<path d="M2633 4082 c-23 -3 -31 -23 -25 -60 4 -20 10 -23 41 -20 32 3 36 6
39 35 4 35 -17 52 -55 45z"/>
<path d="M1871 3909 c-47 -9 -131 -54 -131 -70 0 -17 20 -49 31 -49 6 0 26 12
46 27 27 21 49 28 97 31 60 4 64 3 89 -28 19 -22 27 -43 27 -71 0 -43 0 -43
-100 -53 -163 -16 -244 -96 -211 -206 27 -92 160 -126 272 -69 34 17 36 17 47
-2 8 -12 23 -19 41 -19 40 0 42 17 37 227 -5 170 -10 197 -45 237 -36 41 -119
60 -200 45z m159 -334 c0 -74 0 -76 -32 -95 -46 -28 -150 -28 -178 0 -24 24
-26 67 -4 98 22 32 67 52 137 61 34 5 65 9 70 10 4 0 7 -33 7 -74z"/>
<path d="M3360 3910 c-41 -7 -95 -34 -107 -52 -5 -9 -9 -3 -13 17 -5 27 -9 30
-40 30 l-35 0 -3 -252 -2 -253 40 0 40 0 0 163 c0 89 5 179 11 200 15 54 54
87 105 87 68 0 85 -21 95 -120 5 -47 9 -130 8 -185 -2 -157 -5 -147 39 -143
l37 3 5 187 c5 181 6 187 30 215 36 40 41 43 86 43 31 0 46 -6 65 -26 23 -25
24 -31 29 -222 l5 -197 38 -3 37 -3 0 195 c0 222 -9 261 -65 296 -63 39 -168
20 -219 -40 l-23 -28 -17 29 c-27 46 -86 70 -146 59z"/>
<path d="M4875 3909 c-111 -20 -166 -71 -119 -110 12 -10 19 -10 32 -1 63 45
79 52 133 52 69 0 99 -26 106 -93 5 -40 3 -45 -18 -50 -13 -4 -40 -7 -59 -7
-87 -1 -190 -44 -221 -93 -31 -49 -22 -128 18 -168 52 -53 166 -61 241 -18 41
23 39 23 45 -1 4 -15 14 -20 41 -20 l36 0 0 193 c0 180 -1 196 -22 237 -34 67
-115 97 -213 79z m150 -339 c0 -72 -1 -74 -31 -92 -41 -24 -135 -26 -169 -4
-38 25 -35 85 6 120 17 14 40 28 52 31 38 10 122 23 132 20 6 -1 10 -34 10
-75z"/>
<path d="M5867 3908 c-48 -9 -127 -52 -127 -70 0 -16 20 -48 31 -48 6 0 26 12
46 27 27 21 49 28 97 31 60 4 64 3 89 -28 19 -22 27 -43 27 -71 0 -21 -1 -39
-2 -40 -2 0 -25 -3 -53 -5 -71 -7 -164 -32 -199 -52 -89 -52 -83 -195 10 -242
44 -22 154 -18 199 9 44 26 41 25 48 1 4 -15 14 -20 40 -20 28 0 36 4 41 24 9
38 -2 360 -14 392 -30 79 -118 114 -233 92z m163 -333 c0 -74 0 -76 -32 -95
-23 -14 -51 -20 -93 -20 -78 0 -105 17 -105 69 0 60 51 97 153 110 34 5 65 9
70 10 4 0 7 -33 7 -74z"/>
<path d="M6446 3908 c-22 -5 -55 -20 -73 -34 -31 -23 -33 -24 -33 -6 0 26 -24
44 -52 40 l-23 -3 -5 -235 c-3 -129 -3 -243 -1 -253 3 -14 12 -17 40 -15 l36
3 5 185 c5 195 10 214 55 244 30 20 103 23 134 6 43 -22 51 -65 51 -260 l0
-180 40 0 40 0 0 198 c0 172 -3 202 -19 239 -29 63 -105 91 -195 71z"/>
<path d="M2266 3902 c-4 -6 -9 -410 -7 -485 1 -15 8 -18 39 -15 l37 3 5 170
c6 179 12 207 60 250 12 11 42 22 68 25 42 4 47 8 50 33 3 26 2 27 -49 27 -46
0 -55 -4 -90 -39 l-39 -39 0 33 c0 33 -13 45 -50 45 -10 0 -21 -4 -24 -8z"/>
<path d="M2616 3902 c-4 -7 -9 -363 -6 -485 0 -15 7 -18 38 -15 l37 3 3 244
c2 189 -1 246 -10 253 -17 10 -55 10 -62 0z"/>
<path d="M3974 3896 c-3 -8 -4 -101 -2 -208 3 -215 10 -243 71 -275 64 -34
187 -17 228 33 13 16 14 15 19 -12 4 -25 10 -29 43 -32 l37 -3 -2 253 -3 253
-35 0 -35 0 -5 -187 c-5 -169 -7 -189 -26 -215 -29 -39 -88 -58 -137 -43 -65
19 -71 39 -77 255 l-5 190 -33 3 c-21 2 -34 -2 -38 -12z"/>
<path d="M6830 3450 l0 -50 44 0 c49 0 60 17 49 71 -5 27 -9 29 -49 29 l-44 0
0 -50z"/>
</g>
</svg>
