<!DOCTYPE svg PUBLIC "-//W3C//DTD SVG 1.1//EN" "http://www.w3.org/Graphics/SVG/1.1/DTD/svg11.dtd">
<!-- Uploaded to: SVG Repo, www.svgrepo.com, Transformed by: SVG Repo Mixer Tools -->
<svg version="1.1" id="Layer_1" xmlns="http://www.w3.org/2000/svg" xmlns:xlink="http://www.w3.org/1999/xlink" viewBox="0 0 512 512" xml:space="preserve" width="800px" height="800px" fill="#000000">
<g id="SVGRepo_bgCarrier" stroke-width="0"/>
<g id="SVGRepo_tracerCarrier" stroke-linecap="round" stroke-linejoin="round"/>
<g id="SVGRepo_iconCarrier"> <polygon style="fill:#D8D1D0;" points="449.362,460.255 503.83,438.468 503.83,247.83 449.362,226.043 "/> <polygon style="fill:#F0EBEA;" points="471.149,226.043 8.17,247.83 8.17,438.468 471.149,460.255 "/> <polygon style="fill:#7F7774;" points="471.149,503.83 503.83,503.83 503.83,438.468 471.149,438.468 449.362,471.149 "/> <rect x="8.17" y="438.468" style="fill:#A99E9B;" width="462.979" height="65.362"/> <polygon style="fill:#95341D;" points="471.149,182.468 449.362,215.149 471.149,247.83 503.83,247.83 503.83,182.468 "/> <rect x="8.17" y="182.468" style="fill:#E26142;" width="462.979" height="65.362"/> <polygon style="fill:#C1B8B5;" points="256,106.213 152.511,145.637 152.511,178.318 315.915,482.043 359.489,471.149 359.489,145.637 "/> <polygon style="fill:#D8D1D0;" points="256,138.894 152.511,178.318 152.511,471.149 326.809,471.149 326.809,165.868 "/> <circle style="fill:#FFFFFF;" cx="256" cy="215.149" r="32.681"/> <rect x="256" y="19.064" style="fill:#FFD159;" width="65.362" height="43.574"/> <rect x="185.191" y="340.426" style="fill:#FFFFFF;" width="70.809" height="98.043"/> <rect x="256" y="340.426" style="fill:#D1FDF2;" width="70.809" height="98.043"/> <polygon style="fill:#7F7774;" points="294.128,438.468 283.234,482.043 326.809,482.043 326.809,438.468 "/> <rect x="185.191" y="438.468" style="fill:#A99E9B;" width="108.936" height="43.574"/> <polygon style="fill:#554F4E;" points="326.809,471.149 315.915,487.489 326.809,503.83 359.489,503.83 359.489,471.149 "/> <rect x="152.511" y="471.149" style="fill:#7F7774;" width="174.298" height="32.681"/> <path d="M503.83,174.298H392.17c-4.513,0-8.17,3.657-8.17,8.17s3.657,8.17,8.17,8.17H495.66v49.021H392.17 c-4.513,0-8.17,3.657-8.17,8.17c0,4.513,3.657,8.17,8.17,8.17H495.66v174.298H392.17c-4.513,0-8.17,3.657-8.17,8.17 c0,4.513,3.657,8.17,8.17,8.17H495.66v49.021h-128V157.484c0.899,0.318,1.817,0.476,2.722,0.476c3.291,0,6.395-2.004,7.636-5.264 c1.607-4.217-0.51-8.937-4.727-10.544l-109.121-41.57V27.234h49.021v27.234h-24.511c-4.513,0-8.17,3.657-8.17,8.17 s3.657,8.17,8.17,8.17h32.681c4.513,0,8.17-3.657,8.17-8.17V19.064c0-4.513-3.657-8.17-8.17-8.17H264.17V8.17 c0-4.513-3.657-8.17-8.17-8.17s-8.17,3.657-8.17,8.17v92.412l-109.121,41.57c-4.217,1.607-6.332,6.327-4.727,10.544 c1.583,4.156,6.189,6.264,10.359,4.787V495.66h-128v-49.021H119.83c4.513,0,8.17-3.657,8.17-8.17c0-4.513-3.657-8.17-8.17-8.17 H16.34V256H119.83c4.513,0,8.17-3.657,8.17-8.17c0-4.513-3.657-8.17-8.17-8.17H16.34v-49.021H119.83c4.513,0,8.17-3.657,8.17-8.17 s-3.657-8.17-8.17-8.17H8.17c-4.513,0-8.17,3.657-8.17,8.17V503.83c0,4.513,3.657,8.17,8.17,8.17h495.66 c4.513,0,8.17-3.657,8.17-8.17V182.468C512,177.955,508.343,174.298,503.83,174.298z M193.362,462.979v-16.34h125.277v16.34H193.362 z M318.638,348.596v81.702H264.17v-81.702H318.638z M247.83,430.298h-54.468v-81.702h54.468V430.298z M334.979,340.426 c0-4.513-3.657-8.17-8.17-8.17H185.191c-4.513,0-8.17,3.657-8.17,8.17v122.553h-16.34V151.268L256,114.955l95.319,36.313v311.711 h-16.34V340.426z M160.681,479.319h190.638v16.34H160.681V479.319z"/> <path d="M55.83,356.766c-4.513,0-8.17,3.657-8.17,8.17v32.681c0,4.513,3.657,8.17,8.17,8.17s8.17-3.657,8.17-8.17v-32.681 C64,360.423,60.343,356.766,55.83,356.766z"/> <path d="M104.851,356.766c-4.513,0-8.17,3.657-8.17,8.17v32.681c0,4.513,3.657,8.17,8.17,8.17s8.17-3.657,8.17-8.17v-32.681 C113.021,360.423,109.364,356.766,104.851,356.766z"/> <path d="M64,288.681c0-4.513-3.657-8.17-8.17-8.17s-8.17,3.657-8.17,8.17v32.681c0,4.513,3.657,8.17,8.17,8.17s8.17-3.657,8.17-8.17 V288.681z"/> <path d="M113.021,288.681c0-4.513-3.657-8.17-8.17-8.17s-8.17,3.657-8.17,8.17v32.681c0,4.513,3.657,8.17,8.17,8.17 s8.17-3.657,8.17-8.17V288.681z"/> <path d="M448,397.617c0,4.513,3.657,8.17,8.17,8.17s8.17-3.657,8.17-8.17v-32.681c0-4.513-3.657-8.17-8.17-8.17 s-8.17,3.657-8.17,8.17V397.617z"/> <path d="M398.979,397.617c0,4.513,3.657,8.17,8.17,8.17c4.513,0,8.17-3.657,8.17-8.17v-32.681c0-4.513-3.657-8.17-8.17-8.17 c-4.513,0-8.17,3.657-8.17,8.17V397.617z"/> <path d="M456.17,329.532c4.513,0,8.17-3.657,8.17-8.17v-32.681c0-4.513-3.657-8.17-8.17-8.17s-8.17,3.657-8.17,8.17v32.681 C448,325.875,451.657,329.532,456.17,329.532z"/> <path d="M407.149,329.532c4.513,0,8.17-3.657,8.17-8.17v-32.681c0-4.513-3.657-8.17-8.17-8.17c-4.513,0-8.17,3.657-8.17,8.17v32.681 C398.979,325.875,402.636,329.532,407.149,329.532z"/> <path d="M256,174.298c-22.526,0-40.851,18.325-40.851,40.851S233.474,256,256,256c22.526,0,40.851-18.325,40.851-40.851 S278.526,174.298,256,174.298z M256,239.66c-13.515,0-24.511-10.996-24.511-24.511c0-13.515,10.996-24.511,24.511-24.511 c13.515,0,24.511,10.996,24.511,24.511C280.511,228.664,269.515,239.66,256,239.66z"/> </g>
</svg>