<svg xmlns="http://www.w3.org/2000/svg" width="512" height="512" viewBox="0 0 512 512" version="1.1"><path d="M 60.734 33.077 C 51.897 35.185, 43.720 40.822, 38.645 48.304 C 31.618 58.665, 31.935 52.471, 32.233 173.566 L 32.500 282.500 35.188 288.236 C 38.623 295.564, 46.436 303.377, 53.764 306.812 L 59.500 309.500 130.750 309.782 L 202 310.064 202 377.875 C 202 442.387, 202.094 445.961, 203.940 451.327 C 208.886 465.703, 220.979 476.151, 235.960 478.992 C 239.307 479.627, 278.332 480, 341.426 480 C 450.613 480, 447.432 480.155, 458.186 474.302 C 464.550 470.839, 472.516 462.304, 475.502 455.753 C 476.818 452.864, 478.365 447.575, 478.940 444 C 480.255 435.818, 480.354 247.227, 479.048 238.194 C 477.015 224.136, 468.335 212.245, 455.490 205.920 L 448.545 202.500 379.304 202.217 L 310.064 201.935 309.782 131.195 L 309.500 60.455 306.259 53.873 C 302.355 45.945, 295.201 38.922, 287.218 35.180 L 281.500 32.500 173 32.340 C 111.703 32.249, 62.862 32.570, 60.734 33.077 M 62.763 58.565 C 56.699 61.856, 57 55.919, 57 172.050 L 57 278.200 60.400 281.600 L 63.800 285 170.435 285 C 288.026 285, 280.178 285.423, 283.551 278.901 C 285.787 274.578, 285.721 67.296, 283.483 62.967 C 280.226 56.670, 286.433 56.996, 170.800 57.040 C 79.611 57.075, 65.133 57.279, 62.763 58.565 M 351.367 70.866 C 346.882 73.675, 345 76.844, 345 81.588 C 345 88.268, 351.168 94, 358.356 94 C 362.135 94, 377.845 98.824, 384.664 102.078 C 401.703 110.210, 413.961 124.755, 417.887 141.500 C 418.532 144.250, 419.458 150.090, 419.945 154.478 C 420.763 161.851, 421.101 162.705, 424.401 165.728 C 430.927 171.709, 440.208 169.533, 443.687 161.206 C 445.400 157.107, 444.818 148.788, 441.945 136.291 C 434.903 105.667, 410.117 81.683, 376.103 72.580 C 362.535 68.949, 355.236 68.444, 351.367 70.866 M 163.314 95.950 C 158.791 98.708, 157.794 101.202, 157.225 111.189 L 156.723 120 135.199 120 C 114.279 120, 113.561 120.067, 109.577 122.402 C 107.190 123.801, 104.439 126.619, 102.989 129.152 C 100.540 133.431, 100.500 133.857, 100.500 156 C 100.500 168.375, 100.844 179.729, 101.264 181.232 C 102.323 185.014, 107.820 191.027, 111.702 192.649 C 114.070 193.638, 120.565 194, 135.968 194 L 157 194 157.056 216.250 C 157.093 230.743, 157.529 239.708, 158.306 241.965 C 160.645 248.756, 169.725 252.047, 175.960 248.364 C 181.694 244.977, 182 243.420, 182 217.596 L 182 194 203.550 194 C 221.434 194, 225.644 193.724, 228.300 192.379 C 232.845 190.078, 234.940 188.034, 237.106 183.790 C 238.803 180.466, 239 177.675, 239 157.008 C 239 131.891, 238.620 129.720, 233.373 124.814 C 228.648 120.395, 226.188 120, 203.435 120 L 182 120 182 111.404 C 182 105.242, 181.537 102.025, 180.364 100.040 C 176.878 94.137, 169.277 92.314, 163.314 95.950 M 125 157 L 125 170 141 170 L 157 170 157 157 L 157 144 141 144 L 125 144 125 157 M 182 157 L 182 170 197.883 170 C 216.566 170, 214.965 171.428, 214.986 154.750 L 215 144 198.500 144 L 182 144 182 157 M 309.821 253.750 C 309.500 281.470, 309.497 281.506, 306.812 287.235 C 303.089 295.180, 299.684 299.352, 293.660 303.350 C 284.552 309.395, 280.746 310, 251.818 310 L 226 310 226.006 374.750 C 226.009 414.159, 226.397 440.887, 226.996 443.044 C 228.113 447.065, 233.128 452.360, 237.315 453.939 C 239.232 454.661, 272.228 455, 340.749 455 C 439.086 455, 441.461 454.955, 445.434 453.015 C 447.670 451.923, 450.625 449.369, 452 447.338 L 454.500 443.647 454.764 342.064 L 455.028 240.480 452.764 236.049 C 450.100 230.835, 446.827 228.211, 441.423 226.957 C 439.265 226.457, 408.844 226.037, 373.821 226.024 L 310.141 226 309.821 253.750 M 341.314 279.950 C 339.561 281.019, 337.703 282.705, 337.184 283.696 C 333.878 290.013, 292.001 398.498, 292.004 400.736 C 292.015 409.191, 301.723 415.124, 309.503 411.432 C 313.606 409.485, 314.923 407.220, 320.966 391.731 L 325.166 380.962 347.272 381.231 L 369.378 381.500 373.992 393.500 C 379.876 408.801, 380.230 409.407, 384.463 411.415 C 391.710 414.854, 400.627 410.202, 401.668 402.440 C 402.144 398.892, 399.537 391.396, 380.980 342.940 C 369.302 312.448, 359.107 286.243, 358.325 284.706 C 356.530 281.179, 351.405 278.007, 347.500 278.007 C 345.850 278.007, 343.066 278.882, 341.314 279.950 M 341.091 340.591 C 337.715 349.224, 335.128 356.462, 335.342 356.675 C 335.556 356.889, 341.135 356.937, 347.740 356.782 L 359.749 356.500 353.820 341.028 C 350.558 332.519, 347.741 325.408, 347.559 325.226 C 347.377 325.044, 344.466 331.958, 341.091 340.591 M 78.420 334.885 C 71.940 338.837, 71.530 346.408, 76.898 363 C 88.361 398.435, 114.067 423.411, 148.509 432.578 C 156.569 434.724, 158.627 434.948, 161.510 433.997 C 168.917 431.552, 172.183 423.122, 168.490 415.980 C 166.599 412.323, 164.850 411.391, 155.283 408.945 C 126.620 401.614, 106.296 380.412, 98.531 349.741 C 95.562 338.012, 94.798 336.464, 91.020 334.510 C 87.071 332.468, 82.143 332.615, 78.420 334.885" stroke="none" fill="#686464" fill-rule="evenodd"/></svg>