<?xml version="1.0" encoding="UTF-8"?>
<!DOCTYPE svg PUBLIC "-//W3C//DTD SVG 1.1//EN" "http://www.w3.org/Graphics/SVG/1.1/DTD/svg11.dtd">
<svg xmlns="http://www.w3.org/2000/svg" version="1.1" width="512px" height="512px" style="shape-rendering:geometricPrecision; text-rendering:geometricPrecision; image-rendering:optimizeQuality; fill-rule:evenodd; clip-rule:evenodd" xmlns:xlink="http://www.w3.org/1999/xlink">
<g><path style="opacity:1" fill="#3f3d3f" d="M 259.5,106.5 C 256.833,105.167 254.167,105.167 251.5,106.5C 251.805,101.238 251.471,96.0717 250.5,91C 233.48,87.3699 216.647,83.2033 200,78.5C 198.788,75.1658 199.621,72.6658 202.5,71C 219.878,64.0971 237.378,57.5971 255,51.5C 256.436,51.5589 257.769,51.8922 259,52.5C 259.5,70.4969 259.667,88.4969 259.5,106.5 Z"/></g>
<g><path style="opacity:1" fill="#e02e21" d="M 249.5,61.5 C 251.461,68.0869 252.128,75.0869 251.5,82.5C 240.383,80.304 229.383,77.6373 218.5,74.5C 228.981,70.345 239.314,66.0116 249.5,61.5 Z"/></g>
<g><path style="opacity:0.992" fill="#6f6f72" d="M 259.5,106.5 C 276.803,118.478 293.803,130.812 310.5,143.5C 314.143,146.135 317.81,148.801 321.5,151.5C 341.256,166.223 361.256,180.723 381.5,195C 385.533,198.168 386.367,202.001 384,206.5C 378.549,214.286 372.715,221.786 366.5,229C 364.5,229.667 362.5,229.667 360.5,229C 354.805,225.157 349.138,221.323 343.5,217.5C 341.14,215.147 338.473,213.147 335.5,211.5C 308.901,192.188 282.234,172.855 255.5,153.5C 228.804,172.843 202.137,192.176 175.5,211.5C 172.527,213.147 169.86,215.147 167.5,217.5C 162.38,220.78 157.38,224.28 152.5,228C 149.97,229.422 147.303,229.755 144.5,229C 138.285,221.786 132.451,214.286 127,206.5C 124.633,202.001 125.467,198.168 129.5,195C 149.744,180.723 169.744,166.223 189.5,151.5C 193.382,149.066 197.048,146.399 200.5,143.5C 217.197,130.812 234.197,118.478 251.5,106.5C 254.167,105.167 256.833,105.167 259.5,106.5 Z"/></g>
<g><path style="opacity:1" fill="#fdfdfd" d="M 253.5,114.5 C 254.873,114.343 256.207,114.51 257.5,115C 296.167,143 334.833,171 373.5,199C 374.687,200.019 375.687,201.186 376.5,202.5C 372.491,209.185 367.991,215.518 363,221.5C 327.255,195.378 291.422,169.378 255.5,143.5C 219.807,169.693 183.973,195.693 148,221.5C 142.6,215.326 138.267,208.659 135,201.5C 174.682,172.637 214.182,143.637 253.5,114.5 Z"/></g>
<g><path style="opacity:0.972" fill="#152e47" d="M 200.5,143.5 C 197.048,146.399 193.382,149.066 189.5,151.5C 156.832,151.333 124.165,151.5 91.5,152C 73.4306,157.069 61.5972,168.569 56,186.5C 51.4539,209.395 47.6205,232.395 44.5,255.5C 41.3915,255.264 38.3915,255.597 35.5,256.5C 39.418,231.076 43.918,205.742 49,180.5C 56.1246,161.34 69.6246,149.173 89.5,144C 126.498,143.5 163.498,143.333 200.5,143.5 Z"/></g>
<g><path style="opacity:0.971" fill="#152e47" d="M 310.5,143.5 C 347.502,143.333 384.502,143.5 421.5,144C 441.791,148.714 455.291,160.881 462,180.5C 466.947,205.852 471.78,231.185 476.5,256.5C 473.214,255.793 469.881,255.46 466.5,255.5C 463.274,232.421 459.441,209.421 455,186.5C 448.805,166.298 435.305,154.798 414.5,152C 383.502,151.5 352.502,151.333 321.5,151.5C 317.81,148.801 314.143,146.135 310.5,143.5 Z"/></g>
<g><path style="opacity:1" fill="#3e587f" d="M 189.5,151.5 C 169.744,166.223 149.744,180.723 129.5,195C 125.467,198.168 124.633,202.001 127,206.5C 132.451,214.286 138.285,221.786 144.5,229C 147.303,229.755 149.97,229.422 152.5,228C 157.38,224.28 162.38,220.78 167.5,217.5C 167.5,230.167 167.5,242.833 167.5,255.5C 126.5,255.5 85.5,255.5 44.5,255.5C 47.6205,232.395 51.4539,209.395 56,186.5C 61.5972,168.569 73.4306,157.069 91.5,152C 124.165,151.5 156.832,151.333 189.5,151.5 Z"/></g>
<g><path style="opacity:1" fill="#3f587f" d="M 321.5,151.5 C 352.502,151.333 383.502,151.5 414.5,152C 435.305,154.798 448.805,166.298 455,186.5C 459.441,209.421 463.274,232.421 466.5,255.5C 425.5,255.5 384.5,255.5 343.5,255.5C 343.5,242.833 343.5,230.167 343.5,217.5C 349.138,221.323 354.805,225.157 360.5,229C 362.5,229.667 364.5,229.667 366.5,229C 372.715,221.786 378.549,214.286 384,206.5C 386.367,202.001 385.533,198.168 381.5,195C 361.256,180.723 341.256,166.223 321.5,151.5 Z"/></g>
<g><path style="opacity:1" fill="#fe8947" d="M 335.5,211.5 C 335.5,290.167 335.5,368.833 335.5,447.5C 330.167,447.5 324.833,447.5 319.5,447.5C 319.986,398.774 319.486,350.107 318,301.5C 313.148,289.483 304.315,282.316 291.5,280C 279,279.833 266.5,279.667 254,279.5C 240.434,279.36 226.934,279.86 213.5,281C 203.333,284.5 196.5,291.333 193,301.5C 191.514,350.107 191.014,398.774 191.5,447.5C 186.167,447.5 180.833,447.5 175.5,447.5C 175.5,368.833 175.5,290.167 175.5,211.5C 202.137,192.176 228.804,172.843 255.5,153.5C 282.234,172.855 308.901,192.188 335.5,211.5 Z"/></g>
<g><path style="opacity:1" fill="#464343" d="M 248.5,183.5 C 275.339,182.838 288.172,195.838 287,222.5C 280.734,240.887 267.901,249.054 248.5,247C 230.128,240.772 221.961,227.938 224,208.5C 227.683,195.651 235.85,187.318 248.5,183.5 Z"/></g>
<g><path style="opacity:1" fill="#fbfbfb" d="M 249.5,191.5 C 263.817,190.238 273.65,196.238 279,209.5C 280.828,224.345 274.661,234.178 260.5,239C 246.246,240.955 236.746,235.121 232,221.5C 229.861,206.769 235.695,196.769 249.5,191.5 Z"/></g>
<g><path style="opacity:1" fill="#464547" d="M 257.5,199.5 C 260.864,198.873 262.864,200.206 263.5,203.5C 261.947,208.274 260.114,212.94 258,217.5C 252.895,220.642 247.395,222.475 241.5,223C 239.675,221.534 239.175,219.701 240,217.5C 243.845,215.244 247.845,213.244 252,211.5C 253.363,207.225 255.197,203.225 257.5,199.5 Z"/></g>
<g><path style="opacity:1" fill="#925138" d="M 175.5,211.5 C 175.5,290.167 175.5,368.833 175.5,447.5C 180.833,447.5 186.167,447.5 191.5,447.5C 191.014,398.774 191.514,350.107 193,301.5C 196.5,291.333 203.333,284.5 213.5,281C 226.934,279.86 240.434,279.36 254,279.5C 266.5,279.667 279,279.833 291.5,280C 304.315,282.316 313.148,289.483 318,301.5C 319.486,350.107 319.986,398.774 319.5,447.5C 324.833,447.5 330.167,447.5 335.5,447.5C 335.5,368.833 335.5,290.167 335.5,211.5C 338.473,213.147 341.14,215.147 343.5,217.5C 343.5,230.167 343.5,242.833 343.5,255.5C 343.5,258.167 343.5,260.833 343.5,263.5C 343.5,268.833 343.5,274.167 343.5,279.5C 343.5,282.167 343.5,284.833 343.5,287.5C 343.5,340.833 343.5,394.167 343.5,447.5C 380.833,447.5 418.167,447.5 455.5,447.5C 455.5,394.167 455.5,340.833 455.5,287.5C 458.167,287.5 460.833,287.5 463.5,287.5C 463.667,342.168 463.5,396.834 463,451.5C 462.626,452.416 462.126,453.25 461.5,454C 392.914,455.164 324.248,455.664 255.5,455.5C 186.752,455.664 118.086,455.164 49.5,454C 48.8742,453.25 48.3742,452.416 48,451.5C 47.5,396.834 47.3333,342.168 47.5,287.5C 50.1667,287.5 52.8333,287.5 55.5,287.5C 55.5,340.833 55.5,394.167 55.5,447.5C 92.8333,447.5 130.167,447.5 167.5,447.5C 167.5,394.167 167.5,340.833 167.5,287.5C 167.5,284.833 167.5,282.167 167.5,279.5C 167.5,274.167 167.5,268.833 167.5,263.5C 167.5,260.833 167.5,258.167 167.5,255.5C 167.5,242.833 167.5,230.167 167.5,217.5C 169.86,215.147 172.527,213.147 175.5,211.5 Z"/></g>
<g><path style="opacity:0.999" fill="#6c6d70" d="M 44.5,255.5 C 85.5,255.5 126.5,255.5 167.5,255.5C 167.5,258.167 167.5,260.833 167.5,263.5C 124.833,263.5 82.1667,263.5 39.5,263.5C 39.5,268.833 39.5,274.167 39.5,279.5C 82.1667,279.5 124.833,279.5 167.5,279.5C 167.5,282.167 167.5,284.833 167.5,287.5C 130.167,287.5 92.8333,287.5 55.5,287.5C 52.8333,287.5 50.1667,287.5 47.5,287.5C 43.4862,287.666 39.4862,287.499 35.5,287C 33.6667,286.5 32.5,285.333 32,283.5C 31.3333,275.5 31.3333,267.5 32,259.5C 32.4224,257.574 33.5891,256.574 35.5,256.5C 38.3915,255.597 41.3915,255.264 44.5,255.5 Z"/></g>
<g><path style="opacity:1" fill="#6c6d70" d="M 343.5,255.5 C 384.5,255.5 425.5,255.5 466.5,255.5C 469.881,255.46 473.214,255.793 476.5,256.5C 477.79,257.058 478.623,258.058 479,259.5C 479.186,266.414 479.686,273.247 480.5,280C 479.801,283.08 478.134,285.414 475.5,287C 471.514,287.499 467.514,287.666 463.5,287.5C 460.833,287.5 458.167,287.5 455.5,287.5C 418.167,287.5 380.833,287.5 343.5,287.5C 343.5,284.833 343.5,282.167 343.5,279.5C 386.167,279.5 428.833,279.5 471.5,279.5C 471.5,274.167 471.5,268.833 471.5,263.5C 428.833,263.5 386.167,263.5 343.5,263.5C 343.5,260.833 343.5,258.167 343.5,255.5 Z"/></g>
<g><path style="opacity:1" fill="#fefffe" d="M 167.5,263.5 C 167.5,268.833 167.5,274.167 167.5,279.5C 124.833,279.5 82.1667,279.5 39.5,279.5C 39.5,274.167 39.5,268.833 39.5,263.5C 82.1667,263.5 124.833,263.5 167.5,263.5 Z"/></g>
<g><path style="opacity:1" fill="#fefffe" d="M 343.5,263.5 C 386.167,263.5 428.833,263.5 471.5,263.5C 471.5,268.833 471.5,274.167 471.5,279.5C 428.833,279.5 386.167,279.5 343.5,279.5C 343.5,274.167 343.5,268.833 343.5,263.5 Z"/></g>
<g><path style="opacity:1" fill="#fe8947" d="M 55.5,287.5 C 92.8333,287.5 130.167,287.5 167.5,287.5C 167.5,340.833 167.5,394.167 167.5,447.5C 130.167,447.5 92.8333,447.5 55.5,447.5C 55.5,394.167 55.5,340.833 55.5,287.5 Z"/></g>
<g><path style="opacity:1" fill="#b45521" d="M 295.5,447.5 C 295.5,416.5 295.5,385.5 295.5,354.5C 295.666,347.159 295.5,339.826 295,332.5C 294.535,331.069 293.701,329.903 292.5,329C 280.259,327.852 267.925,327.352 255.5,327.5C 243.075,327.352 230.741,327.852 218.5,329C 217.299,329.903 216.465,331.069 216,332.5C 215.5,339.826 215.334,347.159 215.5,354.5C 215.5,385.5 215.5,416.5 215.5,447.5C 210.167,447.5 204.833,447.5 199.5,447.5C 199.014,399.107 199.514,350.774 201,302.5C 204.643,295.522 210.143,290.689 217.5,288C 242.833,287.333 268.167,287.333 293.5,288C 300.881,290.716 306.381,295.549 310,302.5C 311.486,350.774 311.986,399.107 311.5,447.5C 306.167,447.5 300.833,447.5 295.5,447.5 Z"/></g>
<g><path style="opacity:1" fill="#fe8947" d="M 343.5,287.5 C 380.833,287.5 418.167,287.5 455.5,287.5C 455.5,340.833 455.5,394.167 455.5,447.5C 418.167,447.5 380.833,447.5 343.5,447.5C 343.5,394.167 343.5,340.833 343.5,287.5 Z"/></g>
<g><path style="opacity:1" fill="#1f3350" d="M 295.5,354.5 C 293.846,357.666 291.179,359.333 287.5,359.5C 278.167,359.5 268.833,359.5 259.5,359.5C 256.833,359.5 254.167,359.5 251.5,359.5C 242.167,359.5 232.833,359.5 223.5,359.5C 219.821,359.333 217.154,357.666 215.5,354.5C 215.334,347.159 215.5,339.826 216,332.5C 216.465,331.069 217.299,329.903 218.5,329C 230.741,327.852 243.075,327.352 255.5,327.5C 267.925,327.352 280.259,327.852 292.5,329C 293.701,329.903 294.535,331.069 295,332.5C 295.5,339.826 295.666,347.159 295.5,354.5 Z"/></g>
<g><path style="opacity:1" fill="#3f5980" d="M 223.5,335.5 C 244.833,335.5 266.167,335.5 287.5,335.5C 287.5,340.833 287.5,346.167 287.5,351.5C 266.167,351.5 244.833,351.5 223.5,351.5C 223.5,346.167 223.5,340.833 223.5,335.5 Z"/></g>
<g><path style="opacity:1" fill="#5c566c" d="M 68.5,343.5 C 78.1724,343.334 87.8391,343.5 97.5,344C 99.3289,344.273 100.829,345.107 102,346.5C 103.617,356.734 103.95,367.067 103,377.5C 102.727,379.329 101.893,380.829 100.5,382C 89.9066,383.595 79.24,383.928 68.5,383C 67.0692,382.535 65.9025,381.701 65,380.5C 63.4049,369.907 63.0716,359.24 64,348.5C 65.025,346.313 66.525,344.646 68.5,343.5 Z"/></g>
<g><path style="opacity:1" fill="#5c566c" d="M 124.5,343.5 C 134.172,343.334 143.839,343.5 153.5,344C 155.329,344.273 156.829,345.107 158,346.5C 159.617,356.734 159.95,367.067 159,377.5C 158.727,379.329 157.893,380.829 156.5,382C 145.907,383.595 135.24,383.928 124.5,383C 123.069,382.535 121.903,381.701 121,380.5C 119.405,369.907 119.072,359.24 120,348.5C 121.025,346.313 122.525,344.646 124.5,343.5 Z"/></g>
<g><path style="opacity:1" fill="#5c566c" d="M 356.5,343.5 C 366.172,343.334 375.839,343.5 385.5,344C 387.329,344.273 388.829,345.107 390,346.5C 391.617,356.734 391.95,367.067 391,377.5C 390.727,379.329 389.893,380.829 388.5,382C 377.907,383.595 367.24,383.928 356.5,383C 355.069,382.535 353.903,381.701 353,380.5C 351.405,369.907 351.072,359.24 352,348.5C 353.025,346.313 354.525,344.646 356.5,343.5 Z"/></g>
<g><path style="opacity:1" fill="#5c566c" d="M 412.5,343.5 C 422.172,343.334 431.839,343.5 441.5,344C 443.329,344.273 444.829,345.107 446,346.5C 447.617,356.734 447.95,367.067 447,377.5C 446.727,379.329 445.893,380.829 444.5,382C 433.907,383.595 423.24,383.928 412.5,383C 411.069,382.535 409.903,381.701 409,380.5C 407.405,369.907 407.072,359.24 408,348.5C 409.025,346.313 410.525,344.646 412.5,343.5 Z"/></g>
<g><path style="opacity:1" fill="#7ec2ff" d="M 71.5,351.5 C 79.5,351.5 87.5,351.5 95.5,351.5C 95.5,359.5 95.5,367.5 95.5,375.5C 87.5,375.5 79.5,375.5 71.5,375.5C 71.5,367.5 71.5,359.5 71.5,351.5 Z"/></g>
<g><path style="opacity:1" fill="#7ec2ff" d="M 127.5,351.5 C 135.5,351.5 143.5,351.5 151.5,351.5C 151.5,359.5 151.5,367.5 151.5,375.5C 143.5,375.5 135.5,375.5 127.5,375.5C 127.5,367.5 127.5,359.5 127.5,351.5 Z"/></g>
<g><path style="opacity:1" fill="#7ec2ff" d="M 359.5,351.5 C 367.5,351.5 375.5,351.5 383.5,351.5C 383.5,359.5 383.5,367.5 383.5,375.5C 375.5,375.5 367.5,375.5 359.5,375.5C 359.5,367.5 359.5,359.5 359.5,351.5 Z"/></g>
<g><path style="opacity:1" fill="#7ec2ff" d="M 415.5,351.5 C 423.5,351.5 431.5,351.5 439.5,351.5C 439.5,359.5 439.5,367.5 439.5,375.5C 431.5,375.5 423.5,375.5 415.5,375.5C 415.5,367.5 415.5,359.5 415.5,351.5 Z"/></g>
<g><path style="opacity:1" fill="#403f42" d="M 215.5,354.5 C 217.154,357.666 219.821,359.333 223.5,359.5C 223.5,388.833 223.5,418.167 223.5,447.5C 220.833,447.5 218.167,447.5 215.5,447.5C 215.5,416.5 215.5,385.5 215.5,354.5 Z"/></g>
<g><path style="opacity:1" fill="#403f42" d="M 295.5,354.5 C 295.5,385.5 295.5,416.5 295.5,447.5C 292.833,447.5 290.167,447.5 287.5,447.5C 287.5,418.167 287.5,388.833 287.5,359.5C 291.179,359.333 293.846,357.666 295.5,354.5 Z"/></g>
<g><path style="opacity:1" fill="#7ec2ff" d="M 223.5,359.5 C 232.833,359.5 242.167,359.5 251.5,359.5C 251.5,388.833 251.5,418.167 251.5,447.5C 242.167,447.5 232.833,447.5 223.5,447.5C 223.5,418.167 223.5,388.833 223.5,359.5 Z"/></g>
<g><path style="opacity:1" fill="#5a566c" d="M 251.5,359.5 C 254.167,359.5 256.833,359.5 259.5,359.5C 259.5,388.833 259.5,418.167 259.5,447.5C 256.833,447.5 254.167,447.5 251.5,447.5C 251.5,418.167 251.5,388.833 251.5,359.5 Z"/></g>
<g><path style="opacity:1" fill="#7ec2ff" d="M 259.5,359.5 C 268.833,359.5 278.167,359.5 287.5,359.5C 287.5,388.833 287.5,418.167 287.5,447.5C 278.167,447.5 268.833,447.5 259.5,447.5C 259.5,418.167 259.5,388.833 259.5,359.5 Z"/></g>
</svg>
