<?xml version="1.0" encoding="UTF-8"?>
<!DOCTYPE svg PUBLIC "-//W3C//DTD SVG 1.1//EN" "http://www.w3.org/Graphics/SVG/1.1/DTD/svg11.dtd">
<svg xmlns="http://www.w3.org/2000/svg" version="1.1" width="271px" height="271px" style="shape-rendering:geometricPrecision; text-rendering:geometricPrecision; image-rendering:optimizeQuality; fill-rule:evenodd; clip-rule:evenodd" xmlns:xlink="http://www.w3.org/1999/xlink">
<g><path style="opacity:0.997" fill="#ed1e26" d="M 120.5,-0.5 C 130.167,-0.5 139.833,-0.5 149.5,-0.5C 206.731,8.21792 245.231,39.8846 265,94.5C 267.278,102.877 269.111,111.21 270.5,119.5C 270.5,130.167 270.5,140.833 270.5,151.5C 257.832,218.168 218.165,257.835 151.5,270.5C 140.5,270.5 129.5,270.5 118.5,270.5C 51.8345,257.835 12.1679,218.168 -0.5,151.5C -0.5,140.5 -0.5,129.5 -0.5,118.5C 9.19812,62.3001 40.8648,24.4668 94.5,5C 103.193,2.61286 111.86,0.779523 120.5,-0.5 Z"/></g>
<g><path style="opacity:1" fill="#e0e71d" d="M 139.5,34.5 C 141.614,35.784 142.614,37.784 142.5,40.5C 150.102,39.5824 150.935,40.9158 145,44.5C 144.658,46.8183 145.158,48.985 146.5,51C 146.167,51.1667 145.833,51.3333 145.5,51.5C 144.071,50.065 142.405,49.065 140.5,48.5C 138.526,49.7041 136.526,50.5375 134.5,51C 135.24,49.2151 135.907,47.3817 136.5,45.5C 134.874,44.0095 133.208,42.5095 131.5,41C 133.81,40.5034 136.143,40.3367 138.5,40.5C 138.833,38.5 139.167,36.5 139.5,34.5 Z"/></g>
<g><path style="opacity:1" fill="#e0e21c" d="M 67.5,40.5 C 71.8997,52.5251 76.233,64.6918 80.5,77C 93.5,77.3333 106.5,77.6667 119.5,78C 109.333,85.5 99.1667,93 89,100.5C 91.8009,113.241 95.6342,125.741 100.5,138C 89.4236,131.182 78.5903,123.682 68,115.5C 57.4097,123.682 46.5764,131.182 35.5,138C 39.5218,126.936 43.3552,115.769 47,104.5C 47.6667,103.167 47.6667,101.833 47,100.5C 36.8333,93 26.6667,85.5 16.5,78C 29.5,77.6667 42.5,77.3333 55.5,77C 60.0003,64.999 64.0003,52.8323 67.5,40.5 Z"/></g>
<g><path style="opacity:1" fill="#e0e61d" d="M 171.5,66.5 C 172.864,68.22 173.864,70.22 174.5,72.5C 176.766,73.3142 179.1,73.8142 181.5,74C 176.761,76.1331 175.261,79.6331 177,84.5C 175.333,83.1667 173.667,81.8333 172,80.5C 166.513,86.4888 165.346,85.8221 168.5,78.5C 166.641,76.8076 164.641,75.3076 162.5,74C 168.714,75.2115 171.714,72.7115 171.5,66.5 Z"/></g>
<g><path style="opacity:1" fill="#e0e61d" d="M 171.5,111.5 C 172.864,113.22 173.864,115.22 174.5,117.5C 176.766,118.314 179.1,118.814 181.5,119C 176.761,121.133 175.261,124.633 177,129.5C 175.333,128.167 173.667,126.833 172,125.5C 166.513,131.489 165.346,130.822 168.5,123.5C 166.641,121.808 164.641,120.308 162.5,119C 168.714,120.211 171.714,117.711 171.5,111.5 Z"/></g>
<g><path style="opacity:1" fill="#e0e71c" d="M 139.5,147.5 C 141.614,148.784 142.614,150.784 142.5,153.5C 150.102,152.582 150.935,153.916 145,157.5C 145.218,159.587 145.051,161.587 144.5,163.5C 143.167,162.5 141.833,161.5 140.5,160.5C 134.736,166.359 133.403,165.692 136.5,158.5C 135.252,156.541 133.585,155.041 131.5,154C 133.81,153.503 136.143,153.337 138.5,153.5C 138.833,151.5 139.167,149.5 139.5,147.5 Z"/></g>
</svg>
